  0
SECTION
  2
HEADER
  9
$ANGBASE
  50
0.0
  9
$ANGDIR
  70
1
  9
$MEASUREMENT
  70
0
  0
ENDSEC
  0
SECTION
  2
TABLES
  0
TABLE
  2
LTYPE
  70
4
  0
LTYPE
  5
40F
  2
CONTINUOUS
  70
0
  3
Solid line
  72
65
  73
0
  40
0.0
  0
LTYPE
  5
410
  2
DASHDOT
 70
0
  3
Dash Dot ____ _ ____ _
 72
65
 73
4
 40
2.0
 49
1.25
 49
-0.25
 49
0.25
 49
-0.25
  0
LTYPE
  5
411
  2
DASHED
 70
0
  3
Dashed __ __ __ __ __
 72
65
 73
2
 40
0.75
 49
0.5
 49
-0.25
  0
LTYPE
  5
43B
  2
DOTTED
 70
0
  3
Dotted .  .  .  .
 72
65
 73
2
 40
0.2
 49
0.0
 49
-0.2
  0
ENDTAB
  0
TABLE
  2
STYLE
  70
4
  0
STYLE
  2
KICAD
  70
0
  40
0
  41
1
  42
1
  50
0
  71
0
  3
isocp.shx
  0
STYLE
  2
KICADB
  70
0
  40
0
  41
1
  42
1
  50
0
  71
0
  3
isocp.shx
  0
STYLE
  2
KICADI
  70
0
  40
0
  41
1
  42
1
  50
15
  71
0
  3
isocp.shx
  0
STYLE
  2
KICADBI
  70
0
  40
0
  41
1
  42
1
  50
15
  71
0
  3
isocp.shx
  0
ENDTAB
  0
TABLE
  2
LAYER
  70
1
  0
LAYER
  2
BLACK
  70
0
  62
7
  6
CONTINUOUS
  0
ENDTAB
  0
ENDSEC
  0
SECTION
  2
ENTITIES
0
LINE
8
BLACK
6
CONTINUOUS
10
4.790383503937008
20
-1.2071148425196849
11
4.7905127559055121
21
-1.2070920866141732
0
LINE
8
BLACK
6
CONTINUOUS
10
4.7905127559055121
20
-1.2070920866141732
11
4.7906263385826771
21
-1.2071576771653543
0
LINE
8
BLACK
6
CONTINUOUS
10
4.7906263385826771
20
-1.2071576771653543
11
4.7910099212598425
21
-1.2072253149606298
0
LINE
8
BLACK
6
CONTINUOUS
10
4.7910099212598425
20
-1.2072253149606298
11
4.7915975984251968
21
-1.2077184251968505
0
LINE
8
BLACK
6
CONTINUOUS
10
4.7915975984251968
20
-1.2077184251968505
11
4.7922619291338577
21
-1.2081020078740157
0
LINE
8
BLACK
6
CONTINUOUS
10
4.7922619291338577
20
-1.2081020078740157
11
4.792353031496063
21
-1.2083523228346456
0
LINE
8
BLACK
6
CONTINUOUS
10
4.792353031496063
20
-1.2083523228346456
11
4.7925571653543306
21
-1.2085236220472442
0
LINE
8
BLACK
6
CONTINUOUS
10
4.7925571653543306
20
-1.2085236220472442
11
4.792690393700787
21
-1.2092791732283463
0
LINE
8
BLACK
6
CONTINUOUS
10
4.792690393700787
20
-1.2092791732283463
11
4.7929527559055121
21
-1.21
0
LINE
8
BLACK
6
CONTINUOUS
10
4.7929527559055121
20
-1.21
11
4.7929527559055121
21
-2.79
0
LINE
8
BLACK
6
CONTINUOUS
10
4.7929527559055121
20
-2.79
11
4.7928851181102363
21
-2.790383503937008
0
LINE
8
BLACK
6
CONTINUOUS
10
4.7928851181102363
20
-2.790383503937008
11
4.792907913385827
21
-2.7905127559055116
0
LINE
8
BLACK
6
CONTINUOUS
10
4.792907913385827
20
-2.7905127559055116
11
4.7928422834645668
21
-2.7906263385826771
0
LINE
8
BLACK
6
CONTINUOUS
10
4.7928422834645668
20
-2.7906263385826771
11
4.7927746850393698
21
-2.7910099212598425
0
LINE
8
BLACK
6
CONTINUOUS
10
4.7927746850393698
20
-2.7910099212598425
11
4.7922815354330703
21
-2.7915975984251968
0
LINE
8
BLACK
6
CONTINUOUS
10
4.7922815354330703
20
-2.7915975984251968
11
4.7918979921259846
21
-2.7922619291338582
0
LINE
8
BLACK
6
CONTINUOUS
10
4.7918979921259846
20
-2.7922619291338582
11
4.7916476377952755
21
-2.792353031496063
0
LINE
8
BLACK
6
CONTINUOUS
10
4.7916476377952755
20
-2.792353031496063
11
4.7914763779527556
21
-2.7925571653543306
0
LINE
8
BLACK
6
CONTINUOUS
10
4.7914763779527556
20
-2.7925571653543306
11
4.7907207874015745
21
-2.7926903937007874
0
LINE
8
BLACK
6
CONTINUOUS
10
4.7907207874015745
20
-2.7926903937007874
11
4.79
21
-2.7929527559055116
0
LINE
8
BLACK
6
CONTINUOUS
10
4.79
20
-2.7929527559055116
11
1.6099999999999999
21
-2.7929527559055116
0
LINE
8
BLACK
6
CONTINUOUS
10
1.6099999999999999
20
-2.7929527559055116
11
1.6096164566929134
21
-2.7928851181102363
0
LINE
8
BLACK
6
CONTINUOUS
10
1.6096164566929134
20
-2.7928851181102363
11
1.6094872440944881
21
-2.7929079133858266
0
LINE
8
BLACK
6
CONTINUOUS
10
1.6094872440944881
20
-2.7929079133858266
11
1.6093736220472441
21
-2.7928422834645668
0
LINE
8
BLACK
6
CONTINUOUS
10
1.6093736220472441
20
-2.7928422834645668
11
1.6089900787401574
21
-2.7927746850393702
0
LINE
8
BLACK
6
CONTINUOUS
10
1.6089900787401574
20
-2.7927746850393702
11
1.6084023622047243
21
-2.7922815354330708
0
LINE
8
BLACK
6
CONTINUOUS
10
1.6084023622047243
20
-2.7922815354330708
11
1.6077380708661417
21
-2.7918979921259841
0
LINE
8
BLACK
6
CONTINUOUS
10
1.6077380708661417
20
-2.7918979921259841
11
1.6076469291338582
21
-2.7916476377952755
0
LINE
8
BLACK
6
CONTINUOUS
10
1.6076469291338582
20
-2.7916476377952755
11
1.6074428346456693
21
-2.791476377952756
0
LINE
8
BLACK
6
CONTINUOUS
10
1.6074428346456693
20
-2.791476377952756
11
1.6073095669291337
21
-2.7907207874015749
0
LINE
8
BLACK
6
CONTINUOUS
10
1.6073095669291337
20
-2.7907207874015749
11
1.6070472440944881
21
-2.79
0
LINE
8
BLACK
6
CONTINUOUS
10
1.6070472440944881
20
-2.79
11
1.6070472440944881
21
-1.21
0
LINE
8
BLACK
6
CONTINUOUS
10
1.6070472440944881
20
-1.21
11
1.6071148425196851
21
-1.2096164566929133
0
LINE
8
BLACK
6
CONTINUOUS
10
1.6071148425196851
20
-1.2096164566929133
11
1.6070920866141731
21
-1.2094872440944882
0
LINE
8
BLACK
6
CONTINUOUS
10
1.6070920866141731
20
-1.2094872440944882
11
1.6071576771653544
21
-1.209373622047244
0
LINE
8
BLACK
6
CONTINUOUS
10
1.6071576771653544
20
-1.209373622047244
11
1.6072253149606299
21
-1.2089900787401575
0
LINE
8
BLACK
6
CONTINUOUS
10
1.6072253149606299
20
-1.2089900787401575
11
1.6077184251968504
21
-1.2084023622047244
0
LINE
8
BLACK
6
CONTINUOUS
10
1.6077184251968504
20
-1.2084023622047244
11
1.6081020078740158
21
-1.2077380708661416
0
LINE
8
BLACK
6
CONTINUOUS
10
1.6081020078740158
20
-1.2077380708661416
11
1.6083523228346457
21
-1.2076469291338583
0
LINE
8
BLACK
6
CONTINUOUS
10
1.6083523228346457
20
-1.2076469291338583
11
1.6085236220472441
21
-1.2074428346456694
0
LINE
8
BLACK
6
CONTINUOUS
10
1.6085236220472441
20
-1.2074428346456694
11
1.6092791732283465
21
-1.2073095669291338
0
LINE
8
BLACK
6
CONTINUOUS
10
1.6092791732283465
20
-1.2073095669291338
11
1.6099999999999999
21
-1.2070472440944882
0
LINE
8
BLACK
6
CONTINUOUS
10
1.6099999999999999
20
-1.2070472440944882
11
4.79
21
-1.2070472440944882
0
LINE
8
BLACK
6
CONTINUOUS
10
4.79
20
-1.2070472440944882
11
4.790383503937008
21
-1.2071148425196849
0
LINE
8
BLACK
6
CONTINUOUS
10
1.6129527559055117
20
-1.2129527559055118
11
1.6129527559055117
21
-2.787047244094488
0
LINE
8
BLACK
6
CONTINUOUS
10
1.6129527559055117
20
-2.787047244094488
11
4.787047244094488
21
-2.787047244094488
0
LINE
8
BLACK
6
CONTINUOUS
10
4.787047244094488
20
-2.787047244094488
11
4.787047244094488
21
-1.2129527559055118
0
LINE
8
BLACK
6
CONTINUOUS
10
4.787047244094488
20
-1.2129527559055118
11
1.6129527559055117
21
-1.2129527559055118
  0
ENDSEC
  0
EOF
