  0
SECTION
  2
HEADER
  9
$ANGBASE
  50
0.0
  9
$ANGDIR
  70
1
  9
$MEASUREMENT
  70
0
  0
ENDSEC
  0
SECTION
  2
TABLES
  0
TABLE
  2
LTYPE
  70
4
  0
LTYPE
  5
40F
  2
CONTINUOUS
  70
0
  3
Solid line
  72
65
  73
0
  40
0.0
  0
LTYPE
  5
410
  2
DASHDOT
 70
0
  3
Dash Dot ____ _ ____ _
 72
65
 73
4
 40
2.0
 49
1.25
 49
-0.25
 49
0.25
 49
-0.25
  0
LTYPE
  5
411
  2
DASHED
 70
0
  3
Dashed __ __ __ __ __
 72
65
 73
2
 40
0.75
 49
0.5
 49
-0.25
  0
LTYPE
  5
43B
  2
DOTTED
 70
0
  3
Dotted .  .  .  .
 72
65
 73
2
 40
0.2
 49
0.0
 49
-0.2
  0
ENDTAB
  0
TABLE
  2
STYLE
  70
4
  0
STYLE
  2
KICAD
  70
0
  40
0
  41
1
  42
1
  50
0
  71
0
  3
isocp.shx
  0
STYLE
  2
KICADB
  70
0
  40
0
  41
1
  42
1
  50
0
  71
0
  3
isocp.shx
  0
STYLE
  2
KICADI
  70
0
  40
0
  41
1
  42
1
  50
15
  71
0
  3
isocp.shx
  0
STYLE
  2
KICADBI
  70
0
  40
0
  41
1
  42
1
  50
15
  71
0
  3
isocp.shx
  0
ENDTAB
  0
TABLE
  2
LAYER
  70
1
  0
LAYER
  2
BLACK
  70
0
  62
7
  6
CONTINUOUS
  0
ENDTAB
  0
ENDSEC
  0
SECTION
  2
ENTITIES
0
LINE
8
BLACK
6
CONTINUOUS
10
1.8140627559055118
20
-2.4751897637795275
11
1.8279486220472441
21
-2.4775490551181103
0
LINE
8
BLACK
6
CONTINUOUS
10
1.8279486220472441
20
-2.4775490551181103
11
1.8414830314960628
21
-2.4814482677165355
0
LINE
8
BLACK
6
CONTINUOUS
10
1.8414830314960628
20
-2.4814482677165355
11
1.8544957874015748
21
-2.486838307086614
0
LINE
8
BLACK
6
CONTINUOUS
10
1.8544957874015748
20
-2.486838307086614
11
1.8668232283464568
21
-2.4936514566929135
0
LINE
8
BLACK
6
CONTINUOUS
10
1.8668232283464568
20
-2.4936514566929135
11
1.8783103149606299
21
-2.501801968503937
0
LINE
8
BLACK
6
CONTINUOUS
10
1.8783103149606299
20
-2.501801968503937
11
1.8888125984251969
21
-2.5111874015748032
0
LINE
8
BLACK
6
CONTINUOUS
10
1.8888125984251969
20
-2.5111874015748032
11
1.8981980314960629
21
-2.52168968503937
0
LINE
8
BLACK
6
CONTINUOUS
10
1.8981980314960629
20
-2.52168968503937
11
1.9063485433070866
21
-2.5331767716535434
0
LINE
8
BLACK
6
CONTINUOUS
10
1.9063485433070866
20
-2.5331767716535434
11
1.9131616929133859
21
-2.5455042125984253
0
LINE
8
BLACK
6
CONTINUOUS
10
1.9131616929133859
20
-2.5455042125984253
11
1.9185517322834644
21
-2.5585169685039371
0
LINE
8
BLACK
6
CONTINUOUS
10
1.9185517322834644
20
-2.5585169685039371
11
1.9224509448818896
21
-2.5720513779527558
0
LINE
8
BLACK
6
CONTINUOUS
10
1.9224509448818896
20
-2.5720513779527558
11
1.9248102362204724
21
-2.5859372440944881
0
LINE
8
BLACK
6
CONTINUOUS
10
1.9248102362204724
20
-2.5859372440944881
11
1.9256
21
-2.6000000000000001
0
LINE
8
BLACK
6
CONTINUOUS
10
1.9256
20
-2.6000000000000001
11
1.9248102362204724
21
-2.6140627559055116
0
LINE
8
BLACK
6
CONTINUOUS
10
1.9248102362204724
20
-2.6140627559055116
11
1.9224509448818896
21
-2.6279486220472439
0
LINE
8
BLACK
6
CONTINUOUS
10
1.9224509448818896
20
-2.6279486220472439
11
1.9185517322834644
21
-2.6414830314960631
0
LINE
8
BLACK
6
CONTINUOUS
10
1.9185517322834644
20
-2.6414830314960631
11
1.9131616929133859
21
-2.6544957874015749
0
LINE
8
BLACK
6
CONTINUOUS
10
1.9131616929133859
20
-2.6544957874015749
11
1.9063485433070866
21
-2.6668232283464568
0
LINE
8
BLACK
6
CONTINUOUS
10
1.9063485433070866
20
-2.6668232283464568
11
1.8981980314960629
21
-2.6783103149606298
0
LINE
8
BLACK
6
CONTINUOUS
10
1.8981980314960629
20
-2.6783103149606298
11
1.8888125984251969
21
-2.6888125984251969
0
LINE
8
BLACK
6
CONTINUOUS
10
1.8888125984251969
20
-2.6888125984251969
11
1.8783103149606299
21
-2.6981980314960627
0
LINE
8
BLACK
6
CONTINUOUS
10
1.8783103149606299
20
-2.6981980314960627
11
1.8668232283464568
21
-2.7063485433070866
0
LINE
8
BLACK
6
CONTINUOUS
10
1.8668232283464568
20
-2.7063485433070866
11
1.8544957874015748
21
-2.7131616929133857
0
LINE
8
BLACK
6
CONTINUOUS
10
1.8544957874015748
20
-2.7131616929133857
11
1.8414830314960628
21
-2.7185517322834647
0
LINE
8
BLACK
6
CONTINUOUS
10
1.8414830314960628
20
-2.7185517322834647
11
1.8279486220472441
21
-2.7224509448818899
0
LINE
8
BLACK
6
CONTINUOUS
10
1.8279486220472441
20
-2.7224509448818899
11
1.8140627559055118
21
-2.7248102362204722
0
LINE
8
BLACK
6
CONTINUOUS
10
1.8140627559055118
20
-2.7248102362204722
11
1.8
21
-2.7256
0
LINE
8
BLACK
6
CONTINUOUS
10
1.8
20
-2.7256
11
1.7859372440944881
21
-2.7248102362204722
0
LINE
8
BLACK
6
CONTINUOUS
10
1.7859372440944881
20
-2.7248102362204722
11
1.7720513779527558
21
-2.7224509448818899
0
LINE
8
BLACK
6
CONTINUOUS
10
1.7720513779527558
20
-2.7224509448818899
11
1.758516968503937
21
-2.7185517322834647
0
LINE
8
BLACK
6
CONTINUOUS
10
1.758516968503937
20
-2.7185517322834647
11
1.7455042125984253
21
-2.7131616929133857
0
LINE
8
BLACK
6
CONTINUOUS
10
1.7455042125984253
20
-2.7131616929133857
11
1.7331767716535433
21
-2.7063485433070866
0
LINE
8
BLACK
6
CONTINUOUS
10
1.7331767716535433
20
-2.7063485433070866
11
1.7216896850393701
21
-2.6981980314960627
0
LINE
8
BLACK
6
CONTINUOUS
10
1.7216896850393701
20
-2.6981980314960627
11
1.7111874015748032
21
-2.6888125984251969
0
LINE
8
BLACK
6
CONTINUOUS
10
1.7111874015748032
20
-2.6888125984251969
11
1.7018019685039369
21
-2.6783103149606298
0
LINE
8
BLACK
6
CONTINUOUS
10
1.7018019685039369
20
-2.6783103149606298
11
1.6936514566929133
21
-2.6668232283464568
0
LINE
8
BLACK
6
CONTINUOUS
10
1.6936514566929133
20
-2.6668232283464568
11
1.6868383070866142
21
-2.6544957874015749
0
LINE
8
BLACK
6
CONTINUOUS
10
1.6868383070866142
20
-2.6544957874015749
11
1.6814482677165354
21
-2.6414830314960631
0
LINE
8
BLACK
6
CONTINUOUS
10
1.6814482677165354
20
-2.6414830314960631
11
1.6775490551181103
21
-2.6279486220472439
0
LINE
8
BLACK
6
CONTINUOUS
10
1.6775490551181103
20
-2.6279486220472439
11
1.6751897637795274
21
-2.6140627559055116
0
LINE
8
BLACK
6
CONTINUOUS
10
1.6751897637795274
20
-2.6140627559055116
11
1.6743999999999999
21
-2.6000000000000001
0
LINE
8
BLACK
6
CONTINUOUS
10
1.6743999999999999
20
-2.6000000000000001
11
1.6751897637795274
21
-2.5859372440944881
0
LINE
8
BLACK
6
CONTINUOUS
10
1.6751897637795274
20
-2.5859372440944881
11
1.6775490551181103
21
-2.5720513779527558
0
LINE
8
BLACK
6
CONTINUOUS
10
1.6775490551181103
20
-2.5720513779527558
11
1.6814482677165354
21
-2.5585169685039371
0
LINE
8
BLACK
6
CONTINUOUS
10
1.6814482677165354
20
-2.5585169685039371
11
1.6868383070866142
21
-2.5455042125984253
0
LINE
8
BLACK
6
CONTINUOUS
10
1.6868383070866142
20
-2.5455042125984253
11
1.6936514566929133
21
-2.5331767716535434
0
LINE
8
BLACK
6
CONTINUOUS
10
1.6936514566929133
20
-2.5331767716535434
11
1.7018019685039369
21
-2.52168968503937
0
LINE
8
BLACK
6
CONTINUOUS
10
1.7018019685039369
20
-2.52168968503937
11
1.7111874015748032
21
-2.5111874015748032
0
LINE
8
BLACK
6
CONTINUOUS
10
1.7111874015748032
20
-2.5111874015748032
11
1.7216896850393701
21
-2.501801968503937
0
LINE
8
BLACK
6
CONTINUOUS
10
1.7216896850393701
20
-2.501801968503937
11
1.7331767716535433
21
-2.4936514566929135
0
LINE
8
BLACK
6
CONTINUOUS
10
1.7331767716535433
20
-2.4936514566929135
11
1.7455042125984253
21
-2.486838307086614
0
LINE
8
BLACK
6
CONTINUOUS
10
1.7455042125984253
20
-2.486838307086614
11
1.758516968503937
21
-2.4814482677165355
0
LINE
8
BLACK
6
CONTINUOUS
10
1.758516968503937
20
-2.4814482677165355
11
1.7720513779527558
21
-2.4775490551181103
0
LINE
8
BLACK
6
CONTINUOUS
10
1.7720513779527558
20
-2.4775490551181103
11
1.7859372440944881
21
-2.4751897637795275
0
LINE
8
BLACK
6
CONTINUOUS
10
1.7859372440944881
20
-2.4751897637795275
11
1.8
21
-2.4744000000000002
0
LINE
8
BLACK
6
CONTINUOUS
10
1.8
20
-2.4744000000000002
11
1.8140627559055118
21
-2.4751897637795275
0
LINE
8
BLACK
6
CONTINUOUS
10
1.6899616535433071
20
-2.6128616535433071
11
1.6921988582677165
21
-2.6255493307086613
0
LINE
8
BLACK
6
CONTINUOUS
10
1.6921988582677165
20
-2.6255493307086613
11
1.6958938582677165
21
-2.637891535433071
0
LINE
8
BLACK
6
CONTINUOUS
10
1.6958938582677165
20
-2.637891535433071
11
1.7009967322834645
21
-2.6497212992125982
0
LINE
8
BLACK
6
CONTINUOUS
10
1.7009967322834645
20
-2.6497212992125982
11
1.7074384251968504
21
-2.6608787007874013
0
LINE
8
BLACK
6
CONTINUOUS
10
1.7074384251968504
20
-2.6608787007874013
11
1.7151318897637795
21
-2.6712127952755904
0
LINE
8
BLACK
6
CONTINUOUS
10
1.7151318897637795
20
-2.6712127952755904
11
1.7239730314960628
21
-2.6805838582677164
0
LINE
8
BLACK
6
CONTINUOUS
10
1.7239730314960628
20
-2.6805838582677164
11
1.7338423228346456
21
-2.6888651574803148
0
LINE
8
BLACK
6
CONTINUOUS
10
1.7338423228346456
20
-2.6888651574803148
11
1.7446062598425196
21
-2.6959447244094488
0
LINE
8
BLACK
6
CONTINUOUS
10
1.7446062598425196
20
-2.6959447244094488
11
1.7561193307086613
21
-2.7017268110236219
0
LINE
8
BLACK
6
CONTINUOUS
10
1.7561193307086613
20
-2.7017268110236219
11
1.7682257874015748
21
-2.706133188976378
0
LINE
8
BLACK
6
CONTINUOUS
10
1.7682257874015748
20
-2.706133188976378
11
1.7807619685039369
21
-2.7091043307086613
0
LINE
8
BLACK
6
CONTINUOUS
10
1.7807619685039369
20
-2.7091043307086613
11
1.7935582677165354
21
-2.7105999999999999
0
LINE
8
BLACK
6
CONTINUOUS
10
1.7935582677165354
20
-2.7105999999999999
11
1.8064417322834645
21
-2.7105999999999999
0
LINE
8
BLACK
6
CONTINUOUS
10
1.8064417322834645
20
-2.7105999999999999
11
1.819238031496063
21
-2.7091043307086613
0
LINE
8
BLACK
6
CONTINUOUS
10
1.819238031496063
20
-2.7091043307086613
11
1.8317742125984251
21
-2.706133188976378
0
LINE
8
BLACK
6
CONTINUOUS
10
1.8317742125984251
20
-2.706133188976378
11
1.8438806692913385
21
-2.7017268110236219
0
LINE
8
BLACK
6
CONTINUOUS
10
1.8438806692913385
20
-2.7017268110236219
11
1.8553937401574803
21
-2.6959447244094488
0
LINE
8
BLACK
6
CONTINUOUS
10
1.8553937401574803
20
-2.6959447244094488
11
1.8661576771653543
21
-2.6888651574803148
0
LINE
8
BLACK
6
CONTINUOUS
10
1.8661576771653543
20
-2.6888651574803148
11
1.876026968503937
21
-2.6805838582677164
0
LINE
8
BLACK
6
CONTINUOUS
10
1.876026968503937
20
-2.6805838582677164
11
1.8848681102362204
21
-2.6712127952755904
0
LINE
8
BLACK
6
CONTINUOUS
10
1.8848681102362204
20
-2.6712127952755904
11
1.8925615748031495
21
-2.6608787007874013
0
LINE
8
BLACK
6
CONTINUOUS
10
1.8925615748031495
20
-2.6608787007874013
11
1.8990032677165354
21
-2.6497212992125982
0
LINE
8
BLACK
6
CONTINUOUS
10
1.8990032677165354
20
-2.6497212992125982
11
1.9041061417322833
21
-2.637891535433071
0
LINE
8
BLACK
6
CONTINUOUS
10
1.9041061417322833
20
-2.637891535433071
11
1.9078011417322833
21
-2.6255493307086613
0
LINE
8
BLACK
6
CONTINUOUS
10
1.9078011417322833
20
-2.6255493307086613
11
1.9100383464566928
21
-2.6128616535433071
0
LINE
8
BLACK
6
CONTINUOUS
10
1.9100383464566928
20
-2.6128616535433071
11
1.910787440944882
21
-2.6000000000000001
0
LINE
8
BLACK
6
CONTINUOUS
10
1.910787440944882
20
-2.6000000000000001
11
1.9100383464566928
21
-2.587138346456693
0
LINE
8
BLACK
6
CONTINUOUS
10
1.9100383464566928
20
-2.587138346456693
11
1.9078011417322833
21
-2.5744506692913385
0
LINE
8
BLACK
6
CONTINUOUS
10
1.9078011417322833
20
-2.5744506692913385
11
1.9041061417322833
21
-2.5621084645669292
0
LINE
8
BLACK
6
CONTINUOUS
10
1.9041061417322833
20
-2.5621084645669292
11
1.8990032677165354
21
-2.5502787007874015
0
LINE
8
BLACK
6
CONTINUOUS
10
1.8990032677165354
20
-2.5502787007874015
11
1.8925615748031495
21
-2.5391212992125984
0
LINE
8
BLACK
6
CONTINUOUS
10
1.8925615748031495
20
-2.5391212992125984
11
1.8848681102362204
21
-2.5287872047244093
0
LINE
8
BLACK
6
CONTINUOUS
10
1.8848681102362204
20
-2.5287872047244093
11
1.876026968503937
21
-2.5194161417322833
0
LINE
8
BLACK
6
CONTINUOUS
10
1.876026968503937
20
-2.5194161417322833
11
1.8661576771653543
21
-2.5111348425196849
0
LINE
8
BLACK
6
CONTINUOUS
10
1.8661576771653543
20
-2.5111348425196849
11
1.8553937401574803
21
-2.504055275590551
0
LINE
8
BLACK
6
CONTINUOUS
10
1.8553937401574803
20
-2.504055275590551
11
1.8438806692913385
21
-2.4982731889763778
0
LINE
8
BLACK
6
CONTINUOUS
10
1.8438806692913385
20
-2.4982731889763778
11
1.8317742125984251
21
-2.4938668110236222
0
LINE
8
BLACK
6
CONTINUOUS
10
1.8317742125984251
20
-2.4938668110236222
11
1.819238031496063
21
-2.4908956692913384
0
LINE
8
BLACK
6
CONTINUOUS
10
1.819238031496063
20
-2.4908956692913384
11
1.8064417322834645
21
-2.4893999999999998
0
LINE
8
BLACK
6
CONTINUOUS
10
1.8064417322834645
20
-2.4893999999999998
11
1.7935582677165354
21
-2.4893999999999998
0
LINE
8
BLACK
6
CONTINUOUS
10
1.7935582677165354
20
-2.4893999999999998
11
1.7807619685039369
21
-2.4908956692913384
0
LINE
8
BLACK
6
CONTINUOUS
10
1.7807619685039369
20
-2.4908956692913384
11
1.7682257874015748
21
-2.4938668110236222
0
LINE
8
BLACK
6
CONTINUOUS
10
1.7682257874015748
20
-2.4938668110236222
11
1.7561193307086613
21
-2.4982731889763778
0
LINE
8
BLACK
6
CONTINUOUS
10
1.7561193307086613
20
-2.4982731889763778
11
1.7446062598425196
21
-2.504055275590551
0
LINE
8
BLACK
6
CONTINUOUS
10
1.7446062598425196
20
-2.504055275590551
11
1.7338423228346456
21
-2.5111348425196849
0
LINE
8
BLACK
6
CONTINUOUS
10
1.7338423228346456
20
-2.5111348425196849
11
1.7239730314960628
21
-2.5194161417322833
0
LINE
8
BLACK
6
CONTINUOUS
10
1.7239730314960628
20
-2.5194161417322833
11
1.7151318897637795
21
-2.5287872047244093
0
LINE
8
BLACK
6
CONTINUOUS
10
1.7151318897637795
20
-2.5287872047244093
11
1.7074384251968504
21
-2.5391212992125984
0
LINE
8
BLACK
6
CONTINUOUS
10
1.7074384251968504
20
-2.5391212992125984
11
1.7009967322834645
21
-2.5502787007874015
0
LINE
8
BLACK
6
CONTINUOUS
10
1.7009967322834645
20
-2.5502787007874015
11
1.6958938582677165
21
-2.5621084645669292
0
LINE
8
BLACK
6
CONTINUOUS
10
1.6958938582677165
20
-2.5621084645669292
11
1.6921988582677165
21
-2.5744506692913385
0
LINE
8
BLACK
6
CONTINUOUS
10
1.6921988582677165
20
-2.5744506692913385
11
1.6899616535433071
21
-2.587138346456693
0
LINE
8
BLACK
6
CONTINUOUS
10
1.6899616535433071
20
-2.587138346456693
11
1.6892125590551181
21
-2.6000000000000001
0
LINE
8
BLACK
6
CONTINUOUS
10
1.6892125590551181
20
-2.6000000000000001
11
1.6899616535433071
21
-2.6128616535433071
0
LINE
8
BLACK
6
CONTINUOUS
10
4.6140627559055121
20
-2.4751897637795275
11
4.6279486220472439
21
-2.4775490551181103
0
LINE
8
BLACK
6
CONTINUOUS
10
4.6279486220472439
20
-2.4775490551181103
11
4.6414830314960627
21
-2.4814482677165355
0
LINE
8
BLACK
6
CONTINUOUS
10
4.6414830314960627
20
-2.4814482677165355
11
4.6544957874015749
21
-2.486838307086614
0
LINE
8
BLACK
6
CONTINUOUS
10
4.6544957874015749
20
-2.486838307086614
11
4.6668232283464564
21
-2.4936514566929135
0
LINE
8
BLACK
6
CONTINUOUS
10
4.6668232283464564
20
-2.4936514566929135
11
4.6783103149606298
21
-2.501801968503937
0
LINE
8
BLACK
6
CONTINUOUS
10
4.6783103149606298
20
-2.501801968503937
11
4.6888125984251969
21
-2.5111874015748032
0
LINE
8
BLACK
6
CONTINUOUS
10
4.6888125984251969
20
-2.5111874015748032
11
4.6981980314960632
21
-2.52168968503937
0
LINE
8
BLACK
6
CONTINUOUS
10
4.6981980314960632
20
-2.52168968503937
11
4.7063485433070866
21
-2.5331767716535434
0
LINE
8
BLACK
6
CONTINUOUS
10
4.7063485433070866
20
-2.5331767716535434
11
4.7131616929133857
21
-2.5455042125984253
0
LINE
8
BLACK
6
CONTINUOUS
10
4.7131616929133857
20
-2.5455042125984253
11
4.7185517322834647
21
-2.5585169685039371
0
LINE
8
BLACK
6
CONTINUOUS
10
4.7185517322834647
20
-2.5585169685039371
11
4.7224509448818894
21
-2.5720513779527558
0
LINE
8
BLACK
6
CONTINUOUS
10
4.7224509448818894
20
-2.5720513779527558
11
4.7248102362204722
21
-2.5859372440944881
0
LINE
8
BLACK
6
CONTINUOUS
10
4.7248102362204722
20
-2.5859372440944881
11
4.7256
21
-2.6000000000000001
0
LINE
8
BLACK
6
CONTINUOUS
10
4.7256
20
-2.6000000000000001
11
4.7248102362204722
21
-2.6140627559055116
0
LINE
8
BLACK
6
CONTINUOUS
10
4.7248102362204722
20
-2.6140627559055116
11
4.7224509448818894
21
-2.6279486220472439
0
LINE
8
BLACK
6
CONTINUOUS
10
4.7224509448818894
20
-2.6279486220472439
11
4.7185517322834647
21
-2.6414830314960631
0
LINE
8
BLACK
6
CONTINUOUS
10
4.7185517322834647
20
-2.6414830314960631
11
4.7131616929133857
21
-2.6544957874015749
0
LINE
8
BLACK
6
CONTINUOUS
10
4.7131616929133857
20
-2.6544957874015749
11
4.7063485433070866
21
-2.6668232283464568
0
LINE
8
BLACK
6
CONTINUOUS
10
4.7063485433070866
20
-2.6668232283464568
11
4.6981980314960632
21
-2.6783103149606298
0
LINE
8
BLACK
6
CONTINUOUS
10
4.6981980314960632
20
-2.6783103149606298
11
4.6888125984251969
21
-2.6888125984251969
0
LINE
8
BLACK
6
CONTINUOUS
10
4.6888125984251969
20
-2.6888125984251969
11
4.6783103149606298
21
-2.6981980314960627
0
LINE
8
BLACK
6
CONTINUOUS
10
4.6783103149606298
20
-2.6981980314960627
11
4.6668232283464564
21
-2.7063485433070866
0
LINE
8
BLACK
6
CONTINUOUS
10
4.6668232283464564
20
-2.7063485433070866
11
4.6544957874015749
21
-2.7131616929133857
0
LINE
8
BLACK
6
CONTINUOUS
10
4.6544957874015749
20
-2.7131616929133857
11
4.6414830314960627
21
-2.7185517322834647
0
LINE
8
BLACK
6
CONTINUOUS
10
4.6414830314960627
20
-2.7185517322834647
11
4.6279486220472439
21
-2.7224509448818899
0
LINE
8
BLACK
6
CONTINUOUS
10
4.6279486220472439
20
-2.7224509448818899
11
4.6140627559055121
21
-2.7248102362204722
0
LINE
8
BLACK
6
CONTINUOUS
10
4.6140627559055121
20
-2.7248102362204722
11
4.5999999999999996
21
-2.7256
0
LINE
8
BLACK
6
CONTINUOUS
10
4.5999999999999996
20
-2.7256
11
4.5859372440944881
21
-2.7248102362204722
0
LINE
8
BLACK
6
CONTINUOUS
10
4.5859372440944881
20
-2.7248102362204722
11
4.5720513779527554
21
-2.7224509448818899
0
LINE
8
BLACK
6
CONTINUOUS
10
4.5720513779527554
20
-2.7224509448818899
11
4.5585169685039366
21
-2.7185517322834647
0
LINE
8
BLACK
6
CONTINUOUS
10
4.5585169685039366
20
-2.7185517322834647
11
4.5455042125984253
21
-2.7131616929133857
0
LINE
8
BLACK
6
CONTINUOUS
10
4.5455042125984253
20
-2.7131616929133857
11
4.5331767716535429
21
-2.7063485433070866
0
LINE
8
BLACK
6
CONTINUOUS
10
4.5331767716535429
20
-2.7063485433070866
11
4.5216896850393704
21
-2.6981980314960627
0
LINE
8
BLACK
6
CONTINUOUS
10
4.5216896850393704
20
-2.6981980314960627
11
4.5111874015748032
21
-2.6888125984251969
0
LINE
8
BLACK
6
CONTINUOUS
10
4.5111874015748032
20
-2.6888125984251969
11
4.501801968503937
21
-2.6783103149606298
0
LINE
8
BLACK
6
CONTINUOUS
10
4.501801968503937
20
-2.6783103149606298
11
4.4936514566929135
21
-2.6668232283464568
0
LINE
8
BLACK
6
CONTINUOUS
10
4.4936514566929135
20
-2.6668232283464568
11
4.4868383070866145
21
-2.6544957874015749
0
LINE
8
BLACK
6
CONTINUOUS
10
4.4868383070866145
20
-2.6544957874015749
11
4.4814482677165355
21
-2.6414830314960631
0
LINE
8
BLACK
6
CONTINUOUS
10
4.4814482677165355
20
-2.6414830314960631
11
4.4775490551181099
21
-2.6279486220472439
0
LINE
8
BLACK
6
CONTINUOUS
10
4.4775490551181099
20
-2.6279486220472439
11
4.475189763779527
21
-2.6140627559055116
0
LINE
8
BLACK
6
CONTINUOUS
10
4.475189763779527
20
-2.6140627559055116
11
4.4744000000000002
21
-2.6000000000000001
0
LINE
8
BLACK
6
CONTINUOUS
10
4.4744000000000002
20
-2.6000000000000001
11
4.475189763779527
21
-2.5859372440944881
0
LINE
8
BLACK
6
CONTINUOUS
10
4.475189763779527
20
-2.5859372440944881
11
4.4775490551181099
21
-2.5720513779527558
0
LINE
8
BLACK
6
CONTINUOUS
10
4.4775490551181099
20
-2.5720513779527558
11
4.4814482677165355
21
-2.5585169685039371
0
LINE
8
BLACK
6
CONTINUOUS
10
4.4814482677165355
20
-2.5585169685039371
11
4.4868383070866145
21
-2.5455042125984253
0
LINE
8
BLACK
6
CONTINUOUS
10
4.4868383070866145
20
-2.5455042125984253
11
4.4936514566929135
21
-2.5331767716535434
0
LINE
8
BLACK
6
CONTINUOUS
10
4.4936514566929135
20
-2.5331767716535434
11
4.501801968503937
21
-2.52168968503937
0
LINE
8
BLACK
6
CONTINUOUS
10
4.501801968503937
20
-2.52168968503937
11
4.5111874015748032
21
-2.5111874015748032
0
LINE
8
BLACK
6
CONTINUOUS
10
4.5111874015748032
20
-2.5111874015748032
11
4.5216896850393704
21
-2.501801968503937
0
LINE
8
BLACK
6
CONTINUOUS
10
4.5216896850393704
20
-2.501801968503937
11
4.5331767716535429
21
-2.4936514566929135
0
LINE
8
BLACK
6
CONTINUOUS
10
4.5331767716535429
20
-2.4936514566929135
11
4.5455042125984253
21
-2.486838307086614
0
LINE
8
BLACK
6
CONTINUOUS
10
4.5455042125984253
20
-2.486838307086614
11
4.5585169685039366
21
-2.4814482677165355
0
LINE
8
BLACK
6
CONTINUOUS
10
4.5585169685039366
20
-2.4814482677165355
11
4.5720513779527554
21
-2.4775490551181103
0
LINE
8
BLACK
6
CONTINUOUS
10
4.5720513779527554
20
-2.4775490551181103
11
4.5859372440944881
21
-2.4751897637795275
0
LINE
8
BLACK
6
CONTINUOUS
10
4.5859372440944881
20
-2.4751897637795275
11
4.5999999999999996
21
-2.4744000000000002
0
LINE
8
BLACK
6
CONTINUOUS
10
4.5999999999999996
20
-2.4744000000000002
11
4.6140627559055121
21
-2.4751897637795275
0
LINE
8
BLACK
6
CONTINUOUS
10
4.4899616535433067
20
-2.6128616535433071
11
4.4921988582677166
21
-2.6255493307086613
0
LINE
8
BLACK
6
CONTINUOUS
10
4.4921988582677166
20
-2.6255493307086613
11
4.4958938582677161
21
-2.637891535433071
0
LINE
8
BLACK
6
CONTINUOUS
10
4.4958938582677161
20
-2.637891535433071
11
4.5009967322834648
21
-2.6497212992125982
0
LINE
8
BLACK
6
CONTINUOUS
10
4.5009967322834648
20
-2.6497212992125982
11
4.5074384251968507
21
-2.6608787007874013
0
LINE
8
BLACK
6
CONTINUOUS
10
4.5074384251968507
20
-2.6608787007874013
11
4.5151318897637793
21
-2.6712127952755904
0
LINE
8
BLACK
6
CONTINUOUS
10
4.5151318897637793
20
-2.6712127952755904
11
4.5239730314960624
21
-2.6805838582677164
0
LINE
8
BLACK
6
CONTINUOUS
10
4.5239730314960624
20
-2.6805838582677164
11
4.5338423228346452
21
-2.6888651574803148
0
LINE
8
BLACK
6
CONTINUOUS
10
4.5338423228346452
20
-2.6888651574803148
11
4.5446062598425199
21
-2.6959447244094488
0
LINE
8
BLACK
6
CONTINUOUS
10
4.5446062598425199
20
-2.6959447244094488
11
4.5561193307086612
21
-2.7017268110236219
0
LINE
8
BLACK
6
CONTINUOUS
10
4.5561193307086612
20
-2.7017268110236219
11
4.568225787401575
21
-2.706133188976378
0
LINE
8
BLACK
6
CONTINUOUS
10
4.568225787401575
20
-2.706133188976378
11
4.5807619685039365
21
-2.7091043307086613
0
LINE
8
BLACK
6
CONTINUOUS
10
4.5807619685039365
20
-2.7091043307086613
11
4.593558267716535
21
-2.7105999999999999
0
LINE
8
BLACK
6
CONTINUOUS
10
4.593558267716535
20
-2.7105999999999999
11
4.6064417322834643
21
-2.7105999999999999
0
LINE
8
BLACK
6
CONTINUOUS
10
4.6064417322834643
20
-2.7105999999999999
11
4.6192380314960628
21
-2.7091043307086613
0
LINE
8
BLACK
6
CONTINUOUS
10
4.6192380314960628
20
-2.7091043307086613
11
4.6317742125984251
21
-2.706133188976378
0
LINE
8
BLACK
6
CONTINUOUS
10
4.6317742125984251
20
-2.706133188976378
11
4.6438806692913381
21
-2.7017268110236219
0
LINE
8
BLACK
6
CONTINUOUS
10
4.6438806692913381
20
-2.7017268110236219
11
4.6553937401574803
21
-2.6959447244094488
0
LINE
8
BLACK
6
CONTINUOUS
10
4.6553937401574803
20
-2.6959447244094488
11
4.6661576771653541
21
-2.6888651574803148
0
LINE
8
BLACK
6
CONTINUOUS
10
4.6661576771653541
20
-2.6888651574803148
11
4.6760269685039368
21
-2.6805838582677164
0
LINE
8
BLACK
6
CONTINUOUS
10
4.6760269685039368
20
-2.6805838582677164
11
4.68486811023622
21
-2.6712127952755904
0
LINE
8
BLACK
6
CONTINUOUS
10
4.68486811023622
20
-2.6712127952755904
11
4.6925615748031495
21
-2.6608787007874013
0
LINE
8
BLACK
6
CONTINUOUS
10
4.6925615748031495
20
-2.6608787007874013
11
4.6990032677165354
21
-2.6497212992125982
0
LINE
8
BLACK
6
CONTINUOUS
10
4.6990032677165354
20
-2.6497212992125982
11
4.7041061417322831
21
-2.637891535433071
0
LINE
8
BLACK
6
CONTINUOUS
10
4.7041061417322831
20
-2.637891535433071
11
4.7078011417322836
21
-2.6255493307086613
0
LINE
8
BLACK
6
CONTINUOUS
10
4.7078011417322836
20
-2.6255493307086613
11
4.7100383464566926
21
-2.6128616535433071
0
LINE
8
BLACK
6
CONTINUOUS
10
4.7100383464566926
20
-2.6128616535433071
11
4.7107874409448822
21
-2.6000000000000001
0
LINE
8
BLACK
6
CONTINUOUS
10
4.7107874409448822
20
-2.6000000000000001
11
4.7100383464566926
21
-2.587138346456693
0
LINE
8
BLACK
6
CONTINUOUS
10
4.7100383464566926
20
-2.587138346456693
11
4.7078011417322836
21
-2.5744506692913385
0
LINE
8
BLACK
6
CONTINUOUS
10
4.7078011417322836
20
-2.5744506692913385
11
4.7041061417322831
21
-2.5621084645669292
0
LINE
8
BLACK
6
CONTINUOUS
10
4.7041061417322831
20
-2.5621084645669292
11
4.6990032677165354
21
-2.5502787007874015
0
LINE
8
BLACK
6
CONTINUOUS
10
4.6990032677165354
20
-2.5502787007874015
11
4.6925615748031495
21
-2.5391212992125984
0
LINE
8
BLACK
6
CONTINUOUS
10
4.6925615748031495
20
-2.5391212992125984
11
4.68486811023622
21
-2.5287872047244093
0
LINE
8
BLACK
6
CONTINUOUS
10
4.68486811023622
20
-2.5287872047244093
11
4.6760269685039368
21
-2.5194161417322833
0
LINE
8
BLACK
6
CONTINUOUS
10
4.6760269685039368
20
-2.5194161417322833
11
4.6661576771653541
21
-2.5111348425196849
0
LINE
8
BLACK
6
CONTINUOUS
10
4.6661576771653541
20
-2.5111348425196849
11
4.6553937401574803
21
-2.504055275590551
0
LINE
8
BLACK
6
CONTINUOUS
10
4.6553937401574803
20
-2.504055275590551
11
4.6438806692913381
21
-2.4982731889763778
0
LINE
8
BLACK
6
CONTINUOUS
10
4.6438806692913381
20
-2.4982731889763778
11
4.6317742125984251
21
-2.4938668110236222
0
LINE
8
BLACK
6
CONTINUOUS
10
4.6317742125984251
20
-2.4938668110236222
11
4.6192380314960628
21
-2.4908956692913384
0
LINE
8
BLACK
6
CONTINUOUS
10
4.6192380314960628
20
-2.4908956692913384
11
4.6064417322834643
21
-2.4893999999999998
0
LINE
8
BLACK
6
CONTINUOUS
10
4.6064417322834643
20
-2.4893999999999998
11
4.593558267716535
21
-2.4893999999999998
0
LINE
8
BLACK
6
CONTINUOUS
10
4.593558267716535
20
-2.4893999999999998
11
4.5807619685039365
21
-2.4908956692913384
0
LINE
8
BLACK
6
CONTINUOUS
10
4.5807619685039365
20
-2.4908956692913384
11
4.568225787401575
21
-2.4938668110236222
0
LINE
8
BLACK
6
CONTINUOUS
10
4.568225787401575
20
-2.4938668110236222
11
4.5561193307086612
21
-2.4982731889763778
0
LINE
8
BLACK
6
CONTINUOUS
10
4.5561193307086612
20
-2.4982731889763778
11
4.5446062598425199
21
-2.504055275590551
0
LINE
8
BLACK
6
CONTINUOUS
10
4.5446062598425199
20
-2.504055275590551
11
4.5338423228346452
21
-2.5111348425196849
0
LINE
8
BLACK
6
CONTINUOUS
10
4.5338423228346452
20
-2.5111348425196849
11
4.5239730314960624
21
-2.5194161417322833
0
LINE
8
BLACK
6
CONTINUOUS
10
4.5239730314960624
20
-2.5194161417322833
11
4.5151318897637793
21
-2.5287872047244093
0
LINE
8
BLACK
6
CONTINUOUS
10
4.5151318897637793
20
-2.5287872047244093
11
4.5074384251968507
21
-2.5391212992125984
0
LINE
8
BLACK
6
CONTINUOUS
10
4.5074384251968507
20
-2.5391212992125984
11
4.5009967322834648
21
-2.5502787007874015
0
LINE
8
BLACK
6
CONTINUOUS
10
4.5009967322834648
20
-2.5502787007874015
11
4.4958938582677161
21
-2.5621084645669292
0
LINE
8
BLACK
6
CONTINUOUS
10
4.4958938582677161
20
-2.5621084645669292
11
4.4921988582677166
21
-2.5744506692913385
0
LINE
8
BLACK
6
CONTINUOUS
10
4.4921988582677166
20
-2.5744506692913385
11
4.4899616535433067
21
-2.587138346456693
0
LINE
8
BLACK
6
CONTINUOUS
10
4.4899616535433067
20
-2.587138346456693
11
4.489212559055118
21
-2.6000000000000001
0
LINE
8
BLACK
6
CONTINUOUS
10
4.489212559055118
20
-2.6000000000000001
11
4.4899616535433067
21
-2.6128616535433071
0
LINE
8
BLACK
6
CONTINUOUS
10
1.8140627559055118
20
-1.2751897637795275
11
1.8279486220472441
21
-1.2775490551181101
0
LINE
8
BLACK
6
CONTINUOUS
10
1.8279486220472441
20
-1.2775490551181101
11
1.8414830314960628
21
-1.2814482677165353
0
LINE
8
BLACK
6
CONTINUOUS
10
1.8414830314960628
20
-1.2814482677165353
11
1.8544957874015748
21
-1.2868383070866141
0
LINE
8
BLACK
6
CONTINUOUS
10
1.8544957874015748
20
-1.2868383070866141
11
1.8668232283464568
21
-1.2936514566929134
0
LINE
8
BLACK
6
CONTINUOUS
10
1.8668232283464568
20
-1.2936514566929134
11
1.8783103149606299
21
-1.301801968503937
0
LINE
8
BLACK
6
CONTINUOUS
10
1.8783103149606299
20
-1.301801968503937
11
1.8888125984251969
21
-1.3111874015748031
0
LINE
8
BLACK
6
CONTINUOUS
10
1.8888125984251969
20
-1.3111874015748031
11
1.8981980314960629
21
-1.32168968503937
0
LINE
8
BLACK
6
CONTINUOUS
10
1.8981980314960629
20
-1.32168968503937
11
1.9063485433070866
21
-1.3331767716535432
0
LINE
8
BLACK
6
CONTINUOUS
10
1.9063485433070866
20
-1.3331767716535432
11
1.9131616929133859
21
-1.3455042125984251
0
LINE
8
BLACK
6
CONTINUOUS
10
1.9131616929133859
20
-1.3455042125984251
11
1.9185517322834644
21
-1.3585169685039369
0
LINE
8
BLACK
6
CONTINUOUS
10
1.9185517322834644
20
-1.3585169685039369
11
1.9224509448818896
21
-1.3720513779527559
0
LINE
8
BLACK
6
CONTINUOUS
10
1.9224509448818896
20
-1.3720513779527559
11
1.9248102362204724
21
-1.3859372440944882
0
LINE
8
BLACK
6
CONTINUOUS
10
1.9248102362204724
20
-1.3859372440944882
11
1.9256
21
-1.3999999999999999
0
LINE
8
BLACK
6
CONTINUOUS
10
1.9256
20
-1.3999999999999999
11
1.9248102362204724
21
-1.4140627559055117
0
LINE
8
BLACK
6
CONTINUOUS
10
1.9248102362204724
20
-1.4140627559055117
11
1.9224509448818896
21
-1.4279486220472442
0
LINE
8
BLACK
6
CONTINUOUS
10
1.9224509448818896
20
-1.4279486220472442
11
1.9185517322834644
21
-1.4414830314960629
0
LINE
8
BLACK
6
CONTINUOUS
10
1.9185517322834644
20
-1.4414830314960629
11
1.9131616929133859
21
-1.4544957874015747
0
LINE
8
BLACK
6
CONTINUOUS
10
1.9131616929133859
20
-1.4544957874015747
11
1.9063485433070866
21
-1.4668232283464566
0
LINE
8
BLACK
6
CONTINUOUS
10
1.9063485433070866
20
-1.4668232283464566
11
1.8981980314960629
21
-1.4783103149606298
0
LINE
8
BLACK
6
CONTINUOUS
10
1.8981980314960629
20
-1.4783103149606298
11
1.8888125984251969
21
-1.4888125984251968
0
LINE
8
BLACK
6
CONTINUOUS
10
1.8888125984251969
20
-1.4888125984251968
11
1.8783103149606299
21
-1.498198031496063
0
LINE
8
BLACK
6
CONTINUOUS
10
1.8783103149606299
20
-1.498198031496063
11
1.8668232283464568
21
-1.5063485433070867
0
LINE
8
BLACK
6
CONTINUOUS
10
1.8668232283464568
20
-1.5063485433070867
11
1.8544957874015748
21
-1.5131616929133858
0
LINE
8
BLACK
6
CONTINUOUS
10
1.8544957874015748
20
-1.5131616929133858
11
1.8414830314960628
21
-1.5185517322834645
0
LINE
8
BLACK
6
CONTINUOUS
10
1.8414830314960628
20
-1.5185517322834645
11
1.8279486220472441
21
-1.5224509448818897
0
LINE
8
BLACK
6
CONTINUOUS
10
1.8279486220472441
20
-1.5224509448818897
11
1.8140627559055118
21
-1.5248102362204725
0
LINE
8
BLACK
6
CONTINUOUS
10
1.8140627559055118
20
-1.5248102362204725
11
1.8
21
-1.5256000000000001
0
LINE
8
BLACK
6
CONTINUOUS
10
1.8
20
-1.5256000000000001
11
1.7859372440944881
21
-1.5248102362204725
0
LINE
8
BLACK
6
CONTINUOUS
10
1.7859372440944881
20
-1.5248102362204725
11
1.7720513779527558
21
-1.5224509448818897
0
LINE
8
BLACK
6
CONTINUOUS
10
1.7720513779527558
20
-1.5224509448818897
11
1.758516968503937
21
-1.5185517322834645
0
LINE
8
BLACK
6
CONTINUOUS
10
1.758516968503937
20
-1.5185517322834645
11
1.7455042125984253
21
-1.5131616929133858
0
LINE
8
BLACK
6
CONTINUOUS
10
1.7455042125984253
20
-1.5131616929133858
11
1.7331767716535433
21
-1.5063485433070867
0
LINE
8
BLACK
6
CONTINUOUS
10
1.7331767716535433
20
-1.5063485433070867
11
1.7216896850393701
21
-1.498198031496063
0
LINE
8
BLACK
6
CONTINUOUS
10
1.7216896850393701
20
-1.498198031496063
11
1.7111874015748032
21
-1.4888125984251968
0
LINE
8
BLACK
6
CONTINUOUS
10
1.7111874015748032
20
-1.4888125984251968
11
1.7018019685039369
21
-1.4783103149606298
0
LINE
8
BLACK
6
CONTINUOUS
10
1.7018019685039369
20
-1.4783103149606298
11
1.6936514566929133
21
-1.4668232283464566
0
LINE
8
BLACK
6
CONTINUOUS
10
1.6936514566929133
20
-1.4668232283464566
11
1.6868383070866142
21
-1.4544957874015747
0
LINE
8
BLACK
6
CONTINUOUS
10
1.6868383070866142
20
-1.4544957874015747
11
1.6814482677165354
21
-1.4414830314960629
0
LINE
8
BLACK
6
CONTINUOUS
10
1.6814482677165354
20
-1.4414830314960629
11
1.6775490551181103
21
-1.4279486220472442
0
LINE
8
BLACK
6
CONTINUOUS
10
1.6775490551181103
20
-1.4279486220472442
11
1.6751897637795274
21
-1.4140627559055117
0
LINE
8
BLACK
6
CONTINUOUS
10
1.6751897637795274
20
-1.4140627559055117
11
1.6743999999999999
21
-1.3999999999999999
0
LINE
8
BLACK
6
CONTINUOUS
10
1.6743999999999999
20
-1.3999999999999999
11
1.6751897637795274
21
-1.3859372440944882
0
LINE
8
BLACK
6
CONTINUOUS
10
1.6751897637795274
20
-1.3859372440944882
11
1.6775490551181103
21
-1.3720513779527559
0
LINE
8
BLACK
6
CONTINUOUS
10
1.6775490551181103
20
-1.3720513779527559
11
1.6814482677165354
21
-1.3585169685039369
0
LINE
8
BLACK
6
CONTINUOUS
10
1.6814482677165354
20
-1.3585169685039369
11
1.6868383070866142
21
-1.3455042125984251
0
LINE
8
BLACK
6
CONTINUOUS
10
1.6868383070866142
20
-1.3455042125984251
11
1.6936514566929133
21
-1.3331767716535432
0
LINE
8
BLACK
6
CONTINUOUS
10
1.6936514566929133
20
-1.3331767716535432
11
1.7018019685039369
21
-1.32168968503937
0
LINE
8
BLACK
6
CONTINUOUS
10
1.7018019685039369
20
-1.32168968503937
11
1.7111874015748032
21
-1.3111874015748031
0
LINE
8
BLACK
6
CONTINUOUS
10
1.7111874015748032
20
-1.3111874015748031
11
1.7216896850393701
21
-1.301801968503937
0
LINE
8
BLACK
6
CONTINUOUS
10
1.7216896850393701
20
-1.301801968503937
11
1.7331767716535433
21
-1.2936514566929134
0
LINE
8
BLACK
6
CONTINUOUS
10
1.7331767716535433
20
-1.2936514566929134
11
1.7455042125984253
21
-1.2868383070866141
0
LINE
8
BLACK
6
CONTINUOUS
10
1.7455042125984253
20
-1.2868383070866141
11
1.758516968503937
21
-1.2814482677165353
0
LINE
8
BLACK
6
CONTINUOUS
10
1.758516968503937
20
-1.2814482677165353
11
1.7720513779527558
21
-1.2775490551181101
0
LINE
8
BLACK
6
CONTINUOUS
10
1.7720513779527558
20
-1.2775490551181101
11
1.7859372440944881
21
-1.2751897637795275
0
LINE
8
BLACK
6
CONTINUOUS
10
1.7859372440944881
20
-1.2751897637795275
11
1.8
21
-1.2744
0
LINE
8
BLACK
6
CONTINUOUS
10
1.8
20
-1.2744
11
1.8140627559055118
21
-1.2751897637795275
0
LINE
8
BLACK
6
CONTINUOUS
10
1.6899616535433071
20
-1.412861653543307
11
1.6921988582677165
21
-1.4255493307086613
0
LINE
8
BLACK
6
CONTINUOUS
10
1.6921988582677165
20
-1.4255493307086613
11
1.6958938582677165
21
-1.4378915354330708
0
LINE
8
BLACK
6
CONTINUOUS
10
1.6958938582677165
20
-1.4378915354330708
11
1.7009967322834645
21
-1.4497212992125983
0
LINE
8
BLACK
6
CONTINUOUS
10
1.7009967322834645
20
-1.4497212992125983
11
1.7074384251968504
21
-1.4608787007874016
0
LINE
8
BLACK
6
CONTINUOUS
10
1.7074384251968504
20
-1.4608787007874016
11
1.7151318897637795
21
-1.4712127952755905
0
LINE
8
BLACK
6
CONTINUOUS
10
1.7151318897637795
20
-1.4712127952755905
11
1.7239730314960628
21
-1.4805838582677164
0
LINE
8
BLACK
6
CONTINUOUS
10
1.7239730314960628
20
-1.4805838582677164
11
1.7338423228346456
21
-1.4888651574803149
0
LINE
8
BLACK
6
CONTINUOUS
10
1.7338423228346456
20
-1.4888651574803149
11
1.7446062598425196
21
-1.4959447244094488
0
LINE
8
BLACK
6
CONTINUOUS
10
1.7446062598425196
20
-1.4959447244094488
11
1.7561193307086613
21
-1.5017268110236219
0
LINE
8
BLACK
6
CONTINUOUS
10
1.7561193307086613
20
-1.5017268110236219
11
1.7682257874015748
21
-1.5061331889763778
0
LINE
8
BLACK
6
CONTINUOUS
10
1.7682257874015748
20
-1.5061331889763778
11
1.7807619685039369
21
-1.5091043307086613
0
LINE
8
BLACK
6
CONTINUOUS
10
1.7807619685039369
20
-1.5091043307086613
11
1.7935582677165354
21
-1.5105999999999999
0
LINE
8
BLACK
6
CONTINUOUS
10
1.7935582677165354
20
-1.5105999999999999
11
1.8064417322834645
21
-1.5105999999999999
0
LINE
8
BLACK
6
CONTINUOUS
10
1.8064417322834645
20
-1.5105999999999999
11
1.819238031496063
21
-1.5091043307086613
0
LINE
8
BLACK
6
CONTINUOUS
10
1.819238031496063
20
-1.5091043307086613
11
1.8317742125984251
21
-1.5061331889763778
0
LINE
8
BLACK
6
CONTINUOUS
10
1.8317742125984251
20
-1.5061331889763778
11
1.8438806692913385
21
-1.5017268110236219
0
LINE
8
BLACK
6
CONTINUOUS
10
1.8438806692913385
20
-1.5017268110236219
11
1.8553937401574803
21
-1.4959447244094488
0
LINE
8
BLACK
6
CONTINUOUS
10
1.8553937401574803
20
-1.4959447244094488
11
1.8661576771653543
21
-1.4888651574803149
0
LINE
8
BLACK
6
CONTINUOUS
10
1.8661576771653543
20
-1.4888651574803149
11
1.876026968503937
21
-1.4805838582677164
0
LINE
8
BLACK
6
CONTINUOUS
10
1.876026968503937
20
-1.4805838582677164
11
1.8848681102362204
21
-1.4712127952755905
0
LINE
8
BLACK
6
CONTINUOUS
10
1.8848681102362204
20
-1.4712127952755905
11
1.8925615748031495
21
-1.4608787007874016
0
LINE
8
BLACK
6
CONTINUOUS
10
1.8925615748031495
20
-1.4608787007874016
11
1.8990032677165354
21
-1.4497212992125983
0
LINE
8
BLACK
6
CONTINUOUS
10
1.8990032677165354
20
-1.4497212992125983
11
1.9041061417322833
21
-1.4378915354330708
0
LINE
8
BLACK
6
CONTINUOUS
10
1.9041061417322833
20
-1.4378915354330708
11
1.9078011417322833
21
-1.4255493307086613
0
LINE
8
BLACK
6
CONTINUOUS
10
1.9078011417322833
20
-1.4255493307086613
11
1.9100383464566928
21
-1.412861653543307
0
LINE
8
BLACK
6
CONTINUOUS
10
1.9100383464566928
20
-1.412861653543307
11
1.910787440944882
21
-1.3999999999999999
0
LINE
8
BLACK
6
CONTINUOUS
10
1.910787440944882
20
-1.3999999999999999
11
1.9100383464566928
21
-1.3871383464566929
0
LINE
8
BLACK
6
CONTINUOUS
10
1.9100383464566928
20
-1.3871383464566929
11
1.9078011417322833
21
-1.3744506692913385
0
LINE
8
BLACK
6
CONTINUOUS
10
1.9078011417322833
20
-1.3744506692913385
11
1.9041061417322833
21
-1.362108464566929
0
LINE
8
BLACK
6
CONTINUOUS
10
1.9041061417322833
20
-1.362108464566929
11
1.8990032677165354
21
-1.3502787007874015
0
LINE
8
BLACK
6
CONTINUOUS
10
1.8990032677165354
20
-1.3502787007874015
11
1.8925615748031495
21
-1.3391212992125985
0
LINE
8
BLACK
6
CONTINUOUS
10
1.8925615748031495
20
-1.3391212992125985
11
1.8848681102362204
21
-1.3287872047244094
0
LINE
8
BLACK
6
CONTINUOUS
10
1.8848681102362204
20
-1.3287872047244094
11
1.876026968503937
21
-1.3194161417322834
0
LINE
8
BLACK
6
CONTINUOUS
10
1.876026968503937
20
-1.3194161417322834
11
1.8661576771653543
21
-1.3111348425196849
0
LINE
8
BLACK
6
CONTINUOUS
10
1.8661576771653543
20
-1.3111348425196849
11
1.8553937401574803
21
-1.3040552755905512
0
LINE
8
BLACK
6
CONTINUOUS
10
1.8553937401574803
20
-1.3040552755905512
11
1.8438806692913385
21
-1.2982731889763779
0
LINE
8
BLACK
6
CONTINUOUS
10
1.8438806692913385
20
-1.2982731889763779
11
1.8317742125984251
21
-1.293866811023622
0
LINE
8
BLACK
6
CONTINUOUS
10
1.8317742125984251
20
-1.293866811023622
11
1.819238031496063
21
-1.2908956692913385
0
LINE
8
BLACK
6
CONTINUOUS
10
1.819238031496063
20
-1.2908956692913385
11
1.8064417322834645
21
-1.2893999999999999
0
LINE
8
BLACK
6
CONTINUOUS
10
1.8064417322834645
20
-1.2893999999999999
11
1.7935582677165354
21
-1.2893999999999999
0
LINE
8
BLACK
6
CONTINUOUS
10
1.7935582677165354
20
-1.2893999999999999
11
1.7807619685039369
21
-1.2908956692913385
0
LINE
8
BLACK
6
CONTINUOUS
10
1.7807619685039369
20
-1.2908956692913385
11
1.7682257874015748
21
-1.293866811023622
0
LINE
8
BLACK
6
CONTINUOUS
10
1.7682257874015748
20
-1.293866811023622
11
1.7561193307086613
21
-1.2982731889763779
0
LINE
8
BLACK
6
CONTINUOUS
10
1.7561193307086613
20
-1.2982731889763779
11
1.7446062598425196
21
-1.3040552755905512
0
LINE
8
BLACK
6
CONTINUOUS
10
1.7446062598425196
20
-1.3040552755905512
11
1.7338423228346456
21
-1.3111348425196849
0
LINE
8
BLACK
6
CONTINUOUS
10
1.7338423228346456
20
-1.3111348425196849
11
1.7239730314960628
21
-1.3194161417322834
0
LINE
8
BLACK
6
CONTINUOUS
10
1.7239730314960628
20
-1.3194161417322834
11
1.7151318897637795
21
-1.3287872047244094
0
LINE
8
BLACK
6
CONTINUOUS
10
1.7151318897637795
20
-1.3287872047244094
11
1.7074384251968504
21
-1.3391212992125985
0
LINE
8
BLACK
6
CONTINUOUS
10
1.7074384251968504
20
-1.3391212992125985
11
1.7009967322834645
21
-1.3502787007874015
0
LINE
8
BLACK
6
CONTINUOUS
10
1.7009967322834645
20
-1.3502787007874015
11
1.6958938582677165
21
-1.362108464566929
0
LINE
8
BLACK
6
CONTINUOUS
10
1.6958938582677165
20
-1.362108464566929
11
1.6921988582677165
21
-1.3744506692913385
0
LINE
8
BLACK
6
CONTINUOUS
10
1.6921988582677165
20
-1.3744506692913385
11
1.6899616535433071
21
-1.3871383464566929
0
LINE
8
BLACK
6
CONTINUOUS
10
1.6899616535433071
20
-1.3871383464566929
11
1.6892125590551181
21
-1.3999999999999999
0
LINE
8
BLACK
6
CONTINUOUS
10
1.6892125590551181
20
-1.3999999999999999
11
1.6899616535433071
21
-1.412861653543307
0
LINE
8
BLACK
6
CONTINUOUS
10
4.6140627559055121
20
-1.2751897637795275
11
4.6279486220472439
21
-1.2775490551181101
0
LINE
8
BLACK
6
CONTINUOUS
10
4.6279486220472439
20
-1.2775490551181101
11
4.6414830314960627
21
-1.2814482677165353
0
LINE
8
BLACK
6
CONTINUOUS
10
4.6414830314960627
20
-1.2814482677165353
11
4.6544957874015749
21
-1.2868383070866141
0
LINE
8
BLACK
6
CONTINUOUS
10
4.6544957874015749
20
-1.2868383070866141
11
4.6668232283464564
21
-1.2936514566929134
0
LINE
8
BLACK
6
CONTINUOUS
10
4.6668232283464564
20
-1.2936514566929134
11
4.6783103149606298
21
-1.301801968503937
0
LINE
8
BLACK
6
CONTINUOUS
10
4.6783103149606298
20
-1.301801968503937
11
4.6888125984251969
21
-1.3111874015748031
0
LINE
8
BLACK
6
CONTINUOUS
10
4.6888125984251969
20
-1.3111874015748031
11
4.6981980314960632
21
-1.32168968503937
0
LINE
8
BLACK
6
CONTINUOUS
10
4.6981980314960632
20
-1.32168968503937
11
4.7063485433070866
21
-1.3331767716535432
0
LINE
8
BLACK
6
CONTINUOUS
10
4.7063485433070866
20
-1.3331767716535432
11
4.7131616929133857
21
-1.3455042125984251
0
LINE
8
BLACK
6
CONTINUOUS
10
4.7131616929133857
20
-1.3455042125984251
11
4.7185517322834647
21
-1.3585169685039369
0
LINE
8
BLACK
6
CONTINUOUS
10
4.7185517322834647
20
-1.3585169685039369
11
4.7224509448818894
21
-1.3720513779527559
0
LINE
8
BLACK
6
CONTINUOUS
10
4.7224509448818894
20
-1.3720513779527559
11
4.7248102362204722
21
-1.3859372440944882
0
LINE
8
BLACK
6
CONTINUOUS
10
4.7248102362204722
20
-1.3859372440944882
11
4.7256
21
-1.3999999999999999
0
LINE
8
BLACK
6
CONTINUOUS
10
4.7256
20
-1.3999999999999999
11
4.7248102362204722
21
-1.4140627559055117
0
LINE
8
BLACK
6
CONTINUOUS
10
4.7248102362204722
20
-1.4140627559055117
11
4.7224509448818894
21
-1.4279486220472442
0
LINE
8
BLACK
6
CONTINUOUS
10
4.7224509448818894
20
-1.4279486220472442
11
4.7185517322834647
21
-1.4414830314960629
0
LINE
8
BLACK
6
CONTINUOUS
10
4.7185517322834647
20
-1.4414830314960629
11
4.7131616929133857
21
-1.4544957874015747
0
LINE
8
BLACK
6
CONTINUOUS
10
4.7131616929133857
20
-1.4544957874015747
11
4.7063485433070866
21
-1.4668232283464566
0
LINE
8
BLACK
6
CONTINUOUS
10
4.7063485433070866
20
-1.4668232283464566
11
4.6981980314960632
21
-1.4783103149606298
0
LINE
8
BLACK
6
CONTINUOUS
10
4.6981980314960632
20
-1.4783103149606298
11
4.6888125984251969
21
-1.4888125984251968
0
LINE
8
BLACK
6
CONTINUOUS
10
4.6888125984251969
20
-1.4888125984251968
11
4.6783103149606298
21
-1.498198031496063
0
LINE
8
BLACK
6
CONTINUOUS
10
4.6783103149606298
20
-1.498198031496063
11
4.6668232283464564
21
-1.5063485433070867
0
LINE
8
BLACK
6
CONTINUOUS
10
4.6668232283464564
20
-1.5063485433070867
11
4.6544957874015749
21
-1.5131616929133858
0
LINE
8
BLACK
6
CONTINUOUS
10
4.6544957874015749
20
-1.5131616929133858
11
4.6414830314960627
21
-1.5185517322834645
0
LINE
8
BLACK
6
CONTINUOUS
10
4.6414830314960627
20
-1.5185517322834645
11
4.6279486220472439
21
-1.5224509448818897
0
LINE
8
BLACK
6
CONTINUOUS
10
4.6279486220472439
20
-1.5224509448818897
11
4.6140627559055121
21
-1.5248102362204725
0
LINE
8
BLACK
6
CONTINUOUS
10
4.6140627559055121
20
-1.5248102362204725
11
4.5999999999999996
21
-1.5256000000000001
0
LINE
8
BLACK
6
CONTINUOUS
10
4.5999999999999996
20
-1.5256000000000001
11
4.5859372440944881
21
-1.5248102362204725
0
LINE
8
BLACK
6
CONTINUOUS
10
4.5859372440944881
20
-1.5248102362204725
11
4.5720513779527554
21
-1.5224509448818897
0
LINE
8
BLACK
6
CONTINUOUS
10
4.5720513779527554
20
-1.5224509448818897
11
4.5585169685039366
21
-1.5185517322834645
0
LINE
8
BLACK
6
CONTINUOUS
10
4.5585169685039366
20
-1.5185517322834645
11
4.5455042125984253
21
-1.5131616929133858
0
LINE
8
BLACK
6
CONTINUOUS
10
4.5455042125984253
20
-1.5131616929133858
11
4.5331767716535429
21
-1.5063485433070867
0
LINE
8
BLACK
6
CONTINUOUS
10
4.5331767716535429
20
-1.5063485433070867
11
4.5216896850393704
21
-1.498198031496063
0
LINE
8
BLACK
6
CONTINUOUS
10
4.5216896850393704
20
-1.498198031496063
11
4.5111874015748032
21
-1.4888125984251968
0
LINE
8
BLACK
6
CONTINUOUS
10
4.5111874015748032
20
-1.4888125984251968
11
4.501801968503937
21
-1.4783103149606298
0
LINE
8
BLACK
6
CONTINUOUS
10
4.501801968503937
20
-1.4783103149606298
11
4.4936514566929135
21
-1.4668232283464566
0
LINE
8
BLACK
6
CONTINUOUS
10
4.4936514566929135
20
-1.4668232283464566
11
4.4868383070866145
21
-1.4544957874015747
0
LINE
8
BLACK
6
CONTINUOUS
10
4.4868383070866145
20
-1.4544957874015747
11
4.4814482677165355
21
-1.4414830314960629
0
LINE
8
BLACK
6
CONTINUOUS
10
4.4814482677165355
20
-1.4414830314960629
11
4.4775490551181099
21
-1.4279486220472442
0
LINE
8
BLACK
6
CONTINUOUS
10
4.4775490551181099
20
-1.4279486220472442
11
4.475189763779527
21
-1.4140627559055117
0
LINE
8
BLACK
6
CONTINUOUS
10
4.475189763779527
20
-1.4140627559055117
11
4.4744000000000002
21
-1.3999999999999999
0
LINE
8
BLACK
6
CONTINUOUS
10
4.4744000000000002
20
-1.3999999999999999
11
4.475189763779527
21
-1.3859372440944882
0
LINE
8
BLACK
6
CONTINUOUS
10
4.475189763779527
20
-1.3859372440944882
11
4.4775490551181099
21
-1.3720513779527559
0
LINE
8
BLACK
6
CONTINUOUS
10
4.4775490551181099
20
-1.3720513779527559
11
4.4814482677165355
21
-1.3585169685039369
0
LINE
8
BLACK
6
CONTINUOUS
10
4.4814482677165355
20
-1.3585169685039369
11
4.4868383070866145
21
-1.3455042125984251
0
LINE
8
BLACK
6
CONTINUOUS
10
4.4868383070866145
20
-1.3455042125984251
11
4.4936514566929135
21
-1.3331767716535432
0
LINE
8
BLACK
6
CONTINUOUS
10
4.4936514566929135
20
-1.3331767716535432
11
4.501801968503937
21
-1.32168968503937
0
LINE
8
BLACK
6
CONTINUOUS
10
4.501801968503937
20
-1.32168968503937
11
4.5111874015748032
21
-1.3111874015748031
0
LINE
8
BLACK
6
CONTINUOUS
10
4.5111874015748032
20
-1.3111874015748031
11
4.5216896850393704
21
-1.301801968503937
0
LINE
8
BLACK
6
CONTINUOUS
10
4.5216896850393704
20
-1.301801968503937
11
4.5331767716535429
21
-1.2936514566929134
0
LINE
8
BLACK
6
CONTINUOUS
10
4.5331767716535429
20
-1.2936514566929134
11
4.5455042125984253
21
-1.2868383070866141
0
LINE
8
BLACK
6
CONTINUOUS
10
4.5455042125984253
20
-1.2868383070866141
11
4.5585169685039366
21
-1.2814482677165353
0
LINE
8
BLACK
6
CONTINUOUS
10
4.5585169685039366
20
-1.2814482677165353
11
4.5720513779527554
21
-1.2775490551181101
0
LINE
8
BLACK
6
CONTINUOUS
10
4.5720513779527554
20
-1.2775490551181101
11
4.5859372440944881
21
-1.2751897637795275
0
LINE
8
BLACK
6
CONTINUOUS
10
4.5859372440944881
20
-1.2751897637795275
11
4.5999999999999996
21
-1.2744
0
LINE
8
BLACK
6
CONTINUOUS
10
4.5999999999999996
20
-1.2744
11
4.6140627559055121
21
-1.2751897637795275
0
LINE
8
BLACK
6
CONTINUOUS
10
4.4899616535433067
20
-1.412861653543307
11
4.4921988582677166
21
-1.4255493307086613
0
LINE
8
BLACK
6
CONTINUOUS
10
4.4921988582677166
20
-1.4255493307086613
11
4.4958938582677161
21
-1.4378915354330708
0
LINE
8
BLACK
6
CONTINUOUS
10
4.4958938582677161
20
-1.4378915354330708
11
4.5009967322834648
21
-1.4497212992125983
0
LINE
8
BLACK
6
CONTINUOUS
10
4.5009967322834648
20
-1.4497212992125983
11
4.5074384251968507
21
-1.4608787007874016
0
LINE
8
BLACK
6
CONTINUOUS
10
4.5074384251968507
20
-1.4608787007874016
11
4.5151318897637793
21
-1.4712127952755905
0
LINE
8
BLACK
6
CONTINUOUS
10
4.5151318897637793
20
-1.4712127952755905
11
4.5239730314960624
21
-1.4805838582677164
0
LINE
8
BLACK
6
CONTINUOUS
10
4.5239730314960624
20
-1.4805838582677164
11
4.5338423228346452
21
-1.4888651574803149
0
LINE
8
BLACK
6
CONTINUOUS
10
4.5338423228346452
20
-1.4888651574803149
11
4.5446062598425199
21
-1.4959447244094488
0
LINE
8
BLACK
6
CONTINUOUS
10
4.5446062598425199
20
-1.4959447244094488
11
4.5561193307086612
21
-1.5017268110236219
0
LINE
8
BLACK
6
CONTINUOUS
10
4.5561193307086612
20
-1.5017268110236219
11
4.568225787401575
21
-1.5061331889763778
0
LINE
8
BLACK
6
CONTINUOUS
10
4.568225787401575
20
-1.5061331889763778
11
4.5807619685039365
21
-1.5091043307086613
0
LINE
8
BLACK
6
CONTINUOUS
10
4.5807619685039365
20
-1.5091043307086613
11
4.593558267716535
21
-1.5105999999999999
0
LINE
8
BLACK
6
CONTINUOUS
10
4.593558267716535
20
-1.5105999999999999
11
4.6064417322834643
21
-1.5105999999999999
0
LINE
8
BLACK
6
CONTINUOUS
10
4.6064417322834643
20
-1.5105999999999999
11
4.6192380314960628
21
-1.5091043307086613
0
LINE
8
BLACK
6
CONTINUOUS
10
4.6192380314960628
20
-1.5091043307086613
11
4.6317742125984251
21
-1.5061331889763778
0
LINE
8
BLACK
6
CONTINUOUS
10
4.6317742125984251
20
-1.5061331889763778
11
4.6438806692913381
21
-1.5017268110236219
0
LINE
8
BLACK
6
CONTINUOUS
10
4.6438806692913381
20
-1.5017268110236219
11
4.6553937401574803
21
-1.4959447244094488
0
LINE
8
BLACK
6
CONTINUOUS
10
4.6553937401574803
20
-1.4959447244094488
11
4.6661576771653541
21
-1.4888651574803149
0
LINE
8
BLACK
6
CONTINUOUS
10
4.6661576771653541
20
-1.4888651574803149
11
4.6760269685039368
21
-1.4805838582677164
0
LINE
8
BLACK
6
CONTINUOUS
10
4.6760269685039368
20
-1.4805838582677164
11
4.68486811023622
21
-1.4712127952755905
0
LINE
8
BLACK
6
CONTINUOUS
10
4.68486811023622
20
-1.4712127952755905
11
4.6925615748031495
21
-1.4608787007874016
0
LINE
8
BLACK
6
CONTINUOUS
10
4.6925615748031495
20
-1.4608787007874016
11
4.6990032677165354
21
-1.4497212992125983
0
LINE
8
BLACK
6
CONTINUOUS
10
4.6990032677165354
20
-1.4497212992125983
11
4.7041061417322831
21
-1.4378915354330708
0
LINE
8
BLACK
6
CONTINUOUS
10
4.7041061417322831
20
-1.4378915354330708
11
4.7078011417322836
21
-1.4255493307086613
0
LINE
8
BLACK
6
CONTINUOUS
10
4.7078011417322836
20
-1.4255493307086613
11
4.7100383464566926
21
-1.412861653543307
0
LINE
8
BLACK
6
CONTINUOUS
10
4.7100383464566926
20
-1.412861653543307
11
4.7107874409448822
21
-1.3999999999999999
0
LINE
8
BLACK
6
CONTINUOUS
10
4.7107874409448822
20
-1.3999999999999999
11
4.7100383464566926
21
-1.3871383464566929
0
LINE
8
BLACK
6
CONTINUOUS
10
4.7100383464566926
20
-1.3871383464566929
11
4.7078011417322836
21
-1.3744506692913385
0
LINE
8
BLACK
6
CONTINUOUS
10
4.7078011417322836
20
-1.3744506692913385
11
4.7041061417322831
21
-1.362108464566929
0
LINE
8
BLACK
6
CONTINUOUS
10
4.7041061417322831
20
-1.362108464566929
11
4.6990032677165354
21
-1.3502787007874015
0
LINE
8
BLACK
6
CONTINUOUS
10
4.6990032677165354
20
-1.3502787007874015
11
4.6925615748031495
21
-1.3391212992125985
0
LINE
8
BLACK
6
CONTINUOUS
10
4.6925615748031495
20
-1.3391212992125985
11
4.68486811023622
21
-1.3287872047244094
0
LINE
8
BLACK
6
CONTINUOUS
10
4.68486811023622
20
-1.3287872047244094
11
4.6760269685039368
21
-1.3194161417322834
0
LINE
8
BLACK
6
CONTINUOUS
10
4.6760269685039368
20
-1.3194161417322834
11
4.6661576771653541
21
-1.3111348425196849
0
LINE
8
BLACK
6
CONTINUOUS
10
4.6661576771653541
20
-1.3111348425196849
11
4.6553937401574803
21
-1.3040552755905512
0
LINE
8
BLACK
6
CONTINUOUS
10
4.6553937401574803
20
-1.3040552755905512
11
4.6438806692913381
21
-1.2982731889763779
0
LINE
8
BLACK
6
CONTINUOUS
10
4.6438806692913381
20
-1.2982731889763779
11
4.6317742125984251
21
-1.293866811023622
0
LINE
8
BLACK
6
CONTINUOUS
10
4.6317742125984251
20
-1.293866811023622
11
4.6192380314960628
21
-1.2908956692913385
0
LINE
8
BLACK
6
CONTINUOUS
10
4.6192380314960628
20
-1.2908956692913385
11
4.6064417322834643
21
-1.2893999999999999
0
LINE
8
BLACK
6
CONTINUOUS
10
4.6064417322834643
20
-1.2893999999999999
11
4.593558267716535
21
-1.2893999999999999
0
LINE
8
BLACK
6
CONTINUOUS
10
4.593558267716535
20
-1.2893999999999999
11
4.5807619685039365
21
-1.2908956692913385
0
LINE
8
BLACK
6
CONTINUOUS
10
4.5807619685039365
20
-1.2908956692913385
11
4.568225787401575
21
-1.293866811023622
0
LINE
8
BLACK
6
CONTINUOUS
10
4.568225787401575
20
-1.293866811023622
11
4.5561193307086612
21
-1.2982731889763779
0
LINE
8
BLACK
6
CONTINUOUS
10
4.5561193307086612
20
-1.2982731889763779
11
4.5446062598425199
21
-1.3040552755905512
0
LINE
8
BLACK
6
CONTINUOUS
10
4.5446062598425199
20
-1.3040552755905512
11
4.5338423228346452
21
-1.3111348425196849
0
LINE
8
BLACK
6
CONTINUOUS
10
4.5338423228346452
20
-1.3111348425196849
11
4.5239730314960624
21
-1.3194161417322834
0
LINE
8
BLACK
6
CONTINUOUS
10
4.5239730314960624
20
-1.3194161417322834
11
4.5151318897637793
21
-1.3287872047244094
0
LINE
8
BLACK
6
CONTINUOUS
10
4.5151318897637793
20
-1.3287872047244094
11
4.5074384251968507
21
-1.3391212992125985
0
LINE
8
BLACK
6
CONTINUOUS
10
4.5074384251968507
20
-1.3391212992125985
11
4.5009967322834648
21
-1.3502787007874015
0
LINE
8
BLACK
6
CONTINUOUS
10
4.5009967322834648
20
-1.3502787007874015
11
4.4958938582677161
21
-1.362108464566929
0
LINE
8
BLACK
6
CONTINUOUS
10
4.4958938582677161
20
-1.362108464566929
11
4.4921988582677166
21
-1.3744506692913385
0
LINE
8
BLACK
6
CONTINUOUS
10
4.4921988582677166
20
-1.3744506692913385
11
4.4899616535433067
21
-1.3871383464566929
0
LINE
8
BLACK
6
CONTINUOUS
10
4.4899616535433067
20
-1.3871383464566929
11
4.489212559055118
21
-1.3999999999999999
0
LINE
8
BLACK
6
CONTINUOUS
10
4.489212559055118
20
-1.3999999999999999
11
4.4899616535433067
21
-1.412861653543307
  0
ENDSEC
  0
EOF
