  0
SECTION
  2
HEADER
  9
$ANGBASE
  50
0.0
  9
$ANGDIR
  70
1
  9
$MEASUREMENT
  70
0
  0
ENDSEC
  0
SECTION
  2
TABLES
  0
TABLE
  2
LTYPE
  70
4
  0
LTYPE
  5
40F
  2
CONTINUOUS
  70
0
  3
Solid line
  72
65
  73
0
  40
0.0
  0
LTYPE
  5
410
  2
DASHDOT
 70
0
  3
Dash Dot ____ _ ____ _
 72
65
 73
4
 40
2.0
 49
1.25
 49
-0.25
 49
0.25
 49
-0.25
  0
LTYPE
  5
411
  2
DASHED
 70
0
  3
Dashed __ __ __ __ __
 72
65
 73
2
 40
0.75
 49
0.5
 49
-0.25
  0
LTYPE
  5
43B
  2
DOTTED
 70
0
  3
Dotted .  .  .  .
 72
65
 73
2
 40
0.2
 49
0.0
 49
-0.2
  0
ENDTAB
  0
TABLE
  2
STYLE
  70
4
  0
STYLE
  2
KICAD
  70
0
  40
0
  41
1
  42
1
  50
0
  71
0
  3
isocp.shx
  0
STYLE
  2
KICADB
  70
0
  40
0
  41
1
  42
1
  50
0
  71
0
  3
isocp.shx
  0
STYLE
  2
KICADI
  70
0
  40
0
  41
1
  42
1
  50
15
  71
0
  3
isocp.shx
  0
STYLE
  2
KICADBI
  70
0
  40
0
  41
1
  42
1
  50
15
  71
0
  3
isocp.shx
  0
ENDTAB
  0
TABLE
  2
LAYER
  70
1
  0
LAYER
  2
BLACK
  70
0
  62
7
  6
CONTINUOUS
  0
ENDTAB
  0
ENDSEC
  0
SECTION
  2
ENTITIES
0
LINE
8
BLACK
6
CONTINUOUS
10
2.3303149606299214
20
-2.7446062992125984
11
2.2909448818897635
21
-2.7446062992125984
0
LINE
8
BLACK
6
CONTINUOUS
10
2.2909448818897635
20
-2.7446062992125984
11
2.2909448818897635
21
-2.6953937007874016
0
LINE
8
BLACK
6
CONTINUOUS
10
2.2909448818897635
20
-2.6953937007874016
11
2.3303149606299214
21
-2.6953937007874016
0
LINE
8
BLACK
6
CONTINUOUS
10
2.3303149606299214
20
-2.6953937007874016
11
2.3303149606299214
21
-2.7446062992125984
0
LINE
8
BLACK
6
CONTINUOUS
10
2.4090551181102362
20
-2.7446062992125984
11
2.3696850393700788
21
-2.7446062992125984
0
LINE
8
BLACK
6
CONTINUOUS
10
2.3696850393700788
20
-2.7446062992125984
11
2.3696850393700788
21
-2.6953937007874016
0
LINE
8
BLACK
6
CONTINUOUS
10
2.3696850393700788
20
-2.6953937007874016
11
2.4090551181102362
21
-2.6953937007874016
0
LINE
8
BLACK
6
CONTINUOUS
10
2.4090551181102362
20
-2.6953937007874016
11
2.4090551181102362
21
-2.7446062992125984
0
LINE
8
BLACK
6
CONTINUOUS
10
2.16845
20
-2.7145000000000001
11
2.10155
21
-2.7145000000000001
0
LINE
8
BLACK
6
CONTINUOUS
10
2.10155
20
-2.7145000000000001
11
2.10155
21
-2.6633
0
LINE
8
BLACK
6
CONTINUOUS
10
2.10155
20
-2.6633
11
2.16845
21
-2.6633
0
LINE
8
BLACK
6
CONTINUOUS
10
2.16845
20
-2.6633
11
2.16845
21
-2.7145000000000001
0
LINE
8
BLACK
6
CONTINUOUS
10
2.2646062992125984
20
-2.6990551181102362
11
2.2153937007874016
21
-2.6990551181102362
0
LINE
8
BLACK
6
CONTINUOUS
10
2.2153937007874016
20
-2.6990551181102362
11
2.2153937007874016
21
-2.6596850393700788
0
LINE
8
BLACK
6
CONTINUOUS
10
2.2153937007874016
20
-2.6596850393700788
11
2.2646062992125984
21
-2.6596850393700788
0
LINE
8
BLACK
6
CONTINUOUS
10
2.2646062992125984
20
-2.6596850393700788
11
2.2646062992125984
21
-2.6990551181102362
0
LINE
8
BLACK
6
CONTINUOUS
10
2.6205905511811025
20
-2.6761811023622046
11
2.5694094488188974
21
-2.6761811023622046
0
LINE
8
BLACK
6
CONTINUOUS
10
2.5694094488188974
20
-2.6761811023622046
11
2.5694094488188974
21
-2.6486220472440944
0
LINE
8
BLACK
6
CONTINUOUS
10
2.5694094488188974
20
-2.6486220472440944
11
2.6205905511811025
21
-2.6486220472440944
0
LINE
8
BLACK
6
CONTINUOUS
10
2.6205905511811025
20
-2.6486220472440944
11
2.6205905511811025
21
-2.6761811023622046
0
LINE
8
BLACK
6
CONTINUOUS
10
2.7005905511811021
20
-2.6761811023622046
11
2.6494094488188975
21
-2.6761811023622046
0
LINE
8
BLACK
6
CONTINUOUS
10
2.6494094488188975
20
-2.6761811023622046
11
2.6494094488188975
21
-2.6486220472440944
0
LINE
8
BLACK
6
CONTINUOUS
10
2.6494094488188975
20
-2.6486220472440944
11
2.7005905511811021
21
-2.6486220472440944
0
LINE
8
BLACK
6
CONTINUOUS
10
2.7005905511811021
20
-2.6486220472440944
11
2.7005905511811021
21
-2.6761811023622046
0
LINE
8
BLACK
6
CONTINUOUS
10
2.9405905511811024
20
-2.6761811023622046
11
2.8894094488188977
21
-2.6761811023622046
0
LINE
8
BLACK
6
CONTINUOUS
10
2.8894094488188977
20
-2.6761811023622046
11
2.8894094488188977
21
-2.6486220472440944
0
LINE
8
BLACK
6
CONTINUOUS
10
2.8894094488188977
20
-2.6486220472440944
11
2.9405905511811024
21
-2.6486220472440944
0
LINE
8
BLACK
6
CONTINUOUS
10
2.9405905511811024
20
-2.6486220472440944
11
2.9405905511811024
21
-2.6761811023622046
0
LINE
8
BLACK
6
CONTINUOUS
10
3.0205905511811024
20
-2.6761811023622046
11
2.9694094488188978
21
-2.6761811023622046
0
LINE
8
BLACK
6
CONTINUOUS
10
2.9694094488188978
20
-2.6761811023622046
11
2.9694094488188978
21
-2.6486220472440944
0
LINE
8
BLACK
6
CONTINUOUS
10
2.9694094488188978
20
-2.6486220472440944
11
3.0205905511811024
21
-2.6486220472440944
0
LINE
8
BLACK
6
CONTINUOUS
10
3.0205905511811024
20
-2.6486220472440944
11
3.0205905511811024
21
-2.6761811023622046
0
LINE
8
BLACK
6
CONTINUOUS
10
3.2705905511811024
20
-2.6761811023622046
11
3.2194094488188973
21
-2.6761811023622046
0
LINE
8
BLACK
6
CONTINUOUS
10
3.2194094488188973
20
-2.6761811023622046
11
3.2194094488188973
21
-2.6486220472440944
0
LINE
8
BLACK
6
CONTINUOUS
10
3.2194094488188973
20
-2.6486220472440944
11
3.2705905511811024
21
-2.6486220472440944
0
LINE
8
BLACK
6
CONTINUOUS
10
3.2705905511811024
20
-2.6486220472440944
11
3.2705905511811024
21
-2.6761811023622046
0
LINE
8
BLACK
6
CONTINUOUS
10
3.3505905511811025
20
-2.6761811023622046
11
3.2994094488188974
21
-2.6761811023622046
0
LINE
8
BLACK
6
CONTINUOUS
10
3.2994094488188974
20
-2.6761811023622046
11
3.2994094488188974
21
-2.6486220472440944
0
LINE
8
BLACK
6
CONTINUOUS
10
3.2994094488188974
20
-2.6486220472440944
11
3.3505905511811025
21
-2.6486220472440944
0
LINE
8
BLACK
6
CONTINUOUS
10
3.3505905511811025
20
-2.6486220472440944
11
3.3505905511811025
21
-2.6761811023622046
0
LINE
8
BLACK
6
CONTINUOUS
10
3.5955905511811022
20
-2.6761811023622046
11
3.5444094488188975
21
-2.6761811023622046
0
LINE
8
BLACK
6
CONTINUOUS
10
3.5444094488188975
20
-2.6761811023622046
11
3.5444094488188975
21
-2.6486220472440944
0
LINE
8
BLACK
6
CONTINUOUS
10
3.5444094488188975
20
-2.6486220472440944
11
3.5955905511811022
21
-2.6486220472440944
0
LINE
8
BLACK
6
CONTINUOUS
10
3.5955905511811022
20
-2.6486220472440944
11
3.5955905511811022
21
-2.6761811023622046
0
LINE
8
BLACK
6
CONTINUOUS
10
3.6755905511811022
20
-2.6761811023622046
11
3.6244094488188976
21
-2.6761811023622046
0
LINE
8
BLACK
6
CONTINUOUS
10
3.6244094488188976
20
-2.6761811023622046
11
3.6244094488188976
21
-2.6486220472440944
0
LINE
8
BLACK
6
CONTINUOUS
10
3.6244094488188976
20
-2.6486220472440944
11
3.6755905511811022
21
-2.6486220472440944
0
LINE
8
BLACK
6
CONTINUOUS
10
3.6755905511811022
20
-2.6486220472440944
11
3.6755905511811022
21
-2.6761811023622046
0
LINE
8
BLACK
6
CONTINUOUS
10
3.9205905511811023
20
-2.6761811023622046
11
3.8694094488188977
21
-2.6761811023622046
0
LINE
8
BLACK
6
CONTINUOUS
10
3.8694094488188977
20
-2.6761811023622046
11
3.8694094488188977
21
-2.6486220472440944
0
LINE
8
BLACK
6
CONTINUOUS
10
3.8694094488188977
20
-2.6486220472440944
11
3.9205905511811023
21
-2.6486220472440944
0
LINE
8
BLACK
6
CONTINUOUS
10
3.9205905511811023
20
-2.6486220472440944
11
3.9205905511811023
21
-2.6761811023622046
0
LINE
8
BLACK
6
CONTINUOUS
10
4.0005905511811024
20
-2.6761811023622046
11
3.9494094488188973
21
-2.6761811023622046
0
LINE
8
BLACK
6
CONTINUOUS
10
3.9494094488188973
20
-2.6761811023622046
11
3.9494094488188973
21
-2.6486220472440944
0
LINE
8
BLACK
6
CONTINUOUS
10
3.9494094488188973
20
-2.6486220472440944
11
4.0005905511811024
21
-2.6486220472440944
0
LINE
8
BLACK
6
CONTINUOUS
10
4.0005905511811024
20
-2.6486220472440944
11
4.0005905511811024
21
-2.6761811023622046
0
LINE
8
BLACK
6
CONTINUOUS
10
4.2455905511811025
20
-2.6761811023622046
11
4.1944094488188979
21
-2.6761811023622046
0
LINE
8
BLACK
6
CONTINUOUS
10
4.1944094488188979
20
-2.6761811023622046
11
4.1944094488188979
21
-2.6486220472440944
0
LINE
8
BLACK
6
CONTINUOUS
10
4.1944094488188979
20
-2.6486220472440944
11
4.2455905511811025
21
-2.6486220472440944
0
LINE
8
BLACK
6
CONTINUOUS
10
4.2455905511811025
20
-2.6486220472440944
11
4.2455905511811025
21
-2.6761811023622046
0
LINE
8
BLACK
6
CONTINUOUS
10
4.3255905511811026
20
-2.6761811023622046
11
4.2744094488188979
21
-2.6761811023622046
0
LINE
8
BLACK
6
CONTINUOUS
10
4.2744094488188979
20
-2.6761811023622046
11
4.2744094488188979
21
-2.6486220472440944
0
LINE
8
BLACK
6
CONTINUOUS
10
4.2744094488188979
20
-2.6486220472440944
11
4.3255905511811026
21
-2.6486220472440944
0
LINE
8
BLACK
6
CONTINUOUS
10
4.3255905511811026
20
-2.6486220472440944
11
4.3255905511811026
21
-2.6761811023622046
0
LINE
8
BLACK
6
CONTINUOUS
10
2.3263779527559056
20
-2.6705905511811023
11
2.298818897637795
21
-2.6705905511811023
0
LINE
8
BLACK
6
CONTINUOUS
10
2.298818897637795
20
-2.6705905511811023
11
2.298818897637795
21
-2.6194094488188977
0
LINE
8
BLACK
6
CONTINUOUS
10
2.298818897637795
20
-2.6194094488188977
11
2.3263779527559056
21
-2.6194094488188977
0
LINE
8
BLACK
6
CONTINUOUS
10
2.3263779527559056
20
-2.6194094488188977
11
2.3263779527559056
21
-2.6705905511811023
0
LINE
8
BLACK
6
CONTINUOUS
10
2.4011811023622047
20
-2.6705905511811023
11
2.3736220472440945
21
-2.6705905511811023
0
LINE
8
BLACK
6
CONTINUOUS
10
2.3736220472440945
20
-2.6705905511811023
11
2.3736220472440945
21
-2.6194094488188977
0
LINE
8
BLACK
6
CONTINUOUS
10
2.3736220472440945
20
-2.6194094488188977
11
2.4011811023622047
21
-2.6194094488188977
0
LINE
8
BLACK
6
CONTINUOUS
10
2.4011811023622047
20
-2.6194094488188977
11
2.4011811023622047
21
-2.6705905511811023
0
LINE
8
BLACK
6
CONTINUOUS
10
2.0003937007874013
20
-2.6691732283464566
11
1.9748031496062992
21
-2.6691732283464566
0
LINE
8
BLACK
6
CONTINUOUS
10
1.9748031496062992
20
-2.6691732283464566
11
1.9748031496062992
21
-2.6274409448818896
0
LINE
8
BLACK
6
CONTINUOUS
10
1.9748031496062992
20
-2.6274409448818896
11
2.0003937007874013
21
-2.6274409448818896
0
LINE
8
BLACK
6
CONTINUOUS
10
2.0003937007874013
20
-2.6274409448818896
11
2.0003937007874013
21
-2.6691732283464566
0
LINE
8
BLACK
6
CONTINUOUS
10
2.0377952755905513
20
-2.6691732283464566
11
2.012204724409449
21
-2.6691732283464566
0
LINE
8
BLACK
6
CONTINUOUS
10
2.012204724409449
20
-2.6691732283464566
11
2.012204724409449
21
-2.6274409448818896
0
LINE
8
BLACK
6
CONTINUOUS
10
2.012204724409449
20
-2.6274409448818896
11
2.0377952755905513
21
-2.6274409448818896
0
LINE
8
BLACK
6
CONTINUOUS
10
2.0377952755905513
20
-2.6274409448818896
11
2.0377952755905513
21
-2.6691732283464566
0
LINE
8
BLACK
6
CONTINUOUS
10
2.0751968503937008
20
-2.6691732283464566
11
2.0496062992125985
21
-2.6691732283464566
0
LINE
8
BLACK
6
CONTINUOUS
10
2.0496062992125985
20
-2.6691732283464566
11
2.0496062992125985
21
-2.6274409448818896
0
LINE
8
BLACK
6
CONTINUOUS
10
2.0496062992125985
20
-2.6274409448818896
11
2.0751968503937008
21
-2.6274409448818896
0
LINE
8
BLACK
6
CONTINUOUS
10
2.0751968503937008
20
-2.6274409448818896
11
2.0751968503937008
21
-2.6691732283464566
0
LINE
8
BLACK
6
CONTINUOUS
10
2.2646062992125984
20
-2.6203149606299214
11
2.2153937007874016
21
-2.6203149606299214
0
LINE
8
BLACK
6
CONTINUOUS
10
2.2153937007874016
20
-2.6203149606299214
11
2.2153937007874016
21
-2.5809448818897636
0
LINE
8
BLACK
6
CONTINUOUS
10
2.2153937007874016
20
-2.5809448818897636
11
2.2646062992125984
21
-2.5809448818897636
0
LINE
8
BLACK
6
CONTINUOUS
10
2.2646062992125984
20
-2.5809448818897636
11
2.2646062992125984
21
-2.6203149606299214
0
LINE
8
BLACK
6
CONTINUOUS
10
3.7496062992125982
20
-2.6190551181102362
11
3.7003937007874015
21
-2.6190551181102362
0
LINE
8
BLACK
6
CONTINUOUS
10
3.7003937007874015
20
-2.6190551181102362
11
3.7003937007874015
21
-2.5796850393700788
0
LINE
8
BLACK
6
CONTINUOUS
10
3.7003937007874015
20
-2.5796850393700788
11
3.7496062992125982
21
-2.5796850393700788
0
LINE
8
BLACK
6
CONTINUOUS
10
3.7496062992125982
20
-2.5796850393700788
11
3.7496062992125982
21
-2.6190551181102362
0
LINE
8
BLACK
6
CONTINUOUS
10
3.8346062992125982
20
-2.6190551181102362
11
3.7853937007874014
21
-2.6190551181102362
0
LINE
8
BLACK
6
CONTINUOUS
10
3.7853937007874014
20
-2.6190551181102362
11
3.7853937007874014
21
-2.5796850393700788
0
LINE
8
BLACK
6
CONTINUOUS
10
3.7853937007874014
20
-2.5796850393700788
11
3.8346062992125982
21
-2.5796850393700788
0
LINE
8
BLACK
6
CONTINUOUS
10
3.8346062992125982
20
-2.5796850393700788
11
3.8346062992125982
21
-2.6190551181102362
0
LINE
8
BLACK
6
CONTINUOUS
10
4.074606299212598
20
-2.6190551181102362
11
4.0253937007874017
21
-2.6190551181102362
0
LINE
8
BLACK
6
CONTINUOUS
10
4.0253937007874017
20
-2.6190551181102362
11
4.0253937007874017
21
-2.5796850393700788
0
LINE
8
BLACK
6
CONTINUOUS
10
4.0253937007874017
20
-2.5796850393700788
11
4.074606299212598
21
-2.5796850393700788
0
LINE
8
BLACK
6
CONTINUOUS
10
4.074606299212598
20
-2.5796850393700788
11
4.074606299212598
21
-2.6190551181102362
0
LINE
8
BLACK
6
CONTINUOUS
10
4.1646062992125987
20
-2.6190551181102362
11
4.1153937007874015
21
-2.6190551181102362
0
LINE
8
BLACK
6
CONTINUOUS
10
4.1153937007874015
20
-2.6190551181102362
11
4.1153937007874015
21
-2.5796850393700788
0
LINE
8
BLACK
6
CONTINUOUS
10
4.1153937007874015
20
-2.5796850393700788
11
4.1646062992125987
21
-2.5796850393700788
0
LINE
8
BLACK
6
CONTINUOUS
10
4.1646062992125987
20
-2.5796850393700788
11
4.1646062992125987
21
-2.6190551181102362
0
LINE
8
BLACK
6
CONTINUOUS
10
4.3996062992125982
20
-2.6190551181102362
11
4.3503937007874018
21
-2.6190551181102362
0
LINE
8
BLACK
6
CONTINUOUS
10
4.3503937007874018
20
-2.6190551181102362
11
4.3503937007874018
21
-2.5796850393700788
0
LINE
8
BLACK
6
CONTINUOUS
10
4.3503937007874018
20
-2.5796850393700788
11
4.3996062992125982
21
-2.5796850393700788
0
LINE
8
BLACK
6
CONTINUOUS
10
4.3996062992125982
20
-2.5796850393700788
11
4.3996062992125982
21
-2.6190551181102362
0
LINE
8
BLACK
6
CONTINUOUS
10
2.5346062992125984
20
-2.6140551181102363
11
2.4853937007874016
21
-2.6140551181102363
0
LINE
8
BLACK
6
CONTINUOUS
10
2.4853937007874016
20
-2.6140551181102363
11
2.4853937007874016
21
-2.5746850393700789
0
LINE
8
BLACK
6
CONTINUOUS
10
2.4853937007874016
20
-2.5746850393700789
11
2.5346062992125984
21
-2.5746850393700789
0
LINE
8
BLACK
6
CONTINUOUS
10
2.5346062992125984
20
-2.5746850393700789
11
2.5346062992125984
21
-2.6140551181102363
0
LINE
8
BLACK
6
CONTINUOUS
10
2.7796062992125985
20
-2.6140551181102363
11
2.7303937007874017
21
-2.6140551181102363
0
LINE
8
BLACK
6
CONTINUOUS
10
2.7303937007874017
20
-2.6140551181102363
11
2.7303937007874017
21
-2.5746850393700789
0
LINE
8
BLACK
6
CONTINUOUS
10
2.7303937007874017
20
-2.5746850393700789
11
2.7796062992125985
21
-2.5746850393700789
0
LINE
8
BLACK
6
CONTINUOUS
10
2.7796062992125985
20
-2.5746850393700789
11
2.7796062992125985
21
-2.6140551181102363
0
LINE
8
BLACK
6
CONTINUOUS
10
2.8546062992125982
20
-2.6140551181102363
11
2.8053937007874015
21
-2.6140551181102363
0
LINE
8
BLACK
6
CONTINUOUS
10
2.8053937007874015
20
-2.6140551181102363
11
2.8053937007874015
21
-2.5746850393700789
0
LINE
8
BLACK
6
CONTINUOUS
10
2.8053937007874015
20
-2.5746850393700789
11
2.8546062992125982
21
-2.5746850393700789
0
LINE
8
BLACK
6
CONTINUOUS
10
2.8546062992125982
20
-2.5746850393700789
11
2.8546062992125982
21
-2.6140551181102363
0
LINE
8
BLACK
6
CONTINUOUS
10
3.0946062992125984
20
-2.6140551181102363
11
3.0453937007874017
21
-2.6140551181102363
0
LINE
8
BLACK
6
CONTINUOUS
10
3.0453937007874017
20
-2.6140551181102363
11
3.0453937007874017
21
-2.5746850393700789
0
LINE
8
BLACK
6
CONTINUOUS
10
3.0453937007874017
20
-2.5746850393700789
11
3.0946062992125984
21
-2.5746850393700789
0
LINE
8
BLACK
6
CONTINUOUS
10
3.0946062992125984
20
-2.5746850393700789
11
3.0946062992125984
21
-2.6140551181102363
0
LINE
8
BLACK
6
CONTINUOUS
10
3.1846062992125983
20
-2.6140551181102363
11
3.1353937007874015
21
-2.6140551181102363
0
LINE
8
BLACK
6
CONTINUOUS
10
3.1353937007874015
20
-2.6140551181102363
11
3.1353937007874015
21
-2.5746850393700789
0
LINE
8
BLACK
6
CONTINUOUS
10
3.1353937007874015
20
-2.5746850393700789
11
3.1846062992125983
21
-2.5746850393700789
0
LINE
8
BLACK
6
CONTINUOUS
10
3.1846062992125983
20
-2.5746850393700789
11
3.1846062992125983
21
-2.6140551181102363
0
LINE
8
BLACK
6
CONTINUOUS
10
3.4246062992125985
20
-2.6140551181102363
11
3.3753937007874013
21
-2.6140551181102363
0
LINE
8
BLACK
6
CONTINUOUS
10
3.3753937007874013
20
-2.6140551181102363
11
3.3753937007874013
21
-2.5746850393700789
0
LINE
8
BLACK
6
CONTINUOUS
10
3.3753937007874013
20
-2.5746850393700789
11
3.4246062992125985
21
-2.5746850393700789
0
LINE
8
BLACK
6
CONTINUOUS
10
3.4246062992125985
20
-2.5746850393700789
11
3.4246062992125985
21
-2.6140551181102363
0
LINE
8
BLACK
6
CONTINUOUS
10
3.5046062992125981
20
-2.6140551181102363
11
3.4553937007874014
21
-2.6140551181102363
0
LINE
8
BLACK
6
CONTINUOUS
10
3.4553937007874014
20
-2.6140551181102363
11
3.4553937007874014
21
-2.5746850393700789
0
LINE
8
BLACK
6
CONTINUOUS
10
3.4553937007874014
20
-2.5746850393700789
11
3.5046062992125981
21
-2.5746850393700789
0
LINE
8
BLACK
6
CONTINUOUS
10
3.5046062992125981
20
-2.5746850393700789
11
3.5046062992125981
21
-2.6140551181102363
0
LINE
8
BLACK
6
CONTINUOUS
10
2.6205905511811025
20
-2.6013779527559056
11
2.5694094488188974
21
-2.6013779527559056
0
LINE
8
BLACK
6
CONTINUOUS
10
2.5694094488188974
20
-2.6013779527559056
11
2.5694094488188974
21
-2.5738188976377954
0
LINE
8
BLACK
6
CONTINUOUS
10
2.5694094488188974
20
-2.5738188976377954
11
2.6205905511811025
21
-2.5738188976377954
0
LINE
8
BLACK
6
CONTINUOUS
10
2.6205905511811025
20
-2.5738188976377954
11
2.6205905511811025
21
-2.6013779527559056
0
LINE
8
BLACK
6
CONTINUOUS
10
2.7005905511811021
20
-2.6013779527559056
11
2.6494094488188975
21
-2.6013779527559056
0
LINE
8
BLACK
6
CONTINUOUS
10
2.6494094488188975
20
-2.6013779527559056
11
2.6494094488188975
21
-2.5738188976377954
0
LINE
8
BLACK
6
CONTINUOUS
10
2.6494094488188975
20
-2.5738188976377954
11
2.7005905511811021
21
-2.5738188976377954
0
LINE
8
BLACK
6
CONTINUOUS
10
2.7005905511811021
20
-2.5738188976377954
11
2.7005905511811021
21
-2.6013779527559056
0
LINE
8
BLACK
6
CONTINUOUS
10
2.9405905511811024
20
-2.6013779527559056
11
2.8894094488188977
21
-2.6013779527559056
0
LINE
8
BLACK
6
CONTINUOUS
10
2.8894094488188977
20
-2.6013779527559056
11
2.8894094488188977
21
-2.5738188976377954
0
LINE
8
BLACK
6
CONTINUOUS
10
2.8894094488188977
20
-2.5738188976377954
11
2.9405905511811024
21
-2.5738188976377954
0
LINE
8
BLACK
6
CONTINUOUS
10
2.9405905511811024
20
-2.5738188976377954
11
2.9405905511811024
21
-2.6013779527559056
0
LINE
8
BLACK
6
CONTINUOUS
10
3.0205905511811024
20
-2.6013779527559056
11
2.9694094488188978
21
-2.6013779527559056
0
LINE
8
BLACK
6
CONTINUOUS
10
2.9694094488188978
20
-2.6013779527559056
11
2.9694094488188978
21
-2.5738188976377954
0
LINE
8
BLACK
6
CONTINUOUS
10
2.9694094488188978
20
-2.5738188976377954
11
3.0205905511811024
21
-2.5738188976377954
0
LINE
8
BLACK
6
CONTINUOUS
10
3.0205905511811024
20
-2.5738188976377954
11
3.0205905511811024
21
-2.6013779527559056
0
LINE
8
BLACK
6
CONTINUOUS
10
3.2705905511811024
20
-2.6013779527559056
11
3.2194094488188973
21
-2.6013779527559056
0
LINE
8
BLACK
6
CONTINUOUS
10
3.2194094488188973
20
-2.6013779527559056
11
3.2194094488188973
21
-2.5738188976377954
0
LINE
8
BLACK
6
CONTINUOUS
10
3.2194094488188973
20
-2.5738188976377954
11
3.2705905511811024
21
-2.5738188976377954
0
LINE
8
BLACK
6
CONTINUOUS
10
3.2705905511811024
20
-2.5738188976377954
11
3.2705905511811024
21
-2.6013779527559056
0
LINE
8
BLACK
6
CONTINUOUS
10
3.3505905511811025
20
-2.6013779527559056
11
3.2994094488188974
21
-2.6013779527559056
0
LINE
8
BLACK
6
CONTINUOUS
10
3.2994094488188974
20
-2.6013779527559056
11
3.2994094488188974
21
-2.5738188976377954
0
LINE
8
BLACK
6
CONTINUOUS
10
3.2994094488188974
20
-2.5738188976377954
11
3.3505905511811025
21
-2.5738188976377954
0
LINE
8
BLACK
6
CONTINUOUS
10
3.3505905511811025
20
-2.5738188976377954
11
3.3505905511811025
21
-2.6013779527559056
0
LINE
8
BLACK
6
CONTINUOUS
10
3.5955905511811022
20
-2.6013779527559056
11
3.5444094488188975
21
-2.6013779527559056
0
LINE
8
BLACK
6
CONTINUOUS
10
3.5444094488188975
20
-2.6013779527559056
11
3.5444094488188975
21
-2.5738188976377954
0
LINE
8
BLACK
6
CONTINUOUS
10
3.5444094488188975
20
-2.5738188976377954
11
3.5955905511811022
21
-2.5738188976377954
0
LINE
8
BLACK
6
CONTINUOUS
10
3.5955905511811022
20
-2.5738188976377954
11
3.5955905511811022
21
-2.6013779527559056
0
LINE
8
BLACK
6
CONTINUOUS
10
3.6755905511811022
20
-2.6013779527559056
11
3.6244094488188976
21
-2.6013779527559056
0
LINE
8
BLACK
6
CONTINUOUS
10
3.6244094488188976
20
-2.6013779527559056
11
3.6244094488188976
21
-2.5738188976377954
0
LINE
8
BLACK
6
CONTINUOUS
10
3.6244094488188976
20
-2.5738188976377954
11
3.6755905511811022
21
-2.5738188976377954
0
LINE
8
BLACK
6
CONTINUOUS
10
3.6755905511811022
20
-2.5738188976377954
11
3.6755905511811022
21
-2.6013779527559056
0
LINE
8
BLACK
6
CONTINUOUS
10
3.9205905511811023
20
-2.6013779527559056
11
3.8694094488188977
21
-2.6013779527559056
0
LINE
8
BLACK
6
CONTINUOUS
10
3.8694094488188977
20
-2.6013779527559056
11
3.8694094488188977
21
-2.5738188976377954
0
LINE
8
BLACK
6
CONTINUOUS
10
3.8694094488188977
20
-2.5738188976377954
11
3.9205905511811023
21
-2.5738188976377954
0
LINE
8
BLACK
6
CONTINUOUS
10
3.9205905511811023
20
-2.5738188976377954
11
3.9205905511811023
21
-2.6013779527559056
0
LINE
8
BLACK
6
CONTINUOUS
10
4.0005905511811024
20
-2.6013779527559056
11
3.9494094488188973
21
-2.6013779527559056
0
LINE
8
BLACK
6
CONTINUOUS
10
3.9494094488188973
20
-2.6013779527559056
11
3.9494094488188973
21
-2.5738188976377954
0
LINE
8
BLACK
6
CONTINUOUS
10
3.9494094488188973
20
-2.5738188976377954
11
4.0005905511811024
21
-2.5738188976377954
0
LINE
8
BLACK
6
CONTINUOUS
10
4.0005905511811024
20
-2.5738188976377954
11
4.0005905511811024
21
-2.6013779527559056
0
LINE
8
BLACK
6
CONTINUOUS
10
4.2455905511811025
20
-2.6013779527559056
11
4.1944094488188979
21
-2.6013779527559056
0
LINE
8
BLACK
6
CONTINUOUS
10
4.1944094488188979
20
-2.6013779527559056
11
4.1944094488188979
21
-2.5738188976377954
0
LINE
8
BLACK
6
CONTINUOUS
10
4.1944094488188979
20
-2.5738188976377954
11
4.2455905511811025
21
-2.5738188976377954
0
LINE
8
BLACK
6
CONTINUOUS
10
4.2455905511811025
20
-2.5738188976377954
11
4.2455905511811025
21
-2.6013779527559056
0
LINE
8
BLACK
6
CONTINUOUS
10
4.3255905511811026
20
-2.6013779527559056
11
4.2744094488188979
21
-2.6013779527559056
0
LINE
8
BLACK
6
CONTINUOUS
10
4.2744094488188979
20
-2.6013779527559056
11
4.2744094488188979
21
-2.5738188976377954
0
LINE
8
BLACK
6
CONTINUOUS
10
4.2744094488188979
20
-2.5738188976377954
11
4.3255905511811026
21
-2.5738188976377954
0
LINE
8
BLACK
6
CONTINUOUS
10
4.3255905511811026
20
-2.5738188976377954
11
4.3255905511811026
21
-2.6013779527559056
0
LINE
8
BLACK
6
CONTINUOUS
10
2.3253937007874015
20
-2.5941732283464565
11
2.2998031496062992
21
-2.5941732283464565
0
LINE
8
BLACK
6
CONTINUOUS
10
2.2998031496062992
20
-2.5941732283464565
11
2.2998031496062992
21
-2.5524409448818899
0
LINE
8
BLACK
6
CONTINUOUS
10
2.2998031496062992
20
-2.5524409448818899
11
2.3253937007874015
21
-2.5524409448818899
0
LINE
8
BLACK
6
CONTINUOUS
10
2.3253937007874015
20
-2.5524409448818899
11
2.3253937007874015
21
-2.5941732283464565
0
LINE
8
BLACK
6
CONTINUOUS
10
2.4001968503937006
20
-2.5941732283464565
11
2.3746062992125982
21
-2.5941732283464565
0
LINE
8
BLACK
6
CONTINUOUS
10
2.3746062992125982
20
-2.5941732283464565
11
2.3746062992125982
21
-2.5524409448818899
0
LINE
8
BLACK
6
CONTINUOUS
10
2.3746062992125982
20
-2.5524409448818899
11
2.4001968503937006
21
-2.5524409448818899
0
LINE
8
BLACK
6
CONTINUOUS
10
2.4001968503937006
20
-2.5524409448818899
11
2.4001968503937006
21
-2.5941732283464565
0
LINE
8
BLACK
6
CONTINUOUS
10
2.0003937007874013
20
-2.5825590551181103
11
1.9748031496062992
21
-2.5825590551181103
0
LINE
8
BLACK
6
CONTINUOUS
10
1.9748031496062992
20
-2.5825590551181103
11
1.9748031496062992
21
-2.5408267716535433
0
LINE
8
BLACK
6
CONTINUOUS
10
1.9748031496062992
20
-2.5408267716535433
11
2.0003937007874013
21
-2.5408267716535433
0
LINE
8
BLACK
6
CONTINUOUS
10
2.0003937007874013
20
-2.5408267716535433
11
2.0003937007874013
21
-2.5825590551181103
0
LINE
8
BLACK
6
CONTINUOUS
10
2.0751968503937008
20
-2.5825590551181103
11
2.0496062992125985
21
-2.5825590551181103
0
LINE
8
BLACK
6
CONTINUOUS
10
2.0496062992125985
20
-2.5825590551181103
11
2.0496062992125985
21
-2.5408267716535433
0
LINE
8
BLACK
6
CONTINUOUS
10
2.0496062992125985
20
-2.5408267716535433
11
2.0751968503937008
21
-2.5408267716535433
0
LINE
8
BLACK
6
CONTINUOUS
10
2.0751968503937008
20
-2.5408267716535433
11
2.0751968503937008
21
-2.5825590551181103
0
LINE
8
BLACK
6
CONTINUOUS
10
2.16845
20
-2.5766999999999998
11
2.10155
21
-2.5766999999999998
0
LINE
8
BLACK
6
CONTINUOUS
10
2.10155
20
-2.5766999999999998
11
2.10155
21
-2.5255000000000001
0
LINE
8
BLACK
6
CONTINUOUS
10
2.10155
20
-2.5255000000000001
11
2.16845
21
-2.5255000000000001
0
LINE
8
BLACK
6
CONTINUOUS
10
2.16845
20
-2.5255000000000001
11
2.16845
21
-2.5766999999999998
0
LINE
8
BLACK
6
CONTINUOUS
10
2.6053937007874017
20
-2.5541732283464564
11
2.579803149606299
21
-2.5541732283464564
0
LINE
8
BLACK
6
CONTINUOUS
10
2.579803149606299
20
-2.5541732283464564
11
2.579803149606299
21
-2.5124409448818898
0
LINE
8
BLACK
6
CONTINUOUS
10
2.579803149606299
20
-2.5124409448818898
11
2.6053937007874017
21
-2.5124409448818898
0
LINE
8
BLACK
6
CONTINUOUS
10
2.6053937007874017
20
-2.5124409448818898
11
2.6053937007874017
21
-2.5541732283464564
0
LINE
8
BLACK
6
CONTINUOUS
10
2.6427952755905513
20
-2.5541732283464564
11
2.617204724409449
21
-2.5541732283464564
0
LINE
8
BLACK
6
CONTINUOUS
10
2.617204724409449
20
-2.5541732283464564
11
2.617204724409449
21
-2.5124409448818898
0
LINE
8
BLACK
6
CONTINUOUS
10
2.617204724409449
20
-2.5124409448818898
11
2.6427952755905513
21
-2.5124409448818898
0
LINE
8
BLACK
6
CONTINUOUS
10
2.6427952755905513
20
-2.5124409448818898
11
2.6427952755905513
21
-2.5541732283464564
0
LINE
8
BLACK
6
CONTINUOUS
10
2.6801968503937008
20
-2.5541732283464564
11
2.6546062992125985
21
-2.5541732283464564
0
LINE
8
BLACK
6
CONTINUOUS
10
2.6546062992125985
20
-2.5541732283464564
11
2.6546062992125985
21
-2.5124409448818898
0
LINE
8
BLACK
6
CONTINUOUS
10
2.6546062992125985
20
-2.5124409448818898
11
2.6801968503937008
21
-2.5124409448818898
0
LINE
8
BLACK
6
CONTINUOUS
10
2.6801968503937008
20
-2.5124409448818898
11
2.6801968503937008
21
-2.5541732283464564
0
LINE
8
BLACK
6
CONTINUOUS
10
2.9303937007874015
20
-2.5541732283464564
11
2.9048031496062992
21
-2.5541732283464564
0
LINE
8
BLACK
6
CONTINUOUS
10
2.9048031496062992
20
-2.5541732283464564
11
2.9048031496062992
21
-2.5124409448818898
0
LINE
8
BLACK
6
CONTINUOUS
10
2.9048031496062992
20
-2.5124409448818898
11
2.9303937007874015
21
-2.5124409448818898
0
LINE
8
BLACK
6
CONTINUOUS
10
2.9303937007874015
20
-2.5124409448818898
11
2.9303937007874015
21
-2.5541732283464564
0
LINE
8
BLACK
6
CONTINUOUS
10
2.967795275590551
20
-2.5541732283464564
11
2.9422047244094487
21
-2.5541732283464564
0
LINE
8
BLACK
6
CONTINUOUS
10
2.9422047244094487
20
-2.5541732283464564
11
2.9422047244094487
21
-2.5124409448818898
0
LINE
8
BLACK
6
CONTINUOUS
10
2.9422047244094487
20
-2.5124409448818898
11
2.967795275590551
21
-2.5124409448818898
0
LINE
8
BLACK
6
CONTINUOUS
10
2.967795275590551
20
-2.5124409448818898
11
2.967795275590551
21
-2.5541732283464564
0
LINE
8
BLACK
6
CONTINUOUS
10
3.0051968503937005
20
-2.5541732283464564
11
2.9796062992125982
21
-2.5541732283464564
0
LINE
8
BLACK
6
CONTINUOUS
10
2.9796062992125982
20
-2.5541732283464564
11
2.9796062992125982
21
-2.5124409448818898
0
LINE
8
BLACK
6
CONTINUOUS
10
2.9796062992125982
20
-2.5124409448818898
11
3.0051968503937005
21
-2.5124409448818898
0
LINE
8
BLACK
6
CONTINUOUS
10
3.0051968503937005
20
-2.5124409448818898
11
3.0051968503937005
21
-2.5541732283464564
0
LINE
8
BLACK
6
CONTINUOUS
10
3.2603937007874015
20
-2.5541732283464564
11
3.2348031496062992
21
-2.5541732283464564
0
LINE
8
BLACK
6
CONTINUOUS
10
3.2348031496062992
20
-2.5541732283464564
11
3.2348031496062992
21
-2.5124409448818898
0
LINE
8
BLACK
6
CONTINUOUS
10
3.2348031496062992
20
-2.5124409448818898
11
3.2603937007874015
21
-2.5124409448818898
0
LINE
8
BLACK
6
CONTINUOUS
10
3.2603937007874015
20
-2.5124409448818898
11
3.2603937007874015
21
-2.5541732283464564
0
LINE
8
BLACK
6
CONTINUOUS
10
3.2977952755905511
20
-2.5541732283464564
11
3.2722047244094488
21
-2.5541732283464564
0
LINE
8
BLACK
6
CONTINUOUS
10
3.2722047244094488
20
-2.5541732283464564
11
3.2722047244094488
21
-2.5124409448818898
0
LINE
8
BLACK
6
CONTINUOUS
10
3.2722047244094488
20
-2.5124409448818898
11
3.2977952755905511
21
-2.5124409448818898
0
LINE
8
BLACK
6
CONTINUOUS
10
3.2977952755905511
20
-2.5124409448818898
11
3.2977952755905511
21
-2.5541732283464564
0
LINE
8
BLACK
6
CONTINUOUS
10
3.3351968503937006
20
-2.5541732283464564
11
3.3096062992125983
21
-2.5541732283464564
0
LINE
8
BLACK
6
CONTINUOUS
10
3.3096062992125983
20
-2.5541732283464564
11
3.3096062992125983
21
-2.5124409448818898
0
LINE
8
BLACK
6
CONTINUOUS
10
3.3096062992125983
20
-2.5124409448818898
11
3.3351968503937006
21
-2.5124409448818898
0
LINE
8
BLACK
6
CONTINUOUS
10
3.3351968503937006
20
-2.5124409448818898
11
3.3351968503937006
21
-2.5541732283464564
0
LINE
8
BLACK
6
CONTINUOUS
10
3.5853937007874013
20
-2.5541732283464564
11
3.559803149606299
21
-2.5541732283464564
0
LINE
8
BLACK
6
CONTINUOUS
10
3.559803149606299
20
-2.5541732283464564
11
3.559803149606299
21
-2.5124409448818898
0
LINE
8
BLACK
6
CONTINUOUS
10
3.559803149606299
20
-2.5124409448818898
11
3.5853937007874013
21
-2.5124409448818898
0
LINE
8
BLACK
6
CONTINUOUS
10
3.5853937007874013
20
-2.5124409448818898
11
3.5853937007874013
21
-2.5541732283464564
0
LINE
8
BLACK
6
CONTINUOUS
10
3.6227952755905513
20
-2.5541732283464564
11
3.5972047244094489
21
-2.5541732283464564
0
LINE
8
BLACK
6
CONTINUOUS
10
3.5972047244094489
20
-2.5541732283464564
11
3.5972047244094489
21
-2.5124409448818898
0
LINE
8
BLACK
6
CONTINUOUS
10
3.5972047244094489
20
-2.5124409448818898
11
3.6227952755905513
21
-2.5124409448818898
0
LINE
8
BLACK
6
CONTINUOUS
10
3.6227952755905513
20
-2.5124409448818898
11
3.6227952755905513
21
-2.5541732283464564
0
LINE
8
BLACK
6
CONTINUOUS
10
3.6601968503937008
20
-2.5541732283464564
11
3.6346062992125985
21
-2.5541732283464564
0
LINE
8
BLACK
6
CONTINUOUS
10
3.6346062992125985
20
-2.5541732283464564
11
3.6346062992125985
21
-2.5124409448818898
0
LINE
8
BLACK
6
CONTINUOUS
10
3.6346062992125985
20
-2.5124409448818898
11
3.6601968503937008
21
-2.5124409448818898
0
LINE
8
BLACK
6
CONTINUOUS
10
3.6601968503937008
20
-2.5124409448818898
11
3.6601968503937008
21
-2.5541732283464564
0
LINE
8
BLACK
6
CONTINUOUS
10
3.9103937007874014
20
-2.5541732283464564
11
3.8848031496062991
21
-2.5541732283464564
0
LINE
8
BLACK
6
CONTINUOUS
10
3.8848031496062991
20
-2.5541732283464564
11
3.8848031496062991
21
-2.5124409448818898
0
LINE
8
BLACK
6
CONTINUOUS
10
3.8848031496062991
20
-2.5124409448818898
11
3.9103937007874014
21
-2.5124409448818898
0
LINE
8
BLACK
6
CONTINUOUS
10
3.9103937007874014
20
-2.5124409448818898
11
3.9103937007874014
21
-2.5541732283464564
0
LINE
8
BLACK
6
CONTINUOUS
10
3.947795275590551
20
-2.5541732283464564
11
3.9222047244094487
21
-2.5541732283464564
0
LINE
8
BLACK
6
CONTINUOUS
10
3.9222047244094487
20
-2.5541732283464564
11
3.9222047244094487
21
-2.5124409448818898
0
LINE
8
BLACK
6
CONTINUOUS
10
3.9222047244094487
20
-2.5124409448818898
11
3.947795275590551
21
-2.5124409448818898
0
LINE
8
BLACK
6
CONTINUOUS
10
3.947795275590551
20
-2.5124409448818898
11
3.947795275590551
21
-2.5541732283464564
0
LINE
8
BLACK
6
CONTINUOUS
10
3.9851968503937005
20
-2.5541732283464564
11
3.9596062992125982
21
-2.5541732283464564
0
LINE
8
BLACK
6
CONTINUOUS
10
3.9596062992125982
20
-2.5541732283464564
11
3.9596062992125982
21
-2.5124409448818898
0
LINE
8
BLACK
6
CONTINUOUS
10
3.9596062992125982
20
-2.5124409448818898
11
3.9851968503937005
21
-2.5124409448818898
0
LINE
8
BLACK
6
CONTINUOUS
10
3.9851968503937005
20
-2.5124409448818898
11
3.9851968503937005
21
-2.5541732283464564
0
LINE
8
BLACK
6
CONTINUOUS
10
4.2353937007874016
20
-2.5541732283464564
11
4.2098031496062989
21
-2.5541732283464564
0
LINE
8
BLACK
6
CONTINUOUS
10
4.2098031496062989
20
-2.5541732283464564
11
4.2098031496062989
21
-2.5124409448818898
0
LINE
8
BLACK
6
CONTINUOUS
10
4.2098031496062989
20
-2.5124409448818898
11
4.2353937007874016
21
-2.5124409448818898
0
LINE
8
BLACK
6
CONTINUOUS
10
4.2353937007874016
20
-2.5124409448818898
11
4.2353937007874016
21
-2.5541732283464564
0
LINE
8
BLACK
6
CONTINUOUS
10
4.2727952755905507
20
-2.5541732283464564
11
4.2472047244094489
21
-2.5541732283464564
0
LINE
8
BLACK
6
CONTINUOUS
10
4.2472047244094489
20
-2.5541732283464564
11
4.2472047244094489
21
-2.5124409448818898
0
LINE
8
BLACK
6
CONTINUOUS
10
4.2472047244094489
20
-2.5124409448818898
11
4.2727952755905507
21
-2.5124409448818898
0
LINE
8
BLACK
6
CONTINUOUS
10
4.2727952755905507
20
-2.5124409448818898
11
4.2727952755905507
21
-2.5541732283464564
0
LINE
8
BLACK
6
CONTINUOUS
10
4.3101968503937007
20
-2.5541732283464564
11
4.2846062992125979
21
-2.5541732283464564
0
LINE
8
BLACK
6
CONTINUOUS
10
4.2846062992125979
20
-2.5541732283464564
11
4.2846062992125979
21
-2.5124409448818898
0
LINE
8
BLACK
6
CONTINUOUS
10
4.2846062992125979
20
-2.5124409448818898
11
4.3101968503937007
21
-2.5124409448818898
0
LINE
8
BLACK
6
CONTINUOUS
10
4.3101968503937007
20
-2.5124409448818898
11
4.3101968503937007
21
-2.5541732283464564
0
LINE
8
BLACK
6
CONTINUOUS
10
2.2684500000000001
20
-2.5495000000000001
11
2.2015500000000001
21
-2.5495000000000001
0
LINE
8
BLACK
6
CONTINUOUS
10
2.2015500000000001
20
-2.5495000000000001
11
2.2015500000000001
21
-2.4983
0
LINE
8
BLACK
6
CONTINUOUS
10
2.2015500000000001
20
-2.4983
11
2.2684500000000001
21
-2.4983
0
LINE
8
BLACK
6
CONTINUOUS
10
2.2684500000000001
20
-2.4983
11
2.2684500000000001
21
-2.5495000000000001
0
LINE
8
BLACK
6
CONTINUOUS
10
3.7496062992125982
20
-2.5403149606299213
11
3.7003937007874015
21
-2.5403149606299213
0
LINE
8
BLACK
6
CONTINUOUS
10
3.7003937007874015
20
-2.5403149606299213
11
3.7003937007874015
21
-2.5009448818897639
0
LINE
8
BLACK
6
CONTINUOUS
10
3.7003937007874015
20
-2.5009448818897639
11
3.7496062992125982
21
-2.5009448818897639
0
LINE
8
BLACK
6
CONTINUOUS
10
3.7496062992125982
20
-2.5009448818897639
11
3.7496062992125982
21
-2.5403149606299213
0
LINE
8
BLACK
6
CONTINUOUS
10
3.8346062992125982
20
-2.5403149606299213
11
3.7853937007874014
21
-2.5403149606299213
0
LINE
8
BLACK
6
CONTINUOUS
10
3.7853937007874014
20
-2.5403149606299213
11
3.7853937007874014
21
-2.5009448818897639
0
LINE
8
BLACK
6
CONTINUOUS
10
3.7853937007874014
20
-2.5009448818897639
11
3.8346062992125982
21
-2.5009448818897639
0
LINE
8
BLACK
6
CONTINUOUS
10
3.8346062992125982
20
-2.5009448818897639
11
3.8346062992125982
21
-2.5403149606299213
0
LINE
8
BLACK
6
CONTINUOUS
10
4.074606299212598
20
-2.5403149606299213
11
4.0253937007874017
21
-2.5403149606299213
0
LINE
8
BLACK
6
CONTINUOUS
10
4.0253937007874017
20
-2.5403149606299213
11
4.0253937007874017
21
-2.5009448818897639
0
LINE
8
BLACK
6
CONTINUOUS
10
4.0253937007874017
20
-2.5009448818897639
11
4.074606299212598
21
-2.5009448818897639
0
LINE
8
BLACK
6
CONTINUOUS
10
4.074606299212598
20
-2.5009448818897639
11
4.074606299212598
21
-2.5403149606299213
0
LINE
8
BLACK
6
CONTINUOUS
10
4.1646062992125987
20
-2.5403149606299213
11
4.1153937007874015
21
-2.5403149606299213
0
LINE
8
BLACK
6
CONTINUOUS
10
4.1153937007874015
20
-2.5403149606299213
11
4.1153937007874015
21
-2.5009448818897639
0
LINE
8
BLACK
6
CONTINUOUS
10
4.1153937007874015
20
-2.5009448818897639
11
4.1646062992125987
21
-2.5009448818897639
0
LINE
8
BLACK
6
CONTINUOUS
10
4.1646062992125987
20
-2.5009448818897639
11
4.1646062992125987
21
-2.5403149606299213
0
LINE
8
BLACK
6
CONTINUOUS
10
4.3996062992125982
20
-2.5403149606299213
11
4.3503937007874018
21
-2.5403149606299213
0
LINE
8
BLACK
6
CONTINUOUS
10
4.3503937007874018
20
-2.5403149606299213
11
4.3503937007874018
21
-2.5009448818897639
0
LINE
8
BLACK
6
CONTINUOUS
10
4.3503937007874018
20
-2.5009448818897639
11
4.3996062992125982
21
-2.5009448818897639
0
LINE
8
BLACK
6
CONTINUOUS
10
4.3996062992125982
20
-2.5009448818897639
11
4.3996062992125982
21
-2.5403149606299213
0
LINE
8
BLACK
6
CONTINUOUS
10
2.5346062992125984
20
-2.535314960629921
11
2.4853937007874016
21
-2.535314960629921
0
LINE
8
BLACK
6
CONTINUOUS
10
2.4853937007874016
20
-2.535314960629921
11
2.4853937007874016
21
-2.4959448818897636
0
LINE
8
BLACK
6
CONTINUOUS
10
2.4853937007874016
20
-2.4959448818897636
11
2.5346062992125984
21
-2.4959448818897636
0
LINE
8
BLACK
6
CONTINUOUS
10
2.5346062992125984
20
-2.4959448818897636
11
2.5346062992125984
21
-2.535314960629921
0
LINE
8
BLACK
6
CONTINUOUS
10
2.7796062992125985
20
-2.535314960629921
11
2.7303937007874017
21
-2.535314960629921
0
LINE
8
BLACK
6
CONTINUOUS
10
2.7303937007874017
20
-2.535314960629921
11
2.7303937007874017
21
-2.4959448818897636
0
LINE
8
BLACK
6
CONTINUOUS
10
2.7303937007874017
20
-2.4959448818897636
11
2.7796062992125985
21
-2.4959448818897636
0
LINE
8
BLACK
6
CONTINUOUS
10
2.7796062992125985
20
-2.4959448818897636
11
2.7796062992125985
21
-2.535314960629921
0
LINE
8
BLACK
6
CONTINUOUS
10
2.8546062992125982
20
-2.535314960629921
11
2.8053937007874015
21
-2.535314960629921
0
LINE
8
BLACK
6
CONTINUOUS
10
2.8053937007874015
20
-2.535314960629921
11
2.8053937007874015
21
-2.4959448818897636
0
LINE
8
BLACK
6
CONTINUOUS
10
2.8053937007874015
20
-2.4959448818897636
11
2.8546062992125982
21
-2.4959448818897636
0
LINE
8
BLACK
6
CONTINUOUS
10
2.8546062992125982
20
-2.4959448818897636
11
2.8546062992125982
21
-2.535314960629921
0
LINE
8
BLACK
6
CONTINUOUS
10
3.0946062992125984
20
-2.535314960629921
11
3.0453937007874017
21
-2.535314960629921
0
LINE
8
BLACK
6
CONTINUOUS
10
3.0453937007874017
20
-2.535314960629921
11
3.0453937007874017
21
-2.4959448818897636
0
LINE
8
BLACK
6
CONTINUOUS
10
3.0453937007874017
20
-2.4959448818897636
11
3.0946062992125984
21
-2.4959448818897636
0
LINE
8
BLACK
6
CONTINUOUS
10
3.0946062992125984
20
-2.4959448818897636
11
3.0946062992125984
21
-2.535314960629921
0
LINE
8
BLACK
6
CONTINUOUS
10
3.1846062992125983
20
-2.535314960629921
11
3.1353937007874015
21
-2.535314960629921
0
LINE
8
BLACK
6
CONTINUOUS
10
3.1353937007874015
20
-2.535314960629921
11
3.1353937007874015
21
-2.4959448818897636
0
LINE
8
BLACK
6
CONTINUOUS
10
3.1353937007874015
20
-2.4959448818897636
11
3.1846062992125983
21
-2.4959448818897636
0
LINE
8
BLACK
6
CONTINUOUS
10
3.1846062992125983
20
-2.4959448818897636
11
3.1846062992125983
21
-2.535314960629921
0
LINE
8
BLACK
6
CONTINUOUS
10
3.4246062992125985
20
-2.535314960629921
11
3.3753937007874013
21
-2.535314960629921
0
LINE
8
BLACK
6
CONTINUOUS
10
3.3753937007874013
20
-2.535314960629921
11
3.3753937007874013
21
-2.4959448818897636
0
LINE
8
BLACK
6
CONTINUOUS
10
3.3753937007874013
20
-2.4959448818897636
11
3.4246062992125985
21
-2.4959448818897636
0
LINE
8
BLACK
6
CONTINUOUS
10
3.4246062992125985
20
-2.4959448818897636
11
3.4246062992125985
21
-2.535314960629921
0
LINE
8
BLACK
6
CONTINUOUS
10
3.5046062992125981
20
-2.535314960629921
11
3.4553937007874014
21
-2.535314960629921
0
LINE
8
BLACK
6
CONTINUOUS
10
3.4553937007874014
20
-2.535314960629921
11
3.4553937007874014
21
-2.4959448818897636
0
LINE
8
BLACK
6
CONTINUOUS
10
3.4553937007874014
20
-2.4959448818897636
11
3.5046062992125981
21
-2.4959448818897636
0
LINE
8
BLACK
6
CONTINUOUS
10
3.5046062992125981
20
-2.4959448818897636
11
3.5046062992125981
21
-2.535314960629921
0
LINE
8
BLACK
6
CONTINUOUS
10
2.3253937007874015
20
-2.5075590551181102
11
2.2998031496062992
21
-2.5075590551181102
0
LINE
8
BLACK
6
CONTINUOUS
10
2.2998031496062992
20
-2.5075590551181102
11
2.2998031496062992
21
-2.4658267716535431
0
LINE
8
BLACK
6
CONTINUOUS
10
2.2998031496062992
20
-2.4658267716535431
11
2.3253937007874015
21
-2.4658267716535431
0
LINE
8
BLACK
6
CONTINUOUS
10
2.3253937007874015
20
-2.4658267716535431
11
2.3253937007874015
21
-2.5075590551181102
0
LINE
8
BLACK
6
CONTINUOUS
10
2.362795275590551
20
-2.5075590551181102
11
2.3372047244094487
21
-2.5075590551181102
0
LINE
8
BLACK
6
CONTINUOUS
10
2.3372047244094487
20
-2.5075590551181102
11
2.3372047244094487
21
-2.4658267716535431
0
LINE
8
BLACK
6
CONTINUOUS
10
2.3372047244094487
20
-2.4658267716535431
11
2.362795275590551
21
-2.4658267716535431
0
LINE
8
BLACK
6
CONTINUOUS
10
2.362795275590551
20
-2.4658267716535431
11
2.362795275590551
21
-2.5075590551181102
0
LINE
8
BLACK
6
CONTINUOUS
10
2.4001968503937006
20
-2.5075590551181102
11
2.3746062992125982
21
-2.5075590551181102
0
LINE
8
BLACK
6
CONTINUOUS
10
2.3746062992125982
20
-2.5075590551181102
11
2.3746062992125982
21
-2.4658267716535431
0
LINE
8
BLACK
6
CONTINUOUS
10
2.3746062992125982
20
-2.4658267716535431
11
2.4001968503937006
21
-2.4658267716535431
0
LINE
8
BLACK
6
CONTINUOUS
10
2.4001968503937006
20
-2.4658267716535431
11
2.4001968503937006
21
-2.5075590551181102
0
LINE
8
BLACK
6
CONTINUOUS
10
2.0703149606299212
20
-2.5046062992125986
11
2.0309448818897637
21
-2.5046062992125986
0
LINE
8
BLACK
6
CONTINUOUS
10
2.0309448818897637
20
-2.5046062992125986
11
2.0309448818897637
21
-2.4553937007874014
0
LINE
8
BLACK
6
CONTINUOUS
10
2.0309448818897637
20
-2.4553937007874014
11
2.0703149606299212
21
-2.4553937007874014
0
LINE
8
BLACK
6
CONTINUOUS
10
2.0703149606299212
20
-2.4553937007874014
11
2.0703149606299212
21
-2.5046062992125986
0
LINE
8
BLACK
6
CONTINUOUS
10
2.149055118110236
20
-2.5046062992125986
11
2.1096850393700786
21
-2.5046062992125986
0
LINE
8
BLACK
6
CONTINUOUS
10
2.1096850393700786
20
-2.5046062992125986
11
2.1096850393700786
21
-2.4553937007874014
0
LINE
8
BLACK
6
CONTINUOUS
10
2.1096850393700786
20
-2.4553937007874014
11
2.149055118110236
21
-2.4553937007874014
0
LINE
8
BLACK
6
CONTINUOUS
10
2.149055118110236
20
-2.4553937007874014
11
2.149055118110236
21
-2.5046062992125986
0
LINE
8
BLACK
6
CONTINUOUS
10
4.3803149606299208
20
-2.4796062992125982
11
4.3409448818897634
21
-2.4796062992125982
0
LINE
8
BLACK
6
CONTINUOUS
10
4.3409448818897634
20
-2.4796062992125982
11
4.3409448818897634
21
-2.4303937007874015
0
LINE
8
BLACK
6
CONTINUOUS
10
4.3409448818897634
20
-2.4303937007874015
11
4.3803149606299208
21
-2.4303937007874015
0
LINE
8
BLACK
6
CONTINUOUS
10
4.3803149606299208
20
-2.4303937007874015
11
4.3803149606299208
21
-2.4796062992125982
0
LINE
8
BLACK
6
CONTINUOUS
10
4.4590551181102365
20
-2.4796062992125982
11
4.4196850393700791
21
-2.4796062992125982
0
LINE
8
BLACK
6
CONTINUOUS
10
4.4196850393700791
20
-2.4796062992125982
11
4.4196850393700791
21
-2.4303937007874015
0
LINE
8
BLACK
6
CONTINUOUS
10
4.4196850393700791
20
-2.4303937007874015
11
4.4590551181102365
21
-2.4303937007874015
0
LINE
8
BLACK
6
CONTINUOUS
10
4.4590551181102365
20
-2.4303937007874015
11
4.4590551181102365
21
-2.4796062992125982
0
LINE
8
BLACK
6
CONTINUOUS
10
2.7403149606299211
20
-2.4746062992125983
11
2.7009448818897637
21
-2.4746062992125983
0
LINE
8
BLACK
6
CONTINUOUS
10
2.7009448818897637
20
-2.4746062992125983
11
2.7009448818897637
21
-2.4253937007874016
0
LINE
8
BLACK
6
CONTINUOUS
10
2.7009448818897637
20
-2.4253937007874016
11
2.7403149606299211
21
-2.4253937007874016
0
LINE
8
BLACK
6
CONTINUOUS
10
2.7403149606299211
20
-2.4253937007874016
11
2.7403149606299211
21
-2.4746062992125983
0
LINE
8
BLACK
6
CONTINUOUS
10
2.8190551181102363
20
-2.4746062992125983
11
2.7796850393700785
21
-2.4746062992125983
0
LINE
8
BLACK
6
CONTINUOUS
10
2.7796850393700785
20
-2.4746062992125983
11
2.7796850393700785
21
-2.4253937007874016
0
LINE
8
BLACK
6
CONTINUOUS
10
2.7796850393700785
20
-2.4253937007874016
11
2.8190551181102363
21
-2.4253937007874016
0
LINE
8
BLACK
6
CONTINUOUS
10
2.8190551181102363
20
-2.4253937007874016
11
2.8190551181102363
21
-2.4746062992125983
0
LINE
8
BLACK
6
CONTINUOUS
10
3.0703149606299212
20
-2.4746062992125983
11
3.0309448818897637
21
-2.4746062992125983
0
LINE
8
BLACK
6
CONTINUOUS
10
3.0309448818897637
20
-2.4746062992125983
11
3.0309448818897637
21
-2.4253937007874016
0
LINE
8
BLACK
6
CONTINUOUS
10
3.0309448818897637
20
-2.4253937007874016
11
3.0703149606299212
21
-2.4253937007874016
0
LINE
8
BLACK
6
CONTINUOUS
10
3.0703149606299212
20
-2.4253937007874016
11
3.0703149606299212
21
-2.4746062992125983
0
LINE
8
BLACK
6
CONTINUOUS
10
3.149055118110236
20
-2.4746062992125983
11
3.1096850393700786
21
-2.4746062992125983
0
LINE
8
BLACK
6
CONTINUOUS
10
3.1096850393700786
20
-2.4746062992125983
11
3.1096850393700786
21
-2.4253937007874016
0
LINE
8
BLACK
6
CONTINUOUS
10
3.1096850393700786
20
-2.4253937007874016
11
3.149055118110236
21
-2.4253937007874016
0
LINE
8
BLACK
6
CONTINUOUS
10
3.149055118110236
20
-2.4253937007874016
11
3.149055118110236
21
-2.4746062992125983
0
LINE
8
BLACK
6
CONTINUOUS
10
3.4003149606299212
20
-2.4746062992125983
11
3.3609448818897638
21
-2.4746062992125983
0
LINE
8
BLACK
6
CONTINUOUS
10
3.3609448818897638
20
-2.4746062992125983
11
3.3609448818897638
21
-2.4253937007874016
0
LINE
8
BLACK
6
CONTINUOUS
10
3.3609448818897638
20
-2.4253937007874016
11
3.4003149606299212
21
-2.4253937007874016
0
LINE
8
BLACK
6
CONTINUOUS
10
3.4003149606299212
20
-2.4253937007874016
11
3.4003149606299212
21
-2.4746062992125983
0
LINE
8
BLACK
6
CONTINUOUS
10
3.479055118110236
20
-2.4746062992125983
11
3.4396850393700786
21
-2.4746062992125983
0
LINE
8
BLACK
6
CONTINUOUS
10
3.4396850393700786
20
-2.4746062992125983
11
3.4396850393700786
21
-2.4253937007874016
0
LINE
8
BLACK
6
CONTINUOUS
10
3.4396850393700786
20
-2.4253937007874016
11
3.479055118110236
21
-2.4253937007874016
0
LINE
8
BLACK
6
CONTINUOUS
10
3.479055118110236
20
-2.4253937007874016
11
3.479055118110236
21
-2.4746062992125983
0
LINE
8
BLACK
6
CONTINUOUS
10
3.725314960629921
20
-2.4746062992125983
11
3.6859448818897635
21
-2.4746062992125983
0
LINE
8
BLACK
6
CONTINUOUS
10
3.6859448818897635
20
-2.4746062992125983
11
3.6859448818897635
21
-2.4253937007874016
0
LINE
8
BLACK
6
CONTINUOUS
10
3.6859448818897635
20
-2.4253937007874016
11
3.725314960629921
21
-2.4253937007874016
0
LINE
8
BLACK
6
CONTINUOUS
10
3.725314960629921
20
-2.4253937007874016
11
3.725314960629921
21
-2.4746062992125983
0
LINE
8
BLACK
6
CONTINUOUS
10
3.8040551181102362
20
-2.4746062992125983
11
3.7646850393700788
21
-2.4746062992125983
0
LINE
8
BLACK
6
CONTINUOUS
10
3.7646850393700788
20
-2.4746062992125983
11
3.7646850393700788
21
-2.4253937007874016
0
LINE
8
BLACK
6
CONTINUOUS
10
3.7646850393700788
20
-2.4253937007874016
11
3.8040551181102362
21
-2.4253937007874016
0
LINE
8
BLACK
6
CONTINUOUS
10
3.8040551181102362
20
-2.4253937007874016
11
3.8040551181102362
21
-2.4746062992125983
0
LINE
8
BLACK
6
CONTINUOUS
10
4.0553149606299215
20
-2.4746062992125983
11
4.0159448818897641
21
-2.4746062992125983
0
LINE
8
BLACK
6
CONTINUOUS
10
4.0159448818897641
20
-2.4746062992125983
11
4.0159448818897641
21
-2.4253937007874016
0
LINE
8
BLACK
6
CONTINUOUS
10
4.0159448818897641
20
-2.4253937007874016
11
4.0553149606299215
21
-2.4253937007874016
0
LINE
8
BLACK
6
CONTINUOUS
10
4.0553149606299215
20
-2.4253937007874016
11
4.0553149606299215
21
-2.4746062992125983
0
LINE
8
BLACK
6
CONTINUOUS
10
4.1340551181102363
20
-2.4746062992125983
11
4.0946850393700789
21
-2.4746062992125983
0
LINE
8
BLACK
6
CONTINUOUS
10
4.0946850393700789
20
-2.4746062992125983
11
4.0946850393700789
21
-2.4253937007874016
0
LINE
8
BLACK
6
CONTINUOUS
10
4.0946850393700789
20
-2.4253937007874016
11
4.1340551181102363
21
-2.4253937007874016
0
LINE
8
BLACK
6
CONTINUOUS
10
4.1340551181102363
20
-2.4253937007874016
11
4.1340551181102363
21
-2.4746062992125983
0
LINE
8
BLACK
6
CONTINUOUS
10
2.6053937007874017
20
-2.4675590551181101
11
2.579803149606299
21
-2.4675590551181101
0
LINE
8
BLACK
6
CONTINUOUS
10
2.579803149606299
20
-2.4675590551181101
11
2.579803149606299
21
-2.4258267716535431
0
LINE
8
BLACK
6
CONTINUOUS
10
2.579803149606299
20
-2.4258267716535431
11
2.6053937007874017
21
-2.4258267716535431
0
LINE
8
BLACK
6
CONTINUOUS
10
2.6053937007874017
20
-2.4258267716535431
11
2.6053937007874017
21
-2.4675590551181101
0
LINE
8
BLACK
6
CONTINUOUS
10
2.6801968503937008
20
-2.4675590551181101
11
2.6546062992125985
21
-2.4675590551181101
0
LINE
8
BLACK
6
CONTINUOUS
10
2.6546062992125985
20
-2.4675590551181101
11
2.6546062992125985
21
-2.4258267716535431
0
LINE
8
BLACK
6
CONTINUOUS
10
2.6546062992125985
20
-2.4258267716535431
11
2.6801968503937008
21
-2.4258267716535431
0
LINE
8
BLACK
6
CONTINUOUS
10
2.6801968503937008
20
-2.4258267716535431
11
2.6801968503937008
21
-2.4675590551181101
0
LINE
8
BLACK
6
CONTINUOUS
10
2.9303937007874015
20
-2.4675590551181101
11
2.9048031496062992
21
-2.4675590551181101
0
LINE
8
BLACK
6
CONTINUOUS
10
2.9048031496062992
20
-2.4675590551181101
11
2.9048031496062992
21
-2.4258267716535431
0
LINE
8
BLACK
6
CONTINUOUS
10
2.9048031496062992
20
-2.4258267716535431
11
2.9303937007874015
21
-2.4258267716535431
0
LINE
8
BLACK
6
CONTINUOUS
10
2.9303937007874015
20
-2.4258267716535431
11
2.9303937007874015
21
-2.4675590551181101
0
LINE
8
BLACK
6
CONTINUOUS
10
3.0051968503937005
20
-2.4675590551181101
11
2.9796062992125982
21
-2.4675590551181101
0
LINE
8
BLACK
6
CONTINUOUS
10
2.9796062992125982
20
-2.4675590551181101
11
2.9796062992125982
21
-2.4258267716535431
0
LINE
8
BLACK
6
CONTINUOUS
10
2.9796062992125982
20
-2.4258267716535431
11
3.0051968503937005
21
-2.4258267716535431
0
LINE
8
BLACK
6
CONTINUOUS
10
3.0051968503937005
20
-2.4258267716535431
11
3.0051968503937005
21
-2.4675590551181101
0
LINE
8
BLACK
6
CONTINUOUS
10
3.2603937007874015
20
-2.4675590551181101
11
3.2348031496062992
21
-2.4675590551181101
0
LINE
8
BLACK
6
CONTINUOUS
10
3.2348031496062992
20
-2.4675590551181101
11
3.2348031496062992
21
-2.4258267716535431
0
LINE
8
BLACK
6
CONTINUOUS
10
3.2348031496062992
20
-2.4258267716535431
11
3.2603937007874015
21
-2.4258267716535431
0
LINE
8
BLACK
6
CONTINUOUS
10
3.2603937007874015
20
-2.4258267716535431
11
3.2603937007874015
21
-2.4675590551181101
0
LINE
8
BLACK
6
CONTINUOUS
10
3.3351968503937006
20
-2.4675590551181101
11
3.3096062992125983
21
-2.4675590551181101
0
LINE
8
BLACK
6
CONTINUOUS
10
3.3096062992125983
20
-2.4675590551181101
11
3.3096062992125983
21
-2.4258267716535431
0
LINE
8
BLACK
6
CONTINUOUS
10
3.3096062992125983
20
-2.4258267716535431
11
3.3351968503937006
21
-2.4258267716535431
0
LINE
8
BLACK
6
CONTINUOUS
10
3.3351968503937006
20
-2.4258267716535431
11
3.3351968503937006
21
-2.4675590551181101
0
LINE
8
BLACK
6
CONTINUOUS
10
3.5853937007874013
20
-2.4675590551181101
11
3.559803149606299
21
-2.4675590551181101
0
LINE
8
BLACK
6
CONTINUOUS
10
3.559803149606299
20
-2.4675590551181101
11
3.559803149606299
21
-2.4258267716535431
0
LINE
8
BLACK
6
CONTINUOUS
10
3.559803149606299
20
-2.4258267716535431
11
3.5853937007874013
21
-2.4258267716535431
0
LINE
8
BLACK
6
CONTINUOUS
10
3.5853937007874013
20
-2.4258267716535431
11
3.5853937007874013
21
-2.4675590551181101
0
LINE
8
BLACK
6
CONTINUOUS
10
3.6601968503937008
20
-2.4675590551181101
11
3.6346062992125985
21
-2.4675590551181101
0
LINE
8
BLACK
6
CONTINUOUS
10
3.6346062992125985
20
-2.4675590551181101
11
3.6346062992125985
21
-2.4258267716535431
0
LINE
8
BLACK
6
CONTINUOUS
10
3.6346062992125985
20
-2.4258267716535431
11
3.6601968503937008
21
-2.4258267716535431
0
LINE
8
BLACK
6
CONTINUOUS
10
3.6601968503937008
20
-2.4258267716535431
11
3.6601968503937008
21
-2.4675590551181101
0
LINE
8
BLACK
6
CONTINUOUS
10
3.9103937007874014
20
-2.4675590551181101
11
3.8848031496062991
21
-2.4675590551181101
0
LINE
8
BLACK
6
CONTINUOUS
10
3.8848031496062991
20
-2.4675590551181101
11
3.8848031496062991
21
-2.4258267716535431
0
LINE
8
BLACK
6
CONTINUOUS
10
3.8848031496062991
20
-2.4258267716535431
11
3.9103937007874014
21
-2.4258267716535431
0
LINE
8
BLACK
6
CONTINUOUS
10
3.9103937007874014
20
-2.4258267716535431
11
3.9103937007874014
21
-2.4675590551181101
0
LINE
8
BLACK
6
CONTINUOUS
10
3.9851968503937005
20
-2.4675590551181101
11
3.9596062992125982
21
-2.4675590551181101
0
LINE
8
BLACK
6
CONTINUOUS
10
3.9596062992125982
20
-2.4675590551181101
11
3.9596062992125982
21
-2.4258267716535431
0
LINE
8
BLACK
6
CONTINUOUS
10
3.9596062992125982
20
-2.4258267716535431
11
3.9851968503937005
21
-2.4258267716535431
0
LINE
8
BLACK
6
CONTINUOUS
10
3.9851968503937005
20
-2.4258267716535431
11
3.9851968503937005
21
-2.4675590551181101
0
LINE
8
BLACK
6
CONTINUOUS
10
4.2353937007874016
20
-2.4675590551181101
11
4.2098031496062989
21
-2.4675590551181101
0
LINE
8
BLACK
6
CONTINUOUS
10
4.2098031496062989
20
-2.4675590551181101
11
4.2098031496062989
21
-2.4258267716535431
0
LINE
8
BLACK
6
CONTINUOUS
10
4.2098031496062989
20
-2.4258267716535431
11
4.2353937007874016
21
-2.4258267716535431
0
LINE
8
BLACK
6
CONTINUOUS
10
4.2353937007874016
20
-2.4258267716535431
11
4.2353937007874016
21
-2.4675590551181101
0
LINE
8
BLACK
6
CONTINUOUS
10
4.3101968503937007
20
-2.4675590551181101
11
4.2846062992125979
21
-2.4675590551181101
0
LINE
8
BLACK
6
CONTINUOUS
10
4.2846062992125979
20
-2.4675590551181101
11
4.2846062992125979
21
-2.4258267716535431
0
LINE
8
BLACK
6
CONTINUOUS
10
4.2846062992125979
20
-2.4258267716535431
11
4.3101968503937007
21
-2.4258267716535431
0
LINE
8
BLACK
6
CONTINUOUS
10
4.3101968503937007
20
-2.4258267716535431
11
4.3101968503937007
21
-2.4675590551181101
0
LINE
8
BLACK
6
CONTINUOUS
10
2.3403149606299212
20
-2.4396062992125982
11
2.3009448818897638
21
-2.4396062992125982
0
LINE
8
BLACK
6
CONTINUOUS
10
2.3009448818897638
20
-2.4396062992125982
11
2.3009448818897638
21
-2.3903937007874014
0
LINE
8
BLACK
6
CONTINUOUS
10
2.3009448818897638
20
-2.3903937007874014
11
2.3403149606299212
21
-2.3903937007874014
0
LINE
8
BLACK
6
CONTINUOUS
10
2.3403149606299212
20
-2.3903937007874014
11
2.3403149606299212
21
-2.4396062992125982
0
LINE
8
BLACK
6
CONTINUOUS
10
2.419055118110236
20
-2.4396062992125982
11
2.3796850393700786
21
-2.4396062992125982
0
LINE
8
BLACK
6
CONTINUOUS
10
2.3796850393700786
20
-2.4396062992125982
11
2.3796850393700786
21
-2.3903937007874014
0
LINE
8
BLACK
6
CONTINUOUS
10
2.3796850393700786
20
-2.3903937007874014
11
2.419055118110236
21
-2.3903937007874014
0
LINE
8
BLACK
6
CONTINUOUS
10
2.419055118110236
20
-2.3903937007874014
11
2.419055118110236
21
-2.4396062992125982
0
LINE
8
BLACK
6
CONTINUOUS
10
2.2684500000000001
20
-2.4116999999999997
11
2.2015500000000001
21
-2.4116999999999997
0
LINE
8
BLACK
6
CONTINUOUS
10
2.2015500000000001
20
-2.4116999999999997
11
2.2015500000000001
21
-2.3605
0
LINE
8
BLACK
6
CONTINUOUS
10
2.2015500000000001
20
-2.3605
11
2.2684500000000001
21
-2.3605
0
LINE
8
BLACK
6
CONTINUOUS
10
2.2684500000000001
20
-2.3605
11
2.2684500000000001
21
-2.4116999999999997
0
LINE
8
BLACK
6
CONTINUOUS
10
2.0963779527559057
20
-2.4105905511811021
11
2.068818897637795
21
-2.4105905511811021
0
LINE
8
BLACK
6
CONTINUOUS
10
2.068818897637795
20
-2.4105905511811021
11
2.068818897637795
21
-2.3594094488188975
0
LINE
8
BLACK
6
CONTINUOUS
10
2.068818897637795
20
-2.3594094488188975
11
2.0963779527559057
21
-2.3594094488188975
0
LINE
8
BLACK
6
CONTINUOUS
10
2.0963779527559057
20
-2.3594094488188975
11
2.0963779527559057
21
-2.4105905511811021
0
LINE
8
BLACK
6
CONTINUOUS
10
2.1711811023622047
20
-2.4105905511811021
11
2.1436220472440946
21
-2.4105905511811021
0
LINE
8
BLACK
6
CONTINUOUS
10
2.1436220472440946
20
-2.4105905511811021
11
2.1436220472440946
21
-2.3594094488188975
0
LINE
8
BLACK
6
CONTINUOUS
10
2.1436220472440946
20
-2.3594094488188975
11
2.1711811023622047
21
-2.3594094488188975
0
LINE
8
BLACK
6
CONTINUOUS
10
2.1711811023622047
20
-2.3594094488188975
11
2.1711811023622047
21
-2.4105905511811021
0
LINE
8
BLACK
6
CONTINUOUS
10
1.9613779527559054
20
-2.4055905511811022
11
1.9338188976377952
21
-2.4055905511811022
0
LINE
8
BLACK
6
CONTINUOUS
10
1.9338188976377952
20
-2.4055905511811022
11
1.9338188976377952
21
-2.3544094488188976
0
LINE
8
BLACK
6
CONTINUOUS
10
1.9338188976377952
20
-2.3544094488188976
11
1.9613779527559054
21
-2.3544094488188976
0
LINE
8
BLACK
6
CONTINUOUS
10
1.9613779527559054
20
-2.3544094488188976
11
1.9613779527559054
21
-2.4055905511811022
0
LINE
8
BLACK
6
CONTINUOUS
10
2.0361811023622045
20
-2.4055905511811022
11
2.0086220472440943
21
-2.4055905511811022
0
LINE
8
BLACK
6
CONTINUOUS
10
2.0086220472440943
20
-2.4055905511811022
11
2.0086220472440943
21
-2.3544094488188976
0
LINE
8
BLACK
6
CONTINUOUS
10
2.0086220472440943
20
-2.3544094488188976
11
2.0361811023622045
21
-2.3544094488188976
0
LINE
8
BLACK
6
CONTINUOUS
10
2.0361811023622045
20
-2.3544094488188976
11
2.0361811023622045
21
-2.4055905511811022
0
LINE
8
BLACK
6
CONTINUOUS
10
2.6613779527559056
20
-2.4055905511811022
11
2.6338188976377954
21
-2.4055905511811022
0
LINE
8
BLACK
6
CONTINUOUS
10
2.6338188976377954
20
-2.4055905511811022
11
2.6338188976377954
21
-2.3544094488188976
0
LINE
8
BLACK
6
CONTINUOUS
10
2.6338188976377954
20
-2.3544094488188976
11
2.6613779527559056
21
-2.3544094488188976
0
LINE
8
BLACK
6
CONTINUOUS
10
2.6613779527559056
20
-2.3544094488188976
11
2.6613779527559056
21
-2.4055905511811022
0
LINE
8
BLACK
6
CONTINUOUS
10
2.7361811023622047
20
-2.4055905511811022
11
2.7086220472440945
21
-2.4055905511811022
0
LINE
8
BLACK
6
CONTINUOUS
10
2.7086220472440945
20
-2.4055905511811022
11
2.7086220472440945
21
-2.3544094488188976
0
LINE
8
BLACK
6
CONTINUOUS
10
2.7086220472440945
20
-2.3544094488188976
11
2.7361811023622047
21
-2.3544094488188976
0
LINE
8
BLACK
6
CONTINUOUS
10
2.7361811023622047
20
-2.3544094488188976
11
2.7361811023622047
21
-2.4055905511811022
0
LINE
8
BLACK
6
CONTINUOUS
10
3.0063779527559054
20
-2.4055905511811022
11
2.9788188976377952
21
-2.4055905511811022
0
LINE
8
BLACK
6
CONTINUOUS
10
2.9788188976377952
20
-2.4055905511811022
11
2.9788188976377952
21
-2.3544094488188976
0
LINE
8
BLACK
6
CONTINUOUS
10
2.9788188976377952
20
-2.3544094488188976
11
3.0063779527559054
21
-2.3544094488188976
0
LINE
8
BLACK
6
CONTINUOUS
10
3.0063779527559054
20
-2.3544094488188976
11
3.0063779527559054
21
-2.4055905511811022
0
LINE
8
BLACK
6
CONTINUOUS
10
3.0811811023622044
20
-2.4055905511811022
11
3.0536220472440943
21
-2.4055905511811022
0
LINE
8
BLACK
6
CONTINUOUS
10
3.0536220472440943
20
-2.4055905511811022
11
3.0536220472440943
21
-2.3544094488188976
0
LINE
8
BLACK
6
CONTINUOUS
10
3.0536220472440943
20
-2.3544094488188976
11
3.0811811023622044
21
-2.3544094488188976
0
LINE
8
BLACK
6
CONTINUOUS
10
3.0811811023622044
20
-2.3544094488188976
11
3.0811811023622044
21
-2.4055905511811022
0
LINE
8
BLACK
6
CONTINUOUS
10
3.3363779527559054
20
-2.4055905511811022
11
3.3088188976377952
21
-2.4055905511811022
0
LINE
8
BLACK
6
CONTINUOUS
10
3.3088188976377952
20
-2.4055905511811022
11
3.3088188976377952
21
-2.3544094488188976
0
LINE
8
BLACK
6
CONTINUOUS
10
3.3088188976377952
20
-2.3544094488188976
11
3.3363779527559054
21
-2.3544094488188976
0
LINE
8
BLACK
6
CONTINUOUS
10
3.3363779527559054
20
-2.3544094488188976
11
3.3363779527559054
21
-2.4055905511811022
0
LINE
8
BLACK
6
CONTINUOUS
10
3.4111811023622045
20
-2.4055905511811022
11
3.3836220472440943
21
-2.4055905511811022
0
LINE
8
BLACK
6
CONTINUOUS
10
3.3836220472440943
20
-2.4055905511811022
11
3.3836220472440943
21
-2.3544094488188976
0
LINE
8
BLACK
6
CONTINUOUS
10
3.3836220472440943
20
-2.3544094488188976
11
3.4111811023622045
21
-2.3544094488188976
0
LINE
8
BLACK
6
CONTINUOUS
10
3.4111811023622045
20
-2.3544094488188976
11
3.4111811023622045
21
-2.4055905511811022
0
LINE
8
BLACK
6
CONTINUOUS
10
3.6613779527559056
20
-2.4055905511811022
11
3.633818897637795
21
-2.4055905511811022
0
LINE
8
BLACK
6
CONTINUOUS
10
3.633818897637795
20
-2.4055905511811022
11
3.633818897637795
21
-2.3544094488188976
0
LINE
8
BLACK
6
CONTINUOUS
10
3.633818897637795
20
-2.3544094488188976
11
3.6613779527559056
21
-2.3544094488188976
0
LINE
8
BLACK
6
CONTINUOUS
10
3.6613779527559056
20
-2.3544094488188976
11
3.6613779527559056
21
-2.4055905511811022
0
LINE
8
BLACK
6
CONTINUOUS
10
3.7361811023622047
20
-2.4055905511811022
11
3.7086220472440945
21
-2.4055905511811022
0
LINE
8
BLACK
6
CONTINUOUS
10
3.7086220472440945
20
-2.4055905511811022
11
3.7086220472440945
21
-2.3544094488188976
0
LINE
8
BLACK
6
CONTINUOUS
10
3.7086220472440945
20
-2.3544094488188976
11
3.7361811023622047
21
-2.3544094488188976
0
LINE
8
BLACK
6
CONTINUOUS
10
3.7361811023622047
20
-2.3544094488188976
11
3.7361811023622047
21
-2.4055905511811022
0
LINE
8
BLACK
6
CONTINUOUS
10
3.9863779527559053
20
-2.4055905511811022
11
3.9588188976377952
21
-2.4055905511811022
0
LINE
8
BLACK
6
CONTINUOUS
10
3.9588188976377952
20
-2.4055905511811022
11
3.9588188976377952
21
-2.3544094488188976
0
LINE
8
BLACK
6
CONTINUOUS
10
3.9588188976377952
20
-2.3544094488188976
11
3.9863779527559053
21
-2.3544094488188976
0
LINE
8
BLACK
6
CONTINUOUS
10
3.9863779527559053
20
-2.3544094488188976
11
3.9863779527559053
21
-2.4055905511811022
0
LINE
8
BLACK
6
CONTINUOUS
10
4.0611811023622044
20
-2.4055905511811022
11
4.0336220472440942
21
-2.4055905511811022
0
LINE
8
BLACK
6
CONTINUOUS
10
4.0336220472440942
20
-2.4055905511811022
11
4.0336220472440942
21
-2.3544094488188976
0
LINE
8
BLACK
6
CONTINUOUS
10
4.0336220472440942
20
-2.3544094488188976
11
4.0611811023622044
21
-2.3544094488188976
0
LINE
8
BLACK
6
CONTINUOUS
10
4.0611811023622044
20
-2.3544094488188976
11
4.0611811023622044
21
-2.4055905511811022
0
LINE
8
BLACK
6
CONTINUOUS
10
4.3113779527559055
20
-2.4055905511811022
11
4.2838188976377953
21
-2.4055905511811022
0
LINE
8
BLACK
6
CONTINUOUS
10
4.2838188976377953
20
-2.4055905511811022
11
4.2838188976377953
21
-2.3544094488188976
0
LINE
8
BLACK
6
CONTINUOUS
10
4.2838188976377953
20
-2.3544094488188976
11
4.3113779527559055
21
-2.3544094488188976
0
LINE
8
BLACK
6
CONTINUOUS
10
4.3113779527559055
20
-2.3544094488188976
11
4.3113779527559055
21
-2.4055905511811022
0
LINE
8
BLACK
6
CONTINUOUS
10
4.3861811023622046
20
-2.4055905511811022
11
4.3586220472440944
21
-2.4055905511811022
0
LINE
8
BLACK
6
CONTINUOUS
10
4.3586220472440944
20
-2.4055905511811022
11
4.3586220472440944
21
-2.3544094488188976
0
LINE
8
BLACK
6
CONTINUOUS
10
4.3586220472440944
20
-2.3544094488188976
11
4.3861811023622046
21
-2.3544094488188976
0
LINE
8
BLACK
6
CONTINUOUS
10
4.3861811023622046
20
-2.3544094488188976
11
4.3861811023622046
21
-2.4055905511811022
0
LINE
8
BLACK
6
CONTINUOUS
10
2.9396062992125982
20
-2.4040551181102363
11
2.8903937007874014
21
-2.4040551181102363
0
LINE
8
BLACK
6
CONTINUOUS
10
2.8903937007874014
20
-2.4040551181102363
11
2.8903937007874014
21
-2.3646850393700789
0
LINE
8
BLACK
6
CONTINUOUS
10
2.8903937007874014
20
-2.3646850393700789
11
2.9396062992125982
21
-2.3646850393700789
0
LINE
8
BLACK
6
CONTINUOUS
10
2.9396062992125982
20
-2.3646850393700789
11
2.9396062992125982
21
-2.4040551181102363
0
LINE
8
BLACK
6
CONTINUOUS
10
3.9246062992125985
20
-2.4040551181102363
11
3.8753937007874013
21
-2.4040551181102363
0
LINE
8
BLACK
6
CONTINUOUS
10
3.8753937007874013
20
-2.4040551181102363
11
3.8753937007874013
21
-2.3646850393700789
0
LINE
8
BLACK
6
CONTINUOUS
10
3.8753937007874013
20
-2.3646850393700789
11
3.9246062992125985
21
-2.3646850393700789
0
LINE
8
BLACK
6
CONTINUOUS
10
3.9246062992125985
20
-2.3646850393700789
11
3.9246062992125985
21
-2.4040551181102363
0
LINE
8
BLACK
6
CONTINUOUS
10
4.2496062992125987
20
-2.4040551181102363
11
4.2003937007874015
21
-2.4040551181102363
0
LINE
8
BLACK
6
CONTINUOUS
10
4.2003937007874015
20
-2.4040551181102363
11
4.2003937007874015
21
-2.3646850393700789
0
LINE
8
BLACK
6
CONTINUOUS
10
4.2003937007874015
20
-2.3646850393700789
11
4.2496062992125987
21
-2.3646850393700789
0
LINE
8
BLACK
6
CONTINUOUS
10
4.2496062992125987
20
-2.3646850393700789
11
4.2496062992125987
21
-2.4040551181102363
0
LINE
8
BLACK
6
CONTINUOUS
10
3.2746062992125982
20
-2.399055118110236
11
3.2253937007874014
21
-2.399055118110236
0
LINE
8
BLACK
6
CONTINUOUS
10
3.2253937007874014
20
-2.399055118110236
11
3.2253937007874014
21
-2.3596850393700786
0
LINE
8
BLACK
6
CONTINUOUS
10
3.2253937007874014
20
-2.3596850393700786
11
3.2746062992125982
21
-2.3596850393700786
0
LINE
8
BLACK
6
CONTINUOUS
10
3.2746062992125982
20
-2.3596850393700786
11
3.2746062992125982
21
-2.399055118110236
0
LINE
8
BLACK
6
CONTINUOUS
10
3.5996062992125983
20
-2.399055118110236
11
3.5503937007874016
21
-2.399055118110236
0
LINE
8
BLACK
6
CONTINUOUS
10
3.5503937007874016
20
-2.399055118110236
11
3.5503937007874016
21
-2.3596850393700786
0
LINE
8
BLACK
6
CONTINUOUS
10
3.5503937007874016
20
-2.3596850393700786
11
3.5996062992125983
21
-2.3596850393700786
0
LINE
8
BLACK
6
CONTINUOUS
10
3.5996062992125983
20
-2.3596850393700786
11
3.5996062992125983
21
-2.399055118110236
0
LINE
8
BLACK
6
CONTINUOUS
10
2.6046062992125982
20
-2.3940551181102361
11
2.5553937007874015
21
-2.3940551181102361
0
LINE
8
BLACK
6
CONTINUOUS
10
2.5553937007874015
20
-2.3940551181102361
11
2.5553937007874015
21
-2.3546850393700787
0
LINE
8
BLACK
6
CONTINUOUS
10
2.5553937007874015
20
-2.3546850393700787
11
2.6046062992125982
21
-2.3546850393700787
0
LINE
8
BLACK
6
CONTINUOUS
10
2.6046062992125982
20
-2.3546850393700787
11
2.6046062992125982
21
-2.3940551181102361
0
LINE
8
BLACK
6
CONTINUOUS
10
2.9396062992125982
20
-2.325314960629921
11
2.8903937007874014
21
-2.325314960629921
0
LINE
8
BLACK
6
CONTINUOUS
10
2.8903937007874014
20
-2.325314960629921
11
2.8903937007874014
21
-2.2859448818897636
0
LINE
8
BLACK
6
CONTINUOUS
10
2.8903937007874014
20
-2.2859448818897636
11
2.9396062992125982
21
-2.2859448818897636
0
LINE
8
BLACK
6
CONTINUOUS
10
2.9396062992125982
20
-2.2859448818897636
11
2.9396062992125982
21
-2.325314960629921
0
LINE
8
BLACK
6
CONTINUOUS
10
3.9246062992125985
20
-2.325314960629921
11
3.8753937007874013
21
-2.325314960629921
0
LINE
8
BLACK
6
CONTINUOUS
10
3.8753937007874013
20
-2.325314960629921
11
3.8753937007874013
21
-2.2859448818897636
0
LINE
8
BLACK
6
CONTINUOUS
10
3.8753937007874013
20
-2.2859448818897636
11
3.9246062992125985
21
-2.2859448818897636
0
LINE
8
BLACK
6
CONTINUOUS
10
3.9246062992125985
20
-2.2859448818897636
11
3.9246062992125985
21
-2.325314960629921
0
LINE
8
BLACK
6
CONTINUOUS
10
4.2496062992125987
20
-2.325314960629921
11
4.2003937007874015
21
-2.325314960629921
0
LINE
8
BLACK
6
CONTINUOUS
10
4.2003937007874015
20
-2.325314960629921
11
4.2003937007874015
21
-2.2859448818897636
0
LINE
8
BLACK
6
CONTINUOUS
10
4.2003937007874015
20
-2.2859448818897636
11
4.2496062992125987
21
-2.2859448818897636
0
LINE
8
BLACK
6
CONTINUOUS
10
4.2496062992125987
20
-2.2859448818897636
11
4.2496062992125987
21
-2.325314960629921
0
LINE
8
BLACK
6
CONTINUOUS
10
2.6703149606299212
20
-2.3246062992125984
11
2.6309448818897638
21
-2.3246062992125984
0
LINE
8
BLACK
6
CONTINUOUS
10
2.6309448818897638
20
-2.3246062992125984
11
2.6309448818897638
21
-2.2753937007874017
0
LINE
8
BLACK
6
CONTINUOUS
10
2.6309448818897638
20
-2.2753937007874017
11
2.6703149606299212
21
-2.2753937007874017
0
LINE
8
BLACK
6
CONTINUOUS
10
2.6703149606299212
20
-2.2753937007874017
11
2.6703149606299212
21
-2.3246062992125984
0
LINE
8
BLACK
6
CONTINUOUS
10
2.7490551181102361
20
-2.3246062992125984
11
2.7096850393700787
21
-2.3246062992125984
0
LINE
8
BLACK
6
CONTINUOUS
10
2.7096850393700787
20
-2.3246062992125984
11
2.7096850393700787
21
-2.2753937007874017
0
LINE
8
BLACK
6
CONTINUOUS
10
2.7096850393700787
20
-2.2753937007874017
11
2.7490551181102361
21
-2.2753937007874017
0
LINE
8
BLACK
6
CONTINUOUS
10
2.7490551181102361
20
-2.2753937007874017
11
2.7490551181102361
21
-2.3246062992125984
0
LINE
8
BLACK
6
CONTINUOUS
10
3.0103149606299211
20
-2.3246062992125984
11
2.9709448818897637
21
-2.3246062992125984
0
LINE
8
BLACK
6
CONTINUOUS
10
2.9709448818897637
20
-2.3246062992125984
11
2.9709448818897637
21
-2.2753937007874017
0
LINE
8
BLACK
6
CONTINUOUS
10
2.9709448818897637
20
-2.2753937007874017
11
3.0103149606299211
21
-2.2753937007874017
0
LINE
8
BLACK
6
CONTINUOUS
10
3.0103149606299211
20
-2.2753937007874017
11
3.0103149606299211
21
-2.3246062992125984
0
LINE
8
BLACK
6
CONTINUOUS
10
3.0890551181102364
20
-2.3246062992125984
11
3.0496850393700785
21
-2.3246062992125984
0
LINE
8
BLACK
6
CONTINUOUS
10
3.0496850393700785
20
-2.3246062992125984
11
3.0496850393700785
21
-2.2753937007874017
0
LINE
8
BLACK
6
CONTINUOUS
10
3.0496850393700785
20
-2.2753937007874017
11
3.0890551181102364
21
-2.2753937007874017
0
LINE
8
BLACK
6
CONTINUOUS
10
3.0890551181102364
20
-2.2753937007874017
11
3.0890551181102364
21
-2.3246062992125984
0
LINE
8
BLACK
6
CONTINUOUS
10
3.3403149606299212
20
-2.3246062992125984
11
3.3009448818897638
21
-2.3246062992125984
0
LINE
8
BLACK
6
CONTINUOUS
10
3.3009448818897638
20
-2.3246062992125984
11
3.3009448818897638
21
-2.2753937007874017
0
LINE
8
BLACK
6
CONTINUOUS
10
3.3009448818897638
20
-2.2753937007874017
11
3.3403149606299212
21
-2.2753937007874017
0
LINE
8
BLACK
6
CONTINUOUS
10
3.3403149606299212
20
-2.2753937007874017
11
3.3403149606299212
21
-2.3246062992125984
0
LINE
8
BLACK
6
CONTINUOUS
10
3.419055118110236
20
-2.3246062992125984
11
3.3796850393700786
21
-2.3246062992125984
0
LINE
8
BLACK
6
CONTINUOUS
10
3.3796850393700786
20
-2.3246062992125984
11
3.3796850393700786
21
-2.2753937007874017
0
LINE
8
BLACK
6
CONTINUOUS
10
3.3796850393700786
20
-2.2753937007874017
11
3.419055118110236
21
-2.2753937007874017
0
LINE
8
BLACK
6
CONTINUOUS
10
3.419055118110236
20
-2.2753937007874017
11
3.419055118110236
21
-2.3246062992125984
0
LINE
8
BLACK
6
CONTINUOUS
10
3.6653149606299213
20
-2.3246062992125984
11
3.6259448818897635
21
-2.3246062992125984
0
LINE
8
BLACK
6
CONTINUOUS
10
3.6259448818897635
20
-2.3246062992125984
11
3.6259448818897635
21
-2.2753937007874017
0
LINE
8
BLACK
6
CONTINUOUS
10
3.6259448818897635
20
-2.2753937007874017
11
3.6653149606299213
21
-2.2753937007874017
0
LINE
8
BLACK
6
CONTINUOUS
10
3.6653149606299213
20
-2.2753937007874017
11
3.6653149606299213
21
-2.3246062992125984
0
LINE
8
BLACK
6
CONTINUOUS
10
3.7440551181102362
20
-2.3246062992125984
11
3.7046850393700788
21
-2.3246062992125984
0
LINE
8
BLACK
6
CONTINUOUS
10
3.7046850393700788
20
-2.3246062992125984
11
3.7046850393700788
21
-2.2753937007874017
0
LINE
8
BLACK
6
CONTINUOUS
10
3.7046850393700788
20
-2.2753937007874017
11
3.7440551181102362
21
-2.2753937007874017
0
LINE
8
BLACK
6
CONTINUOUS
10
3.7440551181102362
20
-2.2753937007874017
11
3.7440551181102362
21
-2.3246062992125984
0
LINE
8
BLACK
6
CONTINUOUS
10
3.9903149606299211
20
-2.3246062992125984
11
3.9509448818897637
21
-2.3246062992125984
0
LINE
8
BLACK
6
CONTINUOUS
10
3.9509448818897637
20
-2.3246062992125984
11
3.9509448818897637
21
-2.2753937007874017
0
LINE
8
BLACK
6
CONTINUOUS
10
3.9509448818897637
20
-2.2753937007874017
11
3.9903149606299211
21
-2.2753937007874017
0
LINE
8
BLACK
6
CONTINUOUS
10
3.9903149606299211
20
-2.2753937007874017
11
3.9903149606299211
21
-2.3246062992125984
0
LINE
8
BLACK
6
CONTINUOUS
10
4.0690551181102359
20
-2.3246062992125984
11
4.0296850393700785
21
-2.3246062992125984
0
LINE
8
BLACK
6
CONTINUOUS
10
4.0296850393700785
20
-2.3246062992125984
11
4.0296850393700785
21
-2.2753937007874017
0
LINE
8
BLACK
6
CONTINUOUS
10
4.0296850393700785
20
-2.2753937007874017
11
4.0690551181102359
21
-2.2753937007874017
0
LINE
8
BLACK
6
CONTINUOUS
10
4.0690551181102359
20
-2.2753937007874017
11
4.0690551181102359
21
-2.3246062992125984
0
LINE
8
BLACK
6
CONTINUOUS
10
4.3153149606299213
20
-2.3246062992125984
11
4.2759448818897638
21
-2.3246062992125984
0
LINE
8
BLACK
6
CONTINUOUS
10
4.2759448818897638
20
-2.3246062992125984
11
4.2759448818897638
21
-2.2753937007874017
0
LINE
8
BLACK
6
CONTINUOUS
10
4.2759448818897638
20
-2.2753937007874017
11
4.3153149606299213
21
-2.2753937007874017
0
LINE
8
BLACK
6
CONTINUOUS
10
4.3153149606299213
20
-2.2753937007874017
11
4.3153149606299213
21
-2.3246062992125984
0
LINE
8
BLACK
6
CONTINUOUS
10
4.3940551181102361
20
-2.3246062992125984
11
4.3546850393700787
21
-2.3246062992125984
0
LINE
8
BLACK
6
CONTINUOUS
10
4.3546850393700787
20
-2.3246062992125984
11
4.3546850393700787
21
-2.2753937007874017
0
LINE
8
BLACK
6
CONTINUOUS
10
4.3546850393700787
20
-2.2753937007874017
11
4.3940551181102361
21
-2.2753937007874017
0
LINE
8
BLACK
6
CONTINUOUS
10
4.3940551181102361
20
-2.2753937007874017
11
4.3940551181102361
21
-2.3246062992125984
0
LINE
8
BLACK
6
CONTINUOUS
10
1.9242125984251968
20
-2.3218110236220473
11
1.8631889763779528
21
-2.3218110236220473
0
LINE
8
BLACK
6
CONTINUOUS
10
1.8631889763779528
20
-2.3218110236220473
11
1.8631889763779528
21
-2.2981889763779528
0
LINE
8
BLACK
6
CONTINUOUS
10
1.8631889763779528
20
-2.2981889763779528
11
1.9242125984251968
21
-2.2981889763779528
0
LINE
8
BLACK
6
CONTINUOUS
10
1.9242125984251968
20
-2.2981889763779528
11
1.9242125984251968
21
-2.3218110236220473
0
LINE
8
BLACK
6
CONTINUOUS
10
2.1368110236220472
20
-2.3218110236220473
11
2.0757874015748032
21
-2.3218110236220473
0
LINE
8
BLACK
6
CONTINUOUS
10
2.0757874015748032
20
-2.3218110236220473
11
2.0757874015748032
21
-2.2981889763779528
0
LINE
8
BLACK
6
CONTINUOUS
10
2.0757874015748032
20
-2.2981889763779528
11
2.1368110236220472
21
-2.2981889763779528
0
LINE
8
BLACK
6
CONTINUOUS
10
2.1368110236220472
20
-2.2981889763779528
11
2.1368110236220472
21
-2.3218110236220473
0
LINE
8
BLACK
6
CONTINUOUS
10
3.2746062992125982
20
-2.3203149606299212
11
3.2253937007874014
21
-2.3203149606299212
0
LINE
8
BLACK
6
CONTINUOUS
10
3.2253937007874014
20
-2.3203149606299212
11
3.2253937007874014
21
-2.2809448818897637
0
LINE
8
BLACK
6
CONTINUOUS
10
3.2253937007874014
20
-2.2809448818897637
11
3.2746062992125982
21
-2.2809448818897637
0
LINE
8
BLACK
6
CONTINUOUS
10
3.2746062992125982
20
-2.2809448818897637
11
3.2746062992125982
21
-2.3203149606299212
0
LINE
8
BLACK
6
CONTINUOUS
10
3.5996062992125983
20
-2.3203149606299212
11
3.5503937007874016
21
-2.3203149606299212
0
LINE
8
BLACK
6
CONTINUOUS
10
3.5503937007874016
20
-2.3203149606299212
11
3.5503937007874016
21
-2.2809448818897637
0
LINE
8
BLACK
6
CONTINUOUS
10
3.5503937007874016
20
-2.2809448818897637
11
3.5996062992125983
21
-2.2809448818897637
0
LINE
8
BLACK
6
CONTINUOUS
10
3.5996062992125983
20
-2.2809448818897637
11
3.5996062992125983
21
-2.3203149606299212
0
LINE
8
BLACK
6
CONTINUOUS
10
2.6046062992125982
20
-2.3153149606299213
11
2.5553937007874015
21
-2.3153149606299213
0
LINE
8
BLACK
6
CONTINUOUS
10
2.5553937007874015
20
-2.3153149606299213
11
2.5553937007874015
21
-2.2759448818897638
0
LINE
8
BLACK
6
CONTINUOUS
10
2.5553937007874015
20
-2.2759448818897638
11
2.6046062992125982
21
-2.2759448818897638
0
LINE
8
BLACK
6
CONTINUOUS
10
2.6046062992125982
20
-2.2759448818897638
11
2.6046062992125982
21
-2.3153149606299213
0
LINE
8
BLACK
6
CONTINUOUS
10
2.2317
20
-2.31345
11
2.1804999999999999
21
-2.31345
0
LINE
8
BLACK
6
CONTINUOUS
10
2.1804999999999999
20
-2.31345
11
2.1804999999999999
21
-2.24655
0
LINE
8
BLACK
6
CONTINUOUS
10
2.1804999999999999
20
-2.24655
11
2.2317
21
-2.24655
0
LINE
8
BLACK
6
CONTINUOUS
10
2.2317
20
-2.24655
11
2.2317
21
-2.31345
0
LINE
8
BLACK
6
CONTINUOUS
10
2.3694999999999999
20
-2.31345
11
2.3182999999999998
21
-2.31345
0
LINE
8
BLACK
6
CONTINUOUS
10
2.3182999999999998
20
-2.31345
11
2.3182999999999998
21
-2.24655
0
LINE
8
BLACK
6
CONTINUOUS
10
2.3182999999999998
20
-2.24655
11
2.3694999999999999
21
-2.24655
0
LINE
8
BLACK
6
CONTINUOUS
10
2.3694999999999999
20
-2.24655
11
2.3694999999999999
21
-2.31345
0
LINE
8
BLACK
6
CONTINUOUS
10
1.9242125984251968
20
-2.271811023622047
11
1.8631889763779528
21
-2.271811023622047
0
LINE
8
BLACK
6
CONTINUOUS
10
1.8631889763779528
20
-2.271811023622047
11
1.8631889763779528
21
-2.2481889763779526
0
LINE
8
BLACK
6
CONTINUOUS
10
1.8631889763779528
20
-2.2481889763779526
11
1.9242125984251968
21
-2.2481889763779526
0
LINE
8
BLACK
6
CONTINUOUS
10
1.9242125984251968
20
-2.2481889763779526
11
1.9242125984251968
21
-2.271811023622047
0
LINE
8
BLACK
6
CONTINUOUS
10
2.1368110236220472
20
-2.271811023622047
11
2.0757874015748032
21
-2.271811023622047
0
LINE
8
BLACK
6
CONTINUOUS
10
2.0757874015748032
20
-2.271811023622047
11
2.0757874015748032
21
-2.2481889763779526
0
LINE
8
BLACK
6
CONTINUOUS
10
2.0757874015748032
20
-2.2481889763779526
11
2.1368110236220472
21
-2.2481889763779526
0
LINE
8
BLACK
6
CONTINUOUS
10
2.1368110236220472
20
-2.2481889763779526
11
2.1368110236220472
21
-2.271811023622047
0
LINE
8
BLACK
6
CONTINUOUS
10
2.6703149606299212
20
-2.2596062992125985
11
2.6309448818897638
21
-2.2596062992125985
0
LINE
8
BLACK
6
CONTINUOUS
10
2.6309448818897638
20
-2.2596062992125985
11
2.6309448818897638
21
-2.2103937007874017
0
LINE
8
BLACK
6
CONTINUOUS
10
2.6309448818897638
20
-2.2103937007874017
11
2.6703149606299212
21
-2.2103937007874017
0
LINE
8
BLACK
6
CONTINUOUS
10
2.6703149606299212
20
-2.2103937007874017
11
2.6703149606299212
21
-2.2596062992125985
0
LINE
8
BLACK
6
CONTINUOUS
10
2.7490551181102361
20
-2.2596062992125985
11
2.7096850393700787
21
-2.2596062992125985
0
LINE
8
BLACK
6
CONTINUOUS
10
2.7096850393700787
20
-2.2596062992125985
11
2.7096850393700787
21
-2.2103937007874017
0
LINE
8
BLACK
6
CONTINUOUS
10
2.7096850393700787
20
-2.2103937007874017
11
2.7490551181102361
21
-2.2103937007874017
0
LINE
8
BLACK
6
CONTINUOUS
10
2.7490551181102361
20
-2.2103937007874017
11
2.7490551181102361
21
-2.2596062992125985
0
LINE
8
BLACK
6
CONTINUOUS
10
2.995314960629921
20
-2.2596062992125985
11
2.9559448818897636
21
-2.2596062992125985
0
LINE
8
BLACK
6
CONTINUOUS
10
2.9559448818897636
20
-2.2596062992125985
11
2.9559448818897636
21
-2.2103937007874017
0
LINE
8
BLACK
6
CONTINUOUS
10
2.9559448818897636
20
-2.2103937007874017
11
2.995314960629921
21
-2.2103937007874017
0
LINE
8
BLACK
6
CONTINUOUS
10
2.995314960629921
20
-2.2103937007874017
11
2.995314960629921
21
-2.2596062992125985
0
LINE
8
BLACK
6
CONTINUOUS
10
3.0740551181102362
20
-2.2596062992125985
11
3.0346850393700788
21
-2.2596062992125985
0
LINE
8
BLACK
6
CONTINUOUS
10
3.0346850393700788
20
-2.2596062992125985
11
3.0346850393700788
21
-2.2103937007874017
0
LINE
8
BLACK
6
CONTINUOUS
10
3.0346850393700788
20
-2.2103937007874017
11
3.0740551181102362
21
-2.2103937007874017
0
LINE
8
BLACK
6
CONTINUOUS
10
3.0740551181102362
20
-2.2103937007874017
11
3.0740551181102362
21
-2.2596062992125985
0
LINE
8
BLACK
6
CONTINUOUS
10
3.325314960629921
20
-2.2596062992125985
11
3.2859448818897636
21
-2.2596062992125985
0
LINE
8
BLACK
6
CONTINUOUS
10
3.2859448818897636
20
-2.2596062992125985
11
3.2859448818897636
21
-2.2103937007874017
0
LINE
8
BLACK
6
CONTINUOUS
10
3.2859448818897636
20
-2.2103937007874017
11
3.325314960629921
21
-2.2103937007874017
0
LINE
8
BLACK
6
CONTINUOUS
10
3.325314960629921
20
-2.2103937007874017
11
3.325314960629921
21
-2.2596062992125985
0
LINE
8
BLACK
6
CONTINUOUS
10
3.4040551181102363
20
-2.2596062992125985
11
3.3646850393700785
21
-2.2596062992125985
0
LINE
8
BLACK
6
CONTINUOUS
10
3.3646850393700785
20
-2.2596062992125985
11
3.3646850393700785
21
-2.2103937007874017
0
LINE
8
BLACK
6
CONTINUOUS
10
3.3646850393700785
20
-2.2103937007874017
11
3.4040551181102363
21
-2.2103937007874017
0
LINE
8
BLACK
6
CONTINUOUS
10
3.4040551181102363
20
-2.2103937007874017
11
3.4040551181102363
21
-2.2596062992125985
0
LINE
8
BLACK
6
CONTINUOUS
10
3.6503149606299212
20
-2.2596062992125985
11
3.6109448818897638
21
-2.2596062992125985
0
LINE
8
BLACK
6
CONTINUOUS
10
3.6109448818897638
20
-2.2596062992125985
11
3.6109448818897638
21
-2.2103937007874017
0
LINE
8
BLACK
6
CONTINUOUS
10
3.6109448818897638
20
-2.2103937007874017
11
3.6503149606299212
21
-2.2103937007874017
0
LINE
8
BLACK
6
CONTINUOUS
10
3.6503149606299212
20
-2.2103937007874017
11
3.6503149606299212
21
-2.2596062992125985
0
LINE
8
BLACK
6
CONTINUOUS
10
3.729055118110236
20
-2.2596062992125985
11
3.6896850393700786
21
-2.2596062992125985
0
LINE
8
BLACK
6
CONTINUOUS
10
3.6896850393700786
20
-2.2596062992125985
11
3.6896850393700786
21
-2.2103937007874017
0
LINE
8
BLACK
6
CONTINUOUS
10
3.6896850393700786
20
-2.2103937007874017
11
3.729055118110236
21
-2.2103937007874017
0
LINE
8
BLACK
6
CONTINUOUS
10
3.729055118110236
20
-2.2103937007874017
11
3.729055118110236
21
-2.2596062992125985
0
LINE
8
BLACK
6
CONTINUOUS
10
3.975314960629921
20
-2.2596062992125985
11
3.9359448818897635
21
-2.2596062992125985
0
LINE
8
BLACK
6
CONTINUOUS
10
3.9359448818897635
20
-2.2596062992125985
11
3.9359448818897635
21
-2.2103937007874017
0
LINE
8
BLACK
6
CONTINUOUS
10
3.9359448818897635
20
-2.2103937007874017
11
3.975314960629921
21
-2.2103937007874017
0
LINE
8
BLACK
6
CONTINUOUS
10
3.975314960629921
20
-2.2103937007874017
11
3.975314960629921
21
-2.2596062992125985
0
LINE
8
BLACK
6
CONTINUOUS
10
4.0540551181102362
20
-2.2596062992125985
11
4.0146850393700788
21
-2.2596062992125985
0
LINE
8
BLACK
6
CONTINUOUS
10
4.0146850393700788
20
-2.2596062992125985
11
4.0146850393700788
21
-2.2103937007874017
0
LINE
8
BLACK
6
CONTINUOUS
10
4.0146850393700788
20
-2.2103937007874017
11
4.0540551181102362
21
-2.2103937007874017
0
LINE
8
BLACK
6
CONTINUOUS
10
4.0540551181102362
20
-2.2103937007874017
11
4.0540551181102362
21
-2.2596062992125985
0
LINE
8
BLACK
6
CONTINUOUS
10
4.3003149606299216
20
-2.2596062992125985
11
4.2609448818897633
21
-2.2596062992125985
0
LINE
8
BLACK
6
CONTINUOUS
10
4.2609448818897633
20
-2.2596062992125985
11
4.2609448818897633
21
-2.2103937007874017
0
LINE
8
BLACK
6
CONTINUOUS
10
4.2609448818897633
20
-2.2103937007874017
11
4.3003149606299216
21
-2.2103937007874017
0
LINE
8
BLACK
6
CONTINUOUS
10
4.3003149606299216
20
-2.2103937007874017
11
4.3003149606299216
21
-2.2596062992125985
0
LINE
8
BLACK
6
CONTINUOUS
10
4.3790551181102364
20
-2.2596062992125985
11
4.339685039370079
21
-2.2596062992125985
0
LINE
8
BLACK
6
CONTINUOUS
10
4.339685039370079
20
-2.2596062992125985
11
4.339685039370079
21
-2.2103937007874017
0
LINE
8
BLACK
6
CONTINUOUS
10
4.339685039370079
20
-2.2103937007874017
11
4.3790551181102364
21
-2.2103937007874017
0
LINE
8
BLACK
6
CONTINUOUS
10
4.3790551181102364
20
-2.2103937007874017
11
4.3790551181102364
21
-2.2596062992125985
0
LINE
8
BLACK
6
CONTINUOUS
10
2.5313779527559053
20
-2.2255905511811025
11
2.5038188976377951
21
-2.2255905511811025
0
LINE
8
BLACK
6
CONTINUOUS
10
2.5038188976377951
20
-2.2255905511811025
11
2.5038188976377951
21
-2.1744094488188974
0
LINE
8
BLACK
6
CONTINUOUS
10
2.5038188976377951
20
-2.1744094488188974
11
2.5313779527559053
21
-2.1744094488188974
0
LINE
8
BLACK
6
CONTINUOUS
10
2.5313779527559053
20
-2.1744094488188974
11
2.5313779527559053
21
-2.2255905511811025
0
LINE
8
BLACK
6
CONTINUOUS
10
2.6061811023622048
20
-2.2255905511811025
11
2.5786220472440946
21
-2.2255905511811025
0
LINE
8
BLACK
6
CONTINUOUS
10
2.5786220472440946
20
-2.2255905511811025
11
2.5786220472440946
21
-2.1744094488188974
0
LINE
8
BLACK
6
CONTINUOUS
10
2.5786220472440946
20
-2.1744094488188974
11
2.6061811023622048
21
-2.1744094488188974
0
LINE
8
BLACK
6
CONTINUOUS
10
2.6061811023622048
20
-2.1744094488188974
11
2.6061811023622048
21
-2.2255905511811025
0
LINE
8
BLACK
6
CONTINUOUS
10
2.8563779527559054
20
-2.2255905511811025
11
2.8288188976377953
21
-2.2255905511811025
0
LINE
8
BLACK
6
CONTINUOUS
10
2.8288188976377953
20
-2.2255905511811025
11
2.8288188976377953
21
-2.1744094488188974
0
LINE
8
BLACK
6
CONTINUOUS
10
2.8288188976377953
20
-2.1744094488188974
11
2.8563779527559054
21
-2.1744094488188974
0
LINE
8
BLACK
6
CONTINUOUS
10
2.8563779527559054
20
-2.1744094488188974
11
2.8563779527559054
21
-2.2255905511811025
0
LINE
8
BLACK
6
CONTINUOUS
10
2.9311811023622045
20
-2.2255905511811025
11
2.9036220472440943
21
-2.2255905511811025
0
LINE
8
BLACK
6
CONTINUOUS
10
2.9036220472440943
20
-2.2255905511811025
11
2.9036220472440943
21
-2.1744094488188974
0
LINE
8
BLACK
6
CONTINUOUS
10
2.9036220472440943
20
-2.1744094488188974
11
2.9311811023622045
21
-2.1744094488188974
0
LINE
8
BLACK
6
CONTINUOUS
10
2.9311811023622045
20
-2.1744094488188974
11
2.9311811023622045
21
-2.2255905511811025
0
LINE
8
BLACK
6
CONTINUOUS
10
1.9242125984251968
20
-2.2218110236220472
11
1.8631889763779528
21
-2.2218110236220472
0
LINE
8
BLACK
6
CONTINUOUS
10
1.8631889763779528
20
-2.2218110236220472
11
1.8631889763779528
21
-2.1981889763779527
0
LINE
8
BLACK
6
CONTINUOUS
10
1.8631889763779528
20
-2.1981889763779527
11
1.9242125984251968
21
-2.1981889763779527
0
LINE
8
BLACK
6
CONTINUOUS
10
1.9242125984251968
20
-2.1981889763779527
11
1.9242125984251968
21
-2.2218110236220472
0
LINE
8
BLACK
6
CONTINUOUS
10
2.1368110236220472
20
-2.2218110236220472
11
2.0757874015748032
21
-2.2218110236220472
0
LINE
8
BLACK
6
CONTINUOUS
10
2.0757874015748032
20
-2.2218110236220472
11
2.0757874015748032
21
-2.1981889763779527
0
LINE
8
BLACK
6
CONTINUOUS
10
2.0757874015748032
20
-2.1981889763779527
11
2.1368110236220472
21
-2.1981889763779527
0
LINE
8
BLACK
6
CONTINUOUS
10
2.1368110236220472
20
-2.1981889763779527
11
2.1368110236220472
21
-2.2218110236220472
0
LINE
8
BLACK
6
CONTINUOUS
10
2.2013779527559056
20
-2.2205905511811022
11
2.173818897637795
21
-2.2205905511811022
0
LINE
8
BLACK
6
CONTINUOUS
10
2.173818897637795
20
-2.2205905511811022
11
2.173818897637795
21
-2.1694094488188975
0
LINE
8
BLACK
6
CONTINUOUS
10
2.173818897637795
20
-2.1694094488188975
11
2.2013779527559056
21
-2.1694094488188975
0
LINE
8
BLACK
6
CONTINUOUS
10
2.2013779527559056
20
-2.1694094488188975
11
2.2013779527559056
21
-2.2205905511811022
0
LINE
8
BLACK
6
CONTINUOUS
10
2.2761811023622047
20
-2.2205905511811022
11
2.2486220472440945
21
-2.2205905511811022
0
LINE
8
BLACK
6
CONTINUOUS
10
2.2486220472440945
20
-2.2205905511811022
11
2.2486220472440945
21
-2.1694094488188975
0
LINE
8
BLACK
6
CONTINUOUS
10
2.2486220472440945
20
-2.1694094488188975
11
2.2761811023622047
21
-2.1694094488188975
0
LINE
8
BLACK
6
CONTINUOUS
10
2.2761811023622047
20
-2.1694094488188975
11
2.2761811023622047
21
-2.2205905511811022
0
LINE
8
BLACK
6
CONTINUOUS
10
3.1813779527559056
20
-2.2205905511811022
11
3.153818897637795
21
-2.2205905511811022
0
LINE
8
BLACK
6
CONTINUOUS
10
3.153818897637795
20
-2.2205905511811022
11
3.153818897637795
21
-2.1694094488188975
0
LINE
8
BLACK
6
CONTINUOUS
10
3.153818897637795
20
-2.1694094488188975
11
3.1813779527559056
21
-2.1694094488188975
0
LINE
8
BLACK
6
CONTINUOUS
10
3.1813779527559056
20
-2.1694094488188975
11
3.1813779527559056
21
-2.2205905511811022
0
LINE
8
BLACK
6
CONTINUOUS
10
3.2561811023622047
20
-2.2205905511811022
11
3.2286220472440945
21
-2.2205905511811022
0
LINE
8
BLACK
6
CONTINUOUS
10
3.2286220472440945
20
-2.2205905511811022
11
3.2286220472440945
21
-2.1694094488188975
0
LINE
8
BLACK
6
CONTINUOUS
10
3.2286220472440945
20
-2.1694094488188975
11
3.2561811023622047
21
-2.1694094488188975
0
LINE
8
BLACK
6
CONTINUOUS
10
3.2561811023622047
20
-2.1694094488188975
11
3.2561811023622047
21
-2.2205905511811022
0
LINE
8
BLACK
6
CONTINUOUS
10
3.5063779527559054
20
-2.2205905511811022
11
3.4788188976377952
21
-2.2205905511811022
0
LINE
8
BLACK
6
CONTINUOUS
10
3.4788188976377952
20
-2.2205905511811022
11
3.4788188976377952
21
-2.1694094488188975
0
LINE
8
BLACK
6
CONTINUOUS
10
3.4788188976377952
20
-2.1694094488188975
11
3.5063779527559054
21
-2.1694094488188975
0
LINE
8
BLACK
6
CONTINUOUS
10
3.5063779527559054
20
-2.1694094488188975
11
3.5063779527559054
21
-2.2205905511811022
0
LINE
8
BLACK
6
CONTINUOUS
10
3.5811811023622044
20
-2.2205905511811022
11
3.5536220472440943
21
-2.2205905511811022
0
LINE
8
BLACK
6
CONTINUOUS
10
3.5536220472440943
20
-2.2205905511811022
11
3.5536220472440943
21
-2.1694094488188975
0
LINE
8
BLACK
6
CONTINUOUS
10
3.5536220472440943
20
-2.1694094488188975
11
3.5811811023622044
21
-2.1694094488188975
0
LINE
8
BLACK
6
CONTINUOUS
10
3.5811811023622044
20
-2.1694094488188975
11
3.5811811023622044
21
-2.2205905511811022
0
LINE
8
BLACK
6
CONTINUOUS
10
3.8313779527559055
20
-2.2205905511811022
11
3.8038188976377953
21
-2.2205905511811022
0
LINE
8
BLACK
6
CONTINUOUS
10
3.8038188976377953
20
-2.2205905511811022
11
3.8038188976377953
21
-2.1694094488188975
0
LINE
8
BLACK
6
CONTINUOUS
10
3.8038188976377953
20
-2.1694094488188975
11
3.8313779527559055
21
-2.1694094488188975
0
LINE
8
BLACK
6
CONTINUOUS
10
3.8313779527559055
20
-2.1694094488188975
11
3.8313779527559055
21
-2.2205905511811022
0
LINE
8
BLACK
6
CONTINUOUS
10
3.9061811023622046
20
-2.2205905511811022
11
3.8786220472440944
21
-2.2205905511811022
0
LINE
8
BLACK
6
CONTINUOUS
10
3.8786220472440944
20
-2.2205905511811022
11
3.8786220472440944
21
-2.1694094488188975
0
LINE
8
BLACK
6
CONTINUOUS
10
3.8786220472440944
20
-2.1694094488188975
11
3.9061811023622046
21
-2.1694094488188975
0
LINE
8
BLACK
6
CONTINUOUS
10
3.9061811023622046
20
-2.1694094488188975
11
3.9061811023622046
21
-2.2205905511811022
0
LINE
8
BLACK
6
CONTINUOUS
10
4.1563779527559053
20
-2.2205905511811022
11
4.1288188976377951
21
-2.2205905511811022
0
LINE
8
BLACK
6
CONTINUOUS
10
4.1288188976377951
20
-2.2205905511811022
11
4.1288188976377951
21
-2.1694094488188975
0
LINE
8
BLACK
6
CONTINUOUS
10
4.1288188976377951
20
-2.1694094488188975
11
4.1563779527559053
21
-2.1694094488188975
0
LINE
8
BLACK
6
CONTINUOUS
10
4.1563779527559053
20
-2.1694094488188975
11
4.1563779527559053
21
-2.2205905511811022
0
LINE
8
BLACK
6
CONTINUOUS
10
4.2311811023622043
20
-2.2205905511811022
11
4.2036220472440942
21
-2.2205905511811022
0
LINE
8
BLACK
6
CONTINUOUS
10
4.2036220472440942
20
-2.2205905511811022
11
4.2036220472440942
21
-2.1694094488188975
0
LINE
8
BLACK
6
CONTINUOUS
10
4.2036220472440942
20
-2.1694094488188975
11
4.2311811023622043
21
-2.1694094488188975
0
LINE
8
BLACK
6
CONTINUOUS
10
4.2311811023622043
20
-2.1694094488188975
11
4.2311811023622043
21
-2.2205905511811022
0
LINE
8
BLACK
6
CONTINUOUS
10
2.7079999999999997
20
-2.1832500000000001
11
2.6686000000000001
21
-2.1832500000000001
0
LINE
8
BLACK
6
CONTINUOUS
10
2.6686000000000001
20
-2.1832500000000001
11
2.6686000000000001
21
-2.1517499999999998
0
LINE
8
BLACK
6
CONTINUOUS
10
2.6686000000000001
20
-2.1517499999999998
11
2.7079999999999997
21
-2.1517499999999998
0
LINE
8
BLACK
6
CONTINUOUS
10
2.7079999999999997
20
-2.1517499999999998
11
2.7079999999999997
21
-2.1832500000000001
0
LINE
8
BLACK
6
CONTINUOUS
10
3.028
20
-2.1832500000000001
11
2.9885999999999999
21
-2.1832500000000001
0
LINE
8
BLACK
6
CONTINUOUS
10
2.9885999999999999
20
-2.1832500000000001
11
2.9885999999999999
21
-2.1517499999999998
0
LINE
8
BLACK
6
CONTINUOUS
10
2.9885999999999999
20
-2.1517499999999998
11
3.028
21
-2.1517499999999998
0
LINE
8
BLACK
6
CONTINUOUS
10
3.028
20
-2.1517499999999998
11
3.028
21
-2.1832500000000001
0
LINE
8
BLACK
6
CONTINUOUS
10
4.0030000000000001
20
-2.1782499999999998
11
3.9636
21
-2.1782499999999998
0
LINE
8
BLACK
6
CONTINUOUS
10
3.9636
20
-2.1782499999999998
11
3.9636
21
-2.1467499999999999
0
LINE
8
BLACK
6
CONTINUOUS
10
3.9636
20
-2.1467499999999999
11
4.0030000000000001
21
-2.1467499999999999
0
LINE
8
BLACK
6
CONTINUOUS
10
4.0030000000000001
20
-2.1467499999999999
11
4.0030000000000001
21
-2.1782499999999998
0
LINE
8
BLACK
6
CONTINUOUS
10
4.3280000000000003
20
-2.1782499999999998
11
4.2885999999999997
21
-2.1782499999999998
0
LINE
8
BLACK
6
CONTINUOUS
10
4.2885999999999997
20
-2.1782499999999998
11
4.2885999999999997
21
-2.1467499999999999
0
LINE
8
BLACK
6
CONTINUOUS
10
4.2885999999999997
20
-2.1467499999999999
11
4.3280000000000003
21
-2.1467499999999999
0
LINE
8
BLACK
6
CONTINUOUS
10
4.3280000000000003
20
-2.1467499999999999
11
4.3280000000000003
21
-2.1782499999999998
0
LINE
8
BLACK
6
CONTINUOUS
10
1.9242125984251968
20
-2.1718110236220474
11
1.8631889763779528
21
-2.1718110236220474
0
LINE
8
BLACK
6
CONTINUOUS
10
1.8631889763779528
20
-2.1718110236220474
11
1.8631889763779528
21
-2.1481889763779529
0
LINE
8
BLACK
6
CONTINUOUS
10
1.8631889763779528
20
-2.1481889763779529
11
1.9242125984251968
21
-2.1481889763779529
0
LINE
8
BLACK
6
CONTINUOUS
10
1.9242125984251968
20
-2.1481889763779529
11
1.9242125984251968
21
-2.1718110236220474
0
LINE
8
BLACK
6
CONTINUOUS
10
2.1368110236220472
20
-2.1718110236220474
11
2.0757874015748032
21
-2.1718110236220474
0
LINE
8
BLACK
6
CONTINUOUS
10
2.0757874015748032
20
-2.1718110236220474
11
2.0757874015748032
21
-2.1481889763779529
0
LINE
8
BLACK
6
CONTINUOUS
10
2.0757874015748032
20
-2.1481889763779529
11
2.1368110236220472
21
-2.1481889763779529
0
LINE
8
BLACK
6
CONTINUOUS
10
2.1368110236220472
20
-2.1481889763779529
11
2.1368110236220472
21
-2.1718110236220474
0
LINE
8
BLACK
6
CONTINUOUS
10
3.7130000000000001
20
-2.16825
11
3.6736
21
-2.16825
0
LINE
8
BLACK
6
CONTINUOUS
10
3.6736
20
-2.16825
11
3.6736
21
-2.1367500000000001
0
LINE
8
BLACK
6
CONTINUOUS
10
3.6736
20
-2.1367500000000001
11
3.7130000000000001
21
-2.1367500000000001
0
LINE
8
BLACK
6
CONTINUOUS
10
3.7130000000000001
20
-2.1367500000000001
11
3.7130000000000001
21
-2.16825
0
LINE
8
BLACK
6
CONTINUOUS
10
3.3180000000000001
20
-2.1632500000000001
11
3.2786
21
-2.1632500000000001
0
LINE
8
BLACK
6
CONTINUOUS
10
3.2786
20
-2.1632500000000001
11
3.2786
21
-2.1317499999999998
0
LINE
8
BLACK
6
CONTINUOUS
10
3.2786
20
-2.1317499999999998
11
3.3180000000000001
21
-2.1317499999999998
0
LINE
8
BLACK
6
CONTINUOUS
10
3.3180000000000001
20
-2.1317499999999998
11
3.3180000000000001
21
-2.1632500000000001
0
LINE
8
BLACK
6
CONTINUOUS
10
2.6214
20
-2.14575
11
2.5819999999999999
21
-2.14575
0
LINE
8
BLACK
6
CONTINUOUS
10
2.5819999999999999
20
-2.14575
11
2.5819999999999999
21
-2.1142499999999997
0
LINE
8
BLACK
6
CONTINUOUS
10
2.5819999999999999
20
-2.1142499999999997
11
2.6214
21
-2.1142499999999997
0
LINE
8
BLACK
6
CONTINUOUS
10
2.6214
20
-2.1142499999999997
11
2.6214
21
-2.14575
0
LINE
8
BLACK
6
CONTINUOUS
10
2.9413999999999998
20
-2.14575
11
2.9020000000000001
21
-2.14575
0
LINE
8
BLACK
6
CONTINUOUS
10
2.9020000000000001
20
-2.14575
11
2.9020000000000001
21
-2.1142499999999997
0
LINE
8
BLACK
6
CONTINUOUS
10
2.9020000000000001
20
-2.1142499999999997
11
2.9413999999999998
21
-2.1142499999999997
0
LINE
8
BLACK
6
CONTINUOUS
10
2.9413999999999998
20
-2.1142499999999997
11
2.9413999999999998
21
-2.14575
0
LINE
8
BLACK
6
CONTINUOUS
10
3.9163999999999999
20
-2.1407500000000002
11
3.8769999999999998
21
-2.1407500000000002
0
LINE
8
BLACK
6
CONTINUOUS
10
3.8769999999999998
20
-2.1407500000000002
11
3.8769999999999998
21
-2.1092499999999998
0
LINE
8
BLACK
6
CONTINUOUS
10
3.8769999999999998
20
-2.1092499999999998
11
3.9163999999999999
21
-2.1092499999999998
0
LINE
8
BLACK
6
CONTINUOUS
10
3.9163999999999999
20
-2.1092499999999998
11
3.9163999999999999
21
-2.1407500000000002
0
LINE
8
BLACK
6
CONTINUOUS
10
4.2413999999999996
20
-2.1407500000000002
11
4.202
21
-2.1407500000000002
0
LINE
8
BLACK
6
CONTINUOUS
10
4.202
20
-2.1407500000000002
11
4.202
21
-2.1092499999999998
0
LINE
8
BLACK
6
CONTINUOUS
10
4.202
20
-2.1092499999999998
11
4.2413999999999996
21
-2.1092499999999998
0
LINE
8
BLACK
6
CONTINUOUS
10
4.2413999999999996
20
-2.1092499999999998
11
4.2413999999999996
21
-2.1407500000000002
0
LINE
8
BLACK
6
CONTINUOUS
10
3.6263999999999998
20
-2.1307499999999999
11
3.5869999999999997
21
-2.1307499999999999
0
LINE
8
BLACK
6
CONTINUOUS
10
3.5869999999999997
20
-2.1307499999999999
11
3.5869999999999997
21
-2.0992500000000001
0
LINE
8
BLACK
6
CONTINUOUS
10
3.5869999999999997
20
-2.0992500000000001
11
3.6263999999999998
21
-2.0992500000000001
0
LINE
8
BLACK
6
CONTINUOUS
10
3.6263999999999998
20
-2.0992500000000001
11
3.6263999999999998
21
-2.1307499999999999
0
LINE
8
BLACK
6
CONTINUOUS
10
3.2313999999999998
20
-2.12575
11
3.1919999999999997
21
-2.12575
0
LINE
8
BLACK
6
CONTINUOUS
10
3.1919999999999997
20
-2.12575
11
3.1919999999999997
21
-2.0942500000000002
0
LINE
8
BLACK
6
CONTINUOUS
10
3.1919999999999997
20
-2.0942500000000002
11
3.2313999999999998
21
-2.0942500000000002
0
LINE
8
BLACK
6
CONTINUOUS
10
3.2313999999999998
20
-2.0942500000000002
11
3.2313999999999998
21
-2.12575
0
LINE
8
BLACK
6
CONTINUOUS
10
1.9403149606299213
20
-2.1096062992125986
11
1.9009448818897636
21
-2.1096062992125986
0
LINE
8
BLACK
6
CONTINUOUS
10
1.9009448818897636
20
-2.1096062992125986
11
1.9009448818897636
21
-2.0603937007874014
0
LINE
8
BLACK
6
CONTINUOUS
10
1.9009448818897636
20
-2.0603937007874014
11
1.9403149606299213
21
-2.0603937007874014
0
LINE
8
BLACK
6
CONTINUOUS
10
1.9403149606299213
20
-2.0603937007874014
11
1.9403149606299213
21
-2.1096062992125986
0
LINE
8
BLACK
6
CONTINUOUS
10
2.0190551181102361
20
-2.1096062992125986
11
1.9796850393700787
21
-2.1096062992125986
0
LINE
8
BLACK
6
CONTINUOUS
10
1.9796850393700787
20
-2.1096062992125986
11
1.9796850393700787
21
-2.0603937007874014
0
LINE
8
BLACK
6
CONTINUOUS
10
1.9796850393700787
20
-2.0603937007874014
11
2.0190551181102361
21
-2.0603937007874014
0
LINE
8
BLACK
6
CONTINUOUS
10
2.0190551181102361
20
-2.0603937007874014
11
2.0190551181102361
21
-2.1096062992125986
0
LINE
8
BLACK
6
CONTINUOUS
10
2.0803149606299214
20
-2.1096062992125986
11
2.0409448818897635
21
-2.1096062992125986
0
LINE
8
BLACK
6
CONTINUOUS
10
2.0409448818897635
20
-2.1096062992125986
11
2.0409448818897635
21
-2.0603937007874014
0
LINE
8
BLACK
6
CONTINUOUS
10
2.0409448818897635
20
-2.0603937007874014
11
2.0803149606299214
21
-2.0603937007874014
0
LINE
8
BLACK
6
CONTINUOUS
10
2.0803149606299214
20
-2.0603937007874014
11
2.0803149606299214
21
-2.1096062992125986
0
LINE
8
BLACK
6
CONTINUOUS
10
2.1590551181102362
20
-2.1096062992125986
11
2.1196850393700788
21
-2.1096062992125986
0
LINE
8
BLACK
6
CONTINUOUS
10
2.1196850393700788
20
-2.1096062992125986
11
2.1196850393700788
21
-2.0603937007874014
0
LINE
8
BLACK
6
CONTINUOUS
10
2.1196850393700788
20
-2.0603937007874014
11
2.1590551181102362
21
-2.0603937007874014
0
LINE
8
BLACK
6
CONTINUOUS
10
2.1590551181102362
20
-2.0603937007874014
11
2.1590551181102362
21
-2.1096062992125986
0
LINE
8
BLACK
6
CONTINUOUS
10
2.3778740157480316
20
-2.1087401574803151
11
2.1810236220472441
21
-2.1087401574803151
0
LINE
8
BLACK
6
CONTINUOUS
10
2.1810236220472441
20
-2.1087401574803151
11
2.1810236220472441
21
-1.951259842519685
0
LINE
8
BLACK
6
CONTINUOUS
10
2.1810236220472441
20
-1.951259842519685
11
2.3778740157480316
21
-1.951259842519685
0
LINE
8
BLACK
6
CONTINUOUS
10
2.3778740157480316
20
-1.951259842519685
11
2.3778740157480316
21
-2.1087401574803151
0
LINE
8
BLACK
6
CONTINUOUS
10
3.5578740157480313
20
-1.951259842519685
11
3.5589763779527557
21
-1.951259842519685
0
LINE
8
BLACK
6
CONTINUOUS
10
3.5589763779527557
20
-1.951259842519685
11
3.5589763779527557
21
-2.1087401574803151
0
LINE
8
BLACK
6
CONTINUOUS
10
3.5589763779527557
20
-2.1087401574803151
11
3.3621259842519686
21
-2.1087401574803151
0
LINE
8
BLACK
6
CONTINUOUS
10
3.3621259842519686
20
-2.1087401574803151
11
3.3610236220472438
21
-2.1087401574803151
0
LINE
8
BLACK
6
CONTINUOUS
10
3.3610236220472438
20
-2.1087401574803151
11
3.3610236220472438
21
-1.951259842519685
0
LINE
8
BLACK
6
CONTINUOUS
10
3.3610236220472438
20
-1.951259842519685
11
3.5578740157480313
21
-1.951259842519685
0
LINE
8
BLACK
6
CONTINUOUS
10
4.7389763779527554
20
-2.1087401574803151
11
4.5421259842519683
21
-2.1087401574803151
0
LINE
8
BLACK
6
CONTINUOUS
10
4.5421259842519683
20
-2.1087401574803151
11
4.5421259842519683
21
-1.951259842519685
0
LINE
8
BLACK
6
CONTINUOUS
10
4.5421259842519683
20
-1.951259842519685
11
4.7389763779527554
21
-1.951259842519685
0
LINE
8
BLACK
6
CONTINUOUS
10
4.7389763779527554
20
-1.951259842519685
11
4.7389763779527554
21
-2.1087401574803151
0
LINE
8
BLACK
6
CONTINUOUS
10
2.7079999999999997
20
-2.10825
11
2.6686000000000001
21
-2.10825
0
LINE
8
BLACK
6
CONTINUOUS
10
2.6686000000000001
20
-2.10825
11
2.6686000000000001
21
-2.0767500000000001
0
LINE
8
BLACK
6
CONTINUOUS
10
2.6686000000000001
20
-2.0767500000000001
11
2.7079999999999997
21
-2.0767500000000001
0
LINE
8
BLACK
6
CONTINUOUS
10
2.7079999999999997
20
-2.0767500000000001
11
2.7079999999999997
21
-2.10825
0
LINE
8
BLACK
6
CONTINUOUS
10
3.028
20
-2.10825
11
2.9885999999999999
21
-2.10825
0
LINE
8
BLACK
6
CONTINUOUS
10
2.9885999999999999
20
-2.10825
11
2.9885999999999999
21
-2.0767500000000001
0
LINE
8
BLACK
6
CONTINUOUS
10
2.9885999999999999
20
-2.0767500000000001
11
3.028
21
-2.0767500000000001
0
LINE
8
BLACK
6
CONTINUOUS
10
3.028
20
-2.0767500000000001
11
3.028
21
-2.10825
0
LINE
8
BLACK
6
CONTINUOUS
10
4.0030000000000001
20
-2.1032500000000001
11
3.9636
21
-2.1032500000000001
0
LINE
8
BLACK
6
CONTINUOUS
10
3.9636
20
-2.1032500000000001
11
3.9636
21
-2.0717499999999998
0
LINE
8
BLACK
6
CONTINUOUS
10
3.9636
20
-2.0717499999999998
11
4.0030000000000001
21
-2.0717499999999998
0
LINE
8
BLACK
6
CONTINUOUS
10
4.0030000000000001
20
-2.0717499999999998
11
4.0030000000000001
21
-2.1032500000000001
0
LINE
8
BLACK
6
CONTINUOUS
10
4.3280000000000003
20
-2.1032500000000001
11
4.2885999999999997
21
-2.1032500000000001
0
LINE
8
BLACK
6
CONTINUOUS
10
4.2885999999999997
20
-2.1032500000000001
11
4.2885999999999997
21
-2.0717499999999998
0
LINE
8
BLACK
6
CONTINUOUS
10
4.2885999999999997
20
-2.0717499999999998
11
4.3280000000000003
21
-2.0717499999999998
0
LINE
8
BLACK
6
CONTINUOUS
10
4.3280000000000003
20
-2.0717499999999998
11
4.3280000000000003
21
-2.1032500000000001
0
LINE
8
BLACK
6
CONTINUOUS
10
3.7130000000000001
20
-2.0932499999999998
11
3.6736
21
-2.0932499999999998
0
LINE
8
BLACK
6
CONTINUOUS
10
3.6736
20
-2.0932499999999998
11
3.6736
21
-2.06175
0
LINE
8
BLACK
6
CONTINUOUS
10
3.6736
20
-2.06175
11
3.7130000000000001
21
-2.06175
0
LINE
8
BLACK
6
CONTINUOUS
10
3.7130000000000001
20
-2.06175
11
3.7130000000000001
21
-2.0932499999999998
0
LINE
8
BLACK
6
CONTINUOUS
10
3.3180000000000001
20
-2.0882499999999999
11
3.2786
21
-2.0882499999999999
0
LINE
8
BLACK
6
CONTINUOUS
10
3.2786
20
-2.0882499999999999
11
3.2786
21
-2.0567500000000001
0
LINE
8
BLACK
6
CONTINUOUS
10
3.2786
20
-2.0567500000000001
11
3.3180000000000001
21
-2.0567500000000001
0
LINE
8
BLACK
6
CONTINUOUS
10
3.3180000000000001
20
-2.0567500000000001
11
3.3180000000000001
21
-2.0882499999999999
0
LINE
8
BLACK
6
CONTINUOUS
10
2.1555905511811022
20
-2.0311811023622046
11
2.1044094488188976
21
-2.0311811023622046
0
LINE
8
BLACK
6
CONTINUOUS
10
2.1044094488188976
20
-2.0311811023622046
11
2.1044094488188976
21
-2.0036220472440944
0
LINE
8
BLACK
6
CONTINUOUS
10
2.1044094488188976
20
-2.0036220472440944
11
2.1555905511811022
21
-2.0036220472440944
0
LINE
8
BLACK
6
CONTINUOUS
10
2.1555905511811022
20
-2.0036220472440944
11
2.1555905511811022
21
-2.0311811023622046
0
LINE
8
BLACK
6
CONTINUOUS
10
2.0829999999999997
20
-2.0282499999999999
11
2.0436000000000001
21
-2.0282499999999999
0
LINE
8
BLACK
6
CONTINUOUS
10
2.0436000000000001
20
-2.0282499999999999
11
2.0436000000000001
21
-1.99675
0
LINE
8
BLACK
6
CONTINUOUS
10
2.0436000000000001
20
-1.99675
11
2.0829999999999997
21
-1.99675
0
LINE
8
BLACK
6
CONTINUOUS
10
2.0829999999999997
20
-1.99675
11
2.0829999999999997
21
-2.0282499999999999
0
LINE
8
BLACK
6
CONTINUOUS
10
1.9964
20
-1.99075
11
1.9569999999999999
21
-1.99075
0
LINE
8
BLACK
6
CONTINUOUS
10
1.9569999999999999
20
-1.99075
11
1.9569999999999999
21
-1.9592499999999999
0
LINE
8
BLACK
6
CONTINUOUS
10
1.9569999999999999
20
-1.9592499999999999
11
1.9964
21
-1.9592499999999999
0
LINE
8
BLACK
6
CONTINUOUS
10
1.9964
20
-1.9592499999999999
11
1.9964
21
-1.99075
0
LINE
8
BLACK
6
CONTINUOUS
10
2.1555905511811022
20
-1.9563779527559055
11
2.1044094488188976
21
-1.9563779527559055
0
LINE
8
BLACK
6
CONTINUOUS
10
2.1044094488188976
20
-1.9563779527559055
11
2.1044094488188976
21
-1.9288188976377951
0
LINE
8
BLACK
6
CONTINUOUS
10
2.1044094488188976
20
-1.9288188976377951
11
2.1555905511811022
21
-1.9288188976377951
0
LINE
8
BLACK
6
CONTINUOUS
10
2.1555905511811022
20
-1.9288188976377951
11
2.1555905511811022
21
-1.9563779527559055
0
LINE
8
BLACK
6
CONTINUOUS
10
2.0829999999999997
20
-1.9532499999999999
11
2.0436000000000001
21
-1.9532499999999999
0
LINE
8
BLACK
6
CONTINUOUS
10
2.0436000000000001
20
-1.9532499999999999
11
2.0436000000000001
21
-1.9217499999999998
0
LINE
8
BLACK
6
CONTINUOUS
10
2.0436000000000001
20
-1.9217499999999998
11
2.0829999999999997
21
-1.9217499999999998
0
LINE
8
BLACK
6
CONTINUOUS
10
2.0829999999999997
20
-1.9217499999999998
11
2.0829999999999997
21
-1.9532499999999999
0
LINE
8
BLACK
6
CONTINUOUS
10
1.9964
20
-1.9157500000000001
11
1.9569999999999999
21
-1.9157500000000001
0
LINE
8
BLACK
6
CONTINUOUS
10
1.9569999999999999
20
-1.9157500000000001
11
1.9569999999999999
21
-1.88425
0
LINE
8
BLACK
6
CONTINUOUS
10
1.9569999999999999
20
-1.88425
11
1.9964
21
-1.88425
0
LINE
8
BLACK
6
CONTINUOUS
10
1.9964
20
-1.88425
11
1.9964
21
-1.9157500000000001
0
LINE
8
BLACK
6
CONTINUOUS
10
2.1596062992125984
20
-1.8840551181102361
11
2.1103937007874016
21
-1.8840551181102361
0
LINE
8
BLACK
6
CONTINUOUS
10
2.1103937007874016
20
-1.8840551181102361
11
2.1103937007874016
21
-1.8446850393700787
0
LINE
8
BLACK
6
CONTINUOUS
10
2.1103937007874016
20
-1.8446850393700787
11
2.1596062992125984
21
-1.8446850393700787
0
LINE
8
BLACK
6
CONTINUOUS
10
2.1596062992125984
20
-1.8446850393700787
11
2.1596062992125984
21
-1.8840551181102361
0
LINE
8
BLACK
6
CONTINUOUS
10
2.0829999999999997
20
-1.87825
11
2.0436000000000001
21
-1.87825
0
LINE
8
BLACK
6
CONTINUOUS
10
2.0436000000000001
20
-1.87825
11
2.0436000000000001
21
-1.8467499999999999
0
LINE
8
BLACK
6
CONTINUOUS
10
2.0436000000000001
20
-1.8467499999999999
11
2.0829999999999997
21
-1.8467499999999999
0
LINE
8
BLACK
6
CONTINUOUS
10
2.0829999999999997
20
-1.8467499999999999
11
2.0829999999999997
21
-1.87825
0
LINE
8
BLACK
6
CONTINUOUS
10
2.2856299212598423
20
-1.8742125984251967
11
2.2462598425196849
21
-1.8742125984251967
0
LINE
8
BLACK
6
CONTINUOUS
10
2.2462598425196849
20
-1.8742125984251967
11
2.2462598425196849
21
-1.7757874015748032
0
LINE
8
BLACK
6
CONTINUOUS
10
2.2462598425196849
20
-1.7757874015748032
11
2.2856299212598423
21
-1.7757874015748032
0
LINE
8
BLACK
6
CONTINUOUS
10
2.2856299212598423
20
-1.7757874015748032
11
2.2856299212598423
21
-1.8742125984251967
0
LINE
8
BLACK
6
CONTINUOUS
10
2.403740157480315
20
-1.8742125984251967
11
2.3643700787401576
21
-1.8742125984251967
0
LINE
8
BLACK
6
CONTINUOUS
10
2.3643700787401576
20
-1.8742125984251967
11
2.3643700787401576
21
-1.7757874015748032
0
LINE
8
BLACK
6
CONTINUOUS
10
2.3643700787401576
20
-1.7757874015748032
11
2.403740157480315
21
-1.7757874015748032
0
LINE
8
BLACK
6
CONTINUOUS
10
2.403740157480315
20
-1.7757874015748032
11
2.403740157480315
21
-1.8742125984251967
0
LINE
8
BLACK
6
CONTINUOUS
10
1.9963779527559056
20
-1.8155905511811024
11
1.9688188976377952
21
-1.8155905511811024
0
LINE
8
BLACK
6
CONTINUOUS
10
1.9688188976377952
20
-1.8155905511811024
11
1.9688188976377952
21
-1.7644094488188975
0
LINE
8
BLACK
6
CONTINUOUS
10
1.9688188976377952
20
-1.7644094488188975
11
1.9963779527559056
21
-1.7644094488188975
0
LINE
8
BLACK
6
CONTINUOUS
10
1.9963779527559056
20
-1.7644094488188975
11
1.9963779527559056
21
-1.8155905511811024
0
LINE
8
BLACK
6
CONTINUOUS
10
2.0711811023622047
20
-1.8155905511811024
11
2.0436220472440945
21
-1.8155905511811024
0
LINE
8
BLACK
6
CONTINUOUS
10
2.0436220472440945
20
-1.8155905511811024
11
2.0436220472440945
21
-1.7644094488188975
0
LINE
8
BLACK
6
CONTINUOUS
10
2.0436220472440945
20
-1.7644094488188975
11
2.0711811023622047
21
-1.7644094488188975
0
LINE
8
BLACK
6
CONTINUOUS
10
2.0711811023622047
20
-1.7644094488188975
11
2.0711811023622047
21
-1.8155905511811024
0
LINE
8
BLACK
6
CONTINUOUS
10
2.1596062992125984
20
-1.8053149606299213
11
2.1103937007874016
21
-1.8053149606299213
0
LINE
8
BLACK
6
CONTINUOUS
10
2.1103937007874016
20
-1.8053149606299213
11
2.1103937007874016
21
-1.7659448818897638
0
LINE
8
BLACK
6
CONTINUOUS
10
2.1103937007874016
20
-1.7659448818897638
11
2.1596062992125984
21
-1.7659448818897638
0
LINE
8
BLACK
6
CONTINUOUS
10
2.1596062992125984
20
-1.7659448818897638
11
2.1596062992125984
21
-1.8053149606299213
0
LINE
8
BLACK
6
CONTINUOUS
10
2.0206299212598426
20
-1.7342125984251968
11
1.981259842519685
21
-1.7342125984251968
0
LINE
8
BLACK
6
CONTINUOUS
10
1.981259842519685
20
-1.7342125984251968
11
1.981259842519685
21
-1.6357874015748031
0
LINE
8
BLACK
6
CONTINUOUS
10
1.981259842519685
20
-1.6357874015748031
11
2.0206299212598426
21
-1.6357874015748031
0
LINE
8
BLACK
6
CONTINUOUS
10
2.0206299212598426
20
-1.6357874015748031
11
2.0206299212598426
21
-1.7342125984251968
0
LINE
8
BLACK
6
CONTINUOUS
10
2.1387401574803149
20
-1.7342125984251968
11
2.0993700787401575
21
-1.7342125984251968
0
LINE
8
BLACK
6
CONTINUOUS
10
2.0993700787401575
20
-1.7342125984251968
11
2.0993700787401575
21
-1.6357874015748031
0
LINE
8
BLACK
6
CONTINUOUS
10
2.0993700787401575
20
-1.6357874015748031
11
2.1387401574803149
21
-1.6357874015748031
0
LINE
8
BLACK
6
CONTINUOUS
10
2.1387401574803149
20
-1.6357874015748031
11
2.1387401574803149
21
-1.7342125984251968
0
LINE
8
BLACK
6
CONTINUOUS
10
2.2856299212598423
20
-1.7242125984251968
11
2.2462598425196849
21
-1.7242125984251968
0
LINE
8
BLACK
6
CONTINUOUS
10
2.2462598425196849
20
-1.7242125984251968
11
2.2462598425196849
21
-1.6257874015748031
0
LINE
8
BLACK
6
CONTINUOUS
10
2.2462598425196849
20
-1.6257874015748031
11
2.2856299212598423
21
-1.6257874015748031
0
LINE
8
BLACK
6
CONTINUOUS
10
2.2856299212598423
20
-1.6257874015748031
11
2.2856299212598423
21
-1.7242125984251968
0
LINE
8
BLACK
6
CONTINUOUS
10
2.403740157480315
20
-1.7242125984251968
11
2.3643700787401576
21
-1.7242125984251968
0
LINE
8
BLACK
6
CONTINUOUS
10
2.3643700787401576
20
-1.7242125984251968
11
2.3643700787401576
21
-1.6257874015748031
0
LINE
8
BLACK
6
CONTINUOUS
10
2.3643700787401576
20
-1.6257874015748031
11
2.403740157480315
21
-1.6257874015748031
0
LINE
8
BLACK
6
CONTINUOUS
10
2.403740157480315
20
-1.6257874015748031
11
2.403740157480315
21
-1.7242125984251968
0
LINE
8
BLACK
6
CONTINUOUS
10
2.0146062992125984
20
-1.5840551181102362
11
1.9653937007874016
21
-1.5840551181102362
0
LINE
8
BLACK
6
CONTINUOUS
10
1.9653937007874016
20
-1.5840551181102362
11
1.9653937007874016
21
-1.5446850393700786
0
LINE
8
BLACK
6
CONTINUOUS
10
1.9653937007874016
20
-1.5446850393700786
11
2.0146062992125984
21
-1.5446850393700786
0
LINE
8
BLACK
6
CONTINUOUS
10
2.0146062992125984
20
-1.5446850393700786
11
2.0146062992125984
21
-1.5840551181102362
0
LINE
8
BLACK
6
CONTINUOUS
10
2.2505905511811024
20
-1.5811811023622047
11
2.1994094488188978
21
-1.5811811023622047
0
LINE
8
BLACK
6
CONTINUOUS
10
2.1994094488188978
20
-1.5811811023622047
11
2.1994094488188978
21
-1.5536220472440945
0
LINE
8
BLACK
6
CONTINUOUS
10
2.1994094488188978
20
-1.5536220472440945
11
2.2505905511811024
21
-1.5536220472440945
0
LINE
8
BLACK
6
CONTINUOUS
10
2.2505905511811024
20
-1.5536220472440945
11
2.2505905511811024
21
-1.5811811023622047
0
LINE
8
BLACK
6
CONTINUOUS
10
2.0825590551181103
20
-1.5801968503937007
11
2.0408267716535433
21
-1.5801968503937007
0
LINE
8
BLACK
6
CONTINUOUS
10
2.0408267716535433
20
-1.5801968503937007
11
2.0408267716535433
21
-1.5546062992125984
0
LINE
8
BLACK
6
CONTINUOUS
10
2.0408267716535433
20
-1.5546062992125984
11
2.0825590551181103
21
-1.5546062992125984
0
LINE
8
BLACK
6
CONTINUOUS
10
2.0825590551181103
20
-1.5546062992125984
11
2.0825590551181103
21
-1.5801968503937007
0
LINE
8
BLACK
6
CONTINUOUS
10
2.1691732283464566
20
-1.5801968503937007
11
2.1274409448818896
21
-1.5801968503937007
0
LINE
8
BLACK
6
CONTINUOUS
10
2.1274409448818896
20
-1.5801968503937007
11
2.1274409448818896
21
-1.5546062992125984
0
LINE
8
BLACK
6
CONTINUOUS
10
2.1274409448818896
20
-1.5546062992125984
11
2.1691732283464566
21
-1.5546062992125984
0
LINE
8
BLACK
6
CONTINUOUS
10
2.1691732283464566
20
-1.5546062992125984
11
2.1691732283464566
21
-1.5801968503937007
0
LINE
8
BLACK
6
CONTINUOUS
10
2.3463779527559057
20
-1.5655905511811024
11
2.318818897637795
21
-1.5655905511811024
0
LINE
8
BLACK
6
CONTINUOUS
10
2.318818897637795
20
-1.5655905511811024
11
2.318818897637795
21
-1.5144094488188975
0
LINE
8
BLACK
6
CONTINUOUS
10
2.318818897637795
20
-1.5144094488188975
11
2.3463779527559057
21
-1.5144094488188975
0
LINE
8
BLACK
6
CONTINUOUS
10
2.3463779527559057
20
-1.5144094488188975
11
2.3463779527559057
21
-1.5655905511811024
0
LINE
8
BLACK
6
CONTINUOUS
10
2.4211811023622047
20
-1.5655905511811024
11
2.3936220472440946
21
-1.5655905511811024
0
LINE
8
BLACK
6
CONTINUOUS
10
2.3936220472440946
20
-1.5655905511811024
11
2.3936220472440946
21
-1.5144094488188975
0
LINE
8
BLACK
6
CONTINUOUS
10
2.3936220472440946
20
-1.5144094488188975
11
2.4211811023622047
21
-1.5144094488188975
0
LINE
8
BLACK
6
CONTINUOUS
10
2.4211811023622047
20
-1.5144094488188975
11
2.4211811023622047
21
-1.5655905511811024
0
LINE
8
BLACK
6
CONTINUOUS
10
2.1691732283464566
20
-1.5427952755905512
11
2.1274409448818896
21
-1.5427952755905512
0
LINE
8
BLACK
6
CONTINUOUS
10
2.1274409448818896
20
-1.5427952755905512
11
2.1274409448818896
21
-1.5172047244094489
0
LINE
8
BLACK
6
CONTINUOUS
10
2.1274409448818896
20
-1.5172047244094489
11
2.1691732283464566
21
-1.5172047244094489
0
LINE
8
BLACK
6
CONTINUOUS
10
2.1691732283464566
20
-1.5172047244094489
11
2.1691732283464566
21
-1.5427952755905512
0
LINE
8
BLACK
6
CONTINUOUS
10
2.2505905511811024
20
-1.5063779527559056
11
2.1994094488188978
21
-1.5063779527559056
0
LINE
8
BLACK
6
CONTINUOUS
10
2.1994094488188978
20
-1.5063779527559056
11
2.1994094488188978
21
-1.4788188976377952
0
LINE
8
BLACK
6
CONTINUOUS
10
2.1994094488188978
20
-1.4788188976377952
11
2.2505905511811024
21
-1.4788188976377952
0
LINE
8
BLACK
6
CONTINUOUS
10
2.2505905511811024
20
-1.4788188976377952
11
2.2505905511811024
21
-1.5063779527559056
0
LINE
8
BLACK
6
CONTINUOUS
10
2.0825590551181103
20
-1.5053937007874016
11
2.0408267716535433
21
-1.5053937007874016
0
LINE
8
BLACK
6
CONTINUOUS
10
2.0408267716535433
20
-1.5053937007874016
11
2.0408267716535433
21
-1.4798031496062991
0
LINE
8
BLACK
6
CONTINUOUS
10
2.0408267716535433
20
-1.4798031496062991
11
2.0825590551181103
21
-1.4798031496062991
0
LINE
8
BLACK
6
CONTINUOUS
10
2.0825590551181103
20
-1.4798031496062991
11
2.0825590551181103
21
-1.5053937007874016
0
LINE
8
BLACK
6
CONTINUOUS
10
2.1691732283464566
20
-1.5053937007874016
11
2.1274409448818896
21
-1.5053937007874016
0
LINE
8
BLACK
6
CONTINUOUS
10
2.1274409448818896
20
-1.5053937007874016
11
2.1274409448818896
21
-1.4798031496062991
0
LINE
8
BLACK
6
CONTINUOUS
10
2.1274409448818896
20
-1.4798031496062991
11
2.1691732283464566
21
-1.4798031496062991
0
LINE
8
BLACK
6
CONTINUOUS
10
2.1691732283464566
20
-1.4798031496062991
11
2.1691732283464566
21
-1.5053937007874016
0
LINE
8
BLACK
6
CONTINUOUS
10
2.0146062992125984
20
-1.5053149606299212
11
1.9653937007874016
21
-1.5053149606299212
0
LINE
8
BLACK
6
CONTINUOUS
10
1.9653937007874016
20
-1.5053149606299212
11
1.9653937007874016
21
-1.4659448818897638
0
LINE
8
BLACK
6
CONTINUOUS
10
1.9653937007874016
20
-1.4659448818897638
11
2.0146062992125984
21
-1.4659448818897638
0
LINE
8
BLACK
6
CONTINUOUS
10
2.0146062992125984
20
-1.4659448818897638
11
2.0146062992125984
21
-1.5053149606299212
0
LINE
8
BLACK
6
CONTINUOUS
10
2.3503149606299214
20
-1.4796062992125985
11
2.3109448818897635
21
-1.4796062992125985
0
LINE
8
BLACK
6
CONTINUOUS
10
2.3109448818897635
20
-1.4796062992125985
11
2.3109448818897635
21
-1.4303937007874015
0
LINE
8
BLACK
6
CONTINUOUS
10
2.3109448818897635
20
-1.4303937007874015
11
2.3503149606299214
21
-1.4303937007874015
0
LINE
8
BLACK
6
CONTINUOUS
10
2.3503149606299214
20
-1.4303937007874015
11
2.3503149606299214
21
-1.4796062992125985
0
LINE
8
BLACK
6
CONTINUOUS
10
2.4290551181102362
20
-1.4796062992125985
11
2.3896850393700788
21
-1.4796062992125985
0
LINE
8
BLACK
6
CONTINUOUS
10
2.3896850393700788
20
-1.4796062992125985
11
2.3896850393700788
21
-1.4303937007874015
0
LINE
8
BLACK
6
CONTINUOUS
10
2.3896850393700788
20
-1.4303937007874015
11
2.4290551181102362
21
-1.4303937007874015
0
LINE
8
BLACK
6
CONTINUOUS
10
2.4290551181102362
20
-1.4303937007874015
11
2.4290551181102362
21
-1.4796062992125985
0
LINE
8
BLACK
6
CONTINUOUS
10
2.0406299212598427
20
-1.433740157480315
11
1.9776377952755906
21
-1.433740157480315
0
LINE
8
BLACK
6
CONTINUOUS
10
1.9776377952755906
20
-1.433740157480315
11
1.9776377952755906
21
-1.2762598425196849
0
LINE
8
BLACK
6
CONTINUOUS
10
1.9776377952755906
20
-1.2762598425196849
11
2.0406299212598427
21
-1.2762598425196849
0
LINE
8
BLACK
6
CONTINUOUS
10
2.0406299212598427
20
-1.2762598425196849
11
2.0406299212598427
21
-1.433740157480315
0
LINE
8
BLACK
6
CONTINUOUS
10
2.1823622047244093
20
-1.433740157480315
11
2.1193700787401575
21
-1.433740157480315
0
LINE
8
BLACK
6
CONTINUOUS
10
2.1193700787401575
20
-1.433740157480315
11
2.1193700787401575
21
-1.2762598425196849
0
LINE
8
BLACK
6
CONTINUOUS
10
2.1193700787401575
20
-1.2762598425196849
11
2.1823622047244093
21
-1.2762598425196849
0
LINE
8
BLACK
6
CONTINUOUS
10
2.1823622047244093
20
-1.2762598425196849
11
2.1823622047244093
21
-1.433740157480315
0
LINE
8
BLACK
6
CONTINUOUS
10
2.7163779527559053
20
-1.3955905511811024
11
2.6888188976377951
21
-1.3955905511811024
0
LINE
8
BLACK
6
CONTINUOUS
10
2.6888188976377951
20
-1.3955905511811024
11
2.6888188976377951
21
-1.3444094488188976
0
LINE
8
BLACK
6
CONTINUOUS
10
2.6888188976377951
20
-1.3444094488188976
11
2.7163779527559053
21
-1.3444094488188976
0
LINE
8
BLACK
6
CONTINUOUS
10
2.7163779527559053
20
-1.3444094488188976
11
2.7163779527559053
21
-1.3955905511811024
0
LINE
8
BLACK
6
CONTINUOUS
10
2.7911811023622048
20
-1.3955905511811024
11
2.7636220472440942
21
-1.3955905511811024
0
LINE
8
BLACK
6
CONTINUOUS
10
2.7636220472440942
20
-1.3955905511811024
11
2.7636220472440942
21
-1.3444094488188976
0
LINE
8
BLACK
6
CONTINUOUS
10
2.7636220472440942
20
-1.3444094488188976
11
2.7911811023622048
21
-1.3444094488188976
0
LINE
8
BLACK
6
CONTINUOUS
10
2.7911811023622048
20
-1.3444094488188976
11
2.7911811023622048
21
-1.3955905511811024
0
LINE
8
BLACK
6
CONTINUOUS
10
3.3663779527559052
20
-1.3955905511811024
11
3.338818897637795
21
-1.3955905511811024
0
LINE
8
BLACK
6
CONTINUOUS
10
3.338818897637795
20
-1.3955905511811024
11
3.338818897637795
21
-1.3444094488188976
0
LINE
8
BLACK
6
CONTINUOUS
10
3.338818897637795
20
-1.3444094488188976
11
3.3663779527559052
21
-1.3444094488188976
0
LINE
8
BLACK
6
CONTINUOUS
10
3.3663779527559052
20
-1.3444094488188976
11
3.3663779527559052
21
-1.3955905511811024
0
LINE
8
BLACK
6
CONTINUOUS
10
3.4411811023622048
20
-1.3955905511811024
11
3.4136220472440946
21
-1.3955905511811024
0
LINE
8
BLACK
6
CONTINUOUS
10
3.4136220472440946
20
-1.3955905511811024
11
3.4136220472440946
21
-1.3444094488188976
0
LINE
8
BLACK
6
CONTINUOUS
10
3.4136220472440946
20
-1.3444094488188976
11
3.4411811023622048
21
-1.3444094488188976
0
LINE
8
BLACK
6
CONTINUOUS
10
3.4411811023622048
20
-1.3444094488188976
11
3.4411811023622048
21
-1.3955905511811024
0
LINE
8
BLACK
6
CONTINUOUS
10
3.6863779527559055
20
-1.3955905511811024
11
3.6588188976377953
21
-1.3955905511811024
0
LINE
8
BLACK
6
CONTINUOUS
10
3.6588188976377953
20
-1.3955905511811024
11
3.6588188976377953
21
-1.3444094488188976
0
LINE
8
BLACK
6
CONTINUOUS
10
3.6588188976377953
20
-1.3444094488188976
11
3.6863779527559055
21
-1.3444094488188976
0
LINE
8
BLACK
6
CONTINUOUS
10
3.6863779527559055
20
-1.3444094488188976
11
3.6863779527559055
21
-1.3955905511811024
0
LINE
8
BLACK
6
CONTINUOUS
10
3.7611811023622046
20
-1.3955905511811024
11
3.7336220472440944
21
-1.3955905511811024
0
LINE
8
BLACK
6
CONTINUOUS
10
3.7336220472440944
20
-1.3955905511811024
11
3.7336220472440944
21
-1.3444094488188976
0
LINE
8
BLACK
6
CONTINUOUS
10
3.7336220472440944
20
-1.3444094488188976
11
3.7611811023622046
21
-1.3444094488188976
0
LINE
8
BLACK
6
CONTINUOUS
10
3.7611811023622046
20
-1.3444094488188976
11
3.7611811023622046
21
-1.3955905511811024
0
LINE
8
BLACK
6
CONTINUOUS
10
4.0113779527559057
20
-1.3955905511811024
11
3.9838188976377951
21
-1.3955905511811024
0
LINE
8
BLACK
6
CONTINUOUS
10
3.9838188976377951
20
-1.3955905511811024
11
3.9838188976377951
21
-1.3444094488188976
0
LINE
8
BLACK
6
CONTINUOUS
10
3.9838188976377951
20
-1.3444094488188976
11
4.0113779527559057
21
-1.3444094488188976
0
LINE
8
BLACK
6
CONTINUOUS
10
4.0113779527559057
20
-1.3444094488188976
11
4.0113779527559057
21
-1.3955905511811024
0
LINE
8
BLACK
6
CONTINUOUS
10
4.0861811023622048
20
-1.3955905511811024
11
4.0586220472440946
21
-1.3955905511811024
0
LINE
8
BLACK
6
CONTINUOUS
10
4.0586220472440946
20
-1.3955905511811024
11
4.0586220472440946
21
-1.3444094488188976
0
LINE
8
BLACK
6
CONTINUOUS
10
4.0586220472440946
20
-1.3444094488188976
11
4.0861811023622048
21
-1.3444094488188976
0
LINE
8
BLACK
6
CONTINUOUS
10
4.0861811023622048
20
-1.3444094488188976
11
4.0861811023622048
21
-1.3955905511811024
0
LINE
8
BLACK
6
CONTINUOUS
10
4.336377952755905
20
-1.3955905511811024
11
4.3088188976377948
21
-1.3955905511811024
0
LINE
8
BLACK
6
CONTINUOUS
10
4.3088188976377948
20
-1.3955905511811024
11
4.3088188976377948
21
-1.3444094488188976
0
LINE
8
BLACK
6
CONTINUOUS
10
4.3088188976377948
20
-1.3444094488188976
11
4.336377952755905
21
-1.3444094488188976
0
LINE
8
BLACK
6
CONTINUOUS
10
4.336377952755905
20
-1.3444094488188976
11
4.336377952755905
21
-1.3955905511811024
0
LINE
8
BLACK
6
CONTINUOUS
10
4.411181102362205
20
-1.3955905511811024
11
4.3836220472440948
21
-1.3955905511811024
0
LINE
8
BLACK
6
CONTINUOUS
10
4.3836220472440948
20
-1.3955905511811024
11
4.3836220472440948
21
-1.3444094488188976
0
LINE
8
BLACK
6
CONTINUOUS
10
4.3836220472440948
20
-1.3444094488188976
11
4.411181102362205
21
-1.3444094488188976
0
LINE
8
BLACK
6
CONTINUOUS
10
4.411181102362205
20
-1.3444094488188976
11
4.411181102362205
21
-1.3955905511811024
0
LINE
8
BLACK
6
CONTINUOUS
10
3.0363779527559056
20
-1.3905905511811023
11
3.0088188976377954
21
-1.3905905511811023
0
LINE
8
BLACK
6
CONTINUOUS
10
3.0088188976377954
20
-1.3905905511811023
11
3.0088188976377954
21
-1.3394094488188977
0
LINE
8
BLACK
6
CONTINUOUS
10
3.0088188976377954
20
-1.3394094488188977
11
3.0363779527559056
21
-1.3394094488188977
0
LINE
8
BLACK
6
CONTINUOUS
10
3.0363779527559056
20
-1.3394094488188977
11
3.0363779527559056
21
-1.3905905511811023
0
LINE
8
BLACK
6
CONTINUOUS
10
3.1111811023622047
20
-1.3905905511811023
11
3.0836220472440945
21
-1.3905905511811023
0
LINE
8
BLACK
6
CONTINUOUS
10
3.0836220472440945
20
-1.3905905511811023
11
3.0836220472440945
21
-1.3394094488188977
0
LINE
8
BLACK
6
CONTINUOUS
10
3.0836220472440945
20
-1.3394094488188977
11
3.1111811023622047
21
-1.3394094488188977
0
LINE
8
BLACK
6
CONTINUOUS
10
3.1111811023622047
20
-1.3394094488188977
11
3.1111811023622047
21
-1.3905905511811023
0
LINE
8
BLACK
6
CONTINUOUS
10
2.5646062992125982
20
-1.3790551181102362
11
2.5153937007874014
21
-1.3790551181102362
0
LINE
8
BLACK
6
CONTINUOUS
10
2.5153937007874014
20
-1.3790551181102362
11
2.5153937007874014
21
-1.3396850393700788
0
LINE
8
BLACK
6
CONTINUOUS
10
2.5153937007874014
20
-1.3396850393700788
11
2.5646062992125982
21
-1.3396850393700788
0
LINE
8
BLACK
6
CONTINUOUS
10
2.5646062992125982
20
-1.3396850393700788
11
2.5646062992125982
21
-1.3790551181102362
0
LINE
8
BLACK
6
CONTINUOUS
10
2.8896062992125984
20
-1.3790551181102362
11
2.8403937007874016
21
-1.3790551181102362
0
LINE
8
BLACK
6
CONTINUOUS
10
2.8403937007874016
20
-1.3790551181102362
11
2.8403937007874016
21
-1.3396850393700788
0
LINE
8
BLACK
6
CONTINUOUS
10
2.8403937007874016
20
-1.3396850393700788
11
2.8896062992125984
21
-1.3396850393700788
0
LINE
8
BLACK
6
CONTINUOUS
10
2.8896062992125984
20
-1.3396850393700788
11
2.8896062992125984
21
-1.3790551181102362
0
LINE
8
BLACK
6
CONTINUOUS
10
3.2146062992125986
20
-1.3790551181102362
11
3.1653937007874013
21
-1.3790551181102362
0
LINE
8
BLACK
6
CONTINUOUS
10
3.1653937007874013
20
-1.3790551181102362
11
3.1653937007874013
21
-1.3396850393700788
0
LINE
8
BLACK
6
CONTINUOUS
10
3.1653937007874013
20
-1.3396850393700788
11
3.2146062992125986
21
-1.3396850393700788
0
LINE
8
BLACK
6
CONTINUOUS
10
3.2146062992125986
20
-1.3396850393700788
11
3.2146062992125986
21
-1.3790551181102362
0
LINE
8
BLACK
6
CONTINUOUS
10
3.5396062992125983
20
-1.3790551181102362
11
3.4903937007874015
21
-1.3790551181102362
0
LINE
8
BLACK
6
CONTINUOUS
10
3.4903937007874015
20
-1.3790551181102362
11
3.4903937007874015
21
-1.3396850393700788
0
LINE
8
BLACK
6
CONTINUOUS
10
3.4903937007874015
20
-1.3396850393700788
11
3.5396062992125983
21
-1.3396850393700788
0
LINE
8
BLACK
6
CONTINUOUS
10
3.5396062992125983
20
-1.3396850393700788
11
3.5396062992125983
21
-1.3790551181102362
0
LINE
8
BLACK
6
CONTINUOUS
10
3.8646062992125985
20
-1.3790551181102362
11
3.8153937007874017
21
-1.3790551181102362
0
LINE
8
BLACK
6
CONTINUOUS
10
3.8153937007874017
20
-1.3790551181102362
11
3.8153937007874017
21
-1.3396850393700788
0
LINE
8
BLACK
6
CONTINUOUS
10
3.8153937007874017
20
-1.3396850393700788
11
3.8646062992125985
21
-1.3396850393700788
0
LINE
8
BLACK
6
CONTINUOUS
10
3.8646062992125985
20
-1.3396850393700788
11
3.8646062992125985
21
-1.3790551181102362
0
LINE
8
BLACK
6
CONTINUOUS
10
4.1896062992125982
20
-1.3790551181102362
11
4.1403937007874019
21
-1.3790551181102362
0
LINE
8
BLACK
6
CONTINUOUS
10
4.1403937007874019
20
-1.3790551181102362
11
4.1403937007874019
21
-1.3396850393700788
0
LINE
8
BLACK
6
CONTINUOUS
10
4.1403937007874019
20
-1.3396850393700788
11
4.1896062992125982
21
-1.3396850393700788
0
LINE
8
BLACK
6
CONTINUOUS
10
4.1896062992125982
20
-1.3396850393700788
11
4.1896062992125982
21
-1.3790551181102362
0
LINE
8
BLACK
6
CONTINUOUS
10
2.6655905511811024
20
-1.3711811023622047
11
2.6144094488188974
21
-1.3711811023622047
0
LINE
8
BLACK
6
CONTINUOUS
10
2.6144094488188974
20
-1.3711811023622047
11
2.6144094488188974
21
-1.3436220472440945
0
LINE
8
BLACK
6
CONTINUOUS
10
2.6144094488188974
20
-1.3436220472440945
11
2.6655905511811024
21
-1.3436220472440945
0
LINE
8
BLACK
6
CONTINUOUS
10
2.6655905511811024
20
-1.3436220472440945
11
2.6655905511811024
21
-1.3711811023622047
0
LINE
8
BLACK
6
CONTINUOUS
10
3.3055905511811021
20
-1.3711811023622047
11
3.2544094488188975
21
-1.3711811023622047
0
LINE
8
BLACK
6
CONTINUOUS
10
3.2544094488188975
20
-1.3711811023622047
11
3.2544094488188975
21
-1.3436220472440945
0
LINE
8
BLACK
6
CONTINUOUS
10
3.2544094488188975
20
-1.3436220472440945
11
3.3055905511811021
21
-1.3436220472440945
0
LINE
8
BLACK
6
CONTINUOUS
10
3.3055905511811021
20
-1.3436220472440945
11
3.3055905511811021
21
-1.3711811023622047
0
LINE
8
BLACK
6
CONTINUOUS
10
3.6305905511811023
20
-1.3711811023622047
11
3.5794094488188977
21
-1.3711811023622047
0
LINE
8
BLACK
6
CONTINUOUS
10
3.5794094488188977
20
-1.3711811023622047
11
3.5794094488188977
21
-1.3436220472440945
0
LINE
8
BLACK
6
CONTINUOUS
10
3.5794094488188977
20
-1.3436220472440945
11
3.6305905511811023
21
-1.3436220472440945
0
LINE
8
BLACK
6
CONTINUOUS
10
3.6305905511811023
20
-1.3436220472440945
11
3.6305905511811023
21
-1.3711811023622047
0
LINE
8
BLACK
6
CONTINUOUS
10
3.9555905511811025
20
-1.3711811023622047
11
3.9044094488188974
21
-1.3711811023622047
0
LINE
8
BLACK
6
CONTINUOUS
10
3.9044094488188974
20
-1.3711811023622047
11
3.9044094488188974
21
-1.3436220472440945
0
LINE
8
BLACK
6
CONTINUOUS
10
3.9044094488188974
20
-1.3436220472440945
11
3.9555905511811025
21
-1.3436220472440945
0
LINE
8
BLACK
6
CONTINUOUS
10
3.9555905511811025
20
-1.3436220472440945
11
3.9555905511811025
21
-1.3711811023622047
0
LINE
8
BLACK
6
CONTINUOUS
10
4.2805905511811027
20
-1.3711811023622047
11
4.2294094488188971
21
-1.3711811023622047
0
LINE
8
BLACK
6
CONTINUOUS
10
4.2294094488188971
20
-1.3711811023622047
11
4.2294094488188971
21
-1.3436220472440945
0
LINE
8
BLACK
6
CONTINUOUS
10
4.2294094488188971
20
-1.3436220472440945
11
4.2805905511811027
21
-1.3436220472440945
0
LINE
8
BLACK
6
CONTINUOUS
10
4.2805905511811027
20
-1.3436220472440945
11
4.2805905511811027
21
-1.3711811023622047
0
LINE
8
BLACK
6
CONTINUOUS
10
2.3045669291338582
20
-1.370275590551181
11
2.2061417322834647
21
-1.370275590551181
0
LINE
8
BLACK
6
CONTINUOUS
10
2.2061417322834647
20
-1.370275590551181
11
2.2061417322834647
21
-1.2797244094488189
0
LINE
8
BLACK
6
CONTINUOUS
10
2.2061417322834647
20
-1.2797244094488189
11
2.3045669291338582
21
-1.2797244094488189
0
LINE
8
BLACK
6
CONTINUOUS
10
2.3045669291338582
20
-1.2797244094488189
11
2.3045669291338582
21
-1.370275590551181
0
LINE
8
BLACK
6
CONTINUOUS
10
2.4738582677165355
20
-1.370275590551181
11
2.3754330708661415
21
-1.370275590551181
0
LINE
8
BLACK
6
CONTINUOUS
10
2.3754330708661415
20
-1.370275590551181
11
2.3754330708661415
21
-1.2797244094488189
0
LINE
8
BLACK
6
CONTINUOUS
10
2.3754330708661415
20
-1.2797244094488189
11
2.4738582677165355
21
-1.2797244094488189
0
LINE
8
BLACK
6
CONTINUOUS
10
2.4738582677165355
20
-1.2797244094488189
11
2.4738582677165355
21
-1.370275590551181
0
LINE
8
BLACK
6
CONTINUOUS
10
2.9805905511811024
20
-1.3661811023622048
11
2.9294094488188978
21
-1.3661811023622048
0
LINE
8
BLACK
6
CONTINUOUS
10
2.9294094488188978
20
-1.3661811023622048
11
2.9294094488188978
21
-1.3386220472440944
0
LINE
8
BLACK
6
CONTINUOUS
10
2.9294094488188978
20
-1.3386220472440944
11
2.9805905511811024
21
-1.3386220472440944
0
LINE
8
BLACK
6
CONTINUOUS
10
2.9805905511811024
20
-1.3386220472440944
11
2.9805905511811024
21
-1.3661811023622048
0
LINE
8
BLACK
6
CONTINUOUS
10
2.5646062992125982
20
-1.3003149606299211
11
2.5153937007874014
21
-1.3003149606299211
0
LINE
8
BLACK
6
CONTINUOUS
10
2.5153937007874014
20
-1.3003149606299211
11
2.5153937007874014
21
-1.2609448818897637
0
LINE
8
BLACK
6
CONTINUOUS
10
2.5153937007874014
20
-1.2609448818897637
11
2.5646062992125982
21
-1.2609448818897637
0
LINE
8
BLACK
6
CONTINUOUS
10
2.5646062992125982
20
-1.2609448818897637
11
2.5646062992125982
21
-1.3003149606299211
0
LINE
8
BLACK
6
CONTINUOUS
10
2.8896062992125984
20
-1.3003149606299211
11
2.8403937007874016
21
-1.3003149606299211
0
LINE
8
BLACK
6
CONTINUOUS
10
2.8403937007874016
20
-1.3003149606299211
11
2.8403937007874016
21
-1.2609448818897637
0
LINE
8
BLACK
6
CONTINUOUS
10
2.8403937007874016
20
-1.2609448818897637
11
2.8896062992125984
21
-1.2609448818897637
0
LINE
8
BLACK
6
CONTINUOUS
10
2.8896062992125984
20
-1.2609448818897637
11
2.8896062992125984
21
-1.3003149606299211
0
LINE
8
BLACK
6
CONTINUOUS
10
3.2146062992125986
20
-1.3003149606299211
11
3.1653937007874013
21
-1.3003149606299211
0
LINE
8
BLACK
6
CONTINUOUS
10
3.1653937007874013
20
-1.3003149606299211
11
3.1653937007874013
21
-1.2609448818897637
0
LINE
8
BLACK
6
CONTINUOUS
10
3.1653937007874013
20
-1.2609448818897637
11
3.2146062992125986
21
-1.2609448818897637
0
LINE
8
BLACK
6
CONTINUOUS
10
3.2146062992125986
20
-1.2609448818897637
11
3.2146062992125986
21
-1.3003149606299211
0
LINE
8
BLACK
6
CONTINUOUS
10
3.5396062992125983
20
-1.3003149606299211
11
3.4903937007874015
21
-1.3003149606299211
0
LINE
8
BLACK
6
CONTINUOUS
10
3.4903937007874015
20
-1.3003149606299211
11
3.4903937007874015
21
-1.2609448818897637
0
LINE
8
BLACK
6
CONTINUOUS
10
3.4903937007874015
20
-1.2609448818897637
11
3.5396062992125983
21
-1.2609448818897637
0
LINE
8
BLACK
6
CONTINUOUS
10
3.5396062992125983
20
-1.2609448818897637
11
3.5396062992125983
21
-1.3003149606299211
0
LINE
8
BLACK
6
CONTINUOUS
10
3.8646062992125985
20
-1.3003149606299211
11
3.8153937007874017
21
-1.3003149606299211
0
LINE
8
BLACK
6
CONTINUOUS
10
3.8153937007874017
20
-1.3003149606299211
11
3.8153937007874017
21
-1.2609448818897637
0
LINE
8
BLACK
6
CONTINUOUS
10
3.8153937007874017
20
-1.2609448818897637
11
3.8646062992125985
21
-1.2609448818897637
0
LINE
8
BLACK
6
CONTINUOUS
10
3.8646062992125985
20
-1.2609448818897637
11
3.8646062992125985
21
-1.3003149606299211
0
LINE
8
BLACK
6
CONTINUOUS
10
4.1896062992125982
20
-1.3003149606299211
11
4.1403937007874019
21
-1.3003149606299211
0
LINE
8
BLACK
6
CONTINUOUS
10
4.1403937007874019
20
-1.3003149606299211
11
4.1403937007874019
21
-1.2609448818897637
0
LINE
8
BLACK
6
CONTINUOUS
10
4.1403937007874019
20
-1.2609448818897637
11
4.1896062992125982
21
-1.2609448818897637
0
LINE
8
BLACK
6
CONTINUOUS
10
4.1896062992125982
20
-1.2609448818897637
11
4.1896062992125982
21
-1.3003149606299211
0
LINE
8
BLACK
6
CONTINUOUS
10
2.6655905511811024
20
-1.2963779527559054
11
2.6144094488188974
21
-1.2963779527559054
0
LINE
8
BLACK
6
CONTINUOUS
10
2.6144094488188974
20
-1.2963779527559054
11
2.6144094488188974
21
-1.2688188976377952
0
LINE
8
BLACK
6
CONTINUOUS
10
2.6144094488188974
20
-1.2688188976377952
11
2.6655905511811024
21
-1.2688188976377952
0
LINE
8
BLACK
6
CONTINUOUS
10
2.6655905511811024
20
-1.2688188976377952
11
2.6655905511811024
21
-1.2963779527559054
0
LINE
8
BLACK
6
CONTINUOUS
10
3.3055905511811021
20
-1.2963779527559054
11
3.2544094488188975
21
-1.2963779527559054
0
LINE
8
BLACK
6
CONTINUOUS
10
3.2544094488188975
20
-1.2963779527559054
11
3.2544094488188975
21
-1.2688188976377952
0
LINE
8
BLACK
6
CONTINUOUS
10
3.2544094488188975
20
-1.2688188976377952
11
3.3055905511811021
21
-1.2688188976377952
0
LINE
8
BLACK
6
CONTINUOUS
10
3.3055905511811021
20
-1.2688188976377952
11
3.3055905511811021
21
-1.2963779527559054
0
LINE
8
BLACK
6
CONTINUOUS
10
3.6305905511811023
20
-1.2963779527559054
11
3.5794094488188977
21
-1.2963779527559054
0
LINE
8
BLACK
6
CONTINUOUS
10
3.5794094488188977
20
-1.2963779527559054
11
3.5794094488188977
21
-1.2688188976377952
0
LINE
8
BLACK
6
CONTINUOUS
10
3.5794094488188977
20
-1.2688188976377952
11
3.6305905511811023
21
-1.2688188976377952
0
LINE
8
BLACK
6
CONTINUOUS
10
3.6305905511811023
20
-1.2688188976377952
11
3.6305905511811023
21
-1.2963779527559054
0
LINE
8
BLACK
6
CONTINUOUS
10
3.9555905511811025
20
-1.2963779527559054
11
3.9044094488188974
21
-1.2963779527559054
0
LINE
8
BLACK
6
CONTINUOUS
10
3.9044094488188974
20
-1.2963779527559054
11
3.9044094488188974
21
-1.2688188976377952
0
LINE
8
BLACK
6
CONTINUOUS
10
3.9044094488188974
20
-1.2688188976377952
11
3.9555905511811025
21
-1.2688188976377952
0
LINE
8
BLACK
6
CONTINUOUS
10
3.9555905511811025
20
-1.2688188976377952
11
3.9555905511811025
21
-1.2963779527559054
0
LINE
8
BLACK
6
CONTINUOUS
10
4.2805905511811027
20
-1.2963779527559054
11
4.2294094488188971
21
-1.2963779527559054
0
LINE
8
BLACK
6
CONTINUOUS
10
4.2294094488188971
20
-1.2963779527559054
11
4.2294094488188971
21
-1.2688188976377952
0
LINE
8
BLACK
6
CONTINUOUS
10
4.2294094488188971
20
-1.2688188976377952
11
4.2805905511811027
21
-1.2688188976377952
0
LINE
8
BLACK
6
CONTINUOUS
10
4.2805905511811027
20
-1.2688188976377952
11
4.2805905511811027
21
-1.2963779527559054
0
LINE
8
BLACK
6
CONTINUOUS
10
2.9805905511811024
20
-1.2913779527559055
11
2.9294094488188978
21
-1.2913779527559055
0
LINE
8
BLACK
6
CONTINUOUS
10
2.9294094488188978
20
-1.2913779527559055
11
2.9294094488188978
21
-1.2638188976377953
0
LINE
8
BLACK
6
CONTINUOUS
10
2.9294094488188978
20
-1.2638188976377953
11
2.9805905511811024
21
-1.2638188976377953
0
LINE
8
BLACK
6
CONTINUOUS
10
2.9805905511811024
20
-1.2638188976377953
11
2.9805905511811024
21
-1.2913779527559055
  0
ENDSEC
  0
EOF
