  0
SECTION
  2
HEADER
  9
$ANGBASE
  50
0.0
  9
$ANGDIR
  70
1
  9
$MEASUREMENT
  70
0
  0
ENDSEC
  0
SECTION
  2
TABLES
  0
TABLE
  2
LTYPE
  70
4
  0
LTYPE
  5
40F
  2
CONTINUOUS
  70
0
  3
Solid line
  72
65
  73
0
  40
0.0
  0
LTYPE
  5
410
  2
DASHDOT
 70
0
  3
Dash Dot ____ _ ____ _
 72
65
 73
4
 40
2.0
 49
1.25
 49
-0.25
 49
0.25
 49
-0.25
  0
LTYPE
  5
411
  2
DASHED
 70
0
  3
Dashed __ __ __ __ __
 72
65
 73
2
 40
0.75
 49
0.5
 49
-0.25
  0
LTYPE
  5
43B
  2
DOTTED
 70
0
  3
Dotted .  .  .  .
 72
65
 73
2
 40
0.2
 49
0.0
 49
-0.2
  0
ENDTAB
  0
TABLE
  2
STYLE
  70
4
  0
STYLE
  2
KICAD
  70
0
  40
0
  41
1
  42
1
  50
0
  71
0
  3
isocp.shx
  0
STYLE
  2
KICADB
  70
0
  40
0
  41
1
  42
1
  50
0
  71
0
  3
isocp.shx
  0
STYLE
  2
KICADI
  70
0
  40
0
  41
1
  42
1
  50
15
  71
0
  3
isocp.shx
  0
STYLE
  2
KICADBI
  70
0
  40
0
  41
1
  42
1
  50
15
  71
0
  3
isocp.shx
  0
ENDTAB
  0
TABLE
  2
LAYER
  70
1
  0
LAYER
  2
BLACK
  70
0
  62
7
  6
CONTINUOUS
  0
ENDTAB
  0
ENDSEC
  0
SECTION
  2
ENTITIES
0
LINE
8
BLACK
6
CONTINUOUS
10
2.5957874015748033
20
-2.5826771653543306
11
2.517047244094488
21
-2.5826771653543306
0
LINE
8
BLACK
6
CONTINUOUS
10
2.517047244094488
20
-2.5826771653543306
11
2.517047244094488
21
-2.4173228346456694
0
LINE
8
BLACK
6
CONTINUOUS
10
2.517047244094488
20
-2.4173228346456694
11
2.5957874015748033
21
-2.4173228346456694
0
LINE
8
BLACK
6
CONTINUOUS
10
2.5957874015748033
20
-2.4173228346456694
11
2.5957874015748033
21
-2.5826771653543306
0
LINE
8
BLACK
6
CONTINUOUS
10
2.7729527559055116
20
-2.5826771653543306
11
2.6942125984251968
21
-2.5826771653543306
0
LINE
8
BLACK
6
CONTINUOUS
10
2.6942125984251968
20
-2.5826771653543306
11
2.6942125984251968
21
-2.4173228346456694
0
LINE
8
BLACK
6
CONTINUOUS
10
2.6942125984251968
20
-2.4173228346456694
11
2.7729527559055116
21
-2.4173228346456694
0
LINE
8
BLACK
6
CONTINUOUS
10
2.7729527559055116
20
-2.4173228346456694
11
2.7729527559055116
21
-2.5826771653543306
0
LINE
8
BLACK
6
CONTINUOUS
10
2.920787401574803
20
-2.5826771653543306
11
2.8420472440944882
21
-2.5826771653543306
0
LINE
8
BLACK
6
CONTINUOUS
10
2.8420472440944882
20
-2.5826771653543306
11
2.8420472440944882
21
-2.4173228346456694
0
LINE
8
BLACK
6
CONTINUOUS
10
2.8420472440944882
20
-2.4173228346456694
11
2.920787401574803
21
-2.4173228346456694
0
LINE
8
BLACK
6
CONTINUOUS
10
2.920787401574803
20
-2.4173228346456694
11
2.920787401574803
21
-2.5826771653543306
0
LINE
8
BLACK
6
CONTINUOUS
10
3.0979527559055118
20
-2.5826771653543306
11
3.019212598425197
21
-2.5826771653543306
0
LINE
8
BLACK
6
CONTINUOUS
10
3.019212598425197
20
-2.5826771653543306
11
3.019212598425197
21
-2.4173228346456694
0
LINE
8
BLACK
6
CONTINUOUS
10
3.019212598425197
20
-2.4173228346456694
11
3.0979527559055118
21
-2.4173228346456694
0
LINE
8
BLACK
6
CONTINUOUS
10
3.0979527559055118
20
-2.4173228346456694
11
3.0979527559055118
21
-2.5826771653543306
0
LINE
8
BLACK
6
CONTINUOUS
10
3.2457874015748032
20
-2.5826771653543306
11
3.1670472440944879
21
-2.5826771653543306
0
LINE
8
BLACK
6
CONTINUOUS
10
3.1670472440944879
20
-2.5826771653543306
11
3.1670472440944879
21
-2.4173228346456694
0
LINE
8
BLACK
6
CONTINUOUS
10
3.1670472440944879
20
-2.4173228346456694
11
3.2457874015748032
21
-2.4173228346456694
0
LINE
8
BLACK
6
CONTINUOUS
10
3.2457874015748032
20
-2.4173228346456694
11
3.2457874015748032
21
-2.5826771653543306
0
LINE
8
BLACK
6
CONTINUOUS
10
3.4229527559055115
20
-2.5826771653543306
11
3.3442125984251967
21
-2.5826771653543306
0
LINE
8
BLACK
6
CONTINUOUS
10
3.3442125984251967
20
-2.5826771653543306
11
3.3442125984251967
21
-2.4173228346456694
0
LINE
8
BLACK
6
CONTINUOUS
10
3.3442125984251967
20
-2.4173228346456694
11
3.4229527559055115
21
-2.4173228346456694
0
LINE
8
BLACK
6
CONTINUOUS
10
3.4229527559055115
20
-2.4173228346456694
11
3.4229527559055115
21
-2.5826771653543306
0
LINE
8
BLACK
6
CONTINUOUS
10
3.5707874015748029
20
-2.5826771653543306
11
3.4920472440944881
21
-2.5826771653543306
0
LINE
8
BLACK
6
CONTINUOUS
10
3.4920472440944881
20
-2.5826771653543306
11
3.4920472440944881
21
-2.4173228346456694
0
LINE
8
BLACK
6
CONTINUOUS
10
3.4920472440944881
20
-2.4173228346456694
11
3.5707874015748029
21
-2.4173228346456694
0
LINE
8
BLACK
6
CONTINUOUS
10
3.5707874015748029
20
-2.4173228346456694
11
3.5707874015748029
21
-2.5826771653543306
0
LINE
8
BLACK
6
CONTINUOUS
10
3.7479527559055117
20
-2.5826771653543306
11
3.6692125984251969
21
-2.5826771653543306
0
LINE
8
BLACK
6
CONTINUOUS
10
3.6692125984251969
20
-2.5826771653543306
11
3.6692125984251969
21
-2.4173228346456694
0
LINE
8
BLACK
6
CONTINUOUS
10
3.6692125984251969
20
-2.4173228346456694
11
3.7479527559055117
21
-2.4173228346456694
0
LINE
8
BLACK
6
CONTINUOUS
10
3.7479527559055117
20
-2.4173228346456694
11
3.7479527559055117
21
-2.5826771653543306
0
LINE
8
BLACK
6
CONTINUOUS
10
3.8957874015748031
20
-2.5826771653543306
11
3.8170472440944883
21
-2.5826771653543306
0
LINE
8
BLACK
6
CONTINUOUS
10
3.8170472440944883
20
-2.5826771653543306
11
3.8170472440944883
21
-2.4173228346456694
0
LINE
8
BLACK
6
CONTINUOUS
10
3.8170472440944883
20
-2.4173228346456694
11
3.8957874015748031
21
-2.4173228346456694
0
LINE
8
BLACK
6
CONTINUOUS
10
3.8957874015748031
20
-2.4173228346456694
11
3.8957874015748031
21
-2.5826771653543306
0
LINE
8
BLACK
6
CONTINUOUS
10
4.0729527559055114
20
-2.5826771653543306
11
3.9942125984251966
21
-2.5826771653543306
0
LINE
8
BLACK
6
CONTINUOUS
10
3.9942125984251966
20
-2.5826771653543306
11
3.9942125984251966
21
-2.4173228346456694
0
LINE
8
BLACK
6
CONTINUOUS
10
3.9942125984251966
20
-2.4173228346456694
11
4.0729527559055114
21
-2.4173228346456694
0
LINE
8
BLACK
6
CONTINUOUS
10
4.0729527559055114
20
-2.4173228346456694
11
4.0729527559055114
21
-2.5826771653543306
0
LINE
8
BLACK
6
CONTINUOUS
10
4.2207874015748033
20
-2.5826771653543306
11
4.1420472440944884
21
-2.5826771653543306
0
LINE
8
BLACK
6
CONTINUOUS
10
4.1420472440944884
20
-2.5826771653543306
11
4.1420472440944884
21
-2.4173228346456694
0
LINE
8
BLACK
6
CONTINUOUS
10
4.1420472440944884
20
-2.4173228346456694
11
4.2207874015748033
21
-2.4173228346456694
0
LINE
8
BLACK
6
CONTINUOUS
10
4.2207874015748033
20
-2.4173228346456694
11
4.2207874015748033
21
-2.5826771653543306
0
LINE
8
BLACK
6
CONTINUOUS
10
4.3979527559055116
20
-2.5826771653543306
11
4.3192125984251968
21
-2.5826771653543306
0
LINE
8
BLACK
6
CONTINUOUS
10
4.3192125984251968
20
-2.5826771653543306
11
4.3192125984251968
21
-2.4173228346456694
0
LINE
8
BLACK
6
CONTINUOUS
10
4.3192125984251968
20
-2.4173228346456694
11
4.3979527559055116
21
-2.4173228346456694
0
LINE
8
BLACK
6
CONTINUOUS
10
4.3979527559055116
20
-2.4173228346456694
11
4.3979527559055116
21
-2.5826771653543306
0
LINE
8
BLACK
6
CONTINUOUS
10
2.5957874015748033
20
-2.3826771653543308
11
2.517047244094488
21
-2.3826771653543308
0
LINE
8
BLACK
6
CONTINUOUS
10
2.517047244094488
20
-2.3826771653543308
11
2.517047244094488
21
-2.2173228346456693
0
LINE
8
BLACK
6
CONTINUOUS
10
2.517047244094488
20
-2.2173228346456693
11
2.5957874015748033
21
-2.2173228346456693
0
LINE
8
BLACK
6
CONTINUOUS
10
2.5957874015748033
20
-2.2173228346456693
11
2.5957874015748033
21
-2.3826771653543308
0
LINE
8
BLACK
6
CONTINUOUS
10
2.7729527559055116
20
-2.3826771653543308
11
2.6942125984251968
21
-2.3826771653543308
0
LINE
8
BLACK
6
CONTINUOUS
10
2.6942125984251968
20
-2.3826771653543308
11
2.6942125984251968
21
-2.2173228346456693
0
LINE
8
BLACK
6
CONTINUOUS
10
2.6942125984251968
20
-2.2173228346456693
11
2.7729527559055116
21
-2.2173228346456693
0
LINE
8
BLACK
6
CONTINUOUS
10
2.7729527559055116
20
-2.2173228346456693
11
2.7729527559055116
21
-2.3826771653543308
0
LINE
8
BLACK
6
CONTINUOUS
10
2.920787401574803
20
-2.3826771653543308
11
2.8420472440944882
21
-2.3826771653543308
0
LINE
8
BLACK
6
CONTINUOUS
10
2.8420472440944882
20
-2.3826771653543308
11
2.8420472440944882
21
-2.2173228346456693
0
LINE
8
BLACK
6
CONTINUOUS
10
2.8420472440944882
20
-2.2173228346456693
11
2.920787401574803
21
-2.2173228346456693
0
LINE
8
BLACK
6
CONTINUOUS
10
2.920787401574803
20
-2.2173228346456693
11
2.920787401574803
21
-2.3826771653543308
0
LINE
8
BLACK
6
CONTINUOUS
10
3.0979527559055118
20
-2.3826771653543308
11
3.019212598425197
21
-2.3826771653543308
0
LINE
8
BLACK
6
CONTINUOUS
10
3.019212598425197
20
-2.3826771653543308
11
3.019212598425197
21
-2.2173228346456693
0
LINE
8
BLACK
6
CONTINUOUS
10
3.019212598425197
20
-2.2173228346456693
11
3.0979527559055118
21
-2.2173228346456693
0
LINE
8
BLACK
6
CONTINUOUS
10
3.0979527559055118
20
-2.2173228346456693
11
3.0979527559055118
21
-2.3826771653543308
0
LINE
8
BLACK
6
CONTINUOUS
10
3.2457874015748032
20
-2.3826771653543308
11
3.1670472440944879
21
-2.3826771653543308
0
LINE
8
BLACK
6
CONTINUOUS
10
3.1670472440944879
20
-2.3826771653543308
11
3.1670472440944879
21
-2.2173228346456693
0
LINE
8
BLACK
6
CONTINUOUS
10
3.1670472440944879
20
-2.2173228346456693
11
3.2457874015748032
21
-2.2173228346456693
0
LINE
8
BLACK
6
CONTINUOUS
10
3.2457874015748032
20
-2.2173228346456693
11
3.2457874015748032
21
-2.3826771653543308
0
LINE
8
BLACK
6
CONTINUOUS
10
3.4229527559055115
20
-2.3826771653543308
11
3.3442125984251967
21
-2.3826771653543308
0
LINE
8
BLACK
6
CONTINUOUS
10
3.3442125984251967
20
-2.3826771653543308
11
3.3442125984251967
21
-2.2173228346456693
0
LINE
8
BLACK
6
CONTINUOUS
10
3.3442125984251967
20
-2.2173228346456693
11
3.4229527559055115
21
-2.2173228346456693
0
LINE
8
BLACK
6
CONTINUOUS
10
3.4229527559055115
20
-2.2173228346456693
11
3.4229527559055115
21
-2.3826771653543308
0
LINE
8
BLACK
6
CONTINUOUS
10
3.5707874015748029
20
-2.3826771653543308
11
3.4920472440944881
21
-2.3826771653543308
0
LINE
8
BLACK
6
CONTINUOUS
10
3.4920472440944881
20
-2.3826771653543308
11
3.4920472440944881
21
-2.2173228346456693
0
LINE
8
BLACK
6
CONTINUOUS
10
3.4920472440944881
20
-2.2173228346456693
11
3.5707874015748029
21
-2.2173228346456693
0
LINE
8
BLACK
6
CONTINUOUS
10
3.5707874015748029
20
-2.2173228346456693
11
3.5707874015748029
21
-2.3826771653543308
0
LINE
8
BLACK
6
CONTINUOUS
10
3.7479527559055117
20
-2.3826771653543308
11
3.6692125984251969
21
-2.3826771653543308
0
LINE
8
BLACK
6
CONTINUOUS
10
3.6692125984251969
20
-2.3826771653543308
11
3.6692125984251969
21
-2.2173228346456693
0
LINE
8
BLACK
6
CONTINUOUS
10
3.6692125984251969
20
-2.2173228346456693
11
3.7479527559055117
21
-2.2173228346456693
0
LINE
8
BLACK
6
CONTINUOUS
10
3.7479527559055117
20
-2.2173228346456693
11
3.7479527559055117
21
-2.3826771653543308
0
LINE
8
BLACK
6
CONTINUOUS
10
3.8957874015748031
20
-2.3826771653543308
11
3.8170472440944883
21
-2.3826771653543308
0
LINE
8
BLACK
6
CONTINUOUS
10
3.8170472440944883
20
-2.3826771653543308
11
3.8170472440944883
21
-2.2173228346456693
0
LINE
8
BLACK
6
CONTINUOUS
10
3.8170472440944883
20
-2.2173228346456693
11
3.8957874015748031
21
-2.2173228346456693
0
LINE
8
BLACK
6
CONTINUOUS
10
3.8957874015748031
20
-2.2173228346456693
11
3.8957874015748031
21
-2.3826771653543308
0
LINE
8
BLACK
6
CONTINUOUS
10
4.0729527559055114
20
-2.3826771653543308
11
3.9942125984251966
21
-2.3826771653543308
0
LINE
8
BLACK
6
CONTINUOUS
10
3.9942125984251966
20
-2.3826771653543308
11
3.9942125984251966
21
-2.2173228346456693
0
LINE
8
BLACK
6
CONTINUOUS
10
3.9942125984251966
20
-2.2173228346456693
11
4.0729527559055114
21
-2.2173228346456693
0
LINE
8
BLACK
6
CONTINUOUS
10
4.0729527559055114
20
-2.2173228346456693
11
4.0729527559055114
21
-2.3826771653543308
0
LINE
8
BLACK
6
CONTINUOUS
10
4.2207874015748033
20
-2.3826771653543308
11
4.1420472440944884
21
-2.3826771653543308
0
LINE
8
BLACK
6
CONTINUOUS
10
4.1420472440944884
20
-2.3826771653543308
11
4.1420472440944884
21
-2.2173228346456693
0
LINE
8
BLACK
6
CONTINUOUS
10
4.1420472440944884
20
-2.2173228346456693
11
4.2207874015748033
21
-2.2173228346456693
0
LINE
8
BLACK
6
CONTINUOUS
10
4.2207874015748033
20
-2.2173228346456693
11
4.2207874015748033
21
-2.3826771653543308
0
LINE
8
BLACK
6
CONTINUOUS
10
4.3979527559055116
20
-2.3826771653543308
11
4.3192125984251968
21
-2.3826771653543308
0
LINE
8
BLACK
6
CONTINUOUS
10
4.3192125984251968
20
-2.3826771653543308
11
4.3192125984251968
21
-2.2173228346456693
0
LINE
8
BLACK
6
CONTINUOUS
10
4.3192125984251968
20
-2.2173228346456693
11
4.3979527559055116
21
-2.2173228346456693
0
LINE
8
BLACK
6
CONTINUOUS
10
4.3979527559055116
20
-2.2173228346456693
11
4.3979527559055116
21
-2.3826771653543308
0
LINE
8
BLACK
6
CONTINUOUS
10
2.5957874015748033
20
-2.1826771653543307
11
2.517047244094488
21
-2.1826771653543307
0
LINE
8
BLACK
6
CONTINUOUS
10
2.517047244094488
20
-2.1826771653543307
11
2.517047244094488
21
-2.0173228346456691
0
LINE
8
BLACK
6
CONTINUOUS
10
2.517047244094488
20
-2.0173228346456691
11
2.5957874015748033
21
-2.0173228346456691
0
LINE
8
BLACK
6
CONTINUOUS
10
2.5957874015748033
20
-2.0173228346456691
11
2.5957874015748033
21
-2.1826771653543307
0
LINE
8
BLACK
6
CONTINUOUS
10
2.7729527559055116
20
-2.1826771653543307
11
2.6942125984251968
21
-2.1826771653543307
0
LINE
8
BLACK
6
CONTINUOUS
10
2.6942125984251968
20
-2.1826771653543307
11
2.6942125984251968
21
-2.0173228346456691
0
LINE
8
BLACK
6
CONTINUOUS
10
2.6942125984251968
20
-2.0173228346456691
11
2.7729527559055116
21
-2.0173228346456691
0
LINE
8
BLACK
6
CONTINUOUS
10
2.7729527559055116
20
-2.0173228346456691
11
2.7729527559055116
21
-2.1826771653543307
0
LINE
8
BLACK
6
CONTINUOUS
10
2.920787401574803
20
-2.1826771653543307
11
2.8420472440944882
21
-2.1826771653543307
0
LINE
8
BLACK
6
CONTINUOUS
10
2.8420472440944882
20
-2.1826771653543307
11
2.8420472440944882
21
-2.0173228346456691
0
LINE
8
BLACK
6
CONTINUOUS
10
2.8420472440944882
20
-2.0173228346456691
11
2.920787401574803
21
-2.0173228346456691
0
LINE
8
BLACK
6
CONTINUOUS
10
2.920787401574803
20
-2.0173228346456691
11
2.920787401574803
21
-2.1826771653543307
0
LINE
8
BLACK
6
CONTINUOUS
10
3.0979527559055118
20
-2.1826771653543307
11
3.019212598425197
21
-2.1826771653543307
0
LINE
8
BLACK
6
CONTINUOUS
10
3.019212598425197
20
-2.1826771653543307
11
3.019212598425197
21
-2.0173228346456691
0
LINE
8
BLACK
6
CONTINUOUS
10
3.019212598425197
20
-2.0173228346456691
11
3.0979527559055118
21
-2.0173228346456691
0
LINE
8
BLACK
6
CONTINUOUS
10
3.0979527559055118
20
-2.0173228346456691
11
3.0979527559055118
21
-2.1826771653543307
0
LINE
8
BLACK
6
CONTINUOUS
10
3.2457874015748032
20
-2.1826771653543307
11
3.1670472440944879
21
-2.1826771653543307
0
LINE
8
BLACK
6
CONTINUOUS
10
3.1670472440944879
20
-2.1826771653543307
11
3.1670472440944879
21
-2.0173228346456691
0
LINE
8
BLACK
6
CONTINUOUS
10
3.1670472440944879
20
-2.0173228346456691
11
3.2457874015748032
21
-2.0173228346456691
0
LINE
8
BLACK
6
CONTINUOUS
10
3.2457874015748032
20
-2.0173228346456691
11
3.2457874015748032
21
-2.1826771653543307
0
LINE
8
BLACK
6
CONTINUOUS
10
3.4229527559055115
20
-2.1826771653543307
11
3.3442125984251967
21
-2.1826771653543307
0
LINE
8
BLACK
6
CONTINUOUS
10
3.3442125984251967
20
-2.1826771653543307
11
3.3442125984251967
21
-2.0173228346456691
0
LINE
8
BLACK
6
CONTINUOUS
10
3.3442125984251967
20
-2.0173228346456691
11
3.4229527559055115
21
-2.0173228346456691
0
LINE
8
BLACK
6
CONTINUOUS
10
3.4229527559055115
20
-2.0173228346456691
11
3.4229527559055115
21
-2.1826771653543307
0
LINE
8
BLACK
6
CONTINUOUS
10
3.5707874015748029
20
-2.1826771653543307
11
3.4920472440944881
21
-2.1826771653543307
0
LINE
8
BLACK
6
CONTINUOUS
10
3.4920472440944881
20
-2.1826771653543307
11
3.4920472440944881
21
-2.0173228346456691
0
LINE
8
BLACK
6
CONTINUOUS
10
3.4920472440944881
20
-2.0173228346456691
11
3.5707874015748029
21
-2.0173228346456691
0
LINE
8
BLACK
6
CONTINUOUS
10
3.5707874015748029
20
-2.0173228346456691
11
3.5707874015748029
21
-2.1826771653543307
0
LINE
8
BLACK
6
CONTINUOUS
10
3.7479527559055117
20
-2.1826771653543307
11
3.6692125984251969
21
-2.1826771653543307
0
LINE
8
BLACK
6
CONTINUOUS
10
3.6692125984251969
20
-2.1826771653543307
11
3.6692125984251969
21
-2.0173228346456691
0
LINE
8
BLACK
6
CONTINUOUS
10
3.6692125984251969
20
-2.0173228346456691
11
3.7479527559055117
21
-2.0173228346456691
0
LINE
8
BLACK
6
CONTINUOUS
10
3.7479527559055117
20
-2.0173228346456691
11
3.7479527559055117
21
-2.1826771653543307
0
LINE
8
BLACK
6
CONTINUOUS
10
3.8957874015748031
20
-2.1826771653543307
11
3.8170472440944883
21
-2.1826771653543307
0
LINE
8
BLACK
6
CONTINUOUS
10
3.8170472440944883
20
-2.1826771653543307
11
3.8170472440944883
21
-2.0173228346456691
0
LINE
8
BLACK
6
CONTINUOUS
10
3.8170472440944883
20
-2.0173228346456691
11
3.8957874015748031
21
-2.0173228346456691
0
LINE
8
BLACK
6
CONTINUOUS
10
3.8957874015748031
20
-2.0173228346456691
11
3.8957874015748031
21
-2.1826771653543307
0
LINE
8
BLACK
6
CONTINUOUS
10
4.0729527559055114
20
-2.1826771653543307
11
3.9942125984251966
21
-2.1826771653543307
0
LINE
8
BLACK
6
CONTINUOUS
10
3.9942125984251966
20
-2.1826771653543307
11
3.9942125984251966
21
-2.0173228346456691
0
LINE
8
BLACK
6
CONTINUOUS
10
3.9942125984251966
20
-2.0173228346456691
11
4.0729527559055114
21
-2.0173228346456691
0
LINE
8
BLACK
6
CONTINUOUS
10
4.0729527559055114
20
-2.0173228346456691
11
4.0729527559055114
21
-2.1826771653543307
0
LINE
8
BLACK
6
CONTINUOUS
10
4.2207874015748033
20
-2.1826771653543307
11
4.1420472440944884
21
-2.1826771653543307
0
LINE
8
BLACK
6
CONTINUOUS
10
4.1420472440944884
20
-2.1826771653543307
11
4.1420472440944884
21
-2.0173228346456691
0
LINE
8
BLACK
6
CONTINUOUS
10
4.1420472440944884
20
-2.0173228346456691
11
4.2207874015748033
21
-2.0173228346456691
0
LINE
8
BLACK
6
CONTINUOUS
10
4.2207874015748033
20
-2.0173228346456691
11
4.2207874015748033
21
-2.1826771653543307
0
LINE
8
BLACK
6
CONTINUOUS
10
4.3979527559055116
20
-2.1826771653543307
11
4.3192125984251968
21
-2.1826771653543307
0
LINE
8
BLACK
6
CONTINUOUS
10
4.3192125984251968
20
-2.1826771653543307
11
4.3192125984251968
21
-2.0173228346456691
0
LINE
8
BLACK
6
CONTINUOUS
10
4.3192125984251968
20
-2.0173228346456691
11
4.3979527559055116
21
-2.0173228346456691
0
LINE
8
BLACK
6
CONTINUOUS
10
4.3979527559055116
20
-2.0173228346456691
11
4.3979527559055116
21
-2.1826771653543307
0
LINE
8
BLACK
6
CONTINUOUS
10
2.5957874015748033
20
-1.9826771653543307
11
2.517047244094488
21
-1.9826771653543307
0
LINE
8
BLACK
6
CONTINUOUS
10
2.517047244094488
20
-1.9826771653543307
11
2.517047244094488
21
-1.8173228346456693
0
LINE
8
BLACK
6
CONTINUOUS
10
2.517047244094488
20
-1.8173228346456693
11
2.5957874015748033
21
-1.8173228346456693
0
LINE
8
BLACK
6
CONTINUOUS
10
2.5957874015748033
20
-1.8173228346456693
11
2.5957874015748033
21
-1.9826771653543307
0
LINE
8
BLACK
6
CONTINUOUS
10
2.7729527559055116
20
-1.9826771653543307
11
2.6942125984251968
21
-1.9826771653543307
0
LINE
8
BLACK
6
CONTINUOUS
10
2.6942125984251968
20
-1.9826771653543307
11
2.6942125984251968
21
-1.8173228346456693
0
LINE
8
BLACK
6
CONTINUOUS
10
2.6942125984251968
20
-1.8173228346456693
11
2.7729527559055116
21
-1.8173228346456693
0
LINE
8
BLACK
6
CONTINUOUS
10
2.7729527559055116
20
-1.8173228346456693
11
2.7729527559055116
21
-1.9826771653543307
0
LINE
8
BLACK
6
CONTINUOUS
10
2.920787401574803
20
-1.9826771653543307
11
2.8420472440944882
21
-1.9826771653543307
0
LINE
8
BLACK
6
CONTINUOUS
10
2.8420472440944882
20
-1.9826771653543307
11
2.8420472440944882
21
-1.8173228346456693
0
LINE
8
BLACK
6
CONTINUOUS
10
2.8420472440944882
20
-1.8173228346456693
11
2.920787401574803
21
-1.8173228346456693
0
LINE
8
BLACK
6
CONTINUOUS
10
2.920787401574803
20
-1.8173228346456693
11
2.920787401574803
21
-1.9826771653543307
0
LINE
8
BLACK
6
CONTINUOUS
10
3.0979527559055118
20
-1.9826771653543307
11
3.019212598425197
21
-1.9826771653543307
0
LINE
8
BLACK
6
CONTINUOUS
10
3.019212598425197
20
-1.9826771653543307
11
3.019212598425197
21
-1.8173228346456693
0
LINE
8
BLACK
6
CONTINUOUS
10
3.019212598425197
20
-1.8173228346456693
11
3.0979527559055118
21
-1.8173228346456693
0
LINE
8
BLACK
6
CONTINUOUS
10
3.0979527559055118
20
-1.8173228346456693
11
3.0979527559055118
21
-1.9826771653543307
0
LINE
8
BLACK
6
CONTINUOUS
10
3.2457874015748032
20
-1.9826771653543307
11
3.1670472440944879
21
-1.9826771653543307
0
LINE
8
BLACK
6
CONTINUOUS
10
3.1670472440944879
20
-1.9826771653543307
11
3.1670472440944879
21
-1.8173228346456693
0
LINE
8
BLACK
6
CONTINUOUS
10
3.1670472440944879
20
-1.8173228346456693
11
3.2457874015748032
21
-1.8173228346456693
0
LINE
8
BLACK
6
CONTINUOUS
10
3.2457874015748032
20
-1.8173228346456693
11
3.2457874015748032
21
-1.9826771653543307
0
LINE
8
BLACK
6
CONTINUOUS
10
3.4229527559055115
20
-1.9826771653543307
11
3.3442125984251967
21
-1.9826771653543307
0
LINE
8
BLACK
6
CONTINUOUS
10
3.3442125984251967
20
-1.9826771653543307
11
3.3442125984251967
21
-1.8173228346456693
0
LINE
8
BLACK
6
CONTINUOUS
10
3.3442125984251967
20
-1.8173228346456693
11
3.4229527559055115
21
-1.8173228346456693
0
LINE
8
BLACK
6
CONTINUOUS
10
3.4229527559055115
20
-1.8173228346456693
11
3.4229527559055115
21
-1.9826771653543307
0
LINE
8
BLACK
6
CONTINUOUS
10
3.5707874015748029
20
-1.9826771653543307
11
3.4920472440944881
21
-1.9826771653543307
0
LINE
8
BLACK
6
CONTINUOUS
10
3.4920472440944881
20
-1.9826771653543307
11
3.4920472440944881
21
-1.8173228346456693
0
LINE
8
BLACK
6
CONTINUOUS
10
3.4920472440944881
20
-1.8173228346456693
11
3.5707874015748029
21
-1.8173228346456693
0
LINE
8
BLACK
6
CONTINUOUS
10
3.5707874015748029
20
-1.8173228346456693
11
3.5707874015748029
21
-1.9826771653543307
0
LINE
8
BLACK
6
CONTINUOUS
10
3.7479527559055117
20
-1.9826771653543307
11
3.6692125984251969
21
-1.9826771653543307
0
LINE
8
BLACK
6
CONTINUOUS
10
3.6692125984251969
20
-1.9826771653543307
11
3.6692125984251969
21
-1.8173228346456693
0
LINE
8
BLACK
6
CONTINUOUS
10
3.6692125984251969
20
-1.8173228346456693
11
3.7479527559055117
21
-1.8173228346456693
0
LINE
8
BLACK
6
CONTINUOUS
10
3.7479527559055117
20
-1.8173228346456693
11
3.7479527559055117
21
-1.9826771653543307
0
LINE
8
BLACK
6
CONTINUOUS
10
3.8957874015748031
20
-1.9826771653543307
11
3.8170472440944883
21
-1.9826771653543307
0
LINE
8
BLACK
6
CONTINUOUS
10
3.8170472440944883
20
-1.9826771653543307
11
3.8170472440944883
21
-1.8173228346456693
0
LINE
8
BLACK
6
CONTINUOUS
10
3.8170472440944883
20
-1.8173228346456693
11
3.8957874015748031
21
-1.8173228346456693
0
LINE
8
BLACK
6
CONTINUOUS
10
3.8957874015748031
20
-1.8173228346456693
11
3.8957874015748031
21
-1.9826771653543307
0
LINE
8
BLACK
6
CONTINUOUS
10
4.0729527559055114
20
-1.9826771653543307
11
3.9942125984251966
21
-1.9826771653543307
0
LINE
8
BLACK
6
CONTINUOUS
10
3.9942125984251966
20
-1.9826771653543307
11
3.9942125984251966
21
-1.8173228346456693
0
LINE
8
BLACK
6
CONTINUOUS
10
3.9942125984251966
20
-1.8173228346456693
11
4.0729527559055114
21
-1.8173228346456693
0
LINE
8
BLACK
6
CONTINUOUS
10
4.0729527559055114
20
-1.8173228346456693
11
4.0729527559055114
21
-1.9826771653543307
0
LINE
8
BLACK
6
CONTINUOUS
10
4.2207874015748033
20
-1.9826771653543307
11
4.1420472440944884
21
-1.9826771653543307
0
LINE
8
BLACK
6
CONTINUOUS
10
4.1420472440944884
20
-1.9826771653543307
11
4.1420472440944884
21
-1.8173228346456693
0
LINE
8
BLACK
6
CONTINUOUS
10
4.1420472440944884
20
-1.8173228346456693
11
4.2207874015748033
21
-1.8173228346456693
0
LINE
8
BLACK
6
CONTINUOUS
10
4.2207874015748033
20
-1.8173228346456693
11
4.2207874015748033
21
-1.9826771653543307
0
LINE
8
BLACK
6
CONTINUOUS
10
4.3979527559055116
20
-1.9826771653543307
11
4.3192125984251968
21
-1.9826771653543307
0
LINE
8
BLACK
6
CONTINUOUS
10
4.3192125984251968
20
-1.9826771653543307
11
4.3192125984251968
21
-1.8173228346456693
0
LINE
8
BLACK
6
CONTINUOUS
10
4.3192125984251968
20
-1.8173228346456693
11
4.3979527559055116
21
-1.8173228346456693
0
LINE
8
BLACK
6
CONTINUOUS
10
4.3979527559055116
20
-1.8173228346456693
11
4.3979527559055116
21
-1.9826771653543307
0
LINE
8
BLACK
6
CONTINUOUS
10
2.5957874015748033
20
-1.7826771653543307
11
2.517047244094488
21
-1.7826771653543307
0
LINE
8
BLACK
6
CONTINUOUS
10
2.517047244094488
20
-1.7826771653543307
11
2.517047244094488
21
-1.6173228346456692
0
LINE
8
BLACK
6
CONTINUOUS
10
2.517047244094488
20
-1.6173228346456692
11
2.5957874015748033
21
-1.6173228346456692
0
LINE
8
BLACK
6
CONTINUOUS
10
2.5957874015748033
20
-1.6173228346456692
11
2.5957874015748033
21
-1.7826771653543307
0
LINE
8
BLACK
6
CONTINUOUS
10
2.7729527559055116
20
-1.7826771653543307
11
2.6942125984251968
21
-1.7826771653543307
0
LINE
8
BLACK
6
CONTINUOUS
10
2.6942125984251968
20
-1.7826771653543307
11
2.6942125984251968
21
-1.6173228346456692
0
LINE
8
BLACK
6
CONTINUOUS
10
2.6942125984251968
20
-1.6173228346456692
11
2.7729527559055116
21
-1.6173228346456692
0
LINE
8
BLACK
6
CONTINUOUS
10
2.7729527559055116
20
-1.6173228346456692
11
2.7729527559055116
21
-1.7826771653543307
0
LINE
8
BLACK
6
CONTINUOUS
10
2.920787401574803
20
-1.7826771653543307
11
2.8420472440944882
21
-1.7826771653543307
0
LINE
8
BLACK
6
CONTINUOUS
10
2.8420472440944882
20
-1.7826771653543307
11
2.8420472440944882
21
-1.6173228346456692
0
LINE
8
BLACK
6
CONTINUOUS
10
2.8420472440944882
20
-1.6173228346456692
11
2.920787401574803
21
-1.6173228346456692
0
LINE
8
BLACK
6
CONTINUOUS
10
2.920787401574803
20
-1.6173228346456692
11
2.920787401574803
21
-1.7826771653543307
0
LINE
8
BLACK
6
CONTINUOUS
10
3.0979527559055118
20
-1.7826771653543307
11
3.019212598425197
21
-1.7826771653543307
0
LINE
8
BLACK
6
CONTINUOUS
10
3.019212598425197
20
-1.7826771653543307
11
3.019212598425197
21
-1.6173228346456692
0
LINE
8
BLACK
6
CONTINUOUS
10
3.019212598425197
20
-1.6173228346456692
11
3.0979527559055118
21
-1.6173228346456692
0
LINE
8
BLACK
6
CONTINUOUS
10
3.0979527559055118
20
-1.6173228346456692
11
3.0979527559055118
21
-1.7826771653543307
0
LINE
8
BLACK
6
CONTINUOUS
10
3.2457874015748032
20
-1.7826771653543307
11
3.1670472440944879
21
-1.7826771653543307
0
LINE
8
BLACK
6
CONTINUOUS
10
3.1670472440944879
20
-1.7826771653543307
11
3.1670472440944879
21
-1.6173228346456692
0
LINE
8
BLACK
6
CONTINUOUS
10
3.1670472440944879
20
-1.6173228346456692
11
3.2457874015748032
21
-1.6173228346456692
0
LINE
8
BLACK
6
CONTINUOUS
10
3.2457874015748032
20
-1.6173228346456692
11
3.2457874015748032
21
-1.7826771653543307
0
LINE
8
BLACK
6
CONTINUOUS
10
3.4229527559055115
20
-1.7826771653543307
11
3.3442125984251967
21
-1.7826771653543307
0
LINE
8
BLACK
6
CONTINUOUS
10
3.3442125984251967
20
-1.7826771653543307
11
3.3442125984251967
21
-1.6173228346456692
0
LINE
8
BLACK
6
CONTINUOUS
10
3.3442125984251967
20
-1.6173228346456692
11
3.4229527559055115
21
-1.6173228346456692
0
LINE
8
BLACK
6
CONTINUOUS
10
3.4229527559055115
20
-1.6173228346456692
11
3.4229527559055115
21
-1.7826771653543307
0
LINE
8
BLACK
6
CONTINUOUS
10
3.5707874015748029
20
-1.7826771653543307
11
3.4920472440944881
21
-1.7826771653543307
0
LINE
8
BLACK
6
CONTINUOUS
10
3.4920472440944881
20
-1.7826771653543307
11
3.4920472440944881
21
-1.6173228346456692
0
LINE
8
BLACK
6
CONTINUOUS
10
3.4920472440944881
20
-1.6173228346456692
11
3.5707874015748029
21
-1.6173228346456692
0
LINE
8
BLACK
6
CONTINUOUS
10
3.5707874015748029
20
-1.6173228346456692
11
3.5707874015748029
21
-1.7826771653543307
0
LINE
8
BLACK
6
CONTINUOUS
10
3.7479527559055117
20
-1.7826771653543307
11
3.6692125984251969
21
-1.7826771653543307
0
LINE
8
BLACK
6
CONTINUOUS
10
3.6692125984251969
20
-1.7826771653543307
11
3.6692125984251969
21
-1.6173228346456692
0
LINE
8
BLACK
6
CONTINUOUS
10
3.6692125984251969
20
-1.6173228346456692
11
3.7479527559055117
21
-1.6173228346456692
0
LINE
8
BLACK
6
CONTINUOUS
10
3.7479527559055117
20
-1.6173228346456692
11
3.7479527559055117
21
-1.7826771653543307
0
LINE
8
BLACK
6
CONTINUOUS
10
3.8957874015748031
20
-1.7826771653543307
11
3.8170472440944883
21
-1.7826771653543307
0
LINE
8
BLACK
6
CONTINUOUS
10
3.8170472440944883
20
-1.7826771653543307
11
3.8170472440944883
21
-1.6173228346456692
0
LINE
8
BLACK
6
CONTINUOUS
10
3.8170472440944883
20
-1.6173228346456692
11
3.8957874015748031
21
-1.6173228346456692
0
LINE
8
BLACK
6
CONTINUOUS
10
3.8957874015748031
20
-1.6173228346456692
11
3.8957874015748031
21
-1.7826771653543307
0
LINE
8
BLACK
6
CONTINUOUS
10
4.0729527559055114
20
-1.7826771653543307
11
3.9942125984251966
21
-1.7826771653543307
0
LINE
8
BLACK
6
CONTINUOUS
10
3.9942125984251966
20
-1.7826771653543307
11
3.9942125984251966
21
-1.6173228346456692
0
LINE
8
BLACK
6
CONTINUOUS
10
3.9942125984251966
20
-1.6173228346456692
11
4.0729527559055114
21
-1.6173228346456692
0
LINE
8
BLACK
6
CONTINUOUS
10
4.0729527559055114
20
-1.6173228346456692
11
4.0729527559055114
21
-1.7826771653543307
0
LINE
8
BLACK
6
CONTINUOUS
10
4.2207874015748033
20
-1.7826771653543307
11
4.1420472440944884
21
-1.7826771653543307
0
LINE
8
BLACK
6
CONTINUOUS
10
4.1420472440944884
20
-1.7826771653543307
11
4.1420472440944884
21
-1.6173228346456692
0
LINE
8
BLACK
6
CONTINUOUS
10
4.1420472440944884
20
-1.6173228346456692
11
4.2207874015748033
21
-1.6173228346456692
0
LINE
8
BLACK
6
CONTINUOUS
10
4.2207874015748033
20
-1.6173228346456692
11
4.2207874015748033
21
-1.7826771653543307
0
LINE
8
BLACK
6
CONTINUOUS
10
4.3979527559055116
20
-1.7826771653543307
11
4.3192125984251968
21
-1.7826771653543307
0
LINE
8
BLACK
6
CONTINUOUS
10
4.3192125984251968
20
-1.7826771653543307
11
4.3192125984251968
21
-1.6173228346456692
0
LINE
8
BLACK
6
CONTINUOUS
10
4.3192125984251968
20
-1.6173228346456692
11
4.3979527559055116
21
-1.6173228346456692
0
LINE
8
BLACK
6
CONTINUOUS
10
4.3979527559055116
20
-1.6173228346456692
11
4.3979527559055116
21
-1.7826771653543307
0
LINE
8
BLACK
6
CONTINUOUS
10
2.5957874015748033
20
-1.5826771653543306
11
2.517047244094488
21
-1.5826771653543306
0
LINE
8
BLACK
6
CONTINUOUS
10
2.517047244094488
20
-1.5826771653543306
11
2.517047244094488
21
-1.4173228346456692
0
LINE
8
BLACK
6
CONTINUOUS
10
2.517047244094488
20
-1.4173228346456692
11
2.5957874015748033
21
-1.4173228346456692
0
LINE
8
BLACK
6
CONTINUOUS
10
2.5957874015748033
20
-1.4173228346456692
11
2.5957874015748033
21
-1.5826771653543306
0
LINE
8
BLACK
6
CONTINUOUS
10
2.7729527559055116
20
-1.5826771653543306
11
2.6942125984251968
21
-1.5826771653543306
0
LINE
8
BLACK
6
CONTINUOUS
10
2.6942125984251968
20
-1.5826771653543306
11
2.6942125984251968
21
-1.4173228346456692
0
LINE
8
BLACK
6
CONTINUOUS
10
2.6942125984251968
20
-1.4173228346456692
11
2.7729527559055116
21
-1.4173228346456692
0
LINE
8
BLACK
6
CONTINUOUS
10
2.7729527559055116
20
-1.4173228346456692
11
2.7729527559055116
21
-1.5826771653543306
0
LINE
8
BLACK
6
CONTINUOUS
10
2.920787401574803
20
-1.5826771653543306
11
2.8420472440944882
21
-1.5826771653543306
0
LINE
8
BLACK
6
CONTINUOUS
10
2.8420472440944882
20
-1.5826771653543306
11
2.8420472440944882
21
-1.4173228346456692
0
LINE
8
BLACK
6
CONTINUOUS
10
2.8420472440944882
20
-1.4173228346456692
11
2.920787401574803
21
-1.4173228346456692
0
LINE
8
BLACK
6
CONTINUOUS
10
2.920787401574803
20
-1.4173228346456692
11
2.920787401574803
21
-1.5826771653543306
0
LINE
8
BLACK
6
CONTINUOUS
10
3.0979527559055118
20
-1.5826771653543306
11
3.019212598425197
21
-1.5826771653543306
0
LINE
8
BLACK
6
CONTINUOUS
10
3.019212598425197
20
-1.5826771653543306
11
3.019212598425197
21
-1.4173228346456692
0
LINE
8
BLACK
6
CONTINUOUS
10
3.019212598425197
20
-1.4173228346456692
11
3.0979527559055118
21
-1.4173228346456692
0
LINE
8
BLACK
6
CONTINUOUS
10
3.0979527559055118
20
-1.4173228346456692
11
3.0979527559055118
21
-1.5826771653543306
0
LINE
8
BLACK
6
CONTINUOUS
10
3.2457874015748032
20
-1.5826771653543306
11
3.1670472440944879
21
-1.5826771653543306
0
LINE
8
BLACK
6
CONTINUOUS
10
3.1670472440944879
20
-1.5826771653543306
11
3.1670472440944879
21
-1.4173228346456692
0
LINE
8
BLACK
6
CONTINUOUS
10
3.1670472440944879
20
-1.4173228346456692
11
3.2457874015748032
21
-1.4173228346456692
0
LINE
8
BLACK
6
CONTINUOUS
10
3.2457874015748032
20
-1.4173228346456692
11
3.2457874015748032
21
-1.5826771653543306
0
LINE
8
BLACK
6
CONTINUOUS
10
3.4229527559055115
20
-1.5826771653543306
11
3.3442125984251967
21
-1.5826771653543306
0
LINE
8
BLACK
6
CONTINUOUS
10
3.3442125984251967
20
-1.5826771653543306
11
3.3442125984251967
21
-1.4173228346456692
0
LINE
8
BLACK
6
CONTINUOUS
10
3.3442125984251967
20
-1.4173228346456692
11
3.4229527559055115
21
-1.4173228346456692
0
LINE
8
BLACK
6
CONTINUOUS
10
3.4229527559055115
20
-1.4173228346456692
11
3.4229527559055115
21
-1.5826771653543306
0
LINE
8
BLACK
6
CONTINUOUS
10
3.5707874015748029
20
-1.5826771653543306
11
3.4920472440944881
21
-1.5826771653543306
0
LINE
8
BLACK
6
CONTINUOUS
10
3.4920472440944881
20
-1.5826771653543306
11
3.4920472440944881
21
-1.4173228346456692
0
LINE
8
BLACK
6
CONTINUOUS
10
3.4920472440944881
20
-1.4173228346456692
11
3.5707874015748029
21
-1.4173228346456692
0
LINE
8
BLACK
6
CONTINUOUS
10
3.5707874015748029
20
-1.4173228346456692
11
3.5707874015748029
21
-1.5826771653543306
0
LINE
8
BLACK
6
CONTINUOUS
10
3.7479527559055117
20
-1.5826771653543306
11
3.6692125984251969
21
-1.5826771653543306
0
LINE
8
BLACK
6
CONTINUOUS
10
3.6692125984251969
20
-1.5826771653543306
11
3.6692125984251969
21
-1.4173228346456692
0
LINE
8
BLACK
6
CONTINUOUS
10
3.6692125984251969
20
-1.4173228346456692
11
3.7479527559055117
21
-1.4173228346456692
0
LINE
8
BLACK
6
CONTINUOUS
10
3.7479527559055117
20
-1.4173228346456692
11
3.7479527559055117
21
-1.5826771653543306
0
LINE
8
BLACK
6
CONTINUOUS
10
3.8957874015748031
20
-1.5826771653543306
11
3.8170472440944883
21
-1.5826771653543306
0
LINE
8
BLACK
6
CONTINUOUS
10
3.8170472440944883
20
-1.5826771653543306
11
3.8170472440944883
21
-1.4173228346456692
0
LINE
8
BLACK
6
CONTINUOUS
10
3.8170472440944883
20
-1.4173228346456692
11
3.8957874015748031
21
-1.4173228346456692
0
LINE
8
BLACK
6
CONTINUOUS
10
3.8957874015748031
20
-1.4173228346456692
11
3.8957874015748031
21
-1.5826771653543306
0
LINE
8
BLACK
6
CONTINUOUS
10
4.0729527559055114
20
-1.5826771653543306
11
3.9942125984251966
21
-1.5826771653543306
0
LINE
8
BLACK
6
CONTINUOUS
10
3.9942125984251966
20
-1.5826771653543306
11
3.9942125984251966
21
-1.4173228346456692
0
LINE
8
BLACK
6
CONTINUOUS
10
3.9942125984251966
20
-1.4173228346456692
11
4.0729527559055114
21
-1.4173228346456692
0
LINE
8
BLACK
6
CONTINUOUS
10
4.0729527559055114
20
-1.4173228346456692
11
4.0729527559055114
21
-1.5826771653543306
0
LINE
8
BLACK
6
CONTINUOUS
10
4.2207874015748033
20
-1.5826771653543306
11
4.1420472440944884
21
-1.5826771653543306
0
LINE
8
BLACK
6
CONTINUOUS
10
4.1420472440944884
20
-1.5826771653543306
11
4.1420472440944884
21
-1.4173228346456692
0
LINE
8
BLACK
6
CONTINUOUS
10
4.1420472440944884
20
-1.4173228346456692
11
4.2207874015748033
21
-1.4173228346456692
0
LINE
8
BLACK
6
CONTINUOUS
10
4.2207874015748033
20
-1.4173228346456692
11
4.2207874015748033
21
-1.5826771653543306
0
LINE
8
BLACK
6
CONTINUOUS
10
4.3979527559055116
20
-1.5826771653543306
11
4.3192125984251968
21
-1.5826771653543306
0
LINE
8
BLACK
6
CONTINUOUS
10
4.3192125984251968
20
-1.5826771653543306
11
4.3192125984251968
21
-1.4173228346456692
0
LINE
8
BLACK
6
CONTINUOUS
10
4.3192125984251968
20
-1.4173228346456692
11
4.3979527559055116
21
-1.4173228346456692
0
LINE
8
BLACK
6
CONTINUOUS
10
4.3979527559055116
20
-1.4173228346456692
11
4.3979527559055116
21
-1.5826771653543306
  0
ENDSEC
  0
EOF
