  0
SECTION
  2
HEADER
  9
$ANGBASE
  50
0.0
  9
$ANGDIR
  70
1
  9
$MEASUREMENT
  70
0
  0
ENDSEC
  0
SECTION
  2
TABLES
  0
TABLE
  2
LTYPE
  70
4
  0
LTYPE
  5
40F
  2
CONTINUOUS
  70
0
  3
Solid line
  72
65
  73
0
  40
0.0
  0
LTYPE
  5
410
  2
DASHDOT
 70
0
  3
Dash Dot ____ _ ____ _
 72
65
 73
4
 40
2.0
 49
1.25
 49
-0.25
 49
0.25
 49
-0.25
  0
LTYPE
  5
411
  2
DASHED
 70
0
  3
Dashed __ __ __ __ __
 72
65
 73
2
 40
0.75
 49
0.5
 49
-0.25
  0
LTYPE
  5
43B
  2
DOTTED
 70
0
  3
Dotted .  .  .  .
 72
65
 73
2
 40
0.2
 49
0.0
 49
-0.2
  0
ENDTAB
  0
TABLE
  2
STYLE
  70
4
  0
STYLE
  2
KICAD
  70
0
  40
0
  41
1
  42
1
  50
0
  71
0
  3
isocp.shx
  0
STYLE
  2
KICADB
  70
0
  40
0
  41
1
  42
1
  50
0
  71
0
  3
isocp.shx
  0
STYLE
  2
KICADI
  70
0
  40
0
  41
1
  42
1
  50
15
  71
0
  3
isocp.shx
  0
STYLE
  2
KICADBI
  70
0
  40
0
  41
1
  42
1
  50
15
  71
0
  3
isocp.shx
  0
ENDTAB
  0
TABLE
  2
LAYER
  70
1
  0
LAYER
  2
BLACK
  70
0
  62
7
  6
CONTINUOUS
  0
ENDTAB
  0
ENDSEC
  0
SECTION
  2
ENTITIES
0
LINE
8
BLACK
6
CONTINUOUS
10
4.7929527559055121
20
-0.8817982677165355
11
4.7951143307086612
21
-0.8839598425196851
0
LINE
8
BLACK
6
CONTINUOUS
10
4.7951143307086612
20
-0.8839598425196851
11
4.7959055118110232
21
-0.8869125984251969
0
LINE
8
BLACK
6
CONTINUOUS
10
4.7959055118110232
20
-0.8869125984251969
11
4.7959055118110232
21
-1.2040944881889764
0
LINE
8
BLACK
6
CONTINUOUS
10
4.7959055118110232
20
-1.2040944881889764
11
5.2230874015748032
21
-1.2040944881889764
0
LINE
8
BLACK
6
CONTINUOUS
10
5.2230874015748032
20
-1.2040944881889764
11
5.2260401574803153
21
-1.2048856692913386
0
LINE
8
BLACK
6
CONTINUOUS
10
5.2260401574803153
20
-1.2048856692913386
11
5.2282017322834644
21
-1.2070472440944882
0
LINE
8
BLACK
6
CONTINUOUS
10
5.2282017322834644
20
-1.2070472440944882
11
5.2289929133858264
21
-1.21
0
LINE
8
BLACK
6
CONTINUOUS
10
5.2289929133858264
20
-1.21
11
5.2282017322834644
21
-1.2129527559055118
0
LINE
8
BLACK
6
CONTINUOUS
10
5.2282017322834644
20
-1.2129527559055118
11
5.2260401574803153
21
-1.2151143307086614
0
LINE
8
BLACK
6
CONTINUOUS
10
5.2260401574803153
20
-1.2151143307086614
11
5.2230874015748032
21
-1.2159055118110236
0
LINE
8
BLACK
6
CONTINUOUS
10
5.2230874015748032
20
-1.2159055118110236
11
5.2097320078740159
21
-1.2159055118110236
0
LINE
8
BLACK
6
CONTINUOUS
10
5.2097320078740159
20
-1.2159055118110236
11
5.2283256692913387
21
-1.2516236614173228
0
LINE
8
BLACK
6
CONTINUOUS
10
5.2283256692913387
20
-1.2516236614173228
11
5.2289873228346453
21
-1.2546081496062993
0
LINE
8
BLACK
6
CONTINUOUS
10
5.2289873228346453
20
-1.2546081496062993
11
5.2280681102362205
21
-1.2575235826771654
0
LINE
8
BLACK
6
CONTINUOUS
10
5.2280681102362205
20
-1.2575235826771654
11
5.2258142913385823
21
-1.2595887795275591
0
LINE
8
BLACK
6
CONTINUOUS
10
5.2258142913385823
20
-1.2595887795275591
11
5.2228298425196851
21
-1.2602504330708661
0
LINE
8
BLACK
6
CONTINUOUS
10
5.2228298425196851
20
-1.2602504330708661
11
5.219914409448819
21
-1.2593312204724409
0
LINE
8
BLACK
6
CONTINUOUS
10
5.219914409448819
20
-1.2593312204724409
11
5.2178491732283465
21
-1.2570774015748032
0
LINE
8
BLACK
6
CONTINUOUS
10
5.2178491732283465
20
-1.2570774015748032
11
5.2059055118110233
21
-1.2341338188976378
0
LINE
8
BLACK
6
CONTINUOUS
10
5.2059055118110233
20
-1.2341338188976378
11
5.2059055118110233
21
-2.7658661417322836
0
LINE
8
BLACK
6
CONTINUOUS
10
5.2059055118110233
20
-2.7658661417322836
11
5.2178491732283465
21
-2.7429225984251966
0
LINE
8
BLACK
6
CONTINUOUS
10
5.2178491732283465
20
-2.7429225984251966
11
5.219914409448819
21
-2.7406687795275588
0
LINE
8
BLACK
6
CONTINUOUS
10
5.219914409448819
20
-2.7406687795275588
11
5.2228298425196851
21
-2.7397495669291336
0
LINE
8
BLACK
6
CONTINUOUS
10
5.2228298425196851
20
-2.7397495669291336
11
5.2258142913385823
21
-2.7404112204724407
0
LINE
8
BLACK
6
CONTINUOUS
10
5.2258142913385823
20
-2.7404112204724407
11
5.2280681102362205
21
-2.7424764173228344
0
LINE
8
BLACK
6
CONTINUOUS
10
5.2280681102362205
20
-2.7424764173228344
11
5.2289873228346453
21
-2.7453918503937009
0
LINE
8
BLACK
6
CONTINUOUS
10
5.2289873228346453
20
-2.7453918503937009
11
5.2283256692913387
21
-2.7483763385826769
0
LINE
8
BLACK
6
CONTINUOUS
10
5.2283256692913387
20
-2.7483763385826769
11
5.2097320078740159
21
-2.7840944881889764
0
LINE
8
BLACK
6
CONTINUOUS
10
5.2097320078740159
20
-2.7840944881889764
11
5.2230874015748032
21
-2.7840944881889764
0
LINE
8
BLACK
6
CONTINUOUS
10
5.2230874015748032
20
-2.7840944881889764
11
5.2260401574803153
21
-2.7848856692913384
0
LINE
8
BLACK
6
CONTINUOUS
10
5.2260401574803153
20
-2.7848856692913384
11
5.2282017322834644
21
-2.787047244094488
0
LINE
8
BLACK
6
CONTINUOUS
10
5.2282017322834644
20
-2.787047244094488
11
5.2289929133858264
21
-2.79
0
LINE
8
BLACK
6
CONTINUOUS
10
5.2289929133858264
20
-2.79
11
5.2282017322834644
21
-2.7929527559055116
0
LINE
8
BLACK
6
CONTINUOUS
10
5.2282017322834644
20
-2.7929527559055116
11
5.2260401574803153
21
-2.7951143307086612
0
LINE
8
BLACK
6
CONTINUOUS
10
5.2260401574803153
20
-2.7951143307086612
11
5.2230874015748032
21
-2.7959055118110236
0
LINE
8
BLACK
6
CONTINUOUS
10
5.2230874015748032
20
-2.7959055118110236
11
5.2000000000000002
21
-2.7959055118110236
0
LINE
8
BLACK
6
CONTINUOUS
10
5.2000000000000002
20
-2.7959055118110236
11
4.79
21
-2.7959055118110236
0
LINE
8
BLACK
6
CONTINUOUS
10
4.79
20
-2.7959055118110236
11
4.787047244094488
21
-2.7951143307086612
0
LINE
8
BLACK
6
CONTINUOUS
10
4.787047244094488
20
-2.7951143307086612
11
4.7848856692913388
21
-2.7929527559055116
0
LINE
8
BLACK
6
CONTINUOUS
10
4.7848856692913388
20
-2.7929527559055116
11
4.784094488188976
21
-2.79
0
LINE
8
BLACK
6
CONTINUOUS
10
4.784094488188976
20
-2.79
11
4.7848856692913388
21
-2.787047244094488
0
LINE
8
BLACK
6
CONTINUOUS
10
4.7848856692913388
20
-2.787047244094488
11
4.787047244094488
21
-2.7848856692913384
0
LINE
8
BLACK
6
CONTINUOUS
10
4.787047244094488
20
-2.7848856692913384
11
4.79
21
-2.7840944881889764
0
LINE
8
BLACK
6
CONTINUOUS
10
4.79
20
-2.7840944881889764
11
5.1902679921259844
21
-2.7840944881889764
0
LINE
8
BLACK
6
CONTINUOUS
10
5.1902679921259844
20
-2.7840944881889764
11
5.1716742913385829
21
-2.7483762992125982
0
LINE
8
BLACK
6
CONTINUOUS
10
5.1716742913385829
20
-2.7483762992125982
11
5.1710126771653542
21
-2.7453918503937009
0
LINE
8
BLACK
6
CONTINUOUS
10
5.1710126771653542
20
-2.7453918503937009
11
5.1719318897637798
21
-2.7424764173228344
0
LINE
8
BLACK
6
CONTINUOUS
10
5.1719318897637798
20
-2.7424764173228344
11
5.1741857086614171
21
-2.7404111811023619
0
LINE
8
BLACK
6
CONTINUOUS
10
5.1741857086614171
20
-2.7404111811023619
11
5.1771701574803153
21
-2.7397495669291336
0
LINE
8
BLACK
6
CONTINUOUS
10
5.1771701574803153
20
-2.7397495669291336
11
5.1800855905511813
21
-2.7406687795275588
0
LINE
8
BLACK
6
CONTINUOUS
10
5.1800855905511813
20
-2.7406687795275588
11
5.1821508267716538
21
-2.7429225984251966
0
LINE
8
BLACK
6
CONTINUOUS
10
5.1821508267716538
20
-2.7429225984251966
11
5.1940944881889761
21
-2.7658661417322836
0
LINE
8
BLACK
6
CONTINUOUS
10
5.1940944881889761
20
-2.7658661417322836
11
5.1940944881889761
21
-1.2341338188976378
0
LINE
8
BLACK
6
CONTINUOUS
10
5.1940944881889761
20
-1.2341338188976378
11
5.1821508267716538
21
-1.2570774015748032
0
LINE
8
BLACK
6
CONTINUOUS
10
5.1821508267716538
20
-1.2570774015748032
11
5.1800855905511813
21
-1.2593312204724409
0
LINE
8
BLACK
6
CONTINUOUS
10
5.1800855905511813
20
-1.2593312204724409
11
5.1771701574803153
21
-1.2602504330708661
0
LINE
8
BLACK
6
CONTINUOUS
10
5.1771701574803153
20
-1.2602504330708661
11
5.1741857086614171
21
-1.2595888188976379
0
LINE
8
BLACK
6
CONTINUOUS
10
5.1741857086614171
20
-1.2595888188976379
11
5.1719318897637798
21
-1.2575235826771654
0
LINE
8
BLACK
6
CONTINUOUS
10
5.1719318897637798
20
-1.2575235826771654
11
5.1710126771653542
21
-1.2546081496062993
0
LINE
8
BLACK
6
CONTINUOUS
10
5.1710126771653542
20
-1.2546081496062993
11
5.1716742913385829
21
-1.2516237007874016
0
LINE
8
BLACK
6
CONTINUOUS
10
5.1716742913385829
20
-1.2516237007874016
11
5.1902679921259844
21
-1.2159055118110236
0
LINE
8
BLACK
6
CONTINUOUS
10
5.1902679921259844
20
-1.2159055118110236
11
4.79
21
-1.2159055118110236
0
LINE
8
BLACK
6
CONTINUOUS
10
4.79
20
-1.2159055118110236
11
4.787047244094488
21
-1.2151143307086614
0
LINE
8
BLACK
6
CONTINUOUS
10
4.787047244094488
20
-1.2151143307086614
11
4.7848856692913388
21
-1.2129527559055118
0
LINE
8
BLACK
6
CONTINUOUS
10
4.7848856692913388
20
-1.2129527559055118
11
4.784094488188976
21
-1.21
0
LINE
8
BLACK
6
CONTINUOUS
10
4.784094488188976
20
-1.21
11
4.784094488188976
21
-0.919731968503937
0
LINE
8
BLACK
6
CONTINUOUS
10
4.784094488188976
20
-0.919731968503937
11
4.7483762992125982
21
-0.9383257086614173
0
LINE
8
BLACK
6
CONTINUOUS
10
4.7483762992125982
20
-0.9383257086614173
11
4.7453918503937009
21
-0.9389873228346457
0
LINE
8
BLACK
6
CONTINUOUS
10
4.7453918503937009
20
-0.9389873228346457
11
4.7424764173228349
21
-0.9380681102362205
0
LINE
8
BLACK
6
CONTINUOUS
10
4.7424764173228349
20
-0.9380681102362205
11
4.7404111811023624
21
-0.9358142913385826
0
LINE
8
BLACK
6
CONTINUOUS
10
4.7404111811023624
20
-0.9358142913385826
11
4.7397495669291336
21
-0.932829842519685
0
LINE
8
BLACK
6
CONTINUOUS
10
4.7397495669291336
20
-0.932829842519685
11
4.7406687795275593
21
-0.9299144094488189
0
LINE
8
BLACK
6
CONTINUOUS
10
4.7406687795275593
20
-0.9299144094488189
11
4.7429225984251966
21
-0.9278491732283465
0
LINE
8
BLACK
6
CONTINUOUS
10
4.7429225984251966
20
-0.9278491732283465
11
4.7658661811023624
21
-0.9159055118110236
0
LINE
8
BLACK
6
CONTINUOUS
10
4.7658661811023624
20
-0.9159055118110236
11
1.6341338582677165
21
-0.9159055118110236
0
LINE
8
BLACK
6
CONTINUOUS
10
1.6341338582677165
20
-0.9159055118110236
11
1.6570774015748031
21
-0.9278491732283465
0
LINE
8
BLACK
6
CONTINUOUS
10
1.6570774015748031
20
-0.9278491732283465
11
1.6593312204724409
21
-0.9299144094488189
0
LINE
8
BLACK
6
CONTINUOUS
10
1.6593312204724409
20
-0.9299144094488189
11
1.6602504330708661
21
-0.932829842519685
0
LINE
8
BLACK
6
CONTINUOUS
10
1.6602504330708661
20
-0.932829842519685
11
1.659588779527559
21
-0.9358142913385826
0
LINE
8
BLACK
6
CONTINUOUS
10
1.659588779527559
20
-0.9358142913385826
11
1.6575235826771653
21
-0.9380681102362205
0
LINE
8
BLACK
6
CONTINUOUS
10
1.6575235826771653
20
-0.9380681102362205
11
1.6546081496062992
21
-0.9389873228346457
0
LINE
8
BLACK
6
CONTINUOUS
10
1.6546081496062992
20
-0.9389873228346457
11
1.6516236614173228
21
-0.9383256692913385
0
LINE
8
BLACK
6
CONTINUOUS
10
1.6516236614173228
20
-0.9383256692913385
11
1.6159055118110235
21
-0.919731968503937
0
LINE
8
BLACK
6
CONTINUOUS
10
1.6159055118110235
20
-0.919731968503937
11
1.6159055118110235
21
-1.21
0
LINE
8
BLACK
6
CONTINUOUS
10
1.6159055118110235
20
-1.21
11
1.6151143307086613
21
-1.2129527559055118
0
LINE
8
BLACK
6
CONTINUOUS
10
1.6151143307086613
20
-1.2129527559055118
11
1.6129527559055117
21
-1.2151143307086614
0
LINE
8
BLACK
6
CONTINUOUS
10
1.6129527559055117
20
-1.2151143307086614
11
1.6099999999999999
21
-1.2159055118110236
0
LINE
8
BLACK
6
CONTINUOUS
10
1.6099999999999999
20
-1.2159055118110236
11
1.6070472440944881
21
-1.2151143307086614
0
LINE
8
BLACK
6
CONTINUOUS
10
1.6070472440944881
20
-1.2151143307086614
11
1.6048856692913385
21
-1.2129527559055118
0
LINE
8
BLACK
6
CONTINUOUS
10
1.6048856692913385
20
-1.2129527559055118
11
1.6040944881889763
21
-1.21
0
LINE
8
BLACK
6
CONTINUOUS
10
1.6040944881889763
20
-1.21
11
1.6040944881889763
21
-0.8869125984251969
0
LINE
8
BLACK
6
CONTINUOUS
10
1.6040944881889763
20
-0.8869125984251969
11
1.6048856692913385
21
-0.8839598425196851
0
LINE
8
BLACK
6
CONTINUOUS
10
1.6048856692913385
20
-0.8839598425196851
11
1.6070472440944881
21
-0.8817982677165355
0
LINE
8
BLACK
6
CONTINUOUS
10
1.6070472440944881
20
-0.8817982677165355
11
1.6099999999999999
21
-0.8810070866141733
0
LINE
8
BLACK
6
CONTINUOUS
10
1.6099999999999999
20
-0.8810070866141733
11
1.6129527559055117
21
-0.8817982677165355
0
LINE
8
BLACK
6
CONTINUOUS
10
1.6129527559055117
20
-0.8817982677165355
11
1.6151143307086613
21
-0.8839598425196851
0
LINE
8
BLACK
6
CONTINUOUS
10
1.6151143307086613
20
-0.8839598425196851
11
1.6159055118110235
21
-0.8869125984251969
0
LINE
8
BLACK
6
CONTINUOUS
10
1.6159055118110235
20
-0.8869125984251969
11
1.6159055118110235
21
-0.9002679921259842
0
LINE
8
BLACK
6
CONTINUOUS
10
1.6159055118110235
20
-0.9002679921259842
11
1.6516236614173228
21
-0.8816743307086614
0
LINE
8
BLACK
6
CONTINUOUS
10
1.6516236614173228
20
-0.8816743307086614
11
1.6546081496062992
21
-0.8810126771653544
0
LINE
8
BLACK
6
CONTINUOUS
10
1.6546081496062992
20
-0.8810126771653544
11
1.6575235826771653
21
-0.8819318897637795
0
LINE
8
BLACK
6
CONTINUOUS
10
1.6575235826771653
20
-0.8819318897637795
11
1.659588779527559
21
-0.8841857086614173
0
LINE
8
BLACK
6
CONTINUOUS
10
1.659588779527559
20
-0.8841857086614173
11
1.6602504330708661
21
-0.8871701574803149
0
LINE
8
BLACK
6
CONTINUOUS
10
1.6602504330708661
20
-0.8871701574803149
11
1.6593312204724409
21
-0.8900855905511811
0
LINE
8
BLACK
6
CONTINUOUS
10
1.6593312204724409
20
-0.8900855905511811
11
1.6570774015748031
21
-0.8921508267716535
0
LINE
8
BLACK
6
CONTINUOUS
10
1.6570774015748031
20
-0.8921508267716535
11
1.6341338582677165
21
-0.9040944881889763
0
LINE
8
BLACK
6
CONTINUOUS
10
1.6341338582677165
20
-0.9040944881889763
11
4.7658661811023624
21
-0.9040944881889763
0
LINE
8
BLACK
6
CONTINUOUS
10
4.7658661811023624
20
-0.9040944881889763
11
4.7429225984251966
21
-0.8921508267716535
0
LINE
8
BLACK
6
CONTINUOUS
10
4.7429225984251966
20
-0.8921508267716535
11
4.7406687795275593
21
-0.8900855905511811
0
LINE
8
BLACK
6
CONTINUOUS
10
4.7406687795275593
20
-0.8900855905511811
11
4.7397495669291336
21
-0.8871701574803149
0
LINE
8
BLACK
6
CONTINUOUS
10
4.7397495669291336
20
-0.8871701574803149
11
4.7404111811023624
21
-0.8841857086614173
0
LINE
8
BLACK
6
CONTINUOUS
10
4.7404111811023624
20
-0.8841857086614173
11
4.7424764173228349
21
-0.8819318897637795
0
LINE
8
BLACK
6
CONTINUOUS
10
4.7424764173228349
20
-0.8819318897637795
11
4.7453918503937009
21
-0.8810126771653544
0
LINE
8
BLACK
6
CONTINUOUS
10
4.7453918503937009
20
-0.8810126771653544
11
4.7483762992125982
21
-0.8816742913385827
0
LINE
8
BLACK
6
CONTINUOUS
10
4.7483762992125982
20
-0.8816742913385827
11
4.784094488188976
21
-0.9002679921259842
0
LINE
8
BLACK
6
CONTINUOUS
10
4.784094488188976
20
-0.9002679921259842
11
4.784094488188976
21
-0.8869125984251969
0
LINE
8
BLACK
6
CONTINUOUS
10
4.784094488188976
20
-0.8869125984251969
11
4.7848856692913388
21
-0.8839598425196851
0
LINE
8
BLACK
6
CONTINUOUS
10
4.7848856692913388
20
-0.8839598425196851
11
4.787047244094488
21
-0.8817982677165355
0
LINE
8
BLACK
6
CONTINUOUS
10
4.787047244094488
20
-0.8817982677165355
11
4.79
21
-0.8810070866141733
0
LINE
8
BLACK
6
CONTINUOUS
10
4.79
20
-0.8810070866141733
11
4.7929527559055121
21
-0.8817982677165355
0
LINE
8
BLACK
6
CONTINUOUS
10
5.1587924409448815
20
-2.167832716535433
11
5.1609540157480316
21
-2.1699942913385826
0
LINE
8
BLACK
6
CONTINUOUS
10
5.1609540157480316
20
-2.1699942913385826
11
5.1617451968503936
21
-2.1729470472440946
0
LINE
8
BLACK
6
CONTINUOUS
10
5.1617451968503936
20
-2.1729470472440946
11
5.1617451968503936
21
-2.2066928346456693
0
LINE
8
BLACK
6
CONTINUOUS
10
5.1617451968503936
20
-2.2066928346456693
11
5.1609540157480316
21
-2.2096455905511809
0
LINE
8
BLACK
6
CONTINUOUS
10
5.1609540157480316
20
-2.2096455905511809
11
5.1587924409448815
21
-2.2118071653543305
0
LINE
8
BLACK
6
CONTINUOUS
10
5.1587924409448815
20
-2.2118071653543305
11
5.1558396850393704
21
-2.212598346456693
0
LINE
8
BLACK
6
CONTINUOUS
10
5.1558396850393704
20
-2.212598346456693
11
5.1528869291338584
21
-2.2118071653543305
0
LINE
8
BLACK
6
CONTINUOUS
10
5.1528869291338584
20
-2.2118071653543305
11
5.1507253543307083
21
-2.2096455905511809
0
LINE
8
BLACK
6
CONTINUOUS
10
5.1507253543307083
20
-2.2096455905511809
11
5.1499341732283463
21
-2.2066928346456693
0
LINE
8
BLACK
6
CONTINUOUS
10
5.1499341732283463
20
-2.2066928346456693
11
5.1499341732283463
21
-2.195725472440945
0
LINE
8
BLACK
6
CONTINUOUS
10
5.1499341732283463
20
-2.195725472440945
11
5.113853897637795
21
-2.195725472440945
0
LINE
8
BLACK
6
CONTINUOUS
10
5.113853897637795
20
-2.195725472440945
11
5.1150211417322833
21
-2.1968927165354328
0
LINE
8
BLACK
6
CONTINUOUS
10
5.1150211417322833
20
-2.1968927165354328
11
5.1154965354330706
21
-2.1977161417322835
0
LINE
8
BLACK
6
CONTINUOUS
10
5.1154965354330706
20
-2.1977161417322835
11
5.1161273622047245
21
-2.1984275196850391
0
LINE
8
BLACK
6
CONTINUOUS
10
5.1161273622047245
20
-2.1984275196850391
11
5.1189395275590552
21
-2.204051771653543
0
LINE
8
BLACK
6
CONTINUOUS
10
5.1189395275590552
20
-2.204051771653543
11
5.1195524015748033
21
-2.2070466535433071
0
LINE
8
BLACK
6
CONTINUOUS
10
5.1195524015748033
20
-2.2070466535433071
11
5.118585708661417
21
-2.2099466929133857
0
LINE
8
BLACK
6
CONTINUOUS
10
5.118585708661417
20
-2.2099466929133857
11
5.1162985039370081
21
-2.2119748818897635
0
LINE
8
BLACK
6
CONTINUOUS
10
5.1162985039370081
20
-2.2119748818897635
11
5.1133036614173228
21
-2.2125877559055116
0
LINE
8
BLACK
6
CONTINUOUS
10
5.1133036614173228
20
-2.2125877559055116
11
5.1104036220472437
21
-2.2116210629921258
0
LINE
8
BLACK
6
CONTINUOUS
10
5.1104036220472437
20
-2.2116210629921258
11
5.1083754330708659
21
-2.2093338582677164
0
LINE
8
BLACK
6
CONTINUOUS
10
5.1083754330708659
20
-2.2093338582677164
11
5.1059918503937007
21
-2.2045667322834643
0
LINE
8
BLACK
6
CONTINUOUS
10
5.1059918503937007
20
-2.2045667322834643
11
5.1014587401574802
21
-2.2000336220472438
0
LINE
8
BLACK
6
CONTINUOUS
10
5.1014587401574802
20
-2.2000336220472438
11
5.0935087795275589
21
-2.194733661417323
0
LINE
8
BLACK
6
CONTINUOUS
10
5.0935087795275589
20
-2.194733661417323
11
5.0926211417322831
21
-2.1937236220472442
0
LINE
8
BLACK
6
CONTINUOUS
10
5.0926211417322831
20
-2.1937236220472442
11
5.0916702362204722
21
-2.1927727165354329
0
LINE
8
BLACK
6
CONTINUOUS
10
5.0916702362204722
20
-2.1927727165354329
11
5.0916196850393698
21
-2.1925840551181102
0
LINE
8
BLACK
6
CONTINUOUS
10
5.0916196850393698
20
-2.1925840551181102
11
5.0914908267716532
21
-2.1924374409448819
0
LINE
8
BLACK
6
CONTINUOUS
10
5.0914908267716532
20
-2.1924374409448819
11
5.0912271259842514
21
-2.1911190157480314
0
LINE
8
BLACK
6
CONTINUOUS
10
5.0912271259842514
20
-2.1911190157480314
11
5.0908790551181102
21
-2.1898199606299213
0
LINE
8
BLACK
6
CONTINUOUS
10
5.0908790551181102
20
-2.1898199606299213
11
5.0909295669291339
21
-2.1896313385826773
0
LINE
8
BLACK
6
CONTINUOUS
10
5.0909295669291339
20
-2.1896313385826773
11
5.0908912992125988
21
-2.1894398818897636
0
LINE
8
BLACK
6
CONTINUOUS
10
5.0908912992125988
20
-2.1894398818897636
11
5.0913222047244098
21
-2.1881660236220473
0
LINE
8
BLACK
6
CONTINUOUS
10
5.0913222047244098
20
-2.1881660236220473
11
5.0916702362204722
21
-2.1868672047244093
0
LINE
8
BLACK
6
CONTINUOUS
10
5.0916702362204722
20
-2.1868672047244093
11
5.0918082677165355
21
-2.1867291338582677
0
LINE
8
BLACK
6
CONTINUOUS
10
5.0918082677165355
20
-2.1867291338582677
11
5.0918708661417318
21
-2.1865441732283464
0
LINE
8
BLACK
6
CONTINUOUS
10
5.0918708661417318
20
-2.1865441732283464
11
5.0928808661417317
21
-2.185656535433071
0
LINE
8
BLACK
6
CONTINUOUS
10
5.0928808661417317
20
-2.185656535433071
11
5.0938318110236223
21
-2.1847056299212597
0
LINE
8
BLACK
6
CONTINUOUS
10
5.0938318110236223
20
-2.1847056299212597
11
5.0940204330708658
21
-2.1846550787401573
0
LINE
8
BLACK
6
CONTINUOUS
10
5.0940204330708658
20
-2.1846550787401573
11
5.0941670866141733
21
-2.1845262204724407
0
LINE
8
BLACK
6
CONTINUOUS
10
5.0941670866141733
20
-2.1845262204724407
11
5.0954854724409451
21
-2.1842625196850394
0
LINE
8
BLACK
6
CONTINUOUS
10
5.0954854724409451
20
-2.1842625196850394
11
5.0967845669291334
21
-2.1839144488188977
0
LINE
8
BLACK
6
CONTINUOUS
10
5.0967845669291334
20
-2.1839144488188977
11
5.1499341732283463
21
-2.1839144488188977
0
LINE
8
BLACK
6
CONTINUOUS
10
5.1499341732283463
20
-2.1839144488188977
11
5.1499341732283463
21
-2.1729470472440946
0
LINE
8
BLACK
6
CONTINUOUS
10
5.1499341732283463
20
-2.1729470472440946
11
5.1507253543307083
21
-2.1699942913385826
0
LINE
8
BLACK
6
CONTINUOUS
10
5.1507253543307083
20
-2.1699942913385826
11
5.1528869291338584
21
-2.167832716535433
0
LINE
8
BLACK
6
CONTINUOUS
10
5.1528869291338584
20
-2.167832716535433
11
5.1558396850393704
21
-2.167041535433071
0
LINE
8
BLACK
6
CONTINUOUS
10
5.1558396850393704
20
-2.167041535433071
11
5.1587924409448815
21
-2.167832716535433
0
LINE
8
BLACK
6
CONTINUOUS
10
5.156084527559055
20
-2.140003779527559
11
5.1572033858267714
21
-2.1406497637795274
0
LINE
8
BLACK
6
CONTINUOUS
10
5.1572033858267714
20
-2.1406497637795274
11
5.1572034251968502
21
-2.1406498031496062
0
LINE
8
BLACK
6
CONTINUOUS
10
5.1572034251968502
20
-2.1406498031496062
11
5.1600155118110234
21
-2.1434619291338581
0
LINE
8
BLACK
6
CONTINUOUS
10
5.1600155118110234
20
-2.1434619291338581
11
5.1604042125984249
21
-2.1441351968503937
0
LINE
8
BLACK
6
CONTINUOUS
10
5.1604042125984249
20
-2.1441351968503937
11
5.1609540157480316
21
-2.144685
0
LINE
8
BLACK
6
CONTINUOUS
10
5.1609540157480316
20
-2.144685
11
5.1611552362204725
21
-2.1454359448818896
0
LINE
8
BLACK
6
CONTINUOUS
10
5.1611552362204725
20
-2.1454359448818896
11
5.1615439763779527
21
-2.1461092913385826
0
LINE
8
BLACK
6
CONTINUOUS
10
5.1615439763779527
20
-2.1461092913385826
11
5.1615439763779527
21
-2.1461093307086614
0
LINE
8
BLACK
6
CONTINUOUS
10
5.1615439763779527
20
-2.1461093307086614
11
5.1615439763779527
21
-2.1468867716535431
0
LINE
8
BLACK
6
CONTINUOUS
10
5.1615439763779527
20
-2.1468867716535431
11
5.1617451968503936
21
-2.147637755905512
0
LINE
8
BLACK
6
CONTINUOUS
10
5.1617451968503936
20
-2.147637755905512
11
5.1615439763779527
21
-2.1483887007874016
0
LINE
8
BLACK
6
CONTINUOUS
10
5.1615439763779527
20
-2.1483887007874016
11
5.1615439763779527
21
-2.1491662598425196
0
LINE
8
BLACK
6
CONTINUOUS
10
5.1615439763779527
20
-2.1491662598425196
11
5.1611551968503937
21
-2.1498395669291339
0
LINE
8
BLACK
6
CONTINUOUS
10
5.1611551968503937
20
-2.1498395669291339
11
5.1609540157480316
21
-2.1505905118110236
0
LINE
8
BLACK
6
CONTINUOUS
10
5.1609540157480316
20
-2.1505905118110236
11
5.1604042125984249
21
-2.1511402755905511
0
LINE
8
BLACK
6
CONTINUOUS
10
5.1604042125984249
20
-2.1511402755905511
11
5.1600155118110234
21
-2.1518135826771654
0
LINE
8
BLACK
6
CONTINUOUS
10
5.1600155118110234
20
-2.1518135826771654
11
5.1572033858267714
21
-2.1546257086614173
0
LINE
8
BLACK
6
CONTINUOUS
10
5.1572033858267714
20
-2.1546257086614173
11
5.1572033070866139
21
-2.1546257480314961
0
LINE
8
BLACK
6
CONTINUOUS
10
5.1572033070866139
20
-2.1546257480314961
11
5.1545560629921257
21
-2.1561541732283462
0
LINE
8
BLACK
6
CONTINUOUS
10
5.1545560629921257
20
-2.1561541732283462
11
5.1514991338582679
21
-2.1561541732283462
0
LINE
8
BLACK
6
CONTINUOUS
10
5.1514991338582679
20
-2.1561541732283462
11
5.1514990944881891
21
-2.1561541732283462
0
LINE
8
BLACK
6
CONTINUOUS
10
5.1514990944881891
20
-2.1561541732283462
11
5.1499706692913385
21
-2.1552716929133857
0
LINE
8
BLACK
6
CONTINUOUS
10
5.1499706692913385
20
-2.1552716929133857
11
5.1488517716535434
21
-2.1546257480314961
0
LINE
8
BLACK
6
CONTINUOUS
10
5.1488517716535434
20
-2.1546257480314961
11
5.1460396062992126
21
-2.1518136220472441
0
LINE
8
BLACK
6
CONTINUOUS
10
5.1460396062992126
20
-2.1518136220472441
11
5.1460395275590551
21
-2.1518135433070866
0
LINE
8
BLACK
6
CONTINUOUS
10
5.1460395275590551
20
-2.1518135433070866
11
5.1456508267716536
21
-2.1511402755905511
0
LINE
8
BLACK
6
CONTINUOUS
10
5.1456508267716536
20
-2.1511402755905511
11
5.1451010629921257
21
-2.1505905118110236
0
LINE
8
BLACK
6
CONTINUOUS
10
5.1451010629921257
20
-2.1505905118110236
11
5.1448998425196848
21
-2.1498395669291339
0
LINE
8
BLACK
6
CONTINUOUS
10
5.1448998425196848
20
-2.1498395669291339
11
5.1445111023622045
21
-2.1491662598425196
0
LINE
8
BLACK
6
CONTINUOUS
10
5.1445111023622045
20
-2.1491662598425196
11
5.1445111023622045
21
-2.1483887007874016
0
LINE
8
BLACK
6
CONTINUOUS
10
5.1445111023622045
20
-2.1483887007874016
11
5.1443098818897637
21
-2.147637755905512
0
LINE
8
BLACK
6
CONTINUOUS
10
5.1443098818897637
20
-2.147637755905512
11
5.1445111023622045
21
-2.1468867716535431
0
LINE
8
BLACK
6
CONTINUOUS
10
5.1445111023622045
20
-2.1468867716535431
11
5.1445111023622045
21
-2.1461093307086614
0
LINE
8
BLACK
6
CONTINUOUS
10
5.1445111023622045
20
-2.1461093307086614
11
5.1445111023622045
21
-2.1461092913385826
0
LINE
8
BLACK
6
CONTINUOUS
10
5.1445111023622045
20
-2.1461092913385826
11
5.144899803149606
21
-2.1454359448818896
0
LINE
8
BLACK
6
CONTINUOUS
10
5.144899803149606
20
-2.1454359448818896
11
5.1451010629921257
21
-2.144685
0
LINE
8
BLACK
6
CONTINUOUS
10
5.1451010629921257
20
-2.144685
11
5.1456508267716536
21
-2.1441351968503937
0
LINE
8
BLACK
6
CONTINUOUS
10
5.1456508267716536
20
-2.1441351968503937
11
5.1460395669291339
21
-2.1434619291338581
0
LINE
8
BLACK
6
CONTINUOUS
10
5.1460395669291339
20
-2.1434619291338581
11
5.1488517322834646
21
-2.1406497637795274
0
LINE
8
BLACK
6
CONTINUOUS
10
5.1488517322834646
20
-2.1406497637795274
11
5.1488517322834646
21
-2.1406497244094487
0
LINE
8
BLACK
6
CONTINUOUS
10
5.1488517322834646
20
-2.1406497244094487
11
5.1488517716535434
21
-2.1406497244094487
0
LINE
8
BLACK
6
CONTINUOUS
10
5.1488517716535434
20
-2.1406497244094487
11
5.1499706692913385
21
-2.1400037401574803
0
LINE
8
BLACK
6
CONTINUOUS
10
5.1499706692913385
20
-2.1400037401574803
11
5.1514990944881891
21
-2.1391212992125985
0
LINE
8
BLACK
6
CONTINUOUS
10
5.1514990944881891
20
-2.1391212992125985
11
5.1545560236220469
21
-2.1391212992125985
0
LINE
8
BLACK
6
CONTINUOUS
10
5.1545560236220469
20
-2.1391212992125985
11
5.1545560629921257
21
-2.1391212992125985
0
LINE
8
BLACK
6
CONTINUOUS
10
5.1545560629921257
20
-2.1391212992125985
11
5.156084527559055
21
-2.140003779527559
0
LINE
8
BLACK
6
CONTINUOUS
10
5.1459021653543306
20
-2.0830283858267715
11
5.1472321259842522
21
-2.0833005511811025
0
LINE
8
BLACK
6
CONTINUOUS
10
5.1472321259842522
20
-2.0833005511811025
11
5.1528564173228348
21
-2.0861127165354332
0
LINE
8
BLACK
6
CONTINUOUS
10
5.1528564173228348
20
-2.0861127165354332
11
5.1535677559055113
21
-2.0867435039370079
0
LINE
8
BLACK
6
CONTINUOUS
10
5.1535677559055113
20
-2.0867435039370079
11
5.1543912204724407
21
-2.087218937007874
0
LINE
8
BLACK
6
CONTINUOUS
10
5.1543912204724407
20
-2.087218937007874
11
5.1572033858267714
21
-2.0900311023622047
0
LINE
8
BLACK
6
CONTINUOUS
10
5.1572033858267714
20
-2.0900311023622047
11
5.15767874015748
21
-2.0908544881889761
0
LINE
8
BLACK
6
CONTINUOUS
10
5.15767874015748
20
-2.0908544881889761
11
5.1583096062992126
21
-2.091565905511811
0
LINE
8
BLACK
6
CONTINUOUS
10
5.1583096062992126
20
-2.091565905511811
11
5.1611217322834646
21
-2.0971902362204724
0
LINE
8
BLACK
6
CONTINUOUS
10
5.1611217322834646
20
-2.0971902362204724
11
5.161393818897638
21
-2.0985199606299214
0
LINE
8
BLACK
6
CONTINUOUS
10
5.161393818897638
20
-2.0985199606299214
11
5.1617451968503936
21
-2.0998312204724408
0
LINE
8
BLACK
6
CONTINUOUS
10
5.1617451968503936
20
-2.0998312204724408
11
5.1617451968503936
21
-2.1138919685039368
0
LINE
8
BLACK
6
CONTINUOUS
10
5.1617451968503936
20
-2.1138919685039368
11
5.161393818897638
21
-2.1152031889763778
0
LINE
8
BLACK
6
CONTINUOUS
10
5.161393818897638
20
-2.1152031889763778
11
5.1611217322834646
21
-2.1165329527559056
0
LINE
8
BLACK
6
CONTINUOUS
10
5.1611217322834646
20
-2.1165329527559056
11
5.1583096062992126
21
-2.122157283464567
0
LINE
8
BLACK
6
CONTINUOUS
10
5.1583096062992126
20
-2.122157283464567
11
5.15767874015748
21
-2.1228686614173227
0
LINE
8
BLACK
6
CONTINUOUS
10
5.15767874015748
20
-2.1228686614173227
11
5.1572033464566926
21
-2.1236921259842521
0
LINE
8
BLACK
6
CONTINUOUS
10
5.1572033464566926
20
-2.1236921259842521
11
5.1543911811023619
21
-2.126504251968504
0
LINE
8
BLACK
6
CONTINUOUS
10
5.1543911811023619
20
-2.126504251968504
11
5.1517438188976374
21
-2.1280326771653542
0
LINE
8
BLACK
6
CONTINUOUS
10
5.1517438188976374
20
-2.1280326771653542
11
5.1486868897637796
21
-2.1280326771653542
0
LINE
8
BLACK
6
CONTINUOUS
10
5.1486868897637796
20
-2.1280326771653542
11
5.1460395275590551
21
-2.1265041732283465
0
LINE
8
BLACK
6
CONTINUOUS
10
5.1460395275590551
20
-2.1265041732283465
11
5.1445111023622045
21
-2.123856811023622
0
LINE
8
BLACK
6
CONTINUOUS
10
5.1445111023622045
20
-2.123856811023622
11
5.1445111023622045
21
-2.1207998818897638
0
LINE
8
BLACK
6
CONTINUOUS
10
5.1445111023622045
20
-2.1207998818897638
11
5.1460396062992126
21
-2.1181525196850393
0
LINE
8
BLACK
6
CONTINUOUS
10
5.1460396062992126
20
-2.1181525196850393
11
5.1481740944881889
21
-2.116018031496063
0
LINE
8
BLACK
6
CONTINUOUS
10
5.1481740944881889
20
-2.116018031496063
11
5.1499341732283463
21
-2.1124978740157481
0
LINE
8
BLACK
6
CONTINUOUS
10
5.1499341732283463
20
-2.1124978740157481
11
5.1499341732283463
21
-2.1012252755905512
0
LINE
8
BLACK
6
CONTINUOUS
10
5.1499341732283463
20
-2.1012252755905512
11
5.1481740551181101
21
-2.0977050787401574
0
LINE
8
BLACK
6
CONTINUOUS
10
5.1481740551181101
20
-2.0977050787401574
11
5.1467172047244096
21
-2.0962482283464565
0
LINE
8
BLACK
6
CONTINUOUS
10
5.1467172047244096
20
-2.0962482283464565
11
5.1431970078740159
21
-2.0944881102362203
0
LINE
8
BLACK
6
CONTINUOUS
10
5.1431970078740159
20
-2.0944881102362203
11
5.1319244488188973
21
-2.0944881102362203
0
LINE
8
BLACK
6
CONTINUOUS
10
5.1319244488188973
20
-2.0944881102362203
11
5.1284042519685036
21
-2.0962481889763778
0
LINE
8
BLACK
6
CONTINUOUS
10
5.1284042519685036
20
-2.0962481889763778
11
5.1269473228346456
21
-2.0977051181102362
0
LINE
8
BLACK
6
CONTINUOUS
10
5.1269473228346456
20
-2.0977051181102362
11
5.1251872834645669
21
-2.1012252755905512
0
LINE
8
BLACK
6
CONTINUOUS
10
5.1251872834645669
20
-2.1012252755905512
11
5.1251872834645669
21
-2.1124978740157481
0
LINE
8
BLACK
6
CONTINUOUS
10
5.1251872834645669
20
-2.1124978740157481
11
5.1269473228346456
21
-2.1160179921259843
0
LINE
8
BLACK
6
CONTINUOUS
10
5.1269473228346456
20
-2.1160179921259843
11
5.1290818503937006
21
-2.1181525196850393
0
LINE
8
BLACK
6
CONTINUOUS
10
5.1290818503937006
20
-2.1181525196850393
11
5.1296143700787402
21
-2.119074842519685
0
LINE
8
BLACK
6
CONTINUOUS
10
5.1296143700787402
20
-2.119074842519685
11
5.1302888188976379
21
-2.1198991732283465
0
LINE
8
BLACK
6
CONTINUOUS
10
5.1302888188976379
20
-2.1198991732283465
11
5.1303672440944883
21
-2.1203788582677165
0
LINE
8
BLACK
6
CONTINUOUS
10
5.1303672440944883
20
-2.1203788582677165
11
5.1306103543307087
21
-2.1207998818897638
0
LINE
8
BLACK
6
CONTINUOUS
10
5.1306103543307087
20
-2.1207998818897638
11
5.1306103543307087
21
-2.1218650393700789
0
LINE
8
BLACK
6
CONTINUOUS
10
5.1306103543307087
20
-2.1218650393700789
11
5.1307822440944877
21
-2.1229159842519683
0
LINE
8
BLACK
6
CONTINUOUS
10
5.1307822440944877
20
-2.1229159842519683
11
5.1306103543307087
21
-2.1233706299212596
0
LINE
8
BLACK
6
CONTINUOUS
10
5.1306103543307087
20
-2.1233706299212596
11
5.1306103543307087
21
-2.123856811023622
0
LINE
8
BLACK
6
CONTINUOUS
10
5.1306103543307087
20
-2.123856811023622
11
5.1300777952755903
21
-2.1247792125984253
0
LINE
8
BLACK
6
CONTINUOUS
10
5.1300777952755903
20
-2.1247792125984253
11
5.1297011811023623
21
-2.1257753937007875
0
LINE
8
BLACK
6
CONTINUOUS
10
5.1297011811023623
20
-2.1257753937007875
11
5.1293249606299209
21
-2.126083188976378
0
LINE
8
BLACK
6
CONTINUOUS
10
5.1293249606299209
20
-2.126083188976378
11
5.1290819291338581
21
-2.1265041732283465
0
LINE
8
BLACK
6
CONTINUOUS
10
5.1290819291338581
20
-2.1265041732283465
11
5.1281594881889765
21
-2.1270367322834645
0
LINE
8
BLACK
6
CONTINUOUS
10
5.1281594881889765
20
-2.1270367322834645
11
5.127335236220472
21
-2.1277111417322834
0
LINE
8
BLACK
6
CONTINUOUS
10
5.127335236220472
20
-2.1277111417322834
11
5.1268555511811025
21
-2.1277895669291338
0
LINE
8
BLACK
6
CONTINUOUS
10
5.1268555511811025
20
-2.1277895669291338
11
5.1264345669291336
21
-2.1280326771653542
0
LINE
8
BLACK
6
CONTINUOUS
10
5.1264345669291336
20
-2.1280326771653542
11
5.1253695275590552
21
-2.1280326771653542
0
LINE
8
BLACK
6
CONTINUOUS
10
5.1253695275590552
20
-2.1280326771653542
11
5.1243184251968499
21
-2.1282046062992124
0
LINE
8
BLACK
6
CONTINUOUS
10
5.1243184251968499
20
-2.1282046062992124
11
5.0961969685039366
21
-2.1253924803149604
0
LINE
8
BLACK
6
CONTINUOUS
10
5.0961969685039366
20
-2.1253924803149604
11
5.0950332283464563
21
-2.1249524803149606
0
LINE
8
BLACK
6
CONTINUOUS
10
5.0950332283464563
20
-2.1249524803149606
11
5.0938318110236223
21
-2.1246305905511811
0
LINE
8
BLACK
6
CONTINUOUS
10
5.0938318110236223
20
-2.1246305905511811
11
5.0936190551181104
21
-2.1244178346456692
0
LINE
8
BLACK
6
CONTINUOUS
10
5.0936190551181104
20
-2.1244178346456692
11
5.0933375590551178
21
-2.1243114173228346
0
LINE
8
BLACK
6
CONTINUOUS
10
5.0933375590551178
20
-2.1243114173228346
11
5.0925497244094489
21
-2.1233485039370077
0
LINE
8
BLACK
6
CONTINUOUS
10
5.0925497244094489
20
-2.1233485039370077
11
5.0916702362204722
21
-2.1224690157480315
0
LINE
8
BLACK
6
CONTINUOUS
10
5.0916702362204722
20
-2.1224690157480315
11
5.0915923228346456
21
-2.122178346456693
0
LINE
8
BLACK
6
CONTINUOUS
10
5.0915923228346456
20
-2.122178346456693
11
5.0914018110236219
21
-2.1219454724409448
0
LINE
8
BLACK
6
CONTINUOUS
10
5.0914018110236219
20
-2.1219454724409448
11
5.0912009842519685
21
-2.1207177165354332
0
LINE
8
BLACK
6
CONTINUOUS
10
5.0912009842519685
20
-2.1207177165354332
11
5.0908790551181102
21
-2.1195162598425195
0
LINE
8
BLACK
6
CONTINUOUS
10
5.0908790551181102
20
-2.1195162598425195
11
5.0908790551181102
21
-2.0913947637795274
0
LINE
8
BLACK
6
CONTINUOUS
10
5.0908790551181102
20
-2.0913947637795274
11
5.0916702362204722
21
-2.0884420078740158
0
LINE
8
BLACK
6
CONTINUOUS
10
5.0916702362204722
20
-2.0884420078740158
11
5.0938318110236223
21
-2.0862804330708662
0
LINE
8
BLACK
6
CONTINUOUS
10
5.0938318110236223
20
-2.0862804330708662
11
5.0967845669291334
21
-2.0854892519685038
0
LINE
8
BLACK
6
CONTINUOUS
10
5.0967845669291334
20
-2.0854892519685038
11
5.0997373228346454
21
-2.0862804330708662
0
LINE
8
BLACK
6
CONTINUOUS
10
5.0997373228346454
20
-2.0862804330708662
11
5.1018988976377955
21
-2.0884420078740158
0
LINE
8
BLACK
6
CONTINUOUS
10
5.1018988976377955
20
-2.0884420078740158
11
5.1026900787401575
21
-2.0913947637795274
0
LINE
8
BLACK
6
CONTINUOUS
10
5.1026900787401575
20
-2.0913947637795274
11
5.1026900787401575
21
-2.1141718110236218
0
LINE
8
BLACK
6
CONTINUOUS
10
5.1026900787401575
20
-2.1141718110236218
11
5.1137426771653542
21
-2.1152770472440943
0
LINE
8
BLACK
6
CONTINUOUS
10
5.1137426771653542
20
-2.1152770472440943
11
5.1137275590551177
21
-2.1152031102362203
0
LINE
8
BLACK
6
CONTINUOUS
10
5.1137275590551177
20
-2.1152031102362203
11
5.1133762598425196
21
-2.1138919685039368
0
LINE
8
BLACK
6
CONTINUOUS
10
5.1133762598425196
20
-2.1138919685039368
11
5.1133762598425196
21
-2.0998312204724408
0
LINE
8
BLACK
6
CONTINUOUS
10
5.1133762598425196
20
-2.0998312204724408
11
5.1137275590551177
21
-2.0985200393700785
0
LINE
8
BLACK
6
CONTINUOUS
10
5.1137275590551177
20
-2.0985200393700785
11
5.1139997244094486
21
-2.0971901968503937
0
LINE
8
BLACK
6
CONTINUOUS
10
5.1139997244094486
20
-2.0971901968503937
11
5.1168118503937006
21
-2.091565905511811
0
LINE
8
BLACK
6
CONTINUOUS
10
5.1168118503937006
20
-2.091565905511811
11
5.1174426771653545
21
-2.0908544881889761
0
LINE
8
BLACK
6
CONTINUOUS
10
5.1174426771653545
20
-2.0908544881889761
11
5.1179180708661418
21
-2.0900311023622047
0
LINE
8
BLACK
6
CONTINUOUS
10
5.1179180708661418
20
-2.0900311023622047
11
5.1207302362204725
21
-2.087218937007874
0
LINE
8
BLACK
6
CONTINUOUS
10
5.1207302362204725
20
-2.087218937007874
11
5.1215536614173232
21
-2.0867435039370079
0
LINE
8
BLACK
6
CONTINUOUS
10
5.1215536614173232
20
-2.0867435039370079
11
5.1222650393700784
21
-2.0861127165354332
0
LINE
8
BLACK
6
CONTINUOUS
10
5.1222650393700784
20
-2.0861127165354332
11
5.1278892913385823
21
-2.0833005511811025
0
LINE
8
BLACK
6
CONTINUOUS
10
5.1278892913385823
20
-2.0833005511811025
11
5.1292192913385826
21
-2.0830283464566928
0
LINE
8
BLACK
6
CONTINUOUS
10
5.1292192913385826
20
-2.0830283464566928
11
5.1305303543307081
21
-2.0826770866141731
0
LINE
8
BLACK
6
CONTINUOUS
10
5.1305303543307081
20
-2.0826770866141731
11
5.1445911023622042
21
-2.0826770866141731
0
LINE
8
BLACK
6
CONTINUOUS
10
5.1445911023622042
20
-2.0826770866141731
11
5.1459021653543306
21
-2.0830283858267715
0
LINE
8
BLACK
6
CONTINUOUS
10
5.1121563779527559
20
-2.0267854330708661
11
5.1134863385826774
21
-2.0270575984251966
0
LINE
8
BLACK
6
CONTINUOUS
10
5.1134863385826774
20
-2.0270575984251966
11
5.1191106299212601
21
-2.0298697637795273
0
LINE
8
BLACK
6
CONTINUOUS
10
5.1191106299212601
20
-2.0298697637795273
11
5.1198219685039366
21
-2.0305005511811025
0
LINE
8
BLACK
6
CONTINUOUS
10
5.1198219685039366
20
-2.0305005511811025
11
5.1206454330708659
21
-2.0309759842519686
0
LINE
8
BLACK
6
CONTINUOUS
10
5.1206454330708659
20
-2.0309759842519686
11
5.1220938976377948
21
-2.0324244488188974
0
LINE
8
BLACK
6
CONTINUOUS
10
5.1220938976377948
20
-2.0324244488188974
11
5.1235423228346457
21
-2.0309760236220473
0
LINE
8
BLACK
6
CONTINUOUS
10
5.1235423228346457
20
-2.0309760236220473
11
5.1243657480314964
21
-2.0305005905511813
0
LINE
8
BLACK
6
CONTINUOUS
10
5.1243657480314964
20
-2.0305005905511813
11
5.1250771653543303
21
-2.0298697637795273
0
LINE
8
BLACK
6
CONTINUOUS
10
5.1250771653543303
20
-2.0298697637795273
11
5.1307014960629918
21
-2.0270575984251966
0
LINE
8
BLACK
6
CONTINUOUS
10
5.1307014960629918
20
-2.0270575984251966
11
5.1320314173228345
21
-2.0267854330708661
0
LINE
8
BLACK
6
CONTINUOUS
10
5.1320314173228345
20
-2.0267854330708661
11
5.1333425196850389
21
-2.0264341338582676
0
LINE
8
BLACK
6
CONTINUOUS
10
5.1333425196850389
20
-2.0264341338582676
11
5.1445911023622042
21
-2.0264341338582676
0
LINE
8
BLACK
6
CONTINUOUS
10
5.1445911023622042
20
-2.0264341338582676
11
5.1459021653543306
21
-2.0267854330708661
0
LINE
8
BLACK
6
CONTINUOUS
10
5.1459021653543306
20
-2.0267854330708661
11
5.1472321259842522
21
-2.0270575984251966
0
LINE
8
BLACK
6
CONTINUOUS
10
5.1472321259842522
20
-2.0270575984251966
11
5.1528564173228348
21
-2.0298697637795273
0
LINE
8
BLACK
6
CONTINUOUS
10
5.1528564173228348
20
-2.0298697637795273
11
5.1535677559055113
21
-2.0305005511811025
0
LINE
8
BLACK
6
CONTINUOUS
10
5.1535677559055113
20
-2.0305005511811025
11
5.1543912204724407
21
-2.0309759842519686
0
LINE
8
BLACK
6
CONTINUOUS
10
5.1543912204724407
20
-2.0309759842519686
11
5.1572033858267714
21
-2.0337881496062993
0
LINE
8
BLACK
6
CONTINUOUS
10
5.1572033858267714
20
-2.0337881496062993
11
5.15767874015748
21
-2.0346115354330707
0
LINE
8
BLACK
6
CONTINUOUS
10
5.15767874015748
20
-2.0346115354330707
11
5.1583096062992126
21
-2.0353229527559056
0
LINE
8
BLACK
6
CONTINUOUS
10
5.1583096062992126
20
-2.0353229527559056
11
5.1611217322834646
21
-2.040947283464567
0
LINE
8
BLACK
6
CONTINUOUS
10
5.1611217322834646
20
-2.040947283464567
11
5.161393818897638
21
-2.0422770078740156
0
LINE
8
BLACK
6
CONTINUOUS
10
5.161393818897638
20
-2.0422770078740156
11
5.1617451968503936
21
-2.0435882677165353
0
LINE
8
BLACK
6
CONTINUOUS
10
5.1617451968503936
20
-2.0435882677165353
11
5.1617451968503936
21
-2.0548368503937007
0
LINE
8
BLACK
6
CONTINUOUS
10
5.1617451968503936
20
-2.0548368503937007
11
5.161393818897638
21
-2.0561480708661417
0
LINE
8
BLACK
6
CONTINUOUS
10
5.161393818897638
20
-2.0561480708661417
11
5.1611217322834646
21
-2.057477834645669
0
LINE
8
BLACK
6
CONTINUOUS
10
5.1611217322834646
20
-2.057477834645669
11
5.1583096062992126
21
-2.0631021653543304
0
LINE
8
BLACK
6
CONTINUOUS
10
5.1583096062992126
20
-2.0631021653543304
11
5.15767874015748
21
-2.0638135433070866
0
LINE
8
BLACK
6
CONTINUOUS
10
5.15767874015748
20
-2.0638135433070866
11
5.1572033858267714
21
-2.0646369685039367
0
LINE
8
BLACK
6
CONTINUOUS
10
5.1572033858267714
20
-2.0646369685039367
11
5.1543912204724407
21
-2.0674491338582675
0
LINE
8
BLACK
6
CONTINUOUS
10
5.1543912204724407
20
-2.0674491338582675
11
5.1535677952755901
21
-2.0679244881889765
0
LINE
8
BLACK
6
CONTINUOUS
10
5.1535677952755901
20
-2.0679244881889765
11
5.1528564173228348
21
-2.0685553543307087
0
LINE
8
BLACK
6
CONTINUOUS
10
5.1528564173228348
20
-2.0685553543307087
11
5.1472321259842522
21
-2.0713674803149607
0
LINE
8
BLACK
6
CONTINUOUS
10
5.1472321259842522
20
-2.0713674803149607
11
5.1459022440944882
21
-2.0716396062992124
0
LINE
8
BLACK
6
CONTINUOUS
10
5.1459022440944882
20
-2.0716396062992124
11
5.1445911023622042
21
-2.0719909448818896
0
LINE
8
BLACK
6
CONTINUOUS
10
5.1445911023622042
20
-2.0719909448818896
11
5.1333425196850389
21
-2.0719909448818896
0
LINE
8
BLACK
6
CONTINUOUS
10
5.1333425196850389
20
-2.0719909448818896
11
5.1320316141732283
21
-2.0716396850393699
0
LINE
8
BLACK
6
CONTINUOUS
10
5.1320316141732283
20
-2.0716396850393699
11
5.1307015354330705
21
-2.0713675196850394
0
LINE
8
BLACK
6
CONTINUOUS
10
5.1307015354330705
20
-2.0713675196850394
11
5.1250772047244091
21
-2.0685553543307087
0
LINE
8
BLACK
6
CONTINUOUS
10
5.1250772047244091
20
-2.0685553543307087
11
5.1243658267716539
21
-2.067924566929134
0
LINE
8
BLACK
6
CONTINUOUS
10
5.1243658267716539
20
-2.067924566929134
11
5.1235423228346457
21
-2.0674490944881891
0
LINE
8
BLACK
6
CONTINUOUS
10
5.1235423228346457
20
-2.0674490944881891
11
5.1220938976377948
21
-2.0660006299212599
0
LINE
8
BLACK
6
CONTINUOUS
10
5.1220938976377948
20
-2.0660006299212599
11
5.1206454330708659
21
-2.0674491338582675
0
LINE
8
BLACK
6
CONTINUOUS
10
5.1206454330708659
20
-2.0674491338582675
11
5.1198220078740153
21
-2.0679244881889765
0
LINE
8
BLACK
6
CONTINUOUS
10
5.1198220078740153
20
-2.0679244881889765
11
5.1191106299212601
21
-2.0685553543307087
0
LINE
8
BLACK
6
CONTINUOUS
10
5.1191106299212601
20
-2.0685553543307087
11
5.1134863385826774
21
-2.0713674803149607
0
LINE
8
BLACK
6
CONTINUOUS
10
5.1134863385826774
20
-2.0713674803149607
11
5.1121564566929134
21
-2.0716396062992124
0
LINE
8
BLACK
6
CONTINUOUS
10
5.1121564566929134
20
-2.0716396062992124
11
5.1108453149606294
21
-2.0719909448818896
0
LINE
8
BLACK
6
CONTINUOUS
10
5.1108453149606294
20
-2.0719909448818896
11
5.1080331496062987
21
-2.0719909448818896
0
LINE
8
BLACK
6
CONTINUOUS
10
5.1080331496062987
20
-2.0719909448818896
11
5.1067218897637794
21
-2.0716395669291336
0
LINE
8
BLACK
6
CONTINUOUS
10
5.1067218897637794
20
-2.0716395669291336
11
5.1053921653543304
21
-2.0713674803149607
0
LINE
8
BLACK
6
CONTINUOUS
10
5.1053921653543304
20
-2.0713674803149607
11
5.099767834645669
21
-2.0685553543307087
0
LINE
8
BLACK
6
CONTINUOUS
10
5.099767834645669
20
-2.0685553543307087
11
5.0990564173228341
21
-2.0679244881889765
0
LINE
8
BLACK
6
CONTINUOUS
10
5.0990564173228341
20
-2.0679244881889765
11
5.0982329921259844
21
-2.0674490944881891
0
LINE
8
BLACK
6
CONTINUOUS
10
5.0982329921259844
20
-2.0674490944881891
11
5.0954208661417324
21
-2.0646369291338584
0
LINE
8
BLACK
6
CONTINUOUS
10
5.0954208661417324
20
-2.0646369291338584
11
5.0949454724409451
21
-2.0638135039370078
0
LINE
8
BLACK
6
CONTINUOUS
10
5.0949454724409451
20
-2.0638135039370078
11
5.0943146850393699
21
-2.0631021653543304
0
LINE
8
BLACK
6
CONTINUOUS
10
5.0943146850393699
20
-2.0631021653543304
11
5.0915025196850392
21
-2.0574778740157478
0
LINE
8
BLACK
6
CONTINUOUS
10
5.0915025196850392
20
-2.0574778740157478
11
5.0912303543307083
21
-2.0561479133858267
0
LINE
8
BLACK
6
CONTINUOUS
10
5.0912303543307083
20
-2.0561479133858267
11
5.0908790551181102
21
-2.0548368503937007
0
LINE
8
BLACK
6
CONTINUOUS
10
5.0908790551181102
20
-2.0548368503937007
11
5.0908790551181102
21
-2.0435882677165353
0
LINE
8
BLACK
6
CONTINUOUS
10
5.0908790551181102
20
-2.0435882677165353
11
5.0912303543307083
21
-2.0422771653543306
0
LINE
8
BLACK
6
CONTINUOUS
10
5.0912303543307083
20
-2.0422771653543306
11
5.0915025196850392
21
-2.0409472440944882
0
LINE
8
BLACK
6
CONTINUOUS
10
5.0915025196850392
20
-2.0409472440944882
11
5.0943146850393699
21
-2.0353229527559056
0
LINE
8
BLACK
6
CONTINUOUS
10
5.0943146850393699
20
-2.0353229527559056
11
5.0949454724409451
21
-2.0346115748031495
0
LINE
8
BLACK
6
CONTINUOUS
10
5.0949454724409451
20
-2.0346115748031495
11
5.0954208661417324
21
-2.033788188976378
0
LINE
8
BLACK
6
CONTINUOUS
10
5.0954208661417324
20
-2.033788188976378
11
5.0982329921259844
21
-2.0309760236220473
0
LINE
8
BLACK
6
CONTINUOUS
10
5.0982329921259844
20
-2.0309760236220473
11
5.0990564566929129
21
-2.0305005511811025
0
LINE
8
BLACK
6
CONTINUOUS
10
5.0990564566929129
20
-2.0305005511811025
11
5.099767834645669
21
-2.0298697637795273
0
LINE
8
BLACK
6
CONTINUOUS
10
5.099767834645669
20
-2.0298697637795273
11
5.1053920866141729
21
-2.0270575984251966
0
LINE
8
BLACK
6
CONTINUOUS
10
5.1053920866141729
20
-2.0270575984251966
11
5.1067220866141732
21
-2.0267853937007874
0
LINE
8
BLACK
6
CONTINUOUS
10
5.1067220866141732
20
-2.0267853937007874
11
5.1080331496062987
21
-2.0264341338582676
0
LINE
8
BLACK
6
CONTINUOUS
10
5.1080331496062987
20
-2.0264341338582676
11
5.1108453149606294
21
-2.0264341338582676
0
LINE
8
BLACK
6
CONTINUOUS
10
5.1108453149606294
20
-2.0264341338582676
11
5.1121563779527559
21
-2.0267854330708661
0
LINE
8
BLACK
6
CONTINUOUS
10
5.1059070472440942
20
-2.0400052362204724
11
5.1044501968503937
21
-2.0414620866141733
0
LINE
8
BLACK
6
CONTINUOUS
10
5.1044501968503937
20
-2.0414620866141733
11
5.1026900787401575
21
-2.0449823622047245
0
LINE
8
BLACK
6
CONTINUOUS
10
5.1026900787401575
20
-2.0449823622047245
11
5.1026900787401575
21
-2.0534427165354332
0
LINE
8
BLACK
6
CONTINUOUS
10
5.1026900787401575
20
-2.0534427165354332
11
5.1044501968503937
21
-2.056962992125984
0
LINE
8
BLACK
6
CONTINUOUS
10
5.1044501968503937
20
-2.056962992125984
11
5.1059070472440942
21
-2.0584198425196849
0
LINE
8
BLACK
6
CONTINUOUS
10
5.1059070472440942
20
-2.0584198425196849
11
5.1094272440944879
21
-2.0601799212598424
0
LINE
8
BLACK
6
CONTINUOUS
10
5.1094272440944879
20
-2.0601799212598424
11
5.1094512204724412
21
-2.0601799212598424
0
LINE
8
BLACK
6
CONTINUOUS
10
5.1094512204724412
20
-2.0601799212598424
11
5.1129713779527561
21
-2.0584198425196849
0
LINE
8
BLACK
6
CONTINUOUS
10
5.1129713779527561
20
-2.0584198425196849
11
5.1144282677165354
21
-2.0569629527559057
0
LINE
8
BLACK
6
CONTINUOUS
10
5.1144282677165354
20
-2.0569629527559057
11
5.1161883858267716
21
-2.053442755905512
0
LINE
8
BLACK
6
CONTINUOUS
10
5.1161883858267716
20
-2.053442755905512
11
5.1161883858267716
21
-2.0449823228346458
0
LINE
8
BLACK
6
CONTINUOUS
10
5.1161883858267716
20
-2.0449823228346458
11
5.1144282677165354
21
-2.041462125984252
0
LINE
8
BLACK
6
CONTINUOUS
10
5.1144282677165354
20
-2.041462125984252
11
5.1129714173228349
21
-2.0400052755905511
0
LINE
8
BLACK
6
CONTINUOUS
10
5.1129714173228349
20
-2.0400052755905511
11
5.1094512204724412
21
-2.0382451574803149
0
LINE
8
BLACK
6
CONTINUOUS
10
5.1094512204724412
20
-2.0382451574803149
11
5.1094272440944879
21
-2.0382451574803149
0
LINE
8
BLACK
6
CONTINUOUS
10
5.1094272440944879
20
-2.0382451574803149
11
5.1059070472440942
21
-2.0400052362204724
0
LINE
8
BLACK
6
CONTINUOUS
10
5.1312163779527555
20
-2.0400052362204724
11
5.1297595275590551
21
-2.0414620866141733
0
LINE
8
BLACK
6
CONTINUOUS
10
5.1297595275590551
20
-2.0414620866141733
11
5.1279994094488188
21
-2.0449823622047245
0
LINE
8
BLACK
6
CONTINUOUS
10
5.1279994094488188
20
-2.0449823622047245
11
5.1279994094488188
21
-2.0534427165354332
0
LINE
8
BLACK
6
CONTINUOUS
10
5.1279994094488188
20
-2.0534427165354332
11
5.1297595275590551
21
-2.056962992125984
0
LINE
8
BLACK
6
CONTINUOUS
10
5.1297595275590551
20
-2.056962992125984
11
5.1312164173228343
21
-2.0584198425196849
0
LINE
8
BLACK
6
CONTINUOUS
10
5.1312164173228343
20
-2.0584198425196849
11
5.1347365748031493
21
-2.0601799212598424
0
LINE
8
BLACK
6
CONTINUOUS
10
5.1347365748031493
20
-2.0601799212598424
11
5.1431970078740159
21
-2.0601799212598424
0
LINE
8
BLACK
6
CONTINUOUS
10
5.1431970078740159
20
-2.0601799212598424
11
5.1467171653543309
21
-2.0584198425196849
0
LINE
8
BLACK
6
CONTINUOUS
10
5.1467171653543309
20
-2.0584198425196849
11
5.1481740551181101
21
-2.0569629527559057
0
LINE
8
BLACK
6
CONTINUOUS
10
5.1481740551181101
20
-2.0569629527559057
11
5.1499341732283463
21
-2.053442755905512
0
LINE
8
BLACK
6
CONTINUOUS
10
5.1499341732283463
20
-2.053442755905512
11
5.1499341732283463
21
-2.0449823228346458
0
LINE
8
BLACK
6
CONTINUOUS
10
5.1499341732283463
20
-2.0449823228346458
11
5.1481740551181101
21
-2.041462125984252
0
LINE
8
BLACK
6
CONTINUOUS
10
5.1481740551181101
20
-2.041462125984252
11
5.1467172047244096
21
-2.0400052755905511
0
LINE
8
BLACK
6
CONTINUOUS
10
5.1467172047244096
20
-2.0400052755905511
11
5.1431970078740159
21
-2.0382451574803149
0
LINE
8
BLACK
6
CONTINUOUS
10
5.1431970078740159
20
-2.0382451574803149
11
5.134736614173228
21
-2.0382451574803149
0
LINE
8
BLACK
6
CONTINUOUS
10
5.134736614173228
20
-2.0382451574803149
11
5.1312163779527555
21
-2.0400052362204724
0
LINE
8
BLACK
6
CONTINUOUS
10
5.1340462992125984
20
-1.9703797637795275
11
5.1347748425196853
21
-1.9703675196850394
0
LINE
8
BLACK
6
CONTINUOUS
10
5.1347748425196853
20
-1.9703675196850394
11
5.1460233858267719
21
-1.9731796850393701
0
LINE
8
BLACK
6
CONTINUOUS
10
5.1460233858267719
20
-1.9731796850393701
11
5.1465933464566929
21
-1.9734960629921259
0
LINE
8
BLACK
6
CONTINUOUS
10
5.1465933464566929
20
-1.9734960629921259
11
5.1472321259842522
21
-1.9736268110236219
0
LINE
8
BLACK
6
CONTINUOUS
10
5.1472321259842522
20
-1.9736268110236219
11
5.1528564173228348
21
-1.9764389763779526
0
LINE
8
BLACK
6
CONTINUOUS
10
5.1528564173228348
20
-1.9764389763779526
11
5.1535677559055113
21
-1.9770697637795276
0
LINE
8
BLACK
6
CONTINUOUS
10
5.1535677559055113
20
-1.9770697637795276
11
5.1543911811023619
21
-1.9775451574803149
0
LINE
8
BLACK
6
CONTINUOUS
10
5.1543911811023619
20
-1.9775451574803149
11
5.1572033464566926
21
-1.9803572834645669
0
LINE
8
BLACK
6
CONTINUOUS
10
5.1572033464566926
20
-1.9803572834645669
11
5.15767874015748
21
-1.9811807086614173
0
LINE
8
BLACK
6
CONTINUOUS
10
5.15767874015748
20
-1.9811807086614173
11
5.1583096062992126
21
-1.9818921259842519
0
LINE
8
BLACK
6
CONTINUOUS
10
5.1583096062992126
20
-1.9818921259842519
11
5.1611217322834646
21
-1.9875164566929133
0
LINE
8
BLACK
6
CONTINUOUS
10
5.1611217322834646
20
-1.9875164566929133
11
5.161393818897638
21
-1.9888461811023621
0
LINE
8
BLACK
6
CONTINUOUS
10
5.161393818897638
20
-1.9888461811023621
11
5.1617451968503936
21
-1.9901574409448819
0
LINE
8
BLACK
6
CONTINUOUS
10
5.1617451968503936
20
-1.9901574409448819
11
5.1617451968503936
21
-1.9957817322834646
0
LINE
8
BLACK
6
CONTINUOUS
10
5.1617451968503936
20
-1.9957817322834646
11
5.1613939370078743
21
-1.9970925984251968
0
LINE
8
BLACK
6
CONTINUOUS
10
5.1613939370078743
20
-1.9970925984251968
11
5.1611217716535434
21
-1.9984227165354331
0
LINE
8
BLACK
6
CONTINUOUS
10
5.1611217716535434
20
-1.9984227165354331
11
5.1583096062992126
21
-2.0040470472440943
0
LINE
8
BLACK
6
CONTINUOUS
10
5.1583096062992126
20
-2.0040470472440943
11
5.1576788188976375
21
-2.0047583858267717
0
LINE
8
BLACK
6
CONTINUOUS
10
5.1576788188976375
20
-2.0047583858267717
11
5.1572033464566926
21
-2.0055819291338581
0
LINE
8
BLACK
6
CONTINUOUS
10
5.1572033464566926
20
-2.0055819291338581
11
5.1543911811023619
21
-2.0083940551181101
0
LINE
8
BLACK
6
CONTINUOUS
10
5.1543911811023619
20
-2.0083940551181101
11
5.1535677559055113
21
-2.0088694094488186
0
LINE
8
BLACK
6
CONTINUOUS
10
5.1535677559055113
20
-2.0088694094488186
11
5.1528564173228348
21
-2.0095002362204726
0
LINE
8
BLACK
6
CONTINUOUS
10
5.1528564173228348
20
-2.0095002362204726
11
5.1472321259842522
21
-2.0123124015748033
0
LINE
8
BLACK
6
CONTINUOUS
10
5.1472321259842522
20
-2.0123124015748033
11
5.1465933464566929
21
-2.0124431102362204
0
LINE
8
BLACK
6
CONTINUOUS
10
5.1465933464566929
20
-2.0124431102362204
11
5.1460233858267719
21
-2.0127595275590551
0
LINE
8
BLACK
6
CONTINUOUS
10
5.1460233858267719
20
-2.0127595275590551
11
5.1347748031496065
21
-2.015571653543307
0
LINE
8
BLACK
6
CONTINUOUS
10
5.1347748031496065
20
-2.015571653543307
11
5.1340463385826771
21
-2.0155593700787402
0
LINE
8
BLACK
6
CONTINUOUS
10
5.1340463385826771
20
-2.0155593700787402
11
5.1333425196850389
21
-2.0157479921259842
0
LINE
8
BLACK
6
CONTINUOUS
10
5.1333425196850389
20
-2.0157479921259842
11
5.1192817716535428
21
-2.0157479921259842
0
LINE
8
BLACK
6
CONTINUOUS
10
5.1192817716535428
20
-2.0157479921259842
11
5.1185779133858267
21
-2.0155593700787402
0
LINE
8
BLACK
6
CONTINUOUS
10
5.1185779133858267
20
-2.0155593700787402
11
5.117849488188976
21
-2.015571653543307
0
LINE
8
BLACK
6
CONTINUOUS
10
5.117849488188976
20
-2.015571653543307
11
5.1066008661417319
21
-2.0127595275590551
0
LINE
8
BLACK
6
CONTINUOUS
10
5.1066008661417319
20
-2.0127595275590551
11
5.1060309055118109
21
-2.0124431102362204
0
LINE
8
BLACK
6
CONTINUOUS
10
5.1060309055118109
20
-2.0124431102362204
11
5.1053920866141729
21
-2.0123124015748033
0
LINE
8
BLACK
6
CONTINUOUS
10
5.1053920866141729
20
-2.0123124015748033
11
5.099767834645669
21
-2.0095002362204726
0
LINE
8
BLACK
6
CONTINUOUS
10
5.099767834645669
20
-2.0095002362204726
11
5.0990564566929129
21
-2.0088694094488186
0
LINE
8
BLACK
6
CONTINUOUS
10
5.0990564566929129
20
-2.0088694094488186
11
5.0982330314960631
21
-2.0083940157480313
0
LINE
8
BLACK
6
CONTINUOUS
10
5.0982330314960631
20
-2.0083940157480313
11
5.0954209055118111
21
-2.0055818897637794
0
LINE
8
BLACK
6
CONTINUOUS
10
5.0954209055118111
20
-2.0055818897637794
11
5.0949455118110238
21
-2.0047584645669292
0
LINE
8
BLACK
6
CONTINUOUS
10
5.0949455118110238
20
-2.0047584645669292
11
5.0943146850393699
21
-2.0040470866141731
0
LINE
8
BLACK
6
CONTINUOUS
10
5.0943146850393699
20
-2.0040470866141731
11
5.0915025196850392
21
-1.9984227559055117
0
LINE
8
BLACK
6
CONTINUOUS
10
5.0915025196850392
20
-1.9984227559055117
11
5.0912303543307083
21
-1.9970927952755906
0
LINE
8
BLACK
6
CONTINUOUS
10
5.0912303543307083
20
-1.9970927952755906
11
5.0908790551181102
21
-1.9957817322834646
0
LINE
8
BLACK
6
CONTINUOUS
10
5.0908790551181102
20
-1.9957817322834646
11
5.0908790551181102
21
-1.9901574409448819
0
LINE
8
BLACK
6
CONTINUOUS
10
5.0908790551181102
20
-1.9901574409448819
11
5.0912303543307083
21
-1.9888463385826771
0
LINE
8
BLACK
6
CONTINUOUS
10
5.0912303543307083
20
-1.9888463385826771
11
5.0915025196850392
21
-1.9875164173228346
0
LINE
8
BLACK
6
CONTINUOUS
10
5.0915025196850392
20
-1.9875164173228346
11
5.0943146850393699
21
-1.9818921259842519
0
LINE
8
BLACK
6
CONTINUOUS
10
5.0943146850393699
20
-1.9818921259842519
11
5.0949454724409451
21
-1.981180748031496
0
LINE
8
BLACK
6
CONTINUOUS
10
5.0949454724409451
20
-1.981180748031496
11
5.0954209055118111
21
-1.9803573228346456
0
LINE
8
BLACK
6
CONTINUOUS
10
5.0954209055118111
20
-1.9803573228346456
11
5.0982330314960631
21
-1.9775451968503936
0
LINE
8
BLACK
6
CONTINUOUS
10
5.0982330314960631
20
-1.9775451968503936
11
5.0990564566929129
21
-1.9770697637795276
0
LINE
8
BLACK
6
CONTINUOUS
10
5.0990564566929129
20
-1.9770697637795276
11
5.099767834645669
21
-1.9764389763779526
0
LINE
8
BLACK
6
CONTINUOUS
10
5.099767834645669
20
-1.9764389763779526
11
5.1053920866141729
21
-1.9736268110236219
0
LINE
8
BLACK
6
CONTINUOUS
10
5.1053920866141729
20
-1.9736268110236219
11
5.1060309055118109
21
-1.9734960629921259
0
LINE
8
BLACK
6
CONTINUOUS
10
5.1060309055118109
20
-1.9734960629921259
11
5.1066008661417319
21
-1.9731796850393701
0
LINE
8
BLACK
6
CONTINUOUS
10
5.1066008661417319
20
-1.9731796850393701
11
5.1178494488188973
21
-1.9703675196850394
0
LINE
8
BLACK
6
CONTINUOUS
10
5.1178494488188973
20
-1.9703675196850394
11
5.1185779527559054
21
-1.9703797637795275
0
LINE
8
BLACK
6
CONTINUOUS
10
5.1185779527559054
20
-1.9703797637795275
11
5.1192817716535428
21
-1.9701911811023622
0
LINE
8
BLACK
6
CONTINUOUS
10
5.1192817716535428
20
-1.9701911811023622
11
5.1333425196850389
21
-1.9701911811023622
0
LINE
8
BLACK
6
CONTINUOUS
10
5.1333425196850389
20
-1.9701911811023622
11
5.1340462992125984
21
-1.9703797637795275
0
LINE
8
BLACK
6
CONTINUOUS
10
5.110094409448819
20
-1.9844807480314961
11
5.1059070472440942
21
-1.9865744488188977
0
LINE
8
BLACK
6
CONTINUOUS
10
5.1059070472440942
20
-1.9865744488188977
11
5.1044501968503937
21
-1.9880312992125984
0
LINE
8
BLACK
6
CONTINUOUS
10
5.1044501968503937
20
-1.9880312992125984
11
5.1026900787401575
21
-1.9915515354330708
0
LINE
8
BLACK
6
CONTINUOUS
10
5.1026900787401575
20
-1.9915515354330708
11
5.1026900787401575
21
-1.9943876377952756
0
LINE
8
BLACK
6
CONTINUOUS
10
5.1026900787401575
20
-1.9943876377952756
11
5.1044501968503937
21
-1.9979078740157479
0
LINE
8
BLACK
6
CONTINUOUS
10
5.1044501968503937
20
-1.9979078740157479
11
5.1059070472440942
21
-1.9993647244094488
0
LINE
8
BLACK
6
CONTINUOUS
10
5.1059070472440942
20
-1.9993647244094488
11
5.110094409448819
21
-2.0014583858267718
0
LINE
8
BLACK
6
CONTINUOUS
10
5.110094409448819
20
-2.0014583858267718
11
5.1200087007874018
21
-2.003936968503937
0
LINE
8
BLACK
6
CONTINUOUS
10
5.1200087007874018
20
-2.003936968503937
11
5.1326155905511808
21
-2.003936968503937
0
LINE
8
BLACK
6
CONTINUOUS
10
5.1326155905511808
20
-2.003936968503937
11
5.1425298031496061
21
-2.0014584251968501
0
LINE
8
BLACK
6
CONTINUOUS
10
5.1425298031496061
20
-2.0014584251968501
11
5.1467172440944884
21
-1.99936468503937
0
LINE
8
BLACK
6
CONTINUOUS
10
5.1467172440944884
20
-1.99936468503937
11
5.1481740944881889
21
-1.9979077952755906
0
LINE
8
BLACK
6
CONTINUOUS
10
5.1481740944881889
20
-1.9979077952755906
11
5.1499341732283463
21
-1.9943876377952756
0
LINE
8
BLACK
6
CONTINUOUS
10
5.1499341732283463
20
-1.9943876377952756
11
5.1499341732283463
21
-1.9915514960629921
0
LINE
8
BLACK
6
CONTINUOUS
10
5.1499341732283463
20
-1.9915514960629921
11
5.1481740944881889
21
-1.9880313385826771
0
LINE
8
BLACK
6
CONTINUOUS
10
5.1481740944881889
20
-1.9880313385826771
11
5.1467172440944884
21
-1.9865744881889764
0
LINE
8
BLACK
6
CONTINUOUS
10
5.1467172440944884
20
-1.9865744881889764
11
5.1425298425196848
21
-1.9844807874015749
0
LINE
8
BLACK
6
CONTINUOUS
10
5.1425298425196848
20
-1.9844807874015749
11
5.132615551181102
21
-1.9820022047244095
0
LINE
8
BLACK
6
CONTINUOUS
10
5.132615551181102
20
-1.9820022047244095
11
5.1200087007874018
21
-1.9820022047244095
0
LINE
8
BLACK
6
CONTINUOUS
10
5.1200087007874018
20
-1.9820022047244095
11
5.110094409448819
21
-1.9844807480314961
0
LINE
8
BLACK
6
CONTINUOUS
10
5.1340462992125984
20
-1.9141368110236221
11
5.1347748425196853
21
-1.9141245669291338
0
LINE
8
BLACK
6
CONTINUOUS
10
5.1347748425196853
20
-1.9141245669291338
11
5.1460233858267719
21
-1.9169367322834645
0
LINE
8
BLACK
6
CONTINUOUS
10
5.1460233858267719
20
-1.9169367322834645
11
5.1465933464566929
21
-1.9172531102362205
0
LINE
8
BLACK
6
CONTINUOUS
10
5.1465933464566929
20
-1.9172531102362205
11
5.1472321259842522
21
-1.9173838582677165
0
LINE
8
BLACK
6
CONTINUOUS
10
5.1472321259842522
20
-1.9173838582677165
11
5.1528564173228348
21
-1.9201960236220472
0
LINE
8
BLACK
6
CONTINUOUS
10
5.1528564173228348
20
-1.9201960236220472
11
5.1535677559055113
21
-1.920826811023622
0
LINE
8
BLACK
6
CONTINUOUS
10
5.1535677559055113
20
-1.920826811023622
11
5.1543911811023619
21
-1.9213022047244095
0
LINE
8
BLACK
6
CONTINUOUS
10
5.1543911811023619
20
-1.9213022047244095
11
5.1572033464566926
21
-1.9241143307086614
0
LINE
8
BLACK
6
CONTINUOUS
10
5.1572033464566926
20
-1.9241143307086614
11
5.15767874015748
21
-1.9249377559055119
0
LINE
8
BLACK
6
CONTINUOUS
10
5.15767874015748
20
-1.9249377559055119
11
5.1583096062992126
21
-1.9256491732283465
0
LINE
8
BLACK
6
CONTINUOUS
10
5.1583096062992126
20
-1.9256491732283465
11
5.1611217322834646
21
-1.9312735039370079
0
LINE
8
BLACK
6
CONTINUOUS
10
5.1611217322834646
20
-1.9312735039370079
11
5.161393818897638
21
-1.9326032283464567
0
LINE
8
BLACK
6
CONTINUOUS
10
5.161393818897638
20
-1.9326032283464567
11
5.1617451968503936
21
-1.9339144881889763
0
LINE
8
BLACK
6
CONTINUOUS
10
5.1617451968503936
20
-1.9339144881889763
11
5.1617451968503936
21
-1.9395387795275589
0
LINE
8
BLACK
6
CONTINUOUS
10
5.1617451968503936
20
-1.9395387795275589
11
5.1613939370078743
21
-1.9408496456692912
0
LINE
8
BLACK
6
CONTINUOUS
10
5.1613939370078743
20
-1.9408496456692912
11
5.1611217716535434
21
-1.9421797637795275
0
LINE
8
BLACK
6
CONTINUOUS
10
5.1611217716535434
20
-1.9421797637795275
11
5.1583096062992126
21
-1.9478040944881889
0
LINE
8
BLACK
6
CONTINUOUS
10
5.1583096062992126
20
-1.9478040944881889
11
5.1576788188976375
21
-1.9485154330708661
0
LINE
8
BLACK
6
CONTINUOUS
10
5.1576788188976375
20
-1.9485154330708661
11
5.1572033464566926
21
-1.9493389763779527
0
LINE
8
BLACK
6
CONTINUOUS
10
5.1572033464566926
20
-1.9493389763779527
11
5.1543911811023619
21
-1.9521511023622047
0
LINE
8
BLACK
6
CONTINUOUS
10
5.1543911811023619
20
-1.9521511023622047
11
5.1535677559055113
21
-1.9526264566929132
0
LINE
8
BLACK
6
CONTINUOUS
10
5.1535677559055113
20
-1.9526264566929132
11
5.1528564173228348
21
-1.953257283464567
0
LINE
8
BLACK
6
CONTINUOUS
10
5.1528564173228348
20
-1.953257283464567
11
5.1472321259842522
21
-1.9560694488188977
0
LINE
8
BLACK
6
CONTINUOUS
10
5.1472321259842522
20
-1.9560694488188977
11
5.1465933464566929
21
-1.9562001574803149
0
LINE
8
BLACK
6
CONTINUOUS
10
5.1465933464566929
20
-1.9562001574803149
11
5.1460233858267719
21
-1.9565165748031497
0
LINE
8
BLACK
6
CONTINUOUS
10
5.1460233858267719
20
-1.9565165748031497
11
5.1347748031496065
21
-1.9593287007874016
0
LINE
8
BLACK
6
CONTINUOUS
10
5.1347748031496065
20
-1.9593287007874016
11
5.1340463385826771
21
-1.9593164173228346
0
LINE
8
BLACK
6
CONTINUOUS
10
5.1340463385826771
20
-1.9593164173228346
11
5.1333425196850389
21
-1.9595050393700788
0
LINE
8
BLACK
6
CONTINUOUS
10
5.1333425196850389
20
-1.9595050393700788
11
5.1192817716535428
21
-1.9595050393700788
0
LINE
8
BLACK
6
CONTINUOUS
10
5.1192817716535428
20
-1.9595050393700788
11
5.1185779133858267
21
-1.9593164173228346
0
LINE
8
BLACK
6
CONTINUOUS
10
5.1185779133858267
20
-1.9593164173228346
11
5.117849488188976
21
-1.9593287007874016
0
LINE
8
BLACK
6
CONTINUOUS
10
5.117849488188976
20
-1.9593287007874016
11
5.1066008661417319
21
-1.9565165748031497
0
LINE
8
BLACK
6
CONTINUOUS
10
5.1066008661417319
20
-1.9565165748031497
11
5.1060309055118109
21
-1.9562001574803149
0
LINE
8
BLACK
6
CONTINUOUS
10
5.1060309055118109
20
-1.9562001574803149
11
5.1053920866141729
21
-1.9560694488188977
0
LINE
8
BLACK
6
CONTINUOUS
10
5.1053920866141729
20
-1.9560694488188977
11
5.099767834645669
21
-1.953257283464567
0
LINE
8
BLACK
6
CONTINUOUS
10
5.099767834645669
20
-1.953257283464567
11
5.0990564566929129
21
-1.9526264566929132
0
LINE
8
BLACK
6
CONTINUOUS
10
5.0990564566929129
20
-1.9526264566929132
11
5.0982330314960631
21
-1.9521510629921259
0
LINE
8
BLACK
6
CONTINUOUS
10
5.0982330314960631
20
-1.9521510629921259
11
5.0954209055118111
21
-1.949338937007874
0
LINE
8
BLACK
6
CONTINUOUS
10
5.0954209055118111
20
-1.949338937007874
11
5.0949455118110238
21
-1.9485155118110236
0
LINE
8
BLACK
6
CONTINUOUS
10
5.0949455118110238
20
-1.9485155118110236
11
5.0943146850393699
21
-1.9478041338582677
0
LINE
8
BLACK
6
CONTINUOUS
10
5.0943146850393699
20
-1.9478041338582677
11
5.0915025196850392
21
-1.9421798031496063
0
LINE
8
BLACK
6
CONTINUOUS
10
5.0915025196850392
20
-1.9421798031496063
11
5.0912303543307083
21
-1.940849842519685
0
LINE
8
BLACK
6
CONTINUOUS
10
5.0912303543307083
20
-1.940849842519685
11
5.0908790551181102
21
-1.9395387795275589
0
LINE
8
BLACK
6
CONTINUOUS
10
5.0908790551181102
20
-1.9395387795275589
11
5.0908790551181102
21
-1.9339144881889763
0
LINE
8
BLACK
6
CONTINUOUS
10
5.0908790551181102
20
-1.9339144881889763
11
5.0912303543307083
21
-1.9326033858267717
0
LINE
8
BLACK
6
CONTINUOUS
10
5.0912303543307083
20
-1.9326033858267717
11
5.0915025196850392
21
-1.9312734645669292
0
LINE
8
BLACK
6
CONTINUOUS
10
5.0915025196850392
20
-1.9312734645669292
11
5.0943146850393699
21
-1.9256491732283465
0
LINE
8
BLACK
6
CONTINUOUS
10
5.0943146850393699
20
-1.9256491732283465
11
5.0949454724409451
21
-1.9249377952755906
0
LINE
8
BLACK
6
CONTINUOUS
10
5.0949454724409451
20
-1.9249377952755906
11
5.0954209055118111
21
-1.9241143700787402
0
LINE
8
BLACK
6
CONTINUOUS
10
5.0954209055118111
20
-1.9241143700787402
11
5.0982330314960631
21
-1.9213022440944882
0
LINE
8
BLACK
6
CONTINUOUS
10
5.0982330314960631
20
-1.9213022440944882
11
5.0990564566929129
21
-1.920826811023622
0
LINE
8
BLACK
6
CONTINUOUS
10
5.0990564566929129
20
-1.920826811023622
11
5.099767834645669
21
-1.9201960236220472
0
LINE
8
BLACK
6
CONTINUOUS
10
5.099767834645669
20
-1.9201960236220472
11
5.1053920866141729
21
-1.9173838582677165
0
LINE
8
BLACK
6
CONTINUOUS
10
5.1053920866141729
20
-1.9173838582677165
11
5.1060309055118109
21
-1.9172531102362205
0
LINE
8
BLACK
6
CONTINUOUS
10
5.1060309055118109
20
-1.9172531102362205
11
5.1066008661417319
21
-1.9169367322834645
0
LINE
8
BLACK
6
CONTINUOUS
10
5.1066008661417319
20
-1.9169367322834645
11
5.1178494488188973
21
-1.9141245669291338
0
LINE
8
BLACK
6
CONTINUOUS
10
5.1178494488188973
20
-1.9141245669291338
11
5.1185779527559054
21
-1.9141368110236221
0
LINE
8
BLACK
6
CONTINUOUS
10
5.1185779527559054
20
-1.9141368110236221
11
5.1192817716535428
21
-1.9139482283464566
0
LINE
8
BLACK
6
CONTINUOUS
10
5.1192817716535428
20
-1.9139482283464566
11
5.1333425196850389
21
-1.9139482283464566
0
LINE
8
BLACK
6
CONTINUOUS
10
5.1333425196850389
20
-1.9139482283464566
11
5.1340462992125984
21
-1.9141368110236221
0
LINE
8
BLACK
6
CONTINUOUS
10
5.110094409448819
20
-1.9282377952755905
11
5.1059070472440942
21
-1.930331496062992
0
LINE
8
BLACK
6
CONTINUOUS
10
5.1059070472440942
20
-1.930331496062992
11
5.1044501968503937
21
-1.931788346456693
0
LINE
8
BLACK
6
CONTINUOUS
10
5.1044501968503937
20
-1.931788346456693
11
5.1026900787401575
21
-1.9353085826771652
0
LINE
8
BLACK
6
CONTINUOUS
10
5.1026900787401575
20
-1.9353085826771652
11
5.1026900787401575
21
-1.93814468503937
0
LINE
8
BLACK
6
CONTINUOUS
10
5.1026900787401575
20
-1.93814468503937
11
5.1044501968503937
21
-1.9416649212598425
0
LINE
8
BLACK
6
CONTINUOUS
10
5.1044501968503937
20
-1.9416649212598425
11
5.1059070472440942
21
-1.9431217716535432
0
LINE
8
BLACK
6
CONTINUOUS
10
5.1059070472440942
20
-1.9431217716535432
11
5.110094409448819
21
-1.9452154330708662
0
LINE
8
BLACK
6
CONTINUOUS
10
5.110094409448819
20
-1.9452154330708662
11
5.1200087007874018
21
-1.9476940157480314
0
LINE
8
BLACK
6
CONTINUOUS
10
5.1200087007874018
20
-1.9476940157480314
11
5.1326155905511808
21
-1.9476940157480314
0
LINE
8
BLACK
6
CONTINUOUS
10
5.1326155905511808
20
-1.9476940157480314
11
5.1425298031496061
21
-1.9452154724409449
0
LINE
8
BLACK
6
CONTINUOUS
10
5.1425298031496061
20
-1.9452154724409449
11
5.1467172440944884
21
-1.9431217322834646
0
LINE
8
BLACK
6
CONTINUOUS
10
5.1467172440944884
20
-1.9431217322834646
11
5.1481740944881889
21
-1.941664842519685
0
LINE
8
BLACK
6
CONTINUOUS
10
5.1481740944881889
20
-1.941664842519685
11
5.1499341732283463
21
-1.93814468503937
0
LINE
8
BLACK
6
CONTINUOUS
10
5.1499341732283463
20
-1.93814468503937
11
5.1499341732283463
21
-1.9353085433070865
0
LINE
8
BLACK
6
CONTINUOUS
10
5.1499341732283463
20
-1.9353085433070865
11
5.1481740944881889
21
-1.9317883858267717
0
LINE
8
BLACK
6
CONTINUOUS
10
5.1481740944881889
20
-1.9317883858267717
11
5.1467172440944884
21
-1.9303315354330708
0
LINE
8
BLACK
6
CONTINUOUS
10
5.1467172440944884
20
-1.9303315354330708
11
5.1425298425196848
21
-1.9282378346456692
0
LINE
8
BLACK
6
CONTINUOUS
10
5.1425298425196848
20
-1.9282378346456692
11
5.132615551181102
21
-1.9257592519685038
0
LINE
8
BLACK
6
CONTINUOUS
10
5.132615551181102
20
-1.9257592519685038
11
5.1200087007874018
21
-1.9257592519685038
0
LINE
8
BLACK
6
CONTINUOUS
10
5.1200087007874018
20
-1.9257592519685038
11
5.110094409448819
21
-1.9282377952755905
0
LINE
8
BLACK
6
CONTINUOUS
10
5.1026537007874015
20
-1.8419161023622046
11
5.103772559055118
21
-1.8425620866141732
0
LINE
8
BLACK
6
CONTINUOUS
10
5.103772559055118
20
-1.8425620866141732
11
5.1037725984251967
21
-1.842562125984252
0
LINE
8
BLACK
6
CONTINUOUS
10
5.1037725984251967
20
-1.842562125984252
11
5.1065846850393699
21
-1.8453742519685039
0
LINE
8
BLACK
6
CONTINUOUS
10
5.1065846850393699
20
-1.8453742519685039
11
5.1069733858267714
21
-1.8460475196850392
0
LINE
8
BLACK
6
CONTINUOUS
10
5.1069733858267714
20
-1.8460475196850392
11
5.1075231889763781
21
-1.8465973228346457
0
LINE
8
BLACK
6
CONTINUOUS
10
5.1075231889763781
20
-1.8465973228346457
11
5.107724409448819
21
-1.8473482677165354
0
LINE
8
BLACK
6
CONTINUOUS
10
5.107724409448819
20
-1.8473482677165354
11
5.1081131496062993
21
-1.8480216141732284
0
LINE
8
BLACK
6
CONTINUOUS
10
5.1081131496062993
20
-1.8480216141732284
11
5.1081131496062993
21
-1.8480216535433069
0
LINE
8
BLACK
6
CONTINUOUS
10
5.1081131496062993
20
-1.8480216535433069
11
5.1081131496062993
21
-1.8487990944881889
0
LINE
8
BLACK
6
CONTINUOUS
10
5.1081131496062993
20
-1.8487990944881889
11
5.1083143700787401
21
-1.8495500787401575
0
LINE
8
BLACK
6
CONTINUOUS
10
5.1083143700787401
20
-1.8495500787401575
11
5.1081131496062993
21
-1.8503010236220472
0
LINE
8
BLACK
6
CONTINUOUS
10
5.1081131496062993
20
-1.8503010236220472
11
5.1081131496062993
21
-1.8510785826771654
0
LINE
8
BLACK
6
CONTINUOUS
10
5.1081131496062993
20
-1.8510785826771654
11
5.1077243700787403
21
-1.8517518897637795
0
LINE
8
BLACK
6
CONTINUOUS
10
5.1077243700787403
20
-1.8517518897637795
11
5.1075231889763781
21
-1.8525028346456693
0
LINE
8
BLACK
6
CONTINUOUS
10
5.1075231889763781
20
-1.8525028346456693
11
5.1069733858267714
21
-1.8530525984251969
0
LINE
8
BLACK
6
CONTINUOUS
10
5.1069733858267714
20
-1.8530525984251969
11
5.1065846850393699
21
-1.8537259055118109
0
LINE
8
BLACK
6
CONTINUOUS
10
5.1065846850393699
20
-1.8537259055118109
11
5.103772559055118
21
-1.8565380314960629
0
LINE
8
BLACK
6
CONTINUOUS
10
5.103772559055118
20
-1.8565380314960629
11
5.1037724803149604
21
-1.8565380708661416
0
LINE
8
BLACK
6
CONTINUOUS
10
5.1037724803149604
20
-1.8565380708661416
11
5.1011252362204722
21
-1.858066496062992
0
LINE
8
BLACK
6
CONTINUOUS
10
5.1011252362204722
20
-1.858066496062992
11
5.0980683070866144
21
-1.858066496062992
0
LINE
8
BLACK
6
CONTINUOUS
10
5.0980683070866144
20
-1.858066496062992
11
5.0980682677165357
21
-1.858066496062992
0
LINE
8
BLACK
6
CONTINUOUS
10
5.0980682677165357
20
-1.858066496062992
11
5.0965398425196851
21
-1.8571840157480315
0
LINE
8
BLACK
6
CONTINUOUS
10
5.0965398425196851
20
-1.8571840157480315
11
5.0954209448818899
21
-1.8565380708661416
0
LINE
8
BLACK
6
CONTINUOUS
10
5.0954209448818899
20
-1.8565380708661416
11
5.0926087795275592
21
-1.8537259448818897
0
LINE
8
BLACK
6
CONTINUOUS
10
5.0926087795275592
20
-1.8537259448818897
11
5.0926087007874017
21
-1.8537258661417322
0
LINE
8
BLACK
6
CONTINUOUS
10
5.0926087007874017
20
-1.8537258661417322
11
5.0922200000000002
21
-1.8530525984251969
0
LINE
8
BLACK
6
CONTINUOUS
10
5.0922200000000002
20
-1.8530525984251969
11
5.0916702362204722
21
-1.8525028346456693
0
LINE
8
BLACK
6
CONTINUOUS
10
5.0916702362204722
20
-1.8525028346456693
11
5.0914690157480313
21
-1.8517518897637795
0
LINE
8
BLACK
6
CONTINUOUS
10
5.0914690157480313
20
-1.8517518897637795
11
5.0910802755905511
21
-1.8510785826771654
0
LINE
8
BLACK
6
CONTINUOUS
10
5.0910802755905511
20
-1.8510785826771654
11
5.0910802755905511
21
-1.8503010236220472
0
LINE
8
BLACK
6
CONTINUOUS
10
5.0910802755905511
20
-1.8503010236220472
11
5.0908790551181102
21
-1.8495500787401575
0
LINE
8
BLACK
6
CONTINUOUS
10
5.0908790551181102
20
-1.8495500787401575
11
5.0910802755905511
21
-1.8487990944881889
0
LINE
8
BLACK
6
CONTINUOUS
10
5.0910802755905511
20
-1.8487990944881889
11
5.0910802755905511
21
-1.8480216535433069
0
LINE
8
BLACK
6
CONTINUOUS
10
5.0910802755905511
20
-1.8480216535433069
11
5.0910802755905511
21
-1.8480216141732284
0
LINE
8
BLACK
6
CONTINUOUS
10
5.0910802755905511
20
-1.8480216141732284
11
5.0914689763779526
21
-1.8473482677165354
0
LINE
8
BLACK
6
CONTINUOUS
10
5.0914689763779526
20
-1.8473482677165354
11
5.0916702362204722
21
-1.8465973228346457
0
LINE
8
BLACK
6
CONTINUOUS
10
5.0916702362204722
20
-1.8465973228346457
11
5.0922200000000002
21
-1.8460475196850392
0
LINE
8
BLACK
6
CONTINUOUS
10
5.0922200000000002
20
-1.8460475196850392
11
5.0926087401574804
21
-1.8453742519685039
0
LINE
8
BLACK
6
CONTINUOUS
10
5.0926087401574804
20
-1.8453742519685039
11
5.0954209055118111
21
-1.8425620866141732
0
LINE
8
BLACK
6
CONTINUOUS
10
5.0954209055118111
20
-1.8425620866141732
11
5.0954209055118111
21
-1.8425620472440944
0
LINE
8
BLACK
6
CONTINUOUS
10
5.0954209055118111
20
-1.8425620472440944
11
5.0954209448818899
21
-1.8425620472440944
0
LINE
8
BLACK
6
CONTINUOUS
10
5.0954209448818899
20
-1.8425620472440944
11
5.0965398425196851
21
-1.8419160629921258
0
LINE
8
BLACK
6
CONTINUOUS
10
5.0965398425196851
20
-1.8419160629921258
11
5.0980682677165357
21
-1.8410336220472441
0
LINE
8
BLACK
6
CONTINUOUS
10
5.0980682677165357
20
-1.8410336220472441
11
5.1011251968503935
21
-1.8410336220472441
0
LINE
8
BLACK
6
CONTINUOUS
10
5.1011251968503935
20
-1.8410336220472441
11
5.1011252362204722
21
-1.8410336220472441
0
LINE
8
BLACK
6
CONTINUOUS
10
5.1011252362204722
20
-1.8410336220472441
11
5.1026537007874015
21
-1.8419161023622046
0
LINE
8
BLACK
6
CONTINUOUS
10
5.1587924409448815
20
-1.8444357480314961
11
5.1609540157480316
21
-1.8465973228346457
0
LINE
8
BLACK
6
CONTINUOUS
10
5.1609540157480316
20
-1.8465973228346457
11
5.1617451968503936
21
-1.8495500787401575
0
LINE
8
BLACK
6
CONTINUOUS
10
5.1617451968503936
20
-1.8495500787401575
11
5.1609540157480316
21
-1.8525028346456693
0
LINE
8
BLACK
6
CONTINUOUS
10
5.1609540157480316
20
-1.8525028346456693
11
5.1587924409448815
21
-1.8546644094488189
0
LINE
8
BLACK
6
CONTINUOUS
10
5.1587924409448815
20
-1.8546644094488189
11
5.1558396850393704
21
-1.8554555905511811
0
LINE
8
BLACK
6
CONTINUOUS
10
5.1558396850393704
20
-1.8554555905511811
11
5.1164696062992121
21
-1.8554555905511811
0
LINE
8
BLACK
6
CONTINUOUS
10
5.1164696062992121
20
-1.8554555905511811
11
5.113516850393701
21
-1.8546644094488189
0
LINE
8
BLACK
6
CONTINUOUS
10
5.113516850393701
20
-1.8546644094488189
11
5.1113552755905509
21
-1.8525028346456693
0
LINE
8
BLACK
6
CONTINUOUS
10
5.1113552755905509
20
-1.8525028346456693
11
5.1105640944881889
21
-1.8495500787401575
0
LINE
8
BLACK
6
CONTINUOUS
10
5.1105640944881889
20
-1.8495500787401575
11
5.1113552755905509
21
-1.8465973228346457
0
LINE
8
BLACK
6
CONTINUOUS
10
5.1113552755905509
20
-1.8465973228346457
11
5.113516850393701
21
-1.8444357480314961
0
LINE
8
BLACK
6
CONTINUOUS
10
5.113516850393701
20
-1.8444357480314961
11
5.1164696062992121
21
-1.8436445669291339
0
LINE
8
BLACK
6
CONTINUOUS
10
5.1164696062992121
20
-1.8436445669291339
11
5.1558396850393704
21
-1.8436445669291339
0
LINE
8
BLACK
6
CONTINUOUS
10
5.1558396850393704
20
-1.8436445669291339
11
5.1587924409448815
21
-1.8444357480314961
0
LINE
8
BLACK
6
CONTINUOUS
10
5.1587924409448815
20
-1.7910049212598425
11
5.1609540157480316
21
-1.7931664960629921
0
LINE
8
BLACK
6
CONTINUOUS
10
5.1609540157480316
20
-1.7931664960629921
11
5.1617451968503936
21
-1.7961192519685039
0
LINE
8
BLACK
6
CONTINUOUS
10
5.1617451968503936
20
-1.7961192519685039
11
5.1609540157480316
21
-1.7990720078740157
0
LINE
8
BLACK
6
CONTINUOUS
10
5.1609540157480316
20
-1.7990720078740157
11
5.1587924409448815
21
-1.8012335826771653
0
LINE
8
BLACK
6
CONTINUOUS
10
5.1587924409448815
20
-1.8012335826771653
11
5.1558396850393704
21
-1.8020247637795275
0
LINE
8
BLACK
6
CONTINUOUS
10
5.1558396850393704
20
-1.8020247637795275
11
5.1263001574803146
21
-1.8020247637795275
0
LINE
8
BLACK
6
CONTINUOUS
10
5.1263001574803146
20
-1.8020247637795275
11
5.1236834645669287
21
-1.8033330708661417
0
LINE
8
BLACK
6
CONTINUOUS
10
5.1236834645669287
20
-1.8033330708661417
11
5.1223751181102362
21
-1.8059497637795274
0
LINE
8
BLACK
6
CONTINUOUS
10
5.1223751181102362
20
-1.8059497637795274
11
5.1223751181102362
21
-1.8115979921259842
0
LINE
8
BLACK
6
CONTINUOUS
10
5.1223751181102362
20
-1.8115979921259842
11
5.1241352362204724
21
-1.8151182677165354
0
LINE
8
BLACK
6
CONTINUOUS
10
5.1241352362204724
20
-1.8151182677165354
11
5.1245400787401572
21
-1.8155230708661416
0
LINE
8
BLACK
6
CONTINUOUS
10
5.1245400787401572
20
-1.8155230708661416
11
5.1558396850393704
21
-1.8155230708661416
0
LINE
8
BLACK
6
CONTINUOUS
10
5.1558396850393704
20
-1.8155230708661416
11
5.1587924409448815
21
-1.8163142519685038
0
LINE
8
BLACK
6
CONTINUOUS
10
5.1587924409448815
20
-1.8163142519685038
11
5.1609540157480316
21
-1.8184758267716534
0
LINE
8
BLACK
6
CONTINUOUS
10
5.1609540157480316
20
-1.8184758267716534
11
5.1617451968503936
21
-1.8214285826771652
0
LINE
8
BLACK
6
CONTINUOUS
10
5.1617451968503936
20
-1.8214285826771652
11
5.1609540157480316
21
-1.824381338582677
0
LINE
8
BLACK
6
CONTINUOUS
10
5.1609540157480316
20
-1.824381338582677
11
5.1587924409448815
21
-1.8265429133858266
0
LINE
8
BLACK
6
CONTINUOUS
10
5.1587924409448815
20
-1.8265429133858266
11
5.1558396850393704
21
-1.8273340944881888
0
LINE
8
BLACK
6
CONTINUOUS
10
5.1558396850393704
20
-1.8273340944881888
11
5.1164696062992121
21
-1.8273340944881888
0
LINE
8
BLACK
6
CONTINUOUS
10
5.1164696062992121
20
-1.8273340944881888
11
5.113516850393701
21
-1.8265429133858266
0
LINE
8
BLACK
6
CONTINUOUS
10
5.113516850393701
20
-1.8265429133858266
11
5.1113552755905509
21
-1.824381338582677
0
LINE
8
BLACK
6
CONTINUOUS
10
5.1113552755905509
20
-1.824381338582677
11
5.1105640944881889
21
-1.8214285826771652
0
LINE
8
BLACK
6
CONTINUOUS
10
5.1105640944881889
20
-1.8214285826771652
11
5.1113552755905509
21
-1.8184758267716534
0
LINE
8
BLACK
6
CONTINUOUS
10
5.1113552755905509
20
-1.8184758267716534
11
5.1121910236220467
21
-1.8176400393700787
0
LINE
8
BLACK
6
CONTINUOUS
10
5.1121910236220467
20
-1.8176400393700787
11
5.1111875590551179
21
-1.8156331496062992
0
LINE
8
BLACK
6
CONTINUOUS
10
5.1111875590551179
20
-1.8156331496062992
11
5.110915393700787
21
-1.8143031889763779
0
LINE
8
BLACK
6
CONTINUOUS
10
5.110915393700787
20
-1.8143031889763779
11
5.1105640944881889
21
-1.8129921259842519
0
LINE
8
BLACK
6
CONTINUOUS
10
5.1105640944881889
20
-1.8129921259842519
11
5.1105640944881889
21
-1.8045556692913385
0
LINE
8
BLACK
6
CONTINUOUS
10
5.1105640944881889
20
-1.8045556692913385
11
5.110915393700787
21
-1.8032445669291337
0
LINE
8
BLACK
6
CONTINUOUS
10
5.110915393700787
20
-1.8032445669291337
11
5.1111875590551179
21
-1.8019146456692914
0
LINE
8
BLACK
6
CONTINUOUS
10
5.1111875590551179
20
-1.8019146456692914
11
5.1139997244094486
21
-1.7962903543307087
0
LINE
8
BLACK
6
CONTINUOUS
10
5.1139997244094486
20
-1.7962903543307087
11
5.1142392913385821
21
-1.796020157480315
0
LINE
8
BLACK
6
CONTINUOUS
10
5.1142392913385821
20
-1.796020157480315
11
5.1143535433070868
21
-1.7956774803149607
0
LINE
8
BLACK
6
CONTINUOUS
10
5.1143535433070868
20
-1.7956774803149607
11
5.1152410629921254
21
-1.7948904330708662
0
LINE
8
BLACK
6
CONTINUOUS
10
5.1152410629921254
20
-1.7948904330708662
11
5.1160279133858264
21
-1.7940031496062991
0
LINE
8
BLACK
6
CONTINUOUS
10
5.1160279133858264
20
-1.7940031496062991
11
5.1163705118110236
21
-1.7938889370078739
0
LINE
8
BLACK
6
CONTINUOUS
10
5.1163705118110236
20
-1.7938889370078739
11
5.1166407480314957
21
-1.7936493307086614
0
LINE
8
BLACK
6
CONTINUOUS
10
5.1166407480314957
20
-1.7936493307086614
11
5.1222650787401571
21
-1.7908372047244094
0
LINE
8
BLACK
6
CONTINUOUS
10
5.1222650787401571
20
-1.7908372047244094
11
5.1235948031496061
21
-1.7905650787401575
0
LINE
8
BLACK
6
CONTINUOUS
10
5.1235948031496061
20
-1.7905650787401575
11
5.1249060629921255
21
-1.7902137401574802
0
LINE
8
BLACK
6
CONTINUOUS
10
5.1249060629921255
20
-1.7902137401574802
11
5.1558396850393704
21
-1.7902137401574802
0
LINE
8
BLACK
6
CONTINUOUS
10
5.1558396850393704
20
-1.7902137401574802
11
5.1587924409448815
21
-1.7910049212598425
0
LINE
8
BLACK
6
CONTINUOUS
10
3.0276164566929133
20
-0.8010300393700788
11
3.0281985433070866
21
-0.8009912598425196
0
LINE
8
BLACK
6
CONTINUOUS
10
3.0281985433070866
20
-0.8009912598425196
11
3.0290687007874015
21
-0.8014191732283464
0
LINE
8
BLACK
6
CONTINUOUS
10
3.0290687007874015
20
-0.8014191732283464
11
3.0300056692913384
21
-0.8016702362204724
0
LINE
8
BLACK
6
CONTINUOUS
10
3.0300056692913384
20
-0.8016702362204724
11
3.0304182677165352
21
-0.8020828346456693
0
LINE
8
BLACK
6
CONTINUOUS
10
3.0304182677165352
20
-0.8020828346456693
11
3.0309416929133857
21
-0.8023402362204725
0
LINE
8
BLACK
6
CONTINUOUS
10
3.0309416929133857
20
-0.8023402362204725
11
3.0314812992125986
21
-0.8031458661417322
0
LINE
8
BLACK
6
CONTINUOUS
10
3.0314812992125986
20
-0.8031458661417322
11
3.032167244094488
21
-0.803831811023622
0
LINE
8
BLACK
6
CONTINUOUS
10
3.032167244094488
20
-0.803831811023622
11
3.0323182283464565
21
-0.8043953543307086
0
LINE
8
BLACK
6
CONTINUOUS
10
3.0323182283464565
20
-0.8043953543307086
11
3.0326428740157478
21
-0.8048800393700787
0
LINE
8
BLACK
6
CONTINUOUS
10
3.0326428740157478
20
-0.8048800393700787
11
3.0327073622047243
21
-0.8058476377952756
0
LINE
8
BLACK
6
CONTINUOUS
10
3.0327073622047243
20
-0.8058476377952756
11
3.0329584251968504
21
-0.8067845669291338
0
LINE
8
BLACK
6
CONTINUOUS
10
3.0329584251968504
20
-0.8067845669291338
11
3.0328074015748032
21
-0.8073481102362204
0
LINE
8
BLACK
6
CONTINUOUS
10
3.0328074015748032
20
-0.8073481102362204
11
3.0328462204724409
21
-0.8079301968503937
0
LINE
8
BLACK
6
CONTINUOUS
10
3.0328462204724409
20
-0.8079301968503937
11
3.0324182677165354
21
-0.8088003937007874
0
LINE
8
BLACK
6
CONTINUOUS
10
3.0324182677165354
20
-0.8088003937007874
11
3.032167244094488
21
-0.8097373228346456
0
LINE
8
BLACK
6
CONTINUOUS
10
3.032167244094488
20
-0.8097373228346456
11
3.0317546456692912
21
-0.8101498818897638
0
LINE
8
BLACK
6
CONTINUOUS
10
3.0317546456692912
20
-0.8101498818897638
11
3.0314972440944881
21
-0.8106733858267716
0
LINE
8
BLACK
6
CONTINUOUS
10
3.0314972440944881
20
-0.8106733858267716
11
3.0194132283464565
21
-0.8244837007874015
0
LINE
8
BLACK
6
CONTINUOUS
10
3.0194132283464565
20
-0.8244837007874015
11
3.0240696456692913
21
-0.8268118503937008
0
LINE
8
BLACK
6
CONTINUOUS
10
3.0240696456692913
20
-0.8268118503937008
11
3.0247810236220474
21
-0.8274426771653544
0
LINE
8
BLACK
6
CONTINUOUS
10
3.0247810236220474
20
-0.8274426771653544
11
3.0256044881889763
21
-0.8279181102362204
0
LINE
8
BLACK
6
CONTINUOUS
10
3.0256044881889763
20
-0.8279181102362204
11
3.0284166141732283
21
-0.8307302755905511
0
LINE
8
BLACK
6
CONTINUOUS
10
3.0284166141732283
20
-0.8307302755905511
11
3.0288919685039368
21
-0.8315536614173228
0
LINE
8
BLACK
6
CONTINUOUS
10
3.0288919685039368
20
-0.8315536614173228
11
3.0295227952755903
21
-0.8322650393700787
0
LINE
8
BLACK
6
CONTINUOUS
10
3.0295227952755903
20
-0.8322650393700787
11
3.032334960629921
21
-0.8378892913385827
0
LINE
8
BLACK
6
CONTINUOUS
10
3.032334960629921
20
-0.8378892913385827
11
3.032607125984252
21
-0.8392192913385826
0
LINE
8
BLACK
6
CONTINUOUS
10
3.032607125984252
20
-0.8392192913385826
11
3.0329584251968504
21
-0.8405303543307087
0
LINE
8
BLACK
6
CONTINUOUS
10
3.0329584251968504
20
-0.8405303543307087
11
3.0329584251968504
21
-0.8545911023622047
0
LINE
8
BLACK
6
CONTINUOUS
10
3.0329584251968504
20
-0.8545911023622047
11
3.032607125984252
21
-0.855902125984252
0
LINE
8
BLACK
6
CONTINUOUS
10
3.032607125984252
20
-0.855902125984252
11
3.032334960629921
21
-0.8572321653543307
0
LINE
8
BLACK
6
CONTINUOUS
10
3.032334960629921
20
-0.8572321653543307
11
3.0295227952755903
21
-0.8628564173228346
0
LINE
8
BLACK
6
CONTINUOUS
10
3.0295227952755903
20
-0.8628564173228346
11
3.0288919685039368
21
-0.8635677559055118
0
LINE
8
BLACK
6
CONTINUOUS
10
3.0288919685039368
20
-0.8635677559055118
11
3.0284166141732283
21
-0.8643911811023622
0
LINE
8
BLACK
6
CONTINUOUS
10
3.0284166141732283
20
-0.8643911811023622
11
3.0256044881889763
21
-0.8672033464566929
0
LINE
8
BLACK
6
CONTINUOUS
10
3.0256044881889763
20
-0.8672033464566929
11
3.0247810236220474
21
-0.8676787401574803
0
LINE
8
BLACK
6
CONTINUOUS
10
3.0247810236220474
20
-0.8676787401574803
11
3.0240696456692913
21
-0.8683096062992126
0
LINE
8
BLACK
6
CONTINUOUS
10
3.0240696456692913
20
-0.8683096062992126
11
3.0184452755905511
21
-0.8711217322834646
0
LINE
8
BLACK
6
CONTINUOUS
10
3.0184452755905511
20
-0.8711217322834646
11
3.0171155118110233
21
-0.8713938188976378
0
LINE
8
BLACK
6
CONTINUOUS
10
3.0171155118110233
20
-0.8713938188976378
11
3.0158042913385827
21
-0.8717451968503936
0
LINE
8
BLACK
6
CONTINUOUS
10
3.0158042913385827
20
-0.8717451968503936
11
2.9989314173228347
21
-0.8717451968503936
0
LINE
8
BLACK
6
CONTINUOUS
10
2.9989314173228347
20
-0.8717451968503936
11
2.997620157480315
21
-0.8713938188976378
0
LINE
8
BLACK
6
CONTINUOUS
10
2.997620157480315
20
-0.8713938188976378
11
2.996290433070866
21
-0.8711217322834646
0
LINE
8
BLACK
6
CONTINUOUS
10
2.996290433070866
20
-0.8711217322834646
11
2.9906661023622045
21
-0.8683096062992126
0
LINE
8
BLACK
6
CONTINUOUS
10
2.9906661023622045
20
-0.8683096062992126
11
2.9899546850393701
21
-0.8676787401574803
0
LINE
8
BLACK
6
CONTINUOUS
10
2.9899546850393701
20
-0.8676787401574803
11
2.9891312992125982
21
-0.8672033858267716
0
LINE
8
BLACK
6
CONTINUOUS
10
2.9891312992125982
20
-0.8672033858267716
11
2.9863191338582675
21
-0.8643912204724409
0
LINE
8
BLACK
6
CONTINUOUS
10
2.9863191338582675
20
-0.8643912204724409
11
2.9847906692913386
21
-0.8617438582677165
0
LINE
8
BLACK
6
CONTINUOUS
10
2.9847906692913386
20
-0.8617438582677165
11
2.9847906692913386
21
-0.8586869291338582
0
LINE
8
BLACK
6
CONTINUOUS
10
2.9847906692913386
20
-0.8586869291338582
11
2.9863191338582675
21
-0.8560395669291339
0
LINE
8
BLACK
6
CONTINUOUS
10
2.9863191338582675
20
-0.8560395669291339
11
2.988966496062992
21
-0.8545111023622047
0
LINE
8
BLACK
6
CONTINUOUS
10
2.988966496062992
20
-0.8545111023622047
11
2.9920234251968503
21
-0.8545111023622047
0
LINE
8
BLACK
6
CONTINUOUS
10
2.9920234251968503
20
-0.8545111023622047
11
2.9946707874015748
21
-0.8560395669291339
0
LINE
8
BLACK
6
CONTINUOUS
10
2.9946707874015748
20
-0.8560395669291339
11
2.996805275590551
21
-0.8581740551181102
0
LINE
8
BLACK
6
CONTINUOUS
10
2.996805275590551
20
-0.8581740551181102
11
3.0003255118110235
21
-0.8599341732283464
0
LINE
8
BLACK
6
CONTINUOUS
10
3.0003255118110235
20
-0.8599341732283464
11
3.0144102362204723
21
-0.8599341732283464
0
LINE
8
BLACK
6
CONTINUOUS
10
3.0144102362204723
20
-0.8599341732283464
11
3.0179304330708661
21
-0.8581740551181102
0
LINE
8
BLACK
6
CONTINUOUS
10
3.0179304330708661
20
-0.8581740551181102
11
3.0193872440944882
21
-0.8567172047244094
0
LINE
8
BLACK
6
CONTINUOUS
10
3.0193872440944882
20
-0.8567172047244094
11
3.0211474015748032
21
-0.853196968503937
0
LINE
8
BLACK
6
CONTINUOUS
10
3.0211474015748032
20
-0.853196968503937
11
3.0211474015748032
21
-0.8419244488188976
0
LINE
8
BLACK
6
CONTINUOUS
10
3.0211474015748032
20
-0.8419244488188976
11
3.0193872440944882
21
-0.8384042125984251
0
LINE
8
BLACK
6
CONTINUOUS
10
3.0193872440944882
20
-0.8384042125984251
11
3.0179304330708661
21
-0.8369473622047244
0
LINE
8
BLACK
6
CONTINUOUS
10
3.0179304330708661
20
-0.8369473622047244
11
3.0144102362204723
21
-0.8351872834645669
0
LINE
8
BLACK
6
CONTINUOUS
10
3.0144102362204723
20
-0.8351872834645669
11
3.0073678740157481
21
-0.8351872834645669
0
LINE
8
BLACK
6
CONTINUOUS
10
3.0073678740157481
20
-0.8351872834645669
11
3.0068044094488187
21
-0.8350362992125984
0
LINE
8
BLACK
6
CONTINUOUS
10
3.0068044094488187
20
-0.8350362992125984
11
3.0062222440944879
21
-0.8350751181102362
0
LINE
8
BLACK
6
CONTINUOUS
10
3.0062222440944879
20
-0.8350751181102362
11
3.0053518110236221
21
-0.8346470866141732
0
LINE
8
BLACK
6
CONTINUOUS
10
3.0053518110236221
20
-0.8346470866141732
11
3.0044151181102361
21
-0.8343961023622047
0
LINE
8
BLACK
6
CONTINUOUS
10
3.0044151181102361
20
-0.8343961023622047
11
3.0040025984251968
21
-0.8339835826771653
0
LINE
8
BLACK
6
CONTINUOUS
10
3.0040025984251968
20
-0.8339835826771653
11
3.0034790551181101
21
-0.8337261417322834
0
LINE
8
BLACK
6
CONTINUOUS
10
3.0034790551181101
20
-0.8337261417322834
11
3.0029392519685039
21
-0.8329202362204724
0
LINE
8
BLACK
6
CONTINUOUS
10
3.0029392519685039
20
-0.8329202362204724
11
3.0022535433070865
21
-0.8322345275590551
0
LINE
8
BLACK
6
CONTINUOUS
10
3.0022535433070865
20
-0.8322345275590551
11
3.002102559055118
21
-0.8316710236220473
0
LINE
8
BLACK
6
CONTINUOUS
10
3.002102559055118
20
-0.8316710236220473
11
3.0017778740157479
21
-0.8311862992125985
0
LINE
8
BLACK
6
CONTINUOUS
10
3.0017778740157479
20
-0.8311862992125985
11
3.0017133464566927
21
-0.8302184645669292
0
LINE
8
BLACK
6
CONTINUOUS
10
3.0017133464566927
20
-0.8302184645669292
11
3.0014623622047245
21
-0.8292817716535433
0
LINE
8
BLACK
6
CONTINUOUS
10
3.0014623622047245
20
-0.8292817716535433
11
3.0016133070866142
21
-0.8287183070866142
0
LINE
8
BLACK
6
CONTINUOUS
10
3.0016133070866142
20
-0.8287183070866142
11
3.0015745275590549
21
-0.8281361417322834
0
LINE
8
BLACK
6
CONTINUOUS
10
3.0015745275590549
20
-0.8281361417322834
11
3.0020025196850395
21
-0.8272657086614174
0
LINE
8
BLACK
6
CONTINUOUS
10
3.0020025196850395
20
-0.8272657086614174
11
3.0022535433070865
21
-0.8263290157480315
0
LINE
8
BLACK
6
CONTINUOUS
10
3.0022535433070865
20
-0.8263290157480315
11
3.002666023622047
21
-0.8259164960629921
0
LINE
8
BLACK
6
CONTINUOUS
10
3.002666023622047
20
-0.8259164960629921
11
3.0029235039370077
21
-0.8253929527559055
0
LINE
8
BLACK
6
CONTINUOUS
10
3.0029235039370077
20
-0.8253929527559055
11
3.0140385433070866
21
-0.8126900787401574
0
LINE
8
BLACK
6
CONTINUOUS
10
3.0140385433070866
20
-0.8126900787401574
11
2.9904949606299214
21
-0.8126900787401574
0
LINE
8
BLACK
6
CONTINUOUS
10
2.9904949606299214
20
-0.8126900787401574
11
2.9875422047244093
21
-0.8118988976377952
0
LINE
8
BLACK
6
CONTINUOUS
10
2.9875422047244093
20
-0.8118988976377952
11
2.9853806299212597
21
-0.8097373228346456
0
LINE
8
BLACK
6
CONTINUOUS
10
2.9853806299212597
20
-0.8097373228346456
11
2.9845894488188978
21
-0.8067845669291338
0
LINE
8
BLACK
6
CONTINUOUS
10
2.9845894488188978
20
-0.8067845669291338
11
2.9853806299212597
21
-0.803831811023622
0
LINE
8
BLACK
6
CONTINUOUS
10
2.9853806299212597
20
-0.803831811023622
11
2.9875422047244093
21
-0.8016702362204724
0
LINE
8
BLACK
6
CONTINUOUS
10
2.9875422047244093
20
-0.8016702362204724
11
2.9904949606299214
21
-0.8008790551181102
0
LINE
8
BLACK
6
CONTINUOUS
10
2.9904949606299214
20
-0.8008790551181102
11
3.0270529133858268
21
-0.8008790551181102
0
LINE
8
BLACK
6
CONTINUOUS
10
3.0270529133858268
20
-0.8008790551181102
11
3.0276164566929133
21
-0.8010300393700788
0
LINE
8
BLACK
6
CONTINUOUS
10
3.0531131889763778
20
-0.8545111023622047
11
3.0538906299212596
21
-0.8545111023622047
0
LINE
8
BLACK
6
CONTINUOUS
10
3.0538906299212596
20
-0.8545111023622047
11
3.0538906692913383
21
-0.8545111023622047
0
LINE
8
BLACK
6
CONTINUOUS
10
3.0538906692913383
20
-0.8545111023622047
11
3.0545639763779526
21
-0.8548998031496062
0
LINE
8
BLACK
6
CONTINUOUS
10
3.0545639763779526
20
-0.8548998031496062
11
3.055314960629921
21
-0.855101062992126
0
LINE
8
BLACK
6
CONTINUOUS
10
3.055314960629921
20
-0.855101062992126
11
3.0558646850393698
21
-0.8556507874015747
0
LINE
8
BLACK
6
CONTINUOUS
10
3.0558646850393698
20
-0.8556507874015747
11
3.0565379921259841
21
-0.8560395275590551
0
LINE
8
BLACK
6
CONTINUOUS
10
3.0565379921259841
20
-0.8560395275590551
11
3.0565380314960628
21
-0.8560395669291339
0
LINE
8
BLACK
6
CONTINUOUS
10
3.0565380314960628
20
-0.8560395669291339
11
3.0593501968503936
21
-0.8588517322834646
0
LINE
8
BLACK
6
CONTINUOUS
10
3.0593501968503936
20
-0.8588517322834646
11
3.0608786614173229
21
-0.861499094488189
0
LINE
8
BLACK
6
CONTINUOUS
10
3.0608786614173229
20
-0.861499094488189
11
3.0608786614173229
21
-0.8614991338582677
0
LINE
8
BLACK
6
CONTINUOUS
10
3.0608786614173229
20
-0.8614991338582677
11
3.0608786614173229
21
-0.864556062992126
0
LINE
8
BLACK
6
CONTINUOUS
10
3.0608786614173229
20
-0.864556062992126
11
3.0601375196850391
21
-0.86583968503937
0
LINE
8
BLACK
6
CONTINUOUS
10
3.0601375196850391
20
-0.86583968503937
11
3.0593502362204723
21
-0.8672033464566929
0
LINE
8
BLACK
6
CONTINUOUS
10
3.0593502362204723
20
-0.8672033464566929
11
3.0593501574803148
21
-0.8672034251968503
0
LINE
8
BLACK
6
CONTINUOUS
10
3.0593501574803148
20
-0.8672034251968503
11
3.0565379921259841
21
-0.8700155511811023
0
LINE
8
BLACK
6
CONTINUOUS
10
3.0565379921259841
20
-0.8700155511811023
11
3.0558646850393698
21
-0.8704042519685039
0
LINE
8
BLACK
6
CONTINUOUS
10
3.0558646850393698
20
-0.8704042519685039
11
3.055314960629921
21
-0.8709540157480314
0
LINE
8
BLACK
6
CONTINUOUS
10
3.055314960629921
20
-0.8709540157480314
11
3.0545639763779526
21
-0.8711552362204724
0
LINE
8
BLACK
6
CONTINUOUS
10
3.0545639763779526
20
-0.8711552362204724
11
3.0538906692913383
21
-0.8715439763779528
0
LINE
8
BLACK
6
CONTINUOUS
10
3.0538906692913383
20
-0.8715439763779528
11
3.0531131889763778
21
-0.8715439763779528
0
LINE
8
BLACK
6
CONTINUOUS
10
3.0531131889763778
20
-0.8715439763779528
11
3.0523622047244094
21
-0.8717451968503936
0
LINE
8
BLACK
6
CONTINUOUS
10
3.0523622047244094
20
-0.8717451968503936
11
3.051611220472441
21
-0.8715439763779528
0
LINE
8
BLACK
6
CONTINUOUS
10
3.051611220472441
20
-0.8715439763779528
11
3.0508337401574801
21
-0.8715439763779528
0
LINE
8
BLACK
6
CONTINUOUS
10
3.0508337401574801
20
-0.8715439763779528
11
3.0508337007874013
21
-0.8715439763779528
0
LINE
8
BLACK
6
CONTINUOUS
10
3.0508337007874013
20
-0.8715439763779528
11
3.0501603543307088
21
-0.8711551968503937
0
LINE
8
BLACK
6
CONTINUOUS
10
3.0501603543307088
20
-0.8711551968503937
11
3.0494094488188974
21
-0.8709540157480314
0
LINE
8
BLACK
6
CONTINUOUS
10
3.0494094488188974
20
-0.8709540157480314
11
3.0488596456692911
21
-0.8704042125984252
0
LINE
8
BLACK
6
CONTINUOUS
10
3.0488596456692911
20
-0.8704042125984252
11
3.0481864566929131
21
-0.8700155511811023
0
LINE
8
BLACK
6
CONTINUOUS
10
3.0481864566929131
20
-0.8700155511811023
11
3.048186377952756
21
-0.8700155118110237
0
LINE
8
BLACK
6
CONTINUOUS
10
3.048186377952756
20
-0.8700155118110237
11
3.0453742519685041
21
-0.8672033858267716
0
LINE
8
BLACK
6
CONTINUOUS
10
3.0453742519685041
20
-0.8672033858267716
11
3.0445869291338581
21
-0.86583968503937
0
LINE
8
BLACK
6
CONTINUOUS
10
3.0445869291338581
20
-0.86583968503937
11
3.0438457874015747
21
-0.864556062992126
0
LINE
8
BLACK
6
CONTINUOUS
10
3.0438457874015747
20
-0.864556062992126
11
3.0438457874015747
21
-0.8614991338582677
0
LINE
8
BLACK
6
CONTINUOUS
10
3.0438457874015747
20
-0.8614991338582677
11
3.0438457874015747
21
-0.861499094488189
0
LINE
8
BLACK
6
CONTINUOUS
10
3.0438457874015747
20
-0.861499094488189
11
3.0453742519685041
21
-0.8588517322834646
0
LINE
8
BLACK
6
CONTINUOUS
10
3.0453742519685041
20
-0.8588517322834646
11
3.0481863385826773
21
-0.8560396062992126
0
LINE
8
BLACK
6
CONTINUOUS
10
3.0481863385826773
20
-0.8560396062992126
11
3.0481863385826773
21
-0.8560395669291339
0
LINE
8
BLACK
6
CONTINUOUS
10
3.0481863385826773
20
-0.8560395669291339
11
3.048186377952756
21
-0.8560395669291339
0
LINE
8
BLACK
6
CONTINUOUS
10
3.048186377952756
20
-0.8560395669291339
11
3.0488596456692911
21
-0.8556508267716535
0
LINE
8
BLACK
6
CONTINUOUS
10
3.0488596456692911
20
-0.8556508267716535
11
3.0494094488188974
21
-0.855101062992126
0
LINE
8
BLACK
6
CONTINUOUS
10
3.0494094488188974
20
-0.855101062992126
11
3.0501603937007875
21
-0.8548998031496062
0
LINE
8
BLACK
6
CONTINUOUS
10
3.0501603937007875
20
-0.8548998031496062
11
3.0506951574803147
21
-0.8545911023622047
0
LINE
8
BLACK
6
CONTINUOUS
10
3.0506951574803147
20
-0.8545911023622047
11
3.0508337007874013
21
-0.8545111023622047
0
LINE
8
BLACK
6
CONTINUOUS
10
3.0508337007874013
20
-0.8545111023622047
11
3.051611220472441
21
-0.8545111023622047
0
LINE
8
BLACK
6
CONTINUOUS
10
3.051611220472441
20
-0.8545111023622047
11
3.0523622047244094
21
-0.8543098818897638
0
LINE
8
BLACK
6
CONTINUOUS
10
3.0523622047244094
20
-0.8543098818897638
11
3.0531131889763778
21
-0.8545111023622047
0
LINE
8
BLACK
6
CONTINUOUS
10
3.0947329527559053
20
-0.8009295669291339
11
3.0949245275590549
21
-0.8008912598425196
0
LINE
8
BLACK
6
CONTINUOUS
10
3.0949245275590549
20
-0.8008912598425196
11
3.0961986614173229
21
-0.8013222834645669
0
LINE
8
BLACK
6
CONTINUOUS
10
3.0961986614173229
20
-0.8013222834645669
11
3.0974972047244096
21
-0.8016702362204724
0
LINE
8
BLACK
6
CONTINUOUS
10
3.0974972047244096
20
-0.8016702362204724
11
3.0976352362204724
21
-0.8018082677165355
0
LINE
8
BLACK
6
CONTINUOUS
10
3.0976352362204724
20
-0.8018082677165355
11
3.0978202362204725
21
-0.8018708661417323
0
LINE
8
BLACK
6
CONTINUOUS
10
3.0978202362204725
20
-0.8018708661417323
11
3.0987081102362204
21
-0.8028811417322834
0
LINE
8
BLACK
6
CONTINUOUS
10
3.0987081102362204
20
-0.8028811417322834
11
3.0996587795275592
21
-0.803831811023622
0
LINE
8
BLACK
6
CONTINUOUS
10
3.0996587795275592
20
-0.803831811023622
11
3.0997092913385824
21
-0.8040203149606299
0
LINE
8
BLACK
6
CONTINUOUS
10
3.0997092913385824
20
-0.8040203149606299
11
3.0998382283464565
21
-0.8041670472440945
0
LINE
8
BLACK
6
CONTINUOUS
10
3.0998382283464565
20
-0.8041670472440945
11
3.100101968503937
21
-0.805485905511811
0
LINE
8
BLACK
6
CONTINUOUS
10
3.100101968503937
20
-0.805485905511811
11
3.1004499606299212
21
-0.8067845669291338
0
LINE
8
BLACK
6
CONTINUOUS
10
3.1004499606299212
20
-0.8067845669291338
11
3.1004499606299212
21
-0.8599341732283464
0
LINE
8
BLACK
6
CONTINUOUS
10
3.1004499606299212
20
-0.8599341732283464
11
3.1114173622047243
21
-0.8599341732283464
0
LINE
8
BLACK
6
CONTINUOUS
10
3.1114173622047243
20
-0.8599341732283464
11
3.1143701181102363
21
-0.8607253543307086
0
LINE
8
BLACK
6
CONTINUOUS
10
3.1143701181102363
20
-0.8607253543307086
11
3.1165316929133859
21
-0.8628869291338582
0
LINE
8
BLACK
6
CONTINUOUS
10
3.1165316929133859
20
-0.8628869291338582
11
3.1173228740157479
21
-0.86583968503937
0
LINE
8
BLACK
6
CONTINUOUS
10
3.1173228740157479
20
-0.86583968503937
11
3.1165316929133859
21
-0.8687924409448818
0
LINE
8
BLACK
6
CONTINUOUS
10
3.1165316929133859
20
-0.8687924409448818
11
3.1143701181102363
21
-0.8709540157480314
0
LINE
8
BLACK
6
CONTINUOUS
10
3.1143701181102363
20
-0.8709540157480314
11
3.1114173622047243
21
-0.8717451968503936
0
LINE
8
BLACK
6
CONTINUOUS
10
3.1114173622047243
20
-0.8717451968503936
11
3.0945444488188976
21
-0.8717451968503936
0
LINE
8
BLACK
6
CONTINUOUS
10
3.0945444488188976
20
-0.8717451968503936
11
3.0776715748031496
21
-0.8717451968503936
0
LINE
8
BLACK
6
CONTINUOUS
10
3.0776715748031496
20
-0.8717451968503936
11
3.0747188188976375
21
-0.8709540157480314
0
LINE
8
BLACK
6
CONTINUOUS
10
3.0747188188976375
20
-0.8709540157480314
11
3.0725572440944879
21
-0.8687924409448818
0
LINE
8
BLACK
6
CONTINUOUS
10
3.0725572440944879
20
-0.8687924409448818
11
3.071766062992126
21
-0.86583968503937
0
LINE
8
BLACK
6
CONTINUOUS
10
3.071766062992126
20
-0.86583968503937
11
3.0725572440944879
21
-0.8628869291338582
0
LINE
8
BLACK
6
CONTINUOUS
10
3.0725572440944879
20
-0.8628869291338582
11
3.0747188188976375
21
-0.8607253543307086
0
LINE
8
BLACK
6
CONTINUOUS
10
3.0747188188976375
20
-0.8607253543307086
11
3.0776715748031496
21
-0.8599341732283464
0
LINE
8
BLACK
6
CONTINUOUS
10
3.0776715748031496
20
-0.8599341732283464
11
3.088638937007874
21
-0.8599341732283464
0
LINE
8
BLACK
6
CONTINUOUS
10
3.088638937007874
20
-0.8599341732283464
11
3.088638937007874
21
-0.8238538976377953
0
LINE
8
BLACK
6
CONTINUOUS
10
3.088638937007874
20
-0.8238538976377953
11
3.0874716929133856
21
-0.8250211417322835
0
LINE
8
BLACK
6
CONTINUOUS
10
3.0874716929133856
20
-0.8250211417322835
11
3.0866482283464567
21
-0.8254965354330709
0
LINE
8
BLACK
6
CONTINUOUS
10
3.0866482283464567
20
-0.8254965354330709
11
3.0859368897637793
21
-0.8261273622047244
0
LINE
8
BLACK
6
CONTINUOUS
10
3.0859368897637793
20
-0.8261273622047244
11
3.0803125984251967
21
-0.8289395275590551
0
LINE
8
BLACK
6
CONTINUOUS
10
3.0803125984251967
20
-0.8289395275590551
11
3.0773177559055118
21
-0.8295524015748031
0
LINE
8
BLACK
6
CONTINUOUS
10
3.0773177559055118
20
-0.8295524015748031
11
3.0744177165354332
21
-0.8285857086614173
0
LINE
8
BLACK
6
CONTINUOUS
10
3.0744177165354332
20
-0.8285857086614173
11
3.0723895275590549
21
-0.8262985039370079
0
LINE
8
BLACK
6
CONTINUOUS
10
3.0723895275590549
20
-0.8262985039370079
11
3.0717766535433069
21
-0.8233036614173228
0
LINE
8
BLACK
6
CONTINUOUS
10
3.0717766535433069
20
-0.8233036614173228
11
3.0727433464566927
21
-0.820403622047244
0
LINE
8
BLACK
6
CONTINUOUS
10
3.0727433464566927
20
-0.820403622047244
11
3.0750305511811025
21
-0.8183754330708661
0
LINE
8
BLACK
6
CONTINUOUS
10
3.0750305511811025
20
-0.8183754330708661
11
3.0797976771653541
21
-0.8159918110236221
0
LINE
8
BLACK
6
CONTINUOUS
10
3.0797976771653541
20
-0.8159918110236221
11
3.0843307874015746
21
-0.8114587007874016
0
LINE
8
BLACK
6
CONTINUOUS
10
3.0843307874015746
20
-0.8114587007874016
11
3.0896307874015747
21
-0.8035087795275591
0
LINE
8
BLACK
6
CONTINUOUS
10
3.0896307874015747
20
-0.8035087795275591
11
3.0906407480314959
21
-0.8026211417322835
0
LINE
8
BLACK
6
CONTINUOUS
10
3.0906407480314959
20
-0.8026211417322835
11
3.0915916929133855
21
-0.8016702362204724
0
LINE
8
BLACK
6
CONTINUOUS
10
3.0915916929133855
20
-0.8016702362204724
11
3.0917802755905512
21
-0.8016196850393701
0
LINE
8
BLACK
6
CONTINUOUS
10
3.0917802755905512
20
-0.8016196850393701
11
3.091926968503937
21
-0.8014907874015748
0
LINE
8
BLACK
6
CONTINUOUS
10
3.091926968503937
20
-0.8014907874015748
11
3.0932459055118109
21
-0.801226968503937
0
LINE
8
BLACK
6
CONTINUOUS
10
3.0932459055118109
20
-0.801226968503937
11
3.0945444488188976
21
-0.8008790551181102
0
LINE
8
BLACK
6
CONTINUOUS
10
3.0945444488188976
20
-0.8008790551181102
11
3.0947329527559053
21
-0.8009295669291339
0
LINE
8
BLACK
6
CONTINUOUS
10
3.1577227559055117
20
-0.8012303543307087
11
3.1590527165354332
21
-0.8015025196850394
0
LINE
8
BLACK
6
CONTINUOUS
10
3.1590527165354332
20
-0.8015025196850394
11
3.1646770472440946
21
-0.8043146850393701
0
LINE
8
BLACK
6
CONTINUOUS
10
3.1646770472440946
20
-0.8043146850393701
11
3.1653884251968503
21
-0.8049455118110236
0
LINE
8
BLACK
6
CONTINUOUS
10
3.1653884251968503
20
-0.8049455118110236
11
3.1662118503937009
21
-0.805420905511811
0
LINE
8
BLACK
6
CONTINUOUS
10
3.1662118503937009
20
-0.805420905511811
11
3.1690239763779529
21
-0.808233031496063
0
LINE
8
BLACK
6
CONTINUOUS
10
3.1690239763779529
20
-0.808233031496063
11
3.1694993700787402
21
-0.8090564566929134
0
LINE
8
BLACK
6
CONTINUOUS
10
3.1694993700787402
20
-0.8090564566929134
11
3.1701301968503937
21
-0.8097678346456693
0
LINE
8
BLACK
6
CONTINUOUS
10
3.1701301968503937
20
-0.8097678346456693
11
3.1729423622047244
21
-0.8153920866141732
0
LINE
8
BLACK
6
CONTINUOUS
10
3.1729423622047244
20
-0.8153920866141732
11
3.1732145275590549
21
-0.8167220866141732
0
LINE
8
BLACK
6
CONTINUOUS
10
3.1732145275590549
20
-0.8167220866141732
11
3.1735658267716533
21
-0.8180331496062992
0
LINE
8
BLACK
6
CONTINUOUS
10
3.1735658267716533
20
-0.8180331496062992
11
3.1735658267716533
21
-0.82084531496063
0
LINE
8
BLACK
6
CONTINUOUS
10
3.1735658267716533
20
-0.82084531496063
11
3.1732145275590549
21
-0.8221563385826771
0
LINE
8
BLACK
6
CONTINUOUS
10
3.1732145275590549
20
-0.8221563385826771
11
3.1729423622047244
21
-0.8234863779527559
0
LINE
8
BLACK
6
CONTINUOUS
10
3.1729423622047244
20
-0.8234863779527559
11
3.1701301968503937
21
-0.8291106299212598
0
LINE
8
BLACK
6
CONTINUOUS
10
3.1701301968503937
20
-0.8291106299212598
11
3.1694993700787402
21
-0.829821968503937
0
LINE
8
BLACK
6
CONTINUOUS
10
3.1694993700787402
20
-0.829821968503937
11
3.1690240157480316
21
-0.8306453937007874
0
LINE
8
BLACK
6
CONTINUOUS
10
3.1690240157480316
20
-0.8306453937007874
11
3.1675755118110236
21
-0.8320938976377953
0
LINE
8
BLACK
6
CONTINUOUS
10
3.1675755118110236
20
-0.8320938976377953
11
3.1690239763779529
21
-0.8335423622047244
0
LINE
8
BLACK
6
CONTINUOUS
10
3.1690239763779529
20
-0.8335423622047244
11
3.1694993307086614
21
-0.834365748031496
0
LINE
8
BLACK
6
CONTINUOUS
10
3.1694993307086614
20
-0.834365748031496
11
3.1701301968503937
21
-0.8350771653543307
0
LINE
8
BLACK
6
CONTINUOUS
10
3.1701301968503937
20
-0.8350771653543307
11
3.1729423622047244
21
-0.8407014960629922
0
LINE
8
BLACK
6
CONTINUOUS
10
3.1729423622047244
20
-0.8407014960629922
11
3.1732144881889761
21
-0.8420314173228346
0
LINE
8
BLACK
6
CONTINUOUS
10
3.1732144881889761
20
-0.8420314173228346
11
3.1735658267716533
21
-0.8433425196850394
0
LINE
8
BLACK
6
CONTINUOUS
10
3.1735658267716533
20
-0.8433425196850394
11
3.1735658267716533
21
-0.8545911023622047
0
LINE
8
BLACK
6
CONTINUOUS
10
3.1735658267716533
20
-0.8545911023622047
11
3.1732145275590549
21
-0.855902125984252
0
LINE
8
BLACK
6
CONTINUOUS
10
3.1732145275590549
20
-0.855902125984252
11
3.1729423622047244
21
-0.8572321653543307
0
LINE
8
BLACK
6
CONTINUOUS
10
3.1729423622047244
20
-0.8572321653543307
11
3.1701301968503937
21
-0.8628564173228346
0
LINE
8
BLACK
6
CONTINUOUS
10
3.1701301968503937
20
-0.8628564173228346
11
3.1694993700787402
21
-0.8635677559055118
0
LINE
8
BLACK
6
CONTINUOUS
10
3.1694993700787402
20
-0.8635677559055118
11
3.1690240157480316
21
-0.8643911811023622
0
LINE
8
BLACK
6
CONTINUOUS
10
3.1690240157480316
20
-0.8643911811023622
11
3.1662118897637797
21
-0.8672033464566929
0
LINE
8
BLACK
6
CONTINUOUS
10
3.1662118897637797
20
-0.8672033464566929
11
3.1653884251968503
21
-0.8676787401574803
0
LINE
8
BLACK
6
CONTINUOUS
10
3.1653884251968503
20
-0.8676787401574803
11
3.1646770472440946
21
-0.8683096062992126
0
LINE
8
BLACK
6
CONTINUOUS
10
3.1646770472440946
20
-0.8683096062992126
11
3.1590526771653544
21
-0.8711217322834646
0
LINE
8
BLACK
6
CONTINUOUS
10
3.1590526771653544
20
-0.8711217322834646
11
3.1577229133858267
21
-0.8713938188976378
0
LINE
8
BLACK
6
CONTINUOUS
10
3.1577229133858267
20
-0.8713938188976378
11
3.1564116929133856
21
-0.8717451968503936
0
LINE
8
BLACK
6
CONTINUOUS
10
3.1564116929133856
20
-0.8717451968503936
11
3.1451631102362203
21
-0.8717451968503936
0
LINE
8
BLACK
6
CONTINUOUS
10
3.1451631102362203
20
-0.8717451968503936
11
3.1438518503937005
21
-0.8713938188976378
0
LINE
8
BLACK
6
CONTINUOUS
10
3.1438518503937005
20
-0.8713938188976378
11
3.142522125984252
21
-0.8711217322834646
0
LINE
8
BLACK
6
CONTINUOUS
10
3.142522125984252
20
-0.8711217322834646
11
3.1368977952755905
21
-0.8683096062992126
0
LINE
8
BLACK
6
CONTINUOUS
10
3.1368977952755905
20
-0.8683096062992126
11
3.1361863779527557
21
-0.8676787401574803
0
LINE
8
BLACK
6
CONTINUOUS
10
3.1361863779527557
20
-0.8676787401574803
11
3.1353629921259842
21
-0.8672033858267716
0
LINE
8
BLACK
6
CONTINUOUS
10
3.1353629921259842
20
-0.8672033858267716
11
3.1325508267716535
21
-0.8643912204724409
0
LINE
8
BLACK
6
CONTINUOUS
10
3.1325508267716535
20
-0.8643912204724409
11
3.1320754330708662
21
-0.8635677952755906
0
LINE
8
BLACK
6
CONTINUOUS
10
3.1320754330708662
20
-0.8635677952755906
11
3.1314446062992127
21
-0.8628564173228346
0
LINE
8
BLACK
6
CONTINUOUS
10
3.1314446062992127
20
-0.8628564173228346
11
3.1286324803149608
21
-0.8572321259842519
0
LINE
8
BLACK
6
CONTINUOUS
10
3.1286324803149608
20
-0.8572321259842519
11
3.1283603149606298
21
-0.8559022440944881
0
LINE
8
BLACK
6
CONTINUOUS
10
3.1283603149606298
20
-0.8559022440944881
11
3.1280090157480314
21
-0.8545911023622047
0
LINE
8
BLACK
6
CONTINUOUS
10
3.1280090157480314
20
-0.8545911023622047
11
3.1280090157480314
21
-0.8433425196850394
0
LINE
8
BLACK
6
CONTINUOUS
10
3.1280090157480314
20
-0.8433425196850394
11
3.1283603543307086
21
-0.8420312598425197
0
LINE
8
BLACK
6
CONTINUOUS
10
3.1283603543307086
20
-0.8420312598425197
11
3.1286324803149608
21
-0.8407015354330708
0
LINE
8
BLACK
6
CONTINUOUS
10
3.1286324803149608
20
-0.8407015354330708
11
3.1314446062992127
21
-0.8350771653543307
0
LINE
8
BLACK
6
CONTINUOUS
10
3.1314446062992127
20
-0.8350771653543307
11
3.1320754330708662
21
-0.834365748031496
0
LINE
8
BLACK
6
CONTINUOUS
10
3.1320754330708662
20
-0.834365748031496
11
3.1325508661417323
21
-0.8335423228346457
0
LINE
8
BLACK
6
CONTINUOUS
10
3.1325508661417323
20
-0.8335423228346457
11
3.1339992913385828
21
-0.8320938976377953
0
LINE
8
BLACK
6
CONTINUOUS
10
3.1339992913385828
20
-0.8320938976377953
11
3.1325508267716535
21
-0.8306454330708661
0
LINE
8
BLACK
6
CONTINUOUS
10
3.1325508267716535
20
-0.8306454330708661
11
3.1320754330708662
21
-0.8298220078740157
0
LINE
8
BLACK
6
CONTINUOUS
10
3.1320754330708662
20
-0.8298220078740157
11
3.1314446062992127
21
-0.8291106299212598
0
LINE
8
BLACK
6
CONTINUOUS
10
3.1314446062992127
20
-0.8291106299212598
11
3.1286324803149608
21
-0.8234863385826772
0
LINE
8
BLACK
6
CONTINUOUS
10
3.1286324803149608
20
-0.8234863385826772
11
3.1283603149606298
21
-0.8221564566929134
0
LINE
8
BLACK
6
CONTINUOUS
10
3.1283603149606298
20
-0.8221564566929134
11
3.1280090157480314
21
-0.82084531496063
0
LINE
8
BLACK
6
CONTINUOUS
10
3.1280090157480314
20
-0.82084531496063
11
3.1280090157480314
21
-0.8180331496062992
0
LINE
8
BLACK
6
CONTINUOUS
10
3.1280090157480314
20
-0.8180331496062992
11
3.1283603149606298
21
-0.816721968503937
0
LINE
8
BLACK
6
CONTINUOUS
10
3.1283603149606298
20
-0.816721968503937
11
3.1286324803149608
21
-0.8153921259842519
0
LINE
8
BLACK
6
CONTINUOUS
10
3.1286324803149608
20
-0.8153921259842519
11
3.1314446062992127
21
-0.8097678346456693
0
LINE
8
BLACK
6
CONTINUOUS
10
3.1314446062992127
20
-0.8097678346456693
11
3.1320754330708662
21
-0.8090564173228346
0
LINE
8
BLACK
6
CONTINUOUS
10
3.1320754330708662
20
-0.8090564173228346
11
3.1325508661417323
21
-0.8082329921259842
0
LINE
8
BLACK
6
CONTINUOUS
10
3.1325508661417323
20
-0.8082329921259842
11
3.135363031496063
21
-0.8054208661417323
0
LINE
8
BLACK
6
CONTINUOUS
10
3.135363031496063
20
-0.8054208661417323
11
3.1361864173228344
21
-0.8049454724409448
0
LINE
8
BLACK
6
CONTINUOUS
10
3.1361864173228344
20
-0.8049454724409448
11
3.1368977952755905
21
-0.8043146850393701
0
LINE
8
BLACK
6
CONTINUOUS
10
3.1368977952755905
20
-0.8043146850393701
11
3.1425220472440945
21
-0.8015025196850394
0
LINE
8
BLACK
6
CONTINUOUS
10
3.1425220472440945
20
-0.8015025196850394
11
3.1438520472440943
21
-0.8012303149606299
0
LINE
8
BLACK
6
CONTINUOUS
10
3.1438520472440943
20
-0.8012303149606299
11
3.1451631102362203
21
-0.8008790551181102
0
LINE
8
BLACK
6
CONTINUOUS
10
3.1451631102362203
20
-0.8008790551181102
11
3.1564116929133856
21
-0.8008790551181102
0
LINE
8
BLACK
6
CONTINUOUS
10
3.1564116929133856
20
-0.8008790551181102
11
3.1577227559055117
21
-0.8012303543307087
0
LINE
8
BLACK
6
CONTINUOUS
10
3.143036968503937
20
-0.8397595275590551
11
3.1415801181102361
21
-0.8412163385826772
0
LINE
8
BLACK
6
CONTINUOUS
10
3.1415801181102361
20
-0.8412163385826772
11
3.1398200393700786
21
-0.8447365748031496
0
LINE
8
BLACK
6
CONTINUOUS
10
3.1398200393700786
20
-0.8447365748031496
11
3.1398200393700786
21
-0.8531970078740158
0
LINE
8
BLACK
6
CONTINUOUS
10
3.1398200393700786
20
-0.8531970078740158
11
3.1415800787401573
21
-0.8567171653543307
0
LINE
8
BLACK
6
CONTINUOUS
10
3.1415800787401573
20
-0.8567171653543307
11
3.143036968503937
21
-0.8581740551181102
0
LINE
8
BLACK
6
CONTINUOUS
10
3.143036968503937
20
-0.8581740551181102
11
3.1465572047244095
21
-0.8599341732283464
0
LINE
8
BLACK
6
CONTINUOUS
10
3.1465572047244095
20
-0.8599341732283464
11
3.1550176377952757
21
-0.8599341732283464
0
LINE
8
BLACK
6
CONTINUOUS
10
3.1550176377952757
20
-0.8599341732283464
11
3.1585378346456694
21
-0.8581740551181102
0
LINE
8
BLACK
6
CONTINUOUS
10
3.1585378346456694
20
-0.8581740551181102
11
3.1599946456692911
21
-0.8567172047244094
0
LINE
8
BLACK
6
CONTINUOUS
10
3.1599946456692911
20
-0.8567172047244094
11
3.1617548031496061
21
-0.853196968503937
0
LINE
8
BLACK
6
CONTINUOUS
10
3.1617548031496061
20
-0.853196968503937
11
3.1617548031496061
21
-0.8447366141732283
0
LINE
8
BLACK
6
CONTINUOUS
10
3.1617548031496061
20
-0.8447366141732283
11
3.1599946850393699
21
-0.8412163779527558
0
LINE
8
BLACK
6
CONTINUOUS
10
3.1599946850393699
20
-0.8412163779527558
11
3.1585378346456694
21
-0.8397595275590551
0
LINE
8
BLACK
6
CONTINUOUS
10
3.1585378346456694
20
-0.8397595275590551
11
3.1550175984251969
21
-0.8379994094488189
0
LINE
8
BLACK
6
CONTINUOUS
10
3.1550175984251969
20
-0.8379994094488189
11
3.1465572047244095
21
-0.8379994094488189
0
LINE
8
BLACK
6
CONTINUOUS
10
3.1465572047244095
20
-0.8379994094488189
11
3.143036968503937
21
-0.8397595275590551
0
LINE
8
BLACK
6
CONTINUOUS
10
3.143036968503937
20
-0.8144501968503937
11
3.1415800787401573
21
-0.8159070866141732
0
LINE
8
BLACK
6
CONTINUOUS
10
3.1415800787401573
20
-0.8159070866141732
11
3.1398200393700786
21
-0.8194272047244094
0
LINE
8
BLACK
6
CONTINUOUS
10
3.1398200393700786
20
-0.8194272047244094
11
3.1398200393700786
21
-0.8194512204724409
0
LINE
8
BLACK
6
CONTINUOUS
10
3.1398200393700786
20
-0.8194512204724409
11
3.1415800787401573
21
-0.8229713779527559
0
LINE
8
BLACK
6
CONTINUOUS
10
3.1415800787401573
20
-0.8229713779527559
11
3.143036968503937
21
-0.8244282677165354
0
LINE
8
BLACK
6
CONTINUOUS
10
3.143036968503937
20
-0.8244282677165354
11
3.1465572047244095
21
-0.8261883858267717
0
LINE
8
BLACK
6
CONTINUOUS
10
3.1465572047244095
20
-0.8261883858267717
11
3.1550176377952757
21
-0.8261883858267717
0
LINE
8
BLACK
6
CONTINUOUS
10
3.1550176377952757
20
-0.8261883858267717
11
3.1585378346456694
21
-0.8244282677165354
0
LINE
8
BLACK
6
CONTINUOUS
10
3.1585378346456694
20
-0.8244282677165354
11
3.1599946456692911
21
-0.8229714173228346
0
LINE
8
BLACK
6
CONTINUOUS
10
3.1599946456692911
20
-0.8229714173228346
11
3.1617548031496061
21
-0.8194511811023621
0
LINE
8
BLACK
6
CONTINUOUS
10
3.1617548031496061
20
-0.8194511811023621
11
3.1617548031496061
21
-0.8194272440944882
0
LINE
8
BLACK
6
CONTINUOUS
10
3.1617548031496061
20
-0.8194272440944882
11
3.1599946850393699
21
-0.8159070472440945
0
LINE
8
BLACK
6
CONTINUOUS
10
3.1599946850393699
20
-0.8159070472440945
11
3.1585378346456694
21
-0.8144501968503937
0
LINE
8
BLACK
6
CONTINUOUS
10
3.1585378346456694
20
-0.8144501968503937
11
3.1550175984251969
21
-0.8126900787401574
0
LINE
8
BLACK
6
CONTINUOUS
10
3.1550175984251969
20
-0.8126900787401574
11
3.1465572047244095
21
-0.8126900787401574
0
LINE
8
BLACK
6
CONTINUOUS
10
3.1465572047244095
20
-0.8126900787401574
11
3.143036968503937
21
-0.8144501968503937
0
LINE
8
BLACK
6
CONTINUOUS
10
3.2111535826771651
20
-0.8012303543307087
11
3.2124835433070866
21
-0.8015025196850394
0
LINE
8
BLACK
6
CONTINUOUS
10
3.2124835433070866
20
-0.8015025196850394
11
3.2181078346456693
21
-0.8043146850393701
0
LINE
8
BLACK
6
CONTINUOUS
10
3.2181078346456693
20
-0.8043146850393701
11
3.2188191732283462
21
-0.8049454724409448
0
LINE
8
BLACK
6
CONTINUOUS
10
3.2188191732283462
20
-0.8049454724409448
11
3.2196425984251968
21
-0.8054208661417323
0
LINE
8
BLACK
6
CONTINUOUS
10
3.2196425984251968
20
-0.8054208661417323
11
3.2224547637795276
21
-0.8082329921259842
0
LINE
8
BLACK
6
CONTINUOUS
10
3.2224547637795276
20
-0.8082329921259842
11
3.2229301574803149
21
-0.8090564173228346
0
LINE
8
BLACK
6
CONTINUOUS
10
3.2229301574803149
20
-0.8090564173228346
11
3.2235610236220471
21
-0.8097678346456693
0
LINE
8
BLACK
6
CONTINUOUS
10
3.2235610236220471
20
-0.8097678346456693
11
3.2263731496062991
21
-0.8153921653543307
0
LINE
8
BLACK
6
CONTINUOUS
10
3.2263731496062991
20
-0.8153921653543307
11
3.2265038188976378
21
-0.8160308661417323
0
LINE
8
BLACK
6
CONTINUOUS
10
3.2265038188976378
20
-0.8160308661417323
11
3.2268202755905513
21
-0.8166008661417322
0
LINE
8
BLACK
6
CONTINUOUS
10
3.2268202755905513
20
-0.8166008661417322
11
3.229632440944882
21
-0.8278494488188977
0
LINE
8
BLACK
6
CONTINUOUS
10
3.229632440944882
20
-0.8278494488188977
11
3.2296201574803147
21
-0.8285779527559055
0
LINE
8
BLACK
6
CONTINUOUS
10
3.2296201574803147
20
-0.8285779527559055
11
3.2298087795275592
21
-0.8292817716535433
0
LINE
8
BLACK
6
CONTINUOUS
10
3.2298087795275592
20
-0.8292817716535433
11
3.2298087795275592
21
-0.8433425196850394
0
LINE
8
BLACK
6
CONTINUOUS
10
3.2298087795275592
20
-0.8433425196850394
11
3.2296201574803147
21
-0.8440462992125984
0
LINE
8
BLACK
6
CONTINUOUS
10
3.2296201574803147
20
-0.8440462992125984
11
3.229632440944882
21
-0.844774842519685
0
LINE
8
BLACK
6
CONTINUOUS
10
3.229632440944882
20
-0.844774842519685
11
3.2268202755905513
21
-0.8560234251968504
0
LINE
8
BLACK
6
CONTINUOUS
10
3.2268202755905513
20
-0.8560234251968504
11
3.2265038188976378
21
-0.8565934251968503
0
LINE
8
BLACK
6
CONTINUOUS
10
3.2265038188976378
20
-0.8565934251968503
11
3.2263731496062991
21
-0.8572320866141732
0
LINE
8
BLACK
6
CONTINUOUS
10
3.2263731496062991
20
-0.8572320866141732
11
3.2235610236220471
21
-0.8628564173228346
0
LINE
8
BLACK
6
CONTINUOUS
10
3.2235610236220471
20
-0.8628564173228346
11
3.2229301574803149
21
-0.8635677952755906
0
LINE
8
BLACK
6
CONTINUOUS
10
3.2229301574803149
20
-0.8635677952755906
11
3.2224548031496063
21
-0.8643912204724409
0
LINE
8
BLACK
6
CONTINUOUS
10
3.2224548031496063
20
-0.8643912204724409
11
3.2196426377952756
21
-0.8672033858267716
0
LINE
8
BLACK
6
CONTINUOUS
10
3.2196426377952756
20
-0.8672033858267716
11
3.218819212598425
21
-0.8676787401574803
0
LINE
8
BLACK
6
CONTINUOUS
10
3.218819212598425
20
-0.8676787401574803
11
3.2181078346456693
21
-0.8683096062992126
0
LINE
8
BLACK
6
CONTINUOUS
10
3.2181078346456693
20
-0.8683096062992126
11
3.2124835433070866
21
-0.8711217322834646
0
LINE
8
BLACK
6
CONTINUOUS
10
3.2124835433070866
20
-0.8711217322834646
11
3.2111536614173226
21
-0.8713938582677165
0
LINE
8
BLACK
6
CONTINUOUS
10
3.2111536614173226
20
-0.8713938582677165
11
3.2098425196850391
21
-0.8717451968503936
0
LINE
8
BLACK
6
CONTINUOUS
10
3.2098425196850391
20
-0.8717451968503936
11
3.2042182283464564
21
-0.8717451968503936
0
LINE
8
BLACK
6
CONTINUOUS
10
3.2042182283464564
20
-0.8717451968503936
11
3.2029069685039371
21
-0.8713938188976378
0
LINE
8
BLACK
6
CONTINUOUS
10
3.2029069685039371
20
-0.8713938188976378
11
3.2015772440944881
21
-0.8711217322834646
0
LINE
8
BLACK
6
CONTINUOUS
10
3.2015772440944881
20
-0.8711217322834646
11
3.1959529133858267
21
-0.8683096062992126
0
LINE
8
BLACK
6
CONTINUOUS
10
3.1959529133858267
20
-0.8683096062992126
11
3.1952414960629922
21
-0.8676787401574803
0
LINE
8
BLACK
6
CONTINUOUS
10
3.1952414960629922
20
-0.8676787401574803
11
3.1944181102362204
21
-0.8672033858267716
0
LINE
8
BLACK
6
CONTINUOUS
10
3.1944181102362204
20
-0.8672033858267716
11
3.1916059448818896
21
-0.8643912204724409
0
LINE
8
BLACK
6
CONTINUOUS
10
3.1916059448818896
20
-0.8643912204724409
11
3.1911305118110236
21
-0.8635677559055118
0
LINE
8
BLACK
6
CONTINUOUS
10
3.1911305118110236
20
-0.8635677559055118
11
3.1904997244094488
21
-0.8628564173228346
0
LINE
8
BLACK
6
CONTINUOUS
10
3.1904997244094488
20
-0.8628564173228346
11
3.1876875590551181
21
-0.8572321259842519
0
LINE
8
BLACK
6
CONTINUOUS
10
3.1876875590551181
20
-0.8572321259842519
11
3.1875568110236219
21
-0.8565933464566929
0
LINE
8
BLACK
6
CONTINUOUS
10
3.1875568110236219
20
-0.8565933464566929
11
3.1872404330708659
21
-0.8560233858267716
0
LINE
8
BLACK
6
CONTINUOUS
10
3.1872404330708659
20
-0.8560233858267716
11
3.184428307086614
21
-0.8447748031496063
0
LINE
8
BLACK
6
CONTINUOUS
10
3.184428307086614
20
-0.8447748031496063
11
3.1844405511811025
21
-0.8440463385826772
0
LINE
8
BLACK
6
CONTINUOUS
10
3.1844405511811025
20
-0.8440463385826772
11
3.1842519685039368
21
-0.8433425196850394
0
LINE
8
BLACK
6
CONTINUOUS
10
3.1842519685039368
20
-0.8433425196850394
11
3.1842519685039368
21
-0.8292817716535433
0
LINE
8
BLACK
6
CONTINUOUS
10
3.1842519685039368
20
-0.8292817716535433
11
3.1844405511811025
21
-0.8285779133858268
0
LINE
8
BLACK
6
CONTINUOUS
10
3.1844405511811025
20
-0.8285779133858268
11
3.184428307086614
21
-0.8278494881889764
0
LINE
8
BLACK
6
CONTINUOUS
10
3.184428307086614
20
-0.8278494881889764
11
3.1872404330708659
21
-0.8166008661417322
0
LINE
8
BLACK
6
CONTINUOUS
10
3.1872404330708659
20
-0.8166008661417322
11
3.1875568110236219
21
-0.8160308661417323
0
LINE
8
BLACK
6
CONTINUOUS
10
3.1875568110236219
20
-0.8160308661417323
11
3.1876875590551181
21
-0.8153921259842519
0
LINE
8
BLACK
6
CONTINUOUS
10
3.1876875590551181
20
-0.8153921259842519
11
3.1904997244094488
21
-0.8097678346456693
0
LINE
8
BLACK
6
CONTINUOUS
10
3.1904997244094488
20
-0.8097678346456693
11
3.1911305118110236
21
-0.8090564566929134
0
LINE
8
BLACK
6
CONTINUOUS
10
3.1911305118110236
20
-0.8090564566929134
11
3.1916059842519684
21
-0.8082329921259842
0
LINE
8
BLACK
6
CONTINUOUS
10
3.1916059842519684
20
-0.8082329921259842
11
3.1944181496062991
21
-0.8054208661417323
0
LINE
8
BLACK
6
CONTINUOUS
10
3.1944181496062991
20
-0.8054208661417323
11
3.195241535433071
21
-0.8049454724409448
0
LINE
8
BLACK
6
CONTINUOUS
10
3.195241535433071
20
-0.8049454724409448
11
3.1959529133858267
21
-0.8043146850393701
0
LINE
8
BLACK
6
CONTINUOUS
10
3.1959529133858267
20
-0.8043146850393701
11
3.2015771653543306
21
-0.8015025196850394
0
LINE
8
BLACK
6
CONTINUOUS
10
3.2015771653543306
20
-0.8015025196850394
11
3.2029071653543308
21
-0.8012303149606299
0
LINE
8
BLACK
6
CONTINUOUS
10
3.2029071653543308
20
-0.8012303149606299
11
3.2042182283464564
21
-0.8008790551181102
0
LINE
8
BLACK
6
CONTINUOUS
10
3.2042182283464564
20
-0.8008790551181102
11
3.2098425196850391
21
-0.8008790551181102
0
LINE
8
BLACK
6
CONTINUOUS
10
3.2098425196850391
20
-0.8008790551181102
11
3.2111535826771651
21
-0.8012303543307087
0
LINE
8
BLACK
6
CONTINUOUS
10
3.2020920866141731
20
-0.8144501968503937
11
3.2006352362204722
21
-0.8159070078740157
0
LINE
8
BLACK
6
CONTINUOUS
10
3.2006352362204722
20
-0.8159070078740157
11
3.1985414960629921
21
-0.8200944094488188
0
LINE
8
BLACK
6
CONTINUOUS
10
3.1985414960629921
20
-0.8200944094488188
11
3.196062992125984
21
-0.8300086614173228
0
LINE
8
BLACK
6
CONTINUOUS
10
3.196062992125984
20
-0.8300086614173228
11
3.196062992125984
21
-0.8426155905511811
0
LINE
8
BLACK
6
CONTINUOUS
10
3.196062992125984
20
-0.8426155905511811
11
3.1985414960629921
21
-0.8525298031496062
0
LINE
8
BLACK
6
CONTINUOUS
10
3.1985414960629921
20
-0.8525298031496062
11
3.2006352362204722
21
-0.8567172047244094
0
LINE
8
BLACK
6
CONTINUOUS
10
3.2006352362204722
20
-0.8567172047244094
11
3.2020920866141731
21
-0.8581740551181102
0
LINE
8
BLACK
6
CONTINUOUS
10
3.2020920866141731
20
-0.8581740551181102
11
3.2056123228346456
21
-0.8599341732283464
0
LINE
8
BLACK
6
CONTINUOUS
10
3.2056123228346456
20
-0.8599341732283464
11
3.2084484251968504
21
-0.8599341732283464
0
LINE
8
BLACK
6
CONTINUOUS
10
3.2084484251968504
20
-0.8599341732283464
11
3.2119685826771653
21
-0.8581740944881889
0
LINE
8
BLACK
6
CONTINUOUS
10
3.2119685826771653
20
-0.8581740944881889
11
3.213425472440945
21
-0.8567172047244094
0
LINE
8
BLACK
6
CONTINUOUS
10
3.213425472440945
20
-0.8567172047244094
11
3.2155191338582676
21
-0.8525298818897638
0
LINE
8
BLACK
6
CONTINUOUS
10
3.2155191338582676
20
-0.8525298818897638
11
3.217997755905512
21
-0.8426155511811023
0
LINE
8
BLACK
6
CONTINUOUS
10
3.217997755905512
20
-0.8426155511811023
11
3.217997755905512
21
-0.8300087007874015
0
LINE
8
BLACK
6
CONTINUOUS
10
3.217997755905512
20
-0.8300087007874015
11
3.2155191338582676
21
-0.8200943700787401
0
LINE
8
BLACK
6
CONTINUOUS
10
3.2155191338582676
20
-0.8200943700787401
11
3.2134255118110238
21
-0.8159070472440945
0
LINE
8
BLACK
6
CONTINUOUS
10
3.2134255118110238
20
-0.8159070472440945
11
3.2119686614173228
21
-0.8144501968503937
0
LINE
8
BLACK
6
CONTINUOUS
10
3.2119686614173228
20
-0.8144501968503937
11
3.2084484251968504
21
-0.8126900787401574
0
LINE
8
BLACK
6
CONTINUOUS
10
3.2084484251968504
20
-0.8126900787401574
11
3.2056123228346456
21
-0.8126900787401574
0
LINE
8
BLACK
6
CONTINUOUS
10
3.2056123228346456
20
-0.8126900787401574
11
3.2020920866141731
21
-0.8144501968503937
0
LINE
8
BLACK
6
CONTINUOUS
10
3.267396535433071
20
-0.8012303543307087
11
3.268726496062992
21
-0.8015025196850394
0
LINE
8
BLACK
6
CONTINUOUS
10
3.268726496062992
20
-0.8015025196850394
11
3.2743507874015747
21
-0.8043146850393701
0
LINE
8
BLACK
6
CONTINUOUS
10
3.2743507874015747
20
-0.8043146850393701
11
3.2750621259842521
21
-0.8049454724409448
0
LINE
8
BLACK
6
CONTINUOUS
10
3.2750621259842521
20
-0.8049454724409448
11
3.2758855511811023
21
-0.8054208661417323
0
LINE
8
BLACK
6
CONTINUOUS
10
3.2758855511811023
20
-0.8054208661417323
11
3.278697716535433
21
-0.8082329921259842
0
LINE
8
BLACK
6
CONTINUOUS
10
3.278697716535433
20
-0.8082329921259842
11
3.2791731102362203
21
-0.8090564173228346
0
LINE
8
BLACK
6
CONTINUOUS
10
3.2791731102362203
20
-0.8090564173228346
11
3.2798039763779525
21
-0.8097678346456693
0
LINE
8
BLACK
6
CONTINUOUS
10
3.2798039763779525
20
-0.8097678346456693
11
3.2826161023622045
21
-0.8153921653543307
0
LINE
8
BLACK
6
CONTINUOUS
10
3.2826161023622045
20
-0.8153921653543307
11
3.2827467716535432
21
-0.8160308661417323
0
LINE
8
BLACK
6
CONTINUOUS
10
3.2827467716535432
20
-0.8160308661417323
11
3.2830632283464567
21
-0.8166008661417322
0
LINE
8
BLACK
6
CONTINUOUS
10
3.2830632283464567
20
-0.8166008661417322
11
3.2858753937007874
21
-0.8278494488188977
0
LINE
8
BLACK
6
CONTINUOUS
10
3.2858753937007874
20
-0.8278494488188977
11
3.2858631102362206
21
-0.8285779527559055
0
LINE
8
BLACK
6
CONTINUOUS
10
3.2858631102362206
20
-0.8285779527559055
11
3.2860517322834646
21
-0.8292817716535433
0
LINE
8
BLACK
6
CONTINUOUS
10
3.2860517322834646
20
-0.8292817716535433
11
3.2860517322834646
21
-0.8433425196850394
0
LINE
8
BLACK
6
CONTINUOUS
10
3.2860517322834646
20
-0.8433425196850394
11
3.2858631102362206
21
-0.8440462992125984
0
LINE
8
BLACK
6
CONTINUOUS
10
3.2858631102362206
20
-0.8440462992125984
11
3.2858753937007874
21
-0.844774842519685
0
LINE
8
BLACK
6
CONTINUOUS
10
3.2858753937007874
20
-0.844774842519685
11
3.2830632283464567
21
-0.8560234251968504
0
LINE
8
BLACK
6
CONTINUOUS
10
3.2830632283464567
20
-0.8560234251968504
11
3.2827467716535432
21
-0.8565934251968503
0
LINE
8
BLACK
6
CONTINUOUS
10
3.2827467716535432
20
-0.8565934251968503
11
3.2826161023622045
21
-0.8572320866141732
0
LINE
8
BLACK
6
CONTINUOUS
10
3.2826161023622045
20
-0.8572320866141732
11
3.2798039763779525
21
-0.8628564173228346
0
LINE
8
BLACK
6
CONTINUOUS
10
3.2798039763779525
20
-0.8628564173228346
11
3.2791731102362203
21
-0.8635677952755906
0
LINE
8
BLACK
6
CONTINUOUS
10
3.2791731102362203
20
-0.8635677952755906
11
3.2786977559055117
21
-0.8643912204724409
0
LINE
8
BLACK
6
CONTINUOUS
10
3.2786977559055117
20
-0.8643912204724409
11
3.275885590551181
21
-0.8672033858267716
0
LINE
8
BLACK
6
CONTINUOUS
10
3.275885590551181
20
-0.8672033858267716
11
3.2750621653543308
21
-0.8676787401574803
0
LINE
8
BLACK
6
CONTINUOUS
10
3.2750621653543308
20
-0.8676787401574803
11
3.2743507874015747
21
-0.8683096062992126
0
LINE
8
BLACK
6
CONTINUOUS
10
3.2743507874015747
20
-0.8683096062992126
11
3.268726496062992
21
-0.8711217322834646
0
LINE
8
BLACK
6
CONTINUOUS
10
3.268726496062992
20
-0.8711217322834646
11
3.2673966141732285
21
-0.8713938582677165
0
LINE
8
BLACK
6
CONTINUOUS
10
3.2673966141732285
20
-0.8713938582677165
11
3.2660854724409449
21
-0.8717451968503936
0
LINE
8
BLACK
6
CONTINUOUS
10
3.2660854724409449
20
-0.8717451968503936
11
3.2604611811023623
21
-0.8717451968503936
0
LINE
8
BLACK
6
CONTINUOUS
10
3.2604611811023623
20
-0.8717451968503936
11
3.2591499212598425
21
-0.8713938188976378
0
LINE
8
BLACK
6
CONTINUOUS
10
3.2591499212598425
20
-0.8713938188976378
11
3.2578201968503935
21
-0.8711217322834646
0
LINE
8
BLACK
6
CONTINUOUS
10
3.2578201968503935
20
-0.8711217322834646
11
3.2521958661417321
21
-0.8683096062992126
0
LINE
8
BLACK
6
CONTINUOUS
10
3.2521958661417321
20
-0.8683096062992126
11
3.2514844488188976
21
-0.8676787401574803
0
LINE
8
BLACK
6
CONTINUOUS
10
3.2514844488188976
20
-0.8676787401574803
11
3.2506610629921258
21
-0.8672033858267716
0
LINE
8
BLACK
6
CONTINUOUS
10
3.2506610629921258
20
-0.8672033858267716
11
3.2478488976377951
21
-0.8643912204724409
0
LINE
8
BLACK
6
CONTINUOUS
10
3.2478488976377951
20
-0.8643912204724409
11
3.247373464566929
21
-0.8635677559055118
0
LINE
8
BLACK
6
CONTINUOUS
10
3.247373464566929
20
-0.8635677559055118
11
3.2467426771653543
21
-0.8628564173228346
0
LINE
8
BLACK
6
CONTINUOUS
10
3.2467426771653543
20
-0.8628564173228346
11
3.2439305118110235
21
-0.8572321259842519
0
LINE
8
BLACK
6
CONTINUOUS
10
3.2439305118110235
20
-0.8572321259842519
11
3.2437997637795273
21
-0.8565933464566929
0
LINE
8
BLACK
6
CONTINUOUS
10
3.2437997637795273
20
-0.8565933464566929
11
3.2434833858267718
21
-0.8560233858267716
0
LINE
8
BLACK
6
CONTINUOUS
10
3.2434833858267718
20
-0.8560233858267716
11
3.2406712598425198
21
-0.8447748031496063
0
LINE
8
BLACK
6
CONTINUOUS
10
3.2406712598425198
20
-0.8447748031496063
11
3.2406835039370079
21
-0.8440463385826772
0
LINE
8
BLACK
6
CONTINUOUS
10
3.2406835039370079
20
-0.8440463385826772
11
3.2404949212598426
21
-0.8433425196850394
0
LINE
8
BLACK
6
CONTINUOUS
10
3.2404949212598426
20
-0.8433425196850394
11
3.2404949212598426
21
-0.8292817716535433
0
LINE
8
BLACK
6
CONTINUOUS
10
3.2404949212598426
20
-0.8292817716535433
11
3.2406835039370079
21
-0.8285779133858268
0
LINE
8
BLACK
6
CONTINUOUS
10
3.2406835039370079
20
-0.8285779133858268
11
3.2406712598425198
21
-0.8278494881889764
0
LINE
8
BLACK
6
CONTINUOUS
10
3.2406712598425198
20
-0.8278494881889764
11
3.2434833858267718
21
-0.8166008661417322
0
LINE
8
BLACK
6
CONTINUOUS
10
3.2434833858267718
20
-0.8166008661417322
11
3.2437997637795273
21
-0.8160308661417323
0
LINE
8
BLACK
6
CONTINUOUS
10
3.2437997637795273
20
-0.8160308661417323
11
3.2439305118110235
21
-0.8153921259842519
0
LINE
8
BLACK
6
CONTINUOUS
10
3.2439305118110235
20
-0.8153921259842519
11
3.2467426771653543
21
-0.8097678346456693
0
LINE
8
BLACK
6
CONTINUOUS
10
3.2467426771653543
20
-0.8097678346456693
11
3.247373464566929
21
-0.8090564566929134
0
LINE
8
BLACK
6
CONTINUOUS
10
3.247373464566929
20
-0.8090564566929134
11
3.2478489370078738
21
-0.8082329921259842
0
LINE
8
BLACK
6
CONTINUOUS
10
3.2478489370078738
20
-0.8082329921259842
11
3.2506611023622045
21
-0.8054208661417323
0
LINE
8
BLACK
6
CONTINUOUS
10
3.2506611023622045
20
-0.8054208661417323
11
3.2514844881889764
21
-0.8049454724409448
0
LINE
8
BLACK
6
CONTINUOUS
10
3.2514844881889764
20
-0.8049454724409448
11
3.2521958661417321
21
-0.8043146850393701
0
LINE
8
BLACK
6
CONTINUOUS
10
3.2521958661417321
20
-0.8043146850393701
11
3.257820118110236
21
-0.8015025196850394
0
LINE
8
BLACK
6
CONTINUOUS
10
3.257820118110236
20
-0.8015025196850394
11
3.2591501181102362
21
-0.8012303149606299
0
LINE
8
BLACK
6
CONTINUOUS
10
3.2591501181102362
20
-0.8012303149606299
11
3.2604611811023623
21
-0.8008790551181102
0
LINE
8
BLACK
6
CONTINUOUS
10
3.2604611811023623
20
-0.8008790551181102
11
3.2660854724409449
21
-0.8008790551181102
0
LINE
8
BLACK
6
CONTINUOUS
10
3.2660854724409449
20
-0.8008790551181102
11
3.267396535433071
21
-0.8012303543307087
0
LINE
8
BLACK
6
CONTINUOUS
10
3.2583350393700785
20
-0.8144501968503937
11
3.256878188976378
21
-0.8159070078740157
0
LINE
8
BLACK
6
CONTINUOUS
10
3.256878188976378
20
-0.8159070078740157
11
3.2547844488188975
21
-0.8200944094488188
0
LINE
8
BLACK
6
CONTINUOUS
10
3.2547844488188975
20
-0.8200944094488188
11
3.2523059448818898
21
-0.8300086614173228
0
LINE
8
BLACK
6
CONTINUOUS
10
3.2523059448818898
20
-0.8300086614173228
11
3.2523059448818898
21
-0.8426155905511811
0
LINE
8
BLACK
6
CONTINUOUS
10
3.2523059448818898
20
-0.8426155905511811
11
3.2547844488188975
21
-0.8525298031496062
0
LINE
8
BLACK
6
CONTINUOUS
10
3.2547844488188975
20
-0.8525298031496062
11
3.256878188976378
21
-0.8567172047244094
0
LINE
8
BLACK
6
CONTINUOUS
10
3.256878188976378
20
-0.8567172047244094
11
3.2583350393700785
21
-0.8581740551181102
0
LINE
8
BLACK
6
CONTINUOUS
10
3.2583350393700785
20
-0.8581740551181102
11
3.261855275590551
21
-0.8599341732283464
0
LINE
8
BLACK
6
CONTINUOUS
10
3.261855275590551
20
-0.8599341732283464
11
3.2646913779527558
21
-0.8599341732283464
0
LINE
8
BLACK
6
CONTINUOUS
10
3.2646913779527558
20
-0.8599341732283464
11
3.2682115354330707
21
-0.8581740944881889
0
LINE
8
BLACK
6
CONTINUOUS
10
3.2682115354330707
20
-0.8581740944881889
11
3.2696684251968504
21
-0.8567172047244094
0
LINE
8
BLACK
6
CONTINUOUS
10
3.2696684251968504
20
-0.8567172047244094
11
3.271762086614173
21
-0.8525298818897638
0
LINE
8
BLACK
6
CONTINUOUS
10
3.271762086614173
20
-0.8525298818897638
11
3.2742407086614174
21
-0.8426155511811023
0
LINE
8
BLACK
6
CONTINUOUS
10
3.2742407086614174
20
-0.8426155511811023
11
3.2742407086614174
21
-0.8300087007874015
0
LINE
8
BLACK
6
CONTINUOUS
10
3.2742407086614174
20
-0.8300087007874015
11
3.271762086614173
21
-0.8200943700787401
0
LINE
8
BLACK
6
CONTINUOUS
10
3.271762086614173
20
-0.8200943700787401
11
3.2696684645669292
21
-0.8159070472440945
0
LINE
8
BLACK
6
CONTINUOUS
10
3.2696684645669292
20
-0.8159070472440945
11
3.2682116141732283
21
-0.8144501968503937
0
LINE
8
BLACK
6
CONTINUOUS
10
3.2682116141732283
20
-0.8144501968503937
11
3.2646913779527558
21
-0.8126900787401574
0
LINE
8
BLACK
6
CONTINUOUS
10
3.2646913779527558
20
-0.8126900787401574
11
3.261855275590551
21
-0.8126900787401574
0
LINE
8
BLACK
6
CONTINUOUS
10
3.261855275590551
20
-0.8126900787401574
11
3.2583350393700785
21
-0.8144501968503937
0
LINE
8
BLACK
6
CONTINUOUS
10
3.3534026377952757
20
-0.8213552755905512
11
3.3555642125984253
21
-0.8235168503937008
0
LINE
8
BLACK
6
CONTINUOUS
10
3.3555642125984253
20
-0.8235168503937008
11
3.3563553937007873
21
-0.8264696062992126
0
LINE
8
BLACK
6
CONTINUOUS
10
3.3563553937007873
20
-0.8264696062992126
11
3.3563553937007873
21
-0.86583968503937
0
LINE
8
BLACK
6
CONTINUOUS
10
3.3563553937007873
20
-0.86583968503937
11
3.3555642125984253
21
-0.8687924409448818
0
LINE
8
BLACK
6
CONTINUOUS
10
3.3555642125984253
20
-0.8687924409448818
11
3.3534026377952757
21
-0.8709540157480314
0
LINE
8
BLACK
6
CONTINUOUS
10
3.3534026377952757
20
-0.8709540157480314
11
3.3504498818897637
21
-0.8717451968503936
0
LINE
8
BLACK
6
CONTINUOUS
10
3.3504498818897637
20
-0.8717451968503936
11
3.3474971259842521
21
-0.8709540157480314
0
LINE
8
BLACK
6
CONTINUOUS
10
3.3474971259842521
20
-0.8709540157480314
11
3.3453355511811025
21
-0.8687924409448818
0
LINE
8
BLACK
6
CONTINUOUS
10
3.3453355511811025
20
-0.8687924409448818
11
3.3445443700787401
21
-0.86583968503937
0
LINE
8
BLACK
6
CONTINUOUS
10
3.3445443700787401
20
-0.86583968503937
11
3.3445443700787401
21
-0.8264696062992126
0
LINE
8
BLACK
6
CONTINUOUS
10
3.3445443700787401
20
-0.8264696062992126
11
3.3453355511811025
21
-0.8235168503937008
0
LINE
8
BLACK
6
CONTINUOUS
10
3.3453355511811025
20
-0.8235168503937008
11
3.3474971259842521
21
-0.8213552755905512
0
LINE
8
BLACK
6
CONTINUOUS
10
3.3474971259842521
20
-0.8213552755905512
11
3.3504498818897637
21
-0.820564094488189
0
LINE
8
BLACK
6
CONTINUOUS
10
3.3504498818897637
20
-0.820564094488189
11
3.3534026377952757
21
-0.8213552755905512
0
LINE
8
BLACK
6
CONTINUOUS
10
3.3967553543307085
20
-0.8209153937007874
11
3.39808531496063
21
-0.8211875590551181
0
LINE
8
BLACK
6
CONTINUOUS
10
3.39808531496063
20
-0.8211875590551181
11
3.4037096062992127
21
-0.8239997244094488
0
LINE
8
BLACK
6
CONTINUOUS
10
3.4037096062992127
20
-0.8239997244094488
11
3.403979803149606
21
-0.8242393307086614
0
LINE
8
BLACK
6
CONTINUOUS
10
3.403979803149606
20
-0.8242393307086614
11
3.404322440944882
21
-0.8243535433070865
0
LINE
8
BLACK
6
CONTINUOUS
10
3.404322440944882
20
-0.8243535433070865
11
3.40510937007874
21
-0.8252409448818897
0
LINE
8
BLACK
6
CONTINUOUS
10
3.40510937007874
20
-0.8252409448818897
11
3.4059968110236221
21
-0.8260279133858267
0
LINE
8
BLACK
6
CONTINUOUS
10
3.4059968110236221
20
-0.8260279133858267
11
3.4061109842519683
21
-0.8263705118110236
0
LINE
8
BLACK
6
CONTINUOUS
10
3.4061109842519683
20
-0.8263705118110236
11
3.4063506299212598
21
-0.826640748031496
0
LINE
8
BLACK
6
CONTINUOUS
10
3.4063506299212598
20
-0.826640748031496
11
3.4091627952755905
21
-0.832265
0
LINE
8
BLACK
6
CONTINUOUS
10
3.4091627952755905
20
-0.832265
11
3.409434960629921
21
-0.833595
0
LINE
8
BLACK
6
CONTINUOUS
10
3.409434960629921
20
-0.833595
11
3.4097862598425195
21
-0.834906062992126
0
LINE
8
BLACK
6
CONTINUOUS
10
3.4097862598425195
20
-0.834906062992126
11
3.4097862598425195
21
-0.86583968503937
0
LINE
8
BLACK
6
CONTINUOUS
10
3.4097862598425195
20
-0.86583968503937
11
3.4089950787401575
21
-0.8687924409448818
0
LINE
8
BLACK
6
CONTINUOUS
10
3.4089950787401575
20
-0.8687924409448818
11
3.4068335039370079
21
-0.8709540157480314
0
LINE
8
BLACK
6
CONTINUOUS
10
3.4068335039370079
20
-0.8709540157480314
11
3.4038807480314959
21
-0.8717451968503936
0
LINE
8
BLACK
6
CONTINUOUS
10
3.4038807480314959
20
-0.8717451968503936
11
3.4009279921259843
21
-0.8709540157480314
0
LINE
8
BLACK
6
CONTINUOUS
10
3.4009279921259843
20
-0.8709540157480314
11
3.3987664173228347
21
-0.8687924409448818
0
LINE
8
BLACK
6
CONTINUOUS
10
3.3987664173228347
20
-0.8687924409448818
11
3.3979752362204723
21
-0.86583968503937
0
LINE
8
BLACK
6
CONTINUOUS
10
3.3979752362204723
20
-0.86583968503937
11
3.3979752362204723
21
-0.8363001574803149
0
LINE
8
BLACK
6
CONTINUOUS
10
3.3979752362204723
20
-0.8363001574803149
11
3.3966668897637793
21
-0.8336834645669291
0
LINE
8
BLACK
6
CONTINUOUS
10
3.3966668897637793
20
-0.8336834645669291
11
3.3940501968503938
21
-0.8323751181102362
0
LINE
8
BLACK
6
CONTINUOUS
10
3.3940501968503938
20
-0.8323751181102362
11
3.3884019291338583
21
-0.8323751181102362
0
LINE
8
BLACK
6
CONTINUOUS
10
3.3884019291338583
20
-0.8323751181102362
11
3.3848816929133858
21
-0.8341352362204725
0
LINE
8
BLACK
6
CONTINUOUS
10
3.3848816929133858
20
-0.8341352362204725
11
3.3844768897637794
21
-0.8345400393700787
0
LINE
8
BLACK
6
CONTINUOUS
10
3.3844768897637794
20
-0.8345400393700787
11
3.3844768897637794
21
-0.86583968503937
0
LINE
8
BLACK
6
CONTINUOUS
10
3.3844768897637794
20
-0.86583968503937
11
3.3836857086614174
21
-0.8687924409448818
0
LINE
8
BLACK
6
CONTINUOUS
10
3.3836857086614174
20
-0.8687924409448818
11
3.3815241338582678
21
-0.8709540157480314
0
LINE
8
BLACK
6
CONTINUOUS
10
3.3815241338582678
20
-0.8709540157480314
11
3.3785713779527557
21
-0.8717451968503936
0
LINE
8
BLACK
6
CONTINUOUS
10
3.3785713779527557
20
-0.8717451968503936
11
3.3756186220472442
21
-0.8709540157480314
0
LINE
8
BLACK
6
CONTINUOUS
10
3.3756186220472442
20
-0.8709540157480314
11
3.3734570472440946
21
-0.8687924409448818
0
LINE
8
BLACK
6
CONTINUOUS
10
3.3734570472440946
20
-0.8687924409448818
11
3.3726658661417321
21
-0.86583968503937
0
LINE
8
BLACK
6
CONTINUOUS
10
3.3726658661417321
20
-0.86583968503937
11
3.3726658661417321
21
-0.8264696062992126
0
LINE
8
BLACK
6
CONTINUOUS
10
3.3726658661417321
20
-0.8264696062992126
11
3.3734570472440946
21
-0.8235168503937008
0
LINE
8
BLACK
6
CONTINUOUS
10
3.3734570472440946
20
-0.8235168503937008
11
3.3756186220472442
21
-0.8213552755905512
0
LINE
8
BLACK
6
CONTINUOUS
10
3.3756186220472442
20
-0.8213552755905512
11
3.3785713779527557
21
-0.820564094488189
0
LINE
8
BLACK
6
CONTINUOUS
10
3.3785713779527557
20
-0.820564094488189
11
3.3815241338582678
21
-0.8213552755905512
0
LINE
8
BLACK
6
CONTINUOUS
10
3.3815241338582678
20
-0.8213552755905512
11
3.3823598425196848
21
-0.8221909842519685
0
LINE
8
BLACK
6
CONTINUOUS
10
3.3823598425196848
20
-0.8221909842519685
11
3.3843667716535433
21
-0.8211875590551181
0
LINE
8
BLACK
6
CONTINUOUS
10
3.3843667716535433
20
-0.8211875590551181
11
3.3856967716535431
21
-0.8209153543307086
0
LINE
8
BLACK
6
CONTINUOUS
10
3.3856967716535431
20
-0.8209153543307086
11
3.3870078346456691
21
-0.820564094488189
0
LINE
8
BLACK
6
CONTINUOUS
10
3.3870078346456691
20
-0.820564094488189
11
3.3954442913385825
21
-0.820564094488189
0
LINE
8
BLACK
6
CONTINUOUS
10
3.3954442913385825
20
-0.820564094488189
11
3.3967553543307085
21
-0.8209153937007874
0
LINE
8
BLACK
6
CONTINUOUS
10
3.3512008661417321
20
-0.8010802755905512
11
3.3519783070866143
21
-0.8010802755905512
0
LINE
8
BLACK
6
CONTINUOUS
10
3.3519783070866143
20
-0.8010802755905512
11
3.351978346456693
21
-0.8010802755905512
0
LINE
8
BLACK
6
CONTINUOUS
10
3.351978346456693
20
-0.8010802755905512
11
3.3526516535433069
21
-0.8014689763779528
0
LINE
8
BLACK
6
CONTINUOUS
10
3.3526516535433069
20
-0.8014689763779528
11
3.3534026377952757
21
-0.8016702362204724
0
LINE
8
BLACK
6
CONTINUOUS
10
3.3534026377952757
20
-0.8016702362204724
11
3.3539523622047245
21
-0.8022199606299213
0
LINE
8
BLACK
6
CONTINUOUS
10
3.3539523622047245
20
-0.8022199606299213
11
3.3546256692913383
21
-0.8026087007874015
0
LINE
8
BLACK
6
CONTINUOUS
10
3.3546256692913383
20
-0.8026087007874015
11
3.3546257086614171
21
-0.8026087401574803
0
LINE
8
BLACK
6
CONTINUOUS
10
3.3546257086614171
20
-0.8026087401574803
11
3.3574378740157478
21
-0.805420905511811
0
LINE
8
BLACK
6
CONTINUOUS
10
3.3574378740157478
20
-0.805420905511811
11
3.3574379133858265
21
-0.8054209448818898
0
LINE
8
BLACK
6
CONTINUOUS
10
3.3574379133858265
20
-0.8054209448818898
11
3.3580689370078738
21
-0.806513937007874
0
LINE
8
BLACK
6
CONTINUOUS
10
3.3580689370078738
20
-0.806513937007874
11
3.3589663385826771
21
-0.8080682677165354
0
LINE
8
BLACK
6
CONTINUOUS
10
3.3589663385826771
20
-0.8080682677165354
11
3.3589663385826771
21
-0.8080683070866141
0
LINE
8
BLACK
6
CONTINUOUS
10
3.3589663385826771
20
-0.8080683070866141
11
3.3589663385826771
21
-0.8111252362204724
0
LINE
8
BLACK
6
CONTINUOUS
10
3.3589663385826771
20
-0.8111252362204724
11
3.3582251968503938
21
-0.8124088582677165
0
LINE
8
BLACK
6
CONTINUOUS
10
3.3582251968503938
20
-0.8124088582677165
11
3.3574379133858265
21
-0.8137725196850394
0
LINE
8
BLACK
6
CONTINUOUS
10
3.3574379133858265
20
-0.8137725196850394
11
3.357437834645669
21
-0.8137725984251968
0
LINE
8
BLACK
6
CONTINUOUS
10
3.357437834645669
20
-0.8137725984251968
11
3.3546256692913383
21
-0.8165847244094488
0
LINE
8
BLACK
6
CONTINUOUS
10
3.3546256692913383
20
-0.8165847244094488
11
3.3543402755905509
21
-0.8167494881889764
0
LINE
8
BLACK
6
CONTINUOUS
10
3.3543402755905509
20
-0.8167494881889764
11
3.3539524015748032
21
-0.8169733858267716
0
LINE
8
BLACK
6
CONTINUOUS
10
3.3539524015748032
20
-0.8169733858267716
11
3.3534026377952757
21
-0.8175231889763779
0
LINE
8
BLACK
6
CONTINUOUS
10
3.3534026377952757
20
-0.8175231889763779
11
3.3526516535433069
21
-0.8177244094488189
0
LINE
8
BLACK
6
CONTINUOUS
10
3.3526516535433069
20
-0.8177244094488189
11
3.351978346456693
21
-0.8181131496062992
0
LINE
8
BLACK
6
CONTINUOUS
10
3.351978346456693
20
-0.8181131496062992
11
3.3512008661417321
21
-0.8181131496062992
0
LINE
8
BLACK
6
CONTINUOUS
10
3.3512008661417321
20
-0.8181131496062992
11
3.3504498818897637
21
-0.8183143700787402
0
LINE
8
BLACK
6
CONTINUOUS
10
3.3504498818897637
20
-0.8183143700787402
11
3.3496988976377953
21
-0.8181131496062992
0
LINE
8
BLACK
6
CONTINUOUS
10
3.3496988976377953
20
-0.8181131496062992
11
3.3489214173228348
21
-0.8181131496062992
0
LINE
8
BLACK
6
CONTINUOUS
10
3.3489214173228348
20
-0.8181131496062992
11
3.348921377952756
21
-0.8181131496062992
0
LINE
8
BLACK
6
CONTINUOUS
10
3.348921377952756
20
-0.8181131496062992
11
3.348248031496063
21
-0.8177243700787401
0
LINE
8
BLACK
6
CONTINUOUS
10
3.348248031496063
20
-0.8177243700787401
11
3.3474971259842521
21
-0.8175231889763779
0
LINE
8
BLACK
6
CONTINUOUS
10
3.3474971259842521
20
-0.8175231889763779
11
3.3469473228346458
21
-0.8169733858267716
0
LINE
8
BLACK
6
CONTINUOUS
10
3.3469473228346458
20
-0.8169733858267716
11
3.3462740551181103
21
-0.8165846850393701
0
LINE
8
BLACK
6
CONTINUOUS
10
3.3462740551181103
20
-0.8165846850393701
11
3.3434619291338583
21
-0.8137725590551181
0
LINE
8
BLACK
6
CONTINUOUS
10
3.3434619291338583
20
-0.8137725590551181
11
3.3426746062992123
21
-0.8124088582677165
0
LINE
8
BLACK
6
CONTINUOUS
10
3.3426746062992123
20
-0.8124088582677165
11
3.341933464566929
21
-0.8111252362204724
0
LINE
8
BLACK
6
CONTINUOUS
10
3.341933464566929
20
-0.8111252362204724
11
3.341933464566929
21
-0.8080683070866141
0
LINE
8
BLACK
6
CONTINUOUS
10
3.341933464566929
20
-0.8080683070866141
11
3.341933464566929
21
-0.8080682677165354
0
LINE
8
BLACK
6
CONTINUOUS
10
3.341933464566929
20
-0.8080682677165354
11
3.3428308661417323
21
-0.806513937007874
0
LINE
8
BLACK
6
CONTINUOUS
10
3.3428308661417323
20
-0.806513937007874
11
3.3434618897637796
21
-0.8054209448818898
0
LINE
8
BLACK
6
CONTINUOUS
10
3.3434618897637796
20
-0.8054209448818898
11
3.3462740157480315
21
-0.802608779527559
0
LINE
8
BLACK
6
CONTINUOUS
10
3.3462740157480315
20
-0.802608779527559
11
3.3462740157480315
21
-0.8026087401574803
0
LINE
8
BLACK
6
CONTINUOUS
10
3.3462740157480315
20
-0.8026087401574803
11
3.3462740551181103
21
-0.8026087401574803
0
LINE
8
BLACK
6
CONTINUOUS
10
3.3462740551181103
20
-0.8026087401574803
11
3.3469473228346458
21
-0.8022199999999999
0
LINE
8
BLACK
6
CONTINUOUS
10
3.3469473228346458
20
-0.8022199999999999
11
3.3474971259842521
21
-0.8016702362204724
0
LINE
8
BLACK
6
CONTINUOUS
10
3.3474971259842521
20
-0.8016702362204724
11
3.348248031496063
21
-0.8014690157480315
0
LINE
8
BLACK
6
CONTINUOUS
10
3.348248031496063
20
-0.8014690157480315
11
3.348921377952756
21
-0.8010802755905512
0
LINE
8
BLACK
6
CONTINUOUS
10
3.348921377952756
20
-0.8010802755905512
11
3.3496988976377953
21
-0.8010802755905512
0
LINE
8
BLACK
6
CONTINUOUS
10
3.3496988976377953
20
-0.8010802755905512
11
3.3504498818897637
21
-0.8008790551181102
0
LINE
8
BLACK
6
CONTINUOUS
10
3.3504498818897637
20
-0.8008790551181102
11
3.3512008661417321
21
-0.8010802755905512
  0
ENDSEC
  0
EOF
