  0
SECTION
  2
HEADER
  9
$ANGBASE
  50
0.0
  9
$ANGDIR
  70
1
  9
$MEASUREMENT
  70
0
  0
ENDSEC
  0
SECTION
  2
TABLES
  0
TABLE
  2
LTYPE
  70
4
  0
LTYPE
  5
40F
  2
CONTINUOUS
  70
0
  3
Solid line
  72
65
  73
0
  40
0.0
  0
LTYPE
  5
410
  2
DASHDOT
 70
0
  3
Dash Dot ____ _ ____ _
 72
65
 73
4
 40
2.0
 49
1.25
 49
-0.25
 49
0.25
 49
-0.25
  0
LTYPE
  5
411
  2
DASHED
 70
0
  3
Dashed __ __ __ __ __
 72
65
 73
2
 40
0.75
 49
0.5
 49
-0.25
  0
LTYPE
  5
43B
  2
DOTTED
 70
0
  3
Dotted .  .  .  .
 72
65
 73
2
 40
0.2
 49
0.0
 49
-0.2
  0
ENDTAB
  0
TABLE
  2
STYLE
  70
4
  0
STYLE
  2
KICAD
  70
0
  40
0
  41
1
  42
1
  50
0
  71
0
  3
isocp.shx
  0
STYLE
  2
KICADB
  70
0
  40
0
  41
1
  42
1
  50
0
  71
0
  3
isocp.shx
  0
STYLE
  2
KICADI
  70
0
  40
0
  41
1
  42
1
  50
15
  71
0
  3
isocp.shx
  0
STYLE
  2
KICADBI
  70
0
  40
0
  41
1
  42
1
  50
15
  71
0
  3
isocp.shx
  0
ENDTAB
  0
TABLE
  2
LAYER
  70
1
  0
LAYER
  2
BLACK
  70
0
  62
7
  6
CONTINUOUS
  0
ENDTAB
  0
ENDSEC
  0
SECTION
  2
ENTITIES
0
LINE
8
BLACK
6
CONTINUOUS
10
1.8205096456692913
20
-2.4836841338582678
11
1.8338744094488189
21
-2.4868516141732284
0
LINE
8
BLACK
6
CONTINUOUS
10
1.8338744094488189
20
-2.4868516141732284
11
1.846781062992126
21
-2.4915492913385826
0
LINE
8
BLACK
6
CONTINUOUS
10
1.846781062992126
20
-2.4915492913385826
11
1.8590551181102362
21
-2.4977135433070865
0
LINE
8
BLACK
6
CONTINUOUS
10
1.8590551181102362
20
-2.4977135433070865
11
1.8705305511811023
21
-2.5052610236220474
0
LINE
8
BLACK
6
CONTINUOUS
10
1.8705305511811023
20
-2.5052610236220474
11
1.8810521653543306
21
-2.5140897244094487
0
LINE
8
BLACK
6
CONTINUOUS
10
1.8810521653543306
20
-2.5140897244094487
11
1.8904776771653542
21
-2.5240801968503939
0
LINE
8
BLACK
6
CONTINUOUS
10
1.8904776771653542
20
-2.5240801968503939
11
1.8986796456692914
21
-2.5350973622047244
0
LINE
8
BLACK
6
CONTINUOUS
10
1.8986796456692914
20
-2.5350973622047244
11
1.9055471653543308
21
-2.5469922047244093
0
LINE
8
BLACK
6
CONTINUOUS
10
1.9055471653543308
20
-2.5469922047244093
11
1.9109873228346457
21
-2.559603937007874
0
LINE
8
BLACK
6
CONTINUOUS
10
1.9109873228346457
20
-2.559603937007874
11
1.9149265748031497
21
-2.5727618897637794
0
LINE
8
BLACK
6
CONTINUOUS
10
1.9149265748031497
20
-2.5727618897637794
11
1.9173116141732283
21
-2.5862882283464566
0
LINE
8
BLACK
6
CONTINUOUS
10
1.9173116141732283
20
-2.5862882283464566
11
1.9181102362204725
21
-2.6000000000000001
0
LINE
8
BLACK
6
CONTINUOUS
10
1.9181102362204725
20
-2.6000000000000001
11
1.9173116141732283
21
-2.6137117716535432
0
LINE
8
BLACK
6
CONTINUOUS
10
1.9173116141732283
20
-2.6137117716535432
11
1.9149265748031497
21
-2.6272381102362203
0
LINE
8
BLACK
6
CONTINUOUS
10
1.9149265748031497
20
-2.6272381102362203
11
1.9109873228346457
21
-2.6403960629921257
0
LINE
8
BLACK
6
CONTINUOUS
10
1.9109873228346457
20
-2.6403960629921257
11
1.9055471653543308
21
-2.6530077952755904
0
LINE
8
BLACK
6
CONTINUOUS
10
1.9055471653543308
20
-2.6530077952755904
11
1.8986796456692914
21
-2.6649026377952754
0
LINE
8
BLACK
6
CONTINUOUS
10
1.8986796456692914
20
-2.6649026377952754
11
1.8904776771653542
21
-2.6759198031496063
0
LINE
8
BLACK
6
CONTINUOUS
10
1.8904776771653542
20
-2.6759198031496063
11
1.8810521653543306
21
-2.6859102755905511
0
LINE
8
BLACK
6
CONTINUOUS
10
1.8810521653543306
20
-2.6859102755905511
11
1.8705305511811023
21
-2.6947389763779528
0
LINE
8
BLACK
6
CONTINUOUS
10
1.8705305511811023
20
-2.6947389763779528
11
1.8590551181102362
21
-2.7022864566929132
0
LINE
8
BLACK
6
CONTINUOUS
10
1.8590551181102362
20
-2.7022864566929132
11
1.846781062992126
21
-2.7084507086614171
0
LINE
8
BLACK
6
CONTINUOUS
10
1.846781062992126
20
-2.7084507086614171
11
1.8338744094488189
21
-2.7131483858267718
0
LINE
8
BLACK
6
CONTINUOUS
10
1.8338744094488189
20
-2.7131483858267718
11
1.8205096456692913
21
-2.7163158661417324
0
LINE
8
BLACK
6
CONTINUOUS
10
1.8205096456692913
20
-2.7163158661417324
11
1.8068674803149607
21
-2.7179103937007874
0
LINE
8
BLACK
6
CONTINUOUS
10
1.8068674803149607
20
-2.7179103937007874
11
1.7931325196850394
21
-2.7179103937007874
0
LINE
8
BLACK
6
CONTINUOUS
10
1.7931325196850394
20
-2.7179103937007874
11
1.7794903543307086
21
-2.7163158661417324
0
LINE
8
BLACK
6
CONTINUOUS
10
1.7794903543307086
20
-2.7163158661417324
11
1.766125590551181
21
-2.7131483858267718
0
LINE
8
BLACK
6
CONTINUOUS
10
1.766125590551181
20
-2.7131483858267718
11
1.7532189370078739
21
-2.7084507086614171
0
LINE
8
BLACK
6
CONTINUOUS
10
1.7532189370078739
20
-2.7084507086614171
11
1.7409448818897637
21
-2.7022864566929132
0
LINE
8
BLACK
6
CONTINUOUS
10
1.7409448818897637
20
-2.7022864566929132
11
1.7294694488188975
21
-2.6947389763779528
0
LINE
8
BLACK
6
CONTINUOUS
10
1.7294694488188975
20
-2.6947389763779528
11
1.7189478346456692
21
-2.6859102755905511
0
LINE
8
BLACK
6
CONTINUOUS
10
1.7189478346456692
20
-2.6859102755905511
11
1.7095223228346457
21
-2.6759198031496063
0
LINE
8
BLACK
6
CONTINUOUS
10
1.7095223228346457
20
-2.6759198031496063
11
1.7013203543307087
21
-2.6649026377952754
0
LINE
8
BLACK
6
CONTINUOUS
10
1.7013203543307087
20
-2.6649026377952754
11
1.6944528346456693
21
-2.6530077952755904
0
LINE
8
BLACK
6
CONTINUOUS
10
1.6944528346456693
20
-2.6530077952755904
11
1.6890126771653542
21
-2.6403960629921257
0
LINE
8
BLACK
6
CONTINUOUS
10
1.6890126771653542
20
-2.6403960629921257
11
1.6850734251968504
21
-2.6272381102362203
0
LINE
8
BLACK
6
CONTINUOUS
10
1.6850734251968504
20
-2.6272381102362203
11
1.6826883858267716
21
-2.6137117716535432
0
LINE
8
BLACK
6
CONTINUOUS
10
1.6826883858267716
20
-2.6137117716535432
11
1.6818897637795276
21
-2.6000000000000001
0
LINE
8
BLACK
6
CONTINUOUS
10
1.6818897637795276
20
-2.6000000000000001
11
1.6826883858267716
21
-2.5862882283464566
0
LINE
8
BLACK
6
CONTINUOUS
10
1.6826883858267716
20
-2.5862882283464566
11
1.6850734251968504
21
-2.5727618897637794
0
LINE
8
BLACK
6
CONTINUOUS
10
1.6850734251968504
20
-2.5727618897637794
11
1.6890126771653542
21
-2.559603937007874
0
LINE
8
BLACK
6
CONTINUOUS
10
1.6890126771653542
20
-2.559603937007874
11
1.6944528346456693
21
-2.5469922047244093
0
LINE
8
BLACK
6
CONTINUOUS
10
1.6944528346456693
20
-2.5469922047244093
11
1.7013203543307087
21
-2.5350973622047244
0
LINE
8
BLACK
6
CONTINUOUS
10
1.7013203543307087
20
-2.5350973622047244
11
1.7095223228346457
21
-2.5240801968503939
0
LINE
8
BLACK
6
CONTINUOUS
10
1.7095223228346457
20
-2.5240801968503939
11
1.7189478346456692
21
-2.5140897244094487
0
LINE
8
BLACK
6
CONTINUOUS
10
1.7189478346456692
20
-2.5140897244094487
11
1.7294694488188975
21
-2.5052610236220474
0
LINE
8
BLACK
6
CONTINUOUS
10
1.7294694488188975
20
-2.5052610236220474
11
1.7409448818897637
21
-2.4977135433070865
0
LINE
8
BLACK
6
CONTINUOUS
10
1.7409448818897637
20
-2.4977135433070865
11
1.7532189370078739
21
-2.4915492913385826
0
LINE
8
BLACK
6
CONTINUOUS
10
1.7532189370078739
20
-2.4915492913385826
11
1.766125590551181
21
-2.4868516141732284
0
LINE
8
BLACK
6
CONTINUOUS
10
1.766125590551181
20
-2.4868516141732284
11
1.7794903543307086
21
-2.4836841338582678
0
LINE
8
BLACK
6
CONTINUOUS
10
1.7794903543307086
20
-2.4836841338582678
11
1.7931325196850394
21
-2.4820896062992124
0
LINE
8
BLACK
6
CONTINUOUS
10
1.7931325196850394
20
-2.4820896062992124
11
1.8068674803149607
21
-2.4820896062992124
0
LINE
8
BLACK
6
CONTINUOUS
10
1.8068674803149607
20
-2.4820896062992124
11
1.8205096456692913
21
-2.4836841338582678
0
LINE
8
BLACK
6
CONTINUOUS
10
4.6205096456692916
20
-2.4836841338582678
11
4.6338744094488185
21
-2.4868516141732284
0
LINE
8
BLACK
6
CONTINUOUS
10
4.6338744094488185
20
-2.4868516141732284
11
4.646781062992126
21
-2.4915492913385826
0
LINE
8
BLACK
6
CONTINUOUS
10
4.646781062992126
20
-2.4915492913385826
11
4.6590551181102358
21
-2.4977135433070865
0
LINE
8
BLACK
6
CONTINUOUS
10
4.6590551181102358
20
-2.4977135433070865
11
4.6705305511811019
21
-2.5052610236220474
0
LINE
8
BLACK
6
CONTINUOUS
10
4.6705305511811019
20
-2.5052610236220474
11
4.6810521653543304
21
-2.5140897244094487
0
LINE
8
BLACK
6
CONTINUOUS
10
4.6810521653543304
20
-2.5140897244094487
11
4.6904776771653545
21
-2.5240801968503939
0
LINE
8
BLACK
6
CONTINUOUS
10
4.6904776771653545
20
-2.5240801968503939
11
4.6986796456692916
21
-2.5350973622047244
0
LINE
8
BLACK
6
CONTINUOUS
10
4.6986796456692916
20
-2.5350973622047244
11
4.7055471653543304
21
-2.5469922047244093
0
LINE
8
BLACK
6
CONTINUOUS
10
4.7055471653543304
20
-2.5469922047244093
11
4.7109873228346455
21
-2.559603937007874
0
LINE
8
BLACK
6
CONTINUOUS
10
4.7109873228346455
20
-2.559603937007874
11
4.7149265748031493
21
-2.5727618897637794
0
LINE
8
BLACK
6
CONTINUOUS
10
4.7149265748031493
20
-2.5727618897637794
11
4.7173116141732283
21
-2.5862882283464566
0
LINE
8
BLACK
6
CONTINUOUS
10
4.7173116141732283
20
-2.5862882283464566
11
4.7181102362204728
21
-2.6000000000000001
0
LINE
8
BLACK
6
CONTINUOUS
10
4.7181102362204728
20
-2.6000000000000001
11
4.7173116141732283
21
-2.6137117716535432
0
LINE
8
BLACK
6
CONTINUOUS
10
4.7173116141732283
20
-2.6137117716535432
11
4.7149265748031493
21
-2.6272381102362203
0
LINE
8
BLACK
6
CONTINUOUS
10
4.7149265748031493
20
-2.6272381102362203
11
4.7109873228346455
21
-2.6403960629921257
0
LINE
8
BLACK
6
CONTINUOUS
10
4.7109873228346455
20
-2.6403960629921257
11
4.7055471653543304
21
-2.6530077952755904
0
LINE
8
BLACK
6
CONTINUOUS
10
4.7055471653543304
20
-2.6530077952755904
11
4.6986796456692916
21
-2.6649026377952754
0
LINE
8
BLACK
6
CONTINUOUS
10
4.6986796456692916
20
-2.6649026377952754
11
4.6904776771653545
21
-2.6759198031496063
0
LINE
8
BLACK
6
CONTINUOUS
10
4.6904776771653545
20
-2.6759198031496063
11
4.6810521653543304
21
-2.6859102755905511
0
LINE
8
BLACK
6
CONTINUOUS
10
4.6810521653543304
20
-2.6859102755905511
11
4.6705305511811019
21
-2.6947389763779528
0
LINE
8
BLACK
6
CONTINUOUS
10
4.6705305511811019
20
-2.6947389763779528
11
4.6590551181102358
21
-2.7022864566929132
0
LINE
8
BLACK
6
CONTINUOUS
10
4.6590551181102358
20
-2.7022864566929132
11
4.646781062992126
21
-2.7084507086614171
0
LINE
8
BLACK
6
CONTINUOUS
10
4.646781062992126
20
-2.7084507086614171
11
4.6338744094488185
21
-2.7131483858267718
0
LINE
8
BLACK
6
CONTINUOUS
10
4.6338744094488185
20
-2.7131483858267718
11
4.6205096456692916
21
-2.7163158661417324
0
LINE
8
BLACK
6
CONTINUOUS
10
4.6205096456692916
20
-2.7163158661417324
11
4.6068674803149605
21
-2.7179103937007874
0
LINE
8
BLACK
6
CONTINUOUS
10
4.6068674803149605
20
-2.7179103937007874
11
4.5931325196850397
21
-2.7179103937007874
0
LINE
8
BLACK
6
CONTINUOUS
10
4.5931325196850397
20
-2.7179103937007874
11
4.5794903543307086
21
-2.7163158661417324
0
LINE
8
BLACK
6
CONTINUOUS
10
4.5794903543307086
20
-2.7163158661417324
11
4.5661255905511808
21
-2.7131483858267718
0
LINE
8
BLACK
6
CONTINUOUS
10
4.5661255905511808
20
-2.7131483858267718
11
4.5532189370078742
21
-2.7084507086614171
0
LINE
8
BLACK
6
CONTINUOUS
10
4.5532189370078742
20
-2.7084507086614171
11
4.5409448818897635
21
-2.7022864566929132
0
LINE
8
BLACK
6
CONTINUOUS
10
4.5409448818897635
20
-2.7022864566929132
11
4.5294694488188973
21
-2.6947389763779528
0
LINE
8
BLACK
6
CONTINUOUS
10
4.5294694488188973
20
-2.6947389763779528
11
4.5189478346456688
21
-2.6859102755905511
0
LINE
8
BLACK
6
CONTINUOUS
10
4.5189478346456688
20
-2.6859102755905511
11
4.5095223228346457
21
-2.6759198031496063
0
LINE
8
BLACK
6
CONTINUOUS
10
4.5095223228346457
20
-2.6759198031496063
11
4.5013203543307085
21
-2.6649026377952754
0
LINE
8
BLACK
6
CONTINUOUS
10
4.5013203543307085
20
-2.6649026377952754
11
4.4944528346456689
21
-2.6530077952755904
0
LINE
8
BLACK
6
CONTINUOUS
10
4.4944528346456689
20
-2.6530077952755904
11
4.4890126771653538
21
-2.6403960629921257
0
LINE
8
BLACK
6
CONTINUOUS
10
4.4890126771653538
20
-2.6403960629921257
11
4.48507342519685
21
-2.6272381102362203
0
LINE
8
BLACK
6
CONTINUOUS
10
4.48507342519685
20
-2.6272381102362203
11
4.4826883858267719
21
-2.6137117716535432
0
LINE
8
BLACK
6
CONTINUOUS
10
4.4826883858267719
20
-2.6137117716535432
11
4.4818897637795274
21
-2.6000000000000001
0
LINE
8
BLACK
6
CONTINUOUS
10
4.4818897637795274
20
-2.6000000000000001
11
4.4826883858267719
21
-2.5862882283464566
0
LINE
8
BLACK
6
CONTINUOUS
10
4.4826883858267719
20
-2.5862882283464566
11
4.48507342519685
21
-2.5727618897637794
0
LINE
8
BLACK
6
CONTINUOUS
10
4.48507342519685
20
-2.5727618897637794
11
4.4890126771653538
21
-2.559603937007874
0
LINE
8
BLACK
6
CONTINUOUS
10
4.4890126771653538
20
-2.559603937007874
11
4.4944528346456689
21
-2.5469922047244093
0
LINE
8
BLACK
6
CONTINUOUS
10
4.4944528346456689
20
-2.5469922047244093
11
4.5013203543307085
21
-2.5350973622047244
0
LINE
8
BLACK
6
CONTINUOUS
10
4.5013203543307085
20
-2.5350973622047244
11
4.5095223228346457
21
-2.5240801968503939
0
LINE
8
BLACK
6
CONTINUOUS
10
4.5095223228346457
20
-2.5240801968503939
11
4.5189478346456688
21
-2.5140897244094487
0
LINE
8
BLACK
6
CONTINUOUS
10
4.5189478346456688
20
-2.5140897244094487
11
4.5294694488188973
21
-2.5052610236220474
0
LINE
8
BLACK
6
CONTINUOUS
10
4.5294694488188973
20
-2.5052610236220474
11
4.5409448818897635
21
-2.4977135433070865
0
LINE
8
BLACK
6
CONTINUOUS
10
4.5409448818897635
20
-2.4977135433070865
11
4.5532189370078742
21
-2.4915492913385826
0
LINE
8
BLACK
6
CONTINUOUS
10
4.5532189370078742
20
-2.4915492913385826
11
4.5661255905511808
21
-2.4868516141732284
0
LINE
8
BLACK
6
CONTINUOUS
10
4.5661255905511808
20
-2.4868516141732284
11
4.5794903543307086
21
-2.4836841338582678
0
LINE
8
BLACK
6
CONTINUOUS
10
4.5794903543307086
20
-2.4836841338582678
11
4.5931325196850397
21
-2.4820896062992124
0
LINE
8
BLACK
6
CONTINUOUS
10
4.5931325196850397
20
-2.4820896062992124
11
4.6068674803149605
21
-2.4820896062992124
0
LINE
8
BLACK
6
CONTINUOUS
10
4.6068674803149605
20
-2.4820896062992124
11
4.6205096456692916
21
-2.4836841338582678
0
LINE
8
BLACK
6
CONTINUOUS
10
1.8205096456692913
20
-1.2836841338582676
11
1.8338744094488189
21
-1.2868516141732282
0
LINE
8
BLACK
6
CONTINUOUS
10
1.8338744094488189
20
-1.2868516141732282
11
1.846781062992126
21
-1.2915492913385827
0
LINE
8
BLACK
6
CONTINUOUS
10
1.846781062992126
20
-1.2915492913385827
11
1.8590551181102362
21
-1.2977135433070865
0
LINE
8
BLACK
6
CONTINUOUS
10
1.8590551181102362
20
-1.2977135433070865
11
1.8705305511811023
21
-1.3052610236220472
0
LINE
8
BLACK
6
CONTINUOUS
10
1.8705305511811023
20
-1.3052610236220472
11
1.8810521653543306
21
-1.3140897244094487
0
LINE
8
BLACK
6
CONTINUOUS
10
1.8810521653543306
20
-1.3140897244094487
11
1.8904776771653542
21
-1.3240801968503937
0
LINE
8
BLACK
6
CONTINUOUS
10
1.8904776771653542
20
-1.3240801968503937
11
1.8986796456692914
21
-1.3350973622047244
0
LINE
8
BLACK
6
CONTINUOUS
10
1.8986796456692914
20
-1.3350973622047244
11
1.9055471653543308
21
-1.3469922047244094
0
LINE
8
BLACK
6
CONTINUOUS
10
1.9055471653543308
20
-1.3469922047244094
11
1.9109873228346457
21
-1.3596039370078741
0
LINE
8
BLACK
6
CONTINUOUS
10
1.9109873228346457
20
-1.3596039370078741
11
1.9149265748031497
21
-1.3727618897637794
0
LINE
8
BLACK
6
CONTINUOUS
10
1.9149265748031497
20
-1.3727618897637794
11
1.9173116141732283
21
-1.3862882283464566
0
LINE
8
BLACK
6
CONTINUOUS
10
1.9173116141732283
20
-1.3862882283464566
11
1.9181102362204725
21
-1.3999999999999999
0
LINE
8
BLACK
6
CONTINUOUS
10
1.9181102362204725
20
-1.3999999999999999
11
1.9173116141732283
21
-1.4137117716535432
0
LINE
8
BLACK
6
CONTINUOUS
10
1.9173116141732283
20
-1.4137117716535432
11
1.9149265748031497
21
-1.4272381102362204
0
LINE
8
BLACK
6
CONTINUOUS
10
1.9149265748031497
20
-1.4272381102362204
11
1.9109873228346457
21
-1.440396062992126
0
LINE
8
BLACK
6
CONTINUOUS
10
1.9109873228346457
20
-1.440396062992126
11
1.9055471653543308
21
-1.4530077952755904
0
LINE
8
BLACK
6
CONTINUOUS
10
1.9055471653543308
20
-1.4530077952755904
11
1.8986796456692914
21
-1.4649026377952756
0
LINE
8
BLACK
6
CONTINUOUS
10
1.8986796456692914
20
-1.4649026377952756
11
1.8904776771653542
21
-1.4759198031496064
0
LINE
8
BLACK
6
CONTINUOUS
10
1.8904776771653542
20
-1.4759198031496064
11
1.8810521653543306
21
-1.4859102755905511
0
LINE
8
BLACK
6
CONTINUOUS
10
1.8810521653543306
20
-1.4859102755905511
11
1.8705305511811023
21
-1.4947389763779528
0
LINE
8
BLACK
6
CONTINUOUS
10
1.8705305511811023
20
-1.4947389763779528
11
1.8590551181102362
21
-1.5022864566929133
0
LINE
8
BLACK
6
CONTINUOUS
10
1.8590551181102362
20
-1.5022864566929133
11
1.846781062992126
21
-1.5084507086614174
0
LINE
8
BLACK
6
CONTINUOUS
10
1.846781062992126
20
-1.5084507086614174
11
1.8338744094488189
21
-1.5131483858267716
0
LINE
8
BLACK
6
CONTINUOUS
10
1.8338744094488189
20
-1.5131483858267716
11
1.8205096456692913
21
-1.5163158661417322
0
LINE
8
BLACK
6
CONTINUOUS
10
1.8205096456692913
20
-1.5163158661417322
11
1.8068674803149607
21
-1.5179103937007874
0
LINE
8
BLACK
6
CONTINUOUS
10
1.8068674803149607
20
-1.5179103937007874
11
1.7931325196850394
21
-1.5179103937007874
0
LINE
8
BLACK
6
CONTINUOUS
10
1.7931325196850394
20
-1.5179103937007874
11
1.7794903543307086
21
-1.5163158661417322
0
LINE
8
BLACK
6
CONTINUOUS
10
1.7794903543307086
20
-1.5163158661417322
11
1.766125590551181
21
-1.5131483858267716
0
LINE
8
BLACK
6
CONTINUOUS
10
1.766125590551181
20
-1.5131483858267716
11
1.7532189370078739
21
-1.5084507086614174
0
LINE
8
BLACK
6
CONTINUOUS
10
1.7532189370078739
20
-1.5084507086614174
11
1.7409448818897637
21
-1.5022864566929133
0
LINE
8
BLACK
6
CONTINUOUS
10
1.7409448818897637
20
-1.5022864566929133
11
1.7294694488188975
21
-1.4947389763779528
0
LINE
8
BLACK
6
CONTINUOUS
10
1.7294694488188975
20
-1.4947389763779528
11
1.7189478346456692
21
-1.4859102755905511
0
LINE
8
BLACK
6
CONTINUOUS
10
1.7189478346456692
20
-1.4859102755905511
11
1.7095223228346457
21
-1.4759198031496064
0
LINE
8
BLACK
6
CONTINUOUS
10
1.7095223228346457
20
-1.4759198031496064
11
1.7013203543307087
21
-1.4649026377952756
0
LINE
8
BLACK
6
CONTINUOUS
10
1.7013203543307087
20
-1.4649026377952756
11
1.6944528346456693
21
-1.4530077952755904
0
LINE
8
BLACK
6
CONTINUOUS
10
1.6944528346456693
20
-1.4530077952755904
11
1.6890126771653542
21
-1.440396062992126
0
LINE
8
BLACK
6
CONTINUOUS
10
1.6890126771653542
20
-1.440396062992126
11
1.6850734251968504
21
-1.4272381102362204
0
LINE
8
BLACK
6
CONTINUOUS
10
1.6850734251968504
20
-1.4272381102362204
11
1.6826883858267716
21
-1.4137117716535432
0
LINE
8
BLACK
6
CONTINUOUS
10
1.6826883858267716
20
-1.4137117716535432
11
1.6818897637795276
21
-1.3999999999999999
0
LINE
8
BLACK
6
CONTINUOUS
10
1.6818897637795276
20
-1.3999999999999999
11
1.6826883858267716
21
-1.3862882283464566
0
LINE
8
BLACK
6
CONTINUOUS
10
1.6826883858267716
20
-1.3862882283464566
11
1.6850734251968504
21
-1.3727618897637794
0
LINE
8
BLACK
6
CONTINUOUS
10
1.6850734251968504
20
-1.3727618897637794
11
1.6890126771653542
21
-1.3596039370078741
0
LINE
8
BLACK
6
CONTINUOUS
10
1.6890126771653542
20
-1.3596039370078741
11
1.6944528346456693
21
-1.3469922047244094
0
LINE
8
BLACK
6
CONTINUOUS
10
1.6944528346456693
20
-1.3469922047244094
11
1.7013203543307087
21
-1.3350973622047244
0
LINE
8
BLACK
6
CONTINUOUS
10
1.7013203543307087
20
-1.3350973622047244
11
1.7095223228346457
21
-1.3240801968503937
0
LINE
8
BLACK
6
CONTINUOUS
10
1.7095223228346457
20
-1.3240801968503937
11
1.7189478346456692
21
-1.3140897244094487
0
LINE
8
BLACK
6
CONTINUOUS
10
1.7189478346456692
20
-1.3140897244094487
11
1.7294694488188975
21
-1.3052610236220472
0
LINE
8
BLACK
6
CONTINUOUS
10
1.7294694488188975
20
-1.3052610236220472
11
1.7409448818897637
21
-1.2977135433070865
0
LINE
8
BLACK
6
CONTINUOUS
10
1.7409448818897637
20
-1.2977135433070865
11
1.7532189370078739
21
-1.2915492913385827
0
LINE
8
BLACK
6
CONTINUOUS
10
1.7532189370078739
20
-1.2915492913385827
11
1.766125590551181
21
-1.2868516141732282
0
LINE
8
BLACK
6
CONTINUOUS
10
1.766125590551181
20
-1.2868516141732282
11
1.7794903543307086
21
-1.2836841338582676
0
LINE
8
BLACK
6
CONTINUOUS
10
1.7794903543307086
20
-1.2836841338582676
11
1.7931325196850394
21
-1.2820896062992126
0
LINE
8
BLACK
6
CONTINUOUS
10
1.7931325196850394
20
-1.2820896062992126
11
1.8068674803149607
21
-1.2820896062992126
0
LINE
8
BLACK
6
CONTINUOUS
10
1.8068674803149607
20
-1.2820896062992126
11
1.8205096456692913
21
-1.2836841338582676
0
LINE
8
BLACK
6
CONTINUOUS
10
4.6205096456692916
20
-1.2836841338582676
11
4.6338744094488185
21
-1.2868516141732282
0
LINE
8
BLACK
6
CONTINUOUS
10
4.6338744094488185
20
-1.2868516141732282
11
4.646781062992126
21
-1.2915492913385827
0
LINE
8
BLACK
6
CONTINUOUS
10
4.646781062992126
20
-1.2915492913385827
11
4.6590551181102358
21
-1.2977135433070865
0
LINE
8
BLACK
6
CONTINUOUS
10
4.6590551181102358
20
-1.2977135433070865
11
4.6705305511811019
21
-1.3052610236220472
0
LINE
8
BLACK
6
CONTINUOUS
10
4.6705305511811019
20
-1.3052610236220472
11
4.6810521653543304
21
-1.3140897244094487
0
LINE
8
BLACK
6
CONTINUOUS
10
4.6810521653543304
20
-1.3140897244094487
11
4.6904776771653545
21
-1.3240801968503937
0
LINE
8
BLACK
6
CONTINUOUS
10
4.6904776771653545
20
-1.3240801968503937
11
4.6986796456692916
21
-1.3350973622047244
0
LINE
8
BLACK
6
CONTINUOUS
10
4.6986796456692916
20
-1.3350973622047244
11
4.7055471653543304
21
-1.3469922047244094
0
LINE
8
BLACK
6
CONTINUOUS
10
4.7055471653543304
20
-1.3469922047244094
11
4.7109873228346455
21
-1.3596039370078741
0
LINE
8
BLACK
6
CONTINUOUS
10
4.7109873228346455
20
-1.3596039370078741
11
4.7149265748031493
21
-1.3727618897637794
0
LINE
8
BLACK
6
CONTINUOUS
10
4.7149265748031493
20
-1.3727618897637794
11
4.7173116141732283
21
-1.3862882283464566
0
LINE
8
BLACK
6
CONTINUOUS
10
4.7173116141732283
20
-1.3862882283464566
11
4.7181102362204728
21
-1.3999999999999999
0
LINE
8
BLACK
6
CONTINUOUS
10
4.7181102362204728
20
-1.3999999999999999
11
4.7173116141732283
21
-1.4137117716535432
0
LINE
8
BLACK
6
CONTINUOUS
10
4.7173116141732283
20
-1.4137117716535432
11
4.7149265748031493
21
-1.4272381102362204
0
LINE
8
BLACK
6
CONTINUOUS
10
4.7149265748031493
20
-1.4272381102362204
11
4.7109873228346455
21
-1.440396062992126
0
LINE
8
BLACK
6
CONTINUOUS
10
4.7109873228346455
20
-1.440396062992126
11
4.7055471653543304
21
-1.4530077952755904
0
LINE
8
BLACK
6
CONTINUOUS
10
4.7055471653543304
20
-1.4530077952755904
11
4.6986796456692916
21
-1.4649026377952756
0
LINE
8
BLACK
6
CONTINUOUS
10
4.6986796456692916
20
-1.4649026377952756
11
4.6904776771653545
21
-1.4759198031496064
0
LINE
8
BLACK
6
CONTINUOUS
10
4.6904776771653545
20
-1.4759198031496064
11
4.6810521653543304
21
-1.4859102755905511
0
LINE
8
BLACK
6
CONTINUOUS
10
4.6810521653543304
20
-1.4859102755905511
11
4.6705305511811019
21
-1.4947389763779528
0
LINE
8
BLACK
6
CONTINUOUS
10
4.6705305511811019
20
-1.4947389763779528
11
4.6590551181102358
21
-1.5022864566929133
0
LINE
8
BLACK
6
CONTINUOUS
10
4.6590551181102358
20
-1.5022864566929133
11
4.646781062992126
21
-1.5084507086614174
0
LINE
8
BLACK
6
CONTINUOUS
10
4.646781062992126
20
-1.5084507086614174
11
4.6338744094488185
21
-1.5131483858267716
0
LINE
8
BLACK
6
CONTINUOUS
10
4.6338744094488185
20
-1.5131483858267716
11
4.6205096456692916
21
-1.5163158661417322
0
LINE
8
BLACK
6
CONTINUOUS
10
4.6205096456692916
20
-1.5163158661417322
11
4.6068674803149605
21
-1.5179103937007874
0
LINE
8
BLACK
6
CONTINUOUS
10
4.6068674803149605
20
-1.5179103937007874
11
4.5931325196850397
21
-1.5179103937007874
0
LINE
8
BLACK
6
CONTINUOUS
10
4.5931325196850397
20
-1.5179103937007874
11
4.5794903543307086
21
-1.5163158661417322
0
LINE
8
BLACK
6
CONTINUOUS
10
4.5794903543307086
20
-1.5163158661417322
11
4.5661255905511808
21
-1.5131483858267716
0
LINE
8
BLACK
6
CONTINUOUS
10
4.5661255905511808
20
-1.5131483858267716
11
4.5532189370078742
21
-1.5084507086614174
0
LINE
8
BLACK
6
CONTINUOUS
10
4.5532189370078742
20
-1.5084507086614174
11
4.5409448818897635
21
-1.5022864566929133
0
LINE
8
BLACK
6
CONTINUOUS
10
4.5409448818897635
20
-1.5022864566929133
11
4.5294694488188973
21
-1.4947389763779528
0
LINE
8
BLACK
6
CONTINUOUS
10
4.5294694488188973
20
-1.4947389763779528
11
4.5189478346456688
21
-1.4859102755905511
0
LINE
8
BLACK
6
CONTINUOUS
10
4.5189478346456688
20
-1.4859102755905511
11
4.5095223228346457
21
-1.4759198031496064
0
LINE
8
BLACK
6
CONTINUOUS
10
4.5095223228346457
20
-1.4759198031496064
11
4.5013203543307085
21
-1.4649026377952756
0
LINE
8
BLACK
6
CONTINUOUS
10
4.5013203543307085
20
-1.4649026377952756
11
4.4944528346456689
21
-1.4530077952755904
0
LINE
8
BLACK
6
CONTINUOUS
10
4.4944528346456689
20
-1.4530077952755904
11
4.4890126771653538
21
-1.440396062992126
0
LINE
8
BLACK
6
CONTINUOUS
10
4.4890126771653538
20
-1.440396062992126
11
4.48507342519685
21
-1.4272381102362204
0
LINE
8
BLACK
6
CONTINUOUS
10
4.48507342519685
20
-1.4272381102362204
11
4.4826883858267719
21
-1.4137117716535432
0
LINE
8
BLACK
6
CONTINUOUS
10
4.4826883858267719
20
-1.4137117716535432
11
4.4818897637795274
21
-1.3999999999999999
0
LINE
8
BLACK
6
CONTINUOUS
10
4.4818897637795274
20
-1.3999999999999999
11
4.4826883858267719
21
-1.3862882283464566
0
LINE
8
BLACK
6
CONTINUOUS
10
4.4826883858267719
20
-1.3862882283464566
11
4.48507342519685
21
-1.3727618897637794
0
LINE
8
BLACK
6
CONTINUOUS
10
4.48507342519685
20
-1.3727618897637794
11
4.4890126771653538
21
-1.3596039370078741
0
LINE
8
BLACK
6
CONTINUOUS
10
4.4890126771653538
20
-1.3596039370078741
11
4.4944528346456689
21
-1.3469922047244094
0
LINE
8
BLACK
6
CONTINUOUS
10
4.4944528346456689
20
-1.3469922047244094
11
4.5013203543307085
21
-1.3350973622047244
0
LINE
8
BLACK
6
CONTINUOUS
10
4.5013203543307085
20
-1.3350973622047244
11
4.5095223228346457
21
-1.3240801968503937
0
LINE
8
BLACK
6
CONTINUOUS
10
4.5095223228346457
20
-1.3240801968503937
11
4.5189478346456688
21
-1.3140897244094487
0
LINE
8
BLACK
6
CONTINUOUS
10
4.5189478346456688
20
-1.3140897244094487
11
4.5294694488188973
21
-1.3052610236220472
0
LINE
8
BLACK
6
CONTINUOUS
10
4.5294694488188973
20
-1.3052610236220472
11
4.5409448818897635
21
-1.2977135433070865
0
LINE
8
BLACK
6
CONTINUOUS
10
4.5409448818897635
20
-1.2977135433070865
11
4.5532189370078742
21
-1.2915492913385827
0
LINE
8
BLACK
6
CONTINUOUS
10
4.5532189370078742
20
-1.2915492913385827
11
4.5661255905511808
21
-1.2868516141732282
0
LINE
8
BLACK
6
CONTINUOUS
10
4.5661255905511808
20
-1.2868516141732282
11
4.5794903543307086
21
-1.2836841338582676
0
LINE
8
BLACK
6
CONTINUOUS
10
4.5794903543307086
20
-1.2836841338582676
11
4.5931325196850397
21
-1.2820896062992126
0
LINE
8
BLACK
6
CONTINUOUS
10
4.5931325196850397
20
-1.2820896062992126
11
4.6068674803149605
21
-1.2820896062992126
0
LINE
8
BLACK
6
CONTINUOUS
10
4.6068674803149605
20
-1.2820896062992126
11
4.6205096456692916
21
-1.2836841338582676
  0
ENDSEC
  0
EOF
