%TF.GenerationSoftware,KiCad,Pcbnew,7.0.9-7.0.9~ubuntu23.04.1*%
%TF.CreationDate,2023-11-27T17:45:01+00:00*%
%TF.ProjectId,PCRD03,50435244-3033-42e6-9b69-6361645f7063,rev?*%
%TF.SameCoordinates,Original*%
%TF.FileFunction,Paste,Bot*%
%TF.FilePolarity,Positive*%
%FSLAX46Y46*%
G04 Gerber Fmt 4.6, Leading zero omitted, Abs format (unit mm)*
G04 Created by KiCad (PCBNEW 7.0.9-7.0.9~ubuntu23.04.1) date 2023-11-27 17:45:01*
%MOMM*%
%LPD*%
G01*
G04 APERTURE LIST*
%ADD10R,5.000000X4.000000*%
%ADD11R,1.250000X1.000000*%
%ADD12R,1.000000X1.250000*%
%ADD13R,1.300480X1.699260*%
%ADD14R,1.699260X1.300480*%
%ADD15R,1.600000X4.000000*%
%ADD16R,1.000760X0.800100*%
%ADD17R,0.700000X1.300000*%
%ADD18R,1.300000X0.700000*%
%ADD19R,0.650000X1.060000*%
%ADD20R,1.550000X0.600000*%
%ADD21R,1.060000X0.650000*%
%ADD22R,1.000000X2.500000*%
%ADD23R,2.500000X2.300000*%
G04 APERTURE END LIST*
D10*
%TO.C,BT1*%
X57898000Y-51562000D03*
X87898000Y-51562000D03*
%TD*%
%TO.C,BT2*%
X87870000Y-51562000D03*
X117870000Y-51562000D03*
%TD*%
D11*
%TO.C,C4*%
X54229000Y-47355000D03*
X54229000Y-45355000D03*
%TD*%
D12*
%TO.C,C1*%
X61198000Y-36957000D03*
X59198000Y-36957000D03*
%TD*%
D11*
%TO.C,C6*%
X50546000Y-37735000D03*
X50546000Y-39735000D03*
%TD*%
%TO.C,C11*%
X63754000Y-63897000D03*
X63754000Y-65897000D03*
%TD*%
D12*
%TO.C,C8*%
X58944000Y-61341000D03*
X60944000Y-61341000D03*
%TD*%
D11*
%TO.C,C12*%
X69977000Y-63897000D03*
X69977000Y-65897000D03*
%TD*%
%TO.C,C13*%
X65532000Y-58309000D03*
X65532000Y-60309000D03*
%TD*%
D12*
%TO.C,C9*%
X54086000Y-62992000D03*
X52086000Y-62992000D03*
%TD*%
D11*
%TO.C,C14*%
X64516000Y-32528000D03*
X64516000Y-34528000D03*
%TD*%
D12*
%TO.C,C10*%
X58690000Y-69088000D03*
X60690000Y-69088000D03*
%TD*%
%TO.C,C15*%
X69326000Y-58420000D03*
X67326000Y-58420000D03*
%TD*%
%TO.C,C16*%
X69326000Y-56769000D03*
X67326000Y-56769000D03*
%TD*%
D11*
%TO.C,C17*%
X71882000Y-63897000D03*
X71882000Y-65897000D03*
%TD*%
%TO.C,C18*%
X77978000Y-63897000D03*
X77978000Y-65897000D03*
%TD*%
%TO.C,C19*%
X74041000Y-58563000D03*
X74041000Y-60563000D03*
%TD*%
%TO.C,C20*%
X72771000Y-32528000D03*
X72771000Y-34528000D03*
%TD*%
D12*
%TO.C,C21*%
X77962000Y-58420000D03*
X75962000Y-58420000D03*
%TD*%
%TO.C,C22*%
X77581000Y-56769000D03*
X75581000Y-56769000D03*
%TD*%
D11*
%TO.C,C23*%
X80264000Y-63897000D03*
X80264000Y-65897000D03*
%TD*%
%TO.C,C24*%
X86360000Y-63897000D03*
X86360000Y-65897000D03*
%TD*%
%TO.C,C25*%
X82550000Y-58436000D03*
X82550000Y-60436000D03*
%TD*%
%TO.C,C26*%
X81026000Y-32528000D03*
X81026000Y-34528000D03*
%TD*%
D12*
%TO.C,C27*%
X86344000Y-58420000D03*
X84344000Y-58420000D03*
%TD*%
%TO.C,C28*%
X85963000Y-56769000D03*
X83963000Y-56769000D03*
%TD*%
D11*
%TO.C,C29*%
X88392000Y-63897000D03*
X88392000Y-65897000D03*
%TD*%
%TO.C,C30*%
X94615000Y-64024000D03*
X94615000Y-66024000D03*
%TD*%
%TO.C,C31*%
X90805000Y-58436000D03*
X90805000Y-60436000D03*
%TD*%
%TO.C,C32*%
X89281000Y-32528000D03*
X89281000Y-34528000D03*
%TD*%
D12*
%TO.C,C33*%
X94599000Y-58420000D03*
X92599000Y-58420000D03*
%TD*%
%TO.C,C34*%
X94218000Y-56769000D03*
X92218000Y-56769000D03*
%TD*%
D11*
%TO.C,C35*%
X96774000Y-64024000D03*
X96774000Y-66024000D03*
%TD*%
%TO.C,C36*%
X102870000Y-64024000D03*
X102870000Y-66024000D03*
%TD*%
%TO.C,C37*%
X99060000Y-58563000D03*
X99060000Y-60563000D03*
%TD*%
%TO.C,C38*%
X97536000Y-32528000D03*
X97536000Y-34528000D03*
%TD*%
D12*
%TO.C,C39*%
X102854000Y-58420000D03*
X100854000Y-58420000D03*
%TD*%
%TO.C,C40*%
X102473000Y-56769000D03*
X100473000Y-56769000D03*
%TD*%
D13*
%TO.C,D5*%
X59535060Y-57912000D03*
X56034940Y-57912000D03*
%TD*%
D14*
%TO.C,D4*%
X54229000Y-68298060D03*
X54229000Y-64797940D03*
%TD*%
%TO.C,D3*%
X56769000Y-64107060D03*
X56769000Y-60606940D03*
%TD*%
D15*
%TO.C,L1*%
X51032000Y-34417000D03*
X54632000Y-34417000D03*
%TD*%
D16*
%TO.C,Q1*%
X68282820Y-53149500D03*
X68282820Y-55054500D03*
X66083180Y-54102000D03*
%TD*%
%TO.C,Q2*%
X76410820Y-53149500D03*
X76410820Y-55054500D03*
X74211180Y-54102000D03*
%TD*%
%TO.C,Q3*%
X83776820Y-52641500D03*
X83776820Y-54546500D03*
X81577180Y-53594000D03*
%TD*%
%TO.C,Q4*%
X93809820Y-52768500D03*
X93809820Y-54673500D03*
X91610180Y-53721000D03*
%TD*%
%TO.C,Q5*%
X101175820Y-53022500D03*
X101175820Y-54927500D03*
X98976180Y-53975000D03*
%TD*%
D17*
%TO.C,R1*%
X52258000Y-45466000D03*
X50358000Y-45466000D03*
%TD*%
D18*
%TO.C,R3*%
X54102000Y-51242000D03*
X54102000Y-49342000D03*
%TD*%
D17*
%TO.C,R2*%
X61148000Y-39116000D03*
X59248000Y-39116000D03*
%TD*%
D18*
%TO.C,R4*%
X56515000Y-39812000D03*
X56515000Y-37912000D03*
%TD*%
D17*
%TO.C,R6*%
X49469000Y-60452000D03*
X51369000Y-60452000D03*
%TD*%
D18*
%TO.C,R9*%
X67945000Y-67625000D03*
X67945000Y-65725000D03*
%TD*%
%TO.C,R10*%
X67056000Y-34478000D03*
X67056000Y-32578000D03*
%TD*%
D17*
%TO.C,R8*%
X52898000Y-60579000D03*
X54798000Y-60579000D03*
%TD*%
%TO.C,R11*%
X70546000Y-34798000D03*
X68646000Y-34798000D03*
%TD*%
D18*
%TO.C,R12*%
X65913000Y-67625000D03*
X65913000Y-65725000D03*
%TD*%
D17*
%TO.C,R7*%
X58740000Y-67183000D03*
X60640000Y-67183000D03*
%TD*%
%TO.C,R13*%
X69149000Y-60452000D03*
X67249000Y-60452000D03*
%TD*%
%TO.C,R5*%
X57465000Y-55753000D03*
X55565000Y-55753000D03*
%TD*%
%TO.C,R14*%
X63947000Y-55880000D03*
X65847000Y-55880000D03*
%TD*%
D18*
%TO.C,R15*%
X76073000Y-67625000D03*
X76073000Y-65725000D03*
%TD*%
%TO.C,R16*%
X75057000Y-34351000D03*
X75057000Y-32451000D03*
%TD*%
D17*
%TO.C,R17*%
X78674000Y-34671000D03*
X76774000Y-34671000D03*
%TD*%
D18*
%TO.C,R18*%
X74041000Y-67625000D03*
X74041000Y-65725000D03*
%TD*%
D17*
%TO.C,R19*%
X77912000Y-60452000D03*
X76012000Y-60452000D03*
%TD*%
%TO.C,R20*%
X72202000Y-55880000D03*
X74102000Y-55880000D03*
%TD*%
D18*
%TO.C,R21*%
X84455000Y-67625000D03*
X84455000Y-65725000D03*
%TD*%
%TO.C,R22*%
X83312000Y-34478000D03*
X83312000Y-32578000D03*
%TD*%
D17*
%TO.C,R23*%
X87056000Y-34798000D03*
X85156000Y-34798000D03*
%TD*%
D18*
%TO.C,R24*%
X82423000Y-67625000D03*
X82423000Y-65725000D03*
%TD*%
D17*
%TO.C,R25*%
X86294000Y-60452000D03*
X84394000Y-60452000D03*
%TD*%
%TO.C,R26*%
X80457000Y-55753000D03*
X82357000Y-55753000D03*
%TD*%
D18*
%TO.C,R27*%
X92710000Y-67625000D03*
X92710000Y-65725000D03*
%TD*%
%TO.C,R28*%
X91567000Y-34478000D03*
X91567000Y-32578000D03*
%TD*%
D17*
%TO.C,R29*%
X95184000Y-34798000D03*
X93284000Y-34798000D03*
%TD*%
D18*
%TO.C,R30*%
X90678000Y-67625000D03*
X90678000Y-65725000D03*
%TD*%
D17*
%TO.C,R31*%
X94549000Y-60452000D03*
X92649000Y-60452000D03*
%TD*%
%TO.C,R32*%
X88712000Y-55753000D03*
X90612000Y-55753000D03*
%TD*%
D18*
%TO.C,R33*%
X100965000Y-67625000D03*
X100965000Y-65725000D03*
%TD*%
%TO.C,R34*%
X99822000Y-34478000D03*
X99822000Y-32578000D03*
%TD*%
D17*
%TO.C,R35*%
X103439000Y-34798000D03*
X101539000Y-34798000D03*
%TD*%
D18*
%TO.C,R36*%
X98933000Y-67625000D03*
X98933000Y-65725000D03*
%TD*%
D17*
%TO.C,R37*%
X102804000Y-60452000D03*
X100904000Y-60452000D03*
%TD*%
%TO.C,R38*%
X96967000Y-55753000D03*
X98867000Y-55753000D03*
%TD*%
D19*
%TO.C,U3*%
X58740000Y-63162000D03*
X59690000Y-63162000D03*
X60640000Y-63162000D03*
X60640000Y-65362000D03*
X58740000Y-65362000D03*
%TD*%
D20*
%TO.C,U4*%
X53500000Y-54864000D03*
X53500000Y-56134000D03*
X53500000Y-57404000D03*
X53500000Y-58674000D03*
X48100000Y-58674000D03*
X48100000Y-57404000D03*
X48100000Y-56134000D03*
X48100000Y-54864000D03*
%TD*%
D19*
%TO.C,U5*%
X52385000Y-67267000D03*
X51435000Y-67267000D03*
X50485000Y-67267000D03*
X50485000Y-65067000D03*
X52385000Y-65067000D03*
%TD*%
D21*
%TO.C,U1*%
X54567000Y-37912000D03*
X54567000Y-38862000D03*
X54567000Y-39812000D03*
X52367000Y-39812000D03*
X52367000Y-37912000D03*
%TD*%
D19*
%TO.C,U6*%
X67752000Y-64346000D03*
X66802000Y-64346000D03*
X65852000Y-64346000D03*
X65852000Y-62146000D03*
X67752000Y-62146000D03*
%TD*%
%TO.C,U7*%
X76007000Y-64346000D03*
X75057000Y-64346000D03*
X74107000Y-64346000D03*
X74107000Y-62146000D03*
X76007000Y-62146000D03*
%TD*%
%TO.C,U8*%
X84389000Y-64346000D03*
X83439000Y-64346000D03*
X82489000Y-64346000D03*
X82489000Y-62146000D03*
X84389000Y-62146000D03*
%TD*%
%TO.C,U9*%
X92644000Y-64346000D03*
X91694000Y-64346000D03*
X90744000Y-64346000D03*
X90744000Y-62146000D03*
X92644000Y-62146000D03*
%TD*%
%TO.C,U10*%
X100899000Y-64346000D03*
X99949000Y-64346000D03*
X98999000Y-64346000D03*
X98999000Y-62146000D03*
X100899000Y-62146000D03*
%TD*%
D12*
%TO.C,C7*%
X54340000Y-52959000D03*
X52340000Y-52959000D03*
%TD*%
D11*
%TO.C,C42*%
X111125000Y-64024000D03*
X111125000Y-66024000D03*
%TD*%
%TO.C,C41*%
X105156000Y-64024000D03*
X105156000Y-66024000D03*
%TD*%
%TO.C,C43*%
X107315000Y-58563000D03*
X107315000Y-60563000D03*
%TD*%
%TO.C,C44*%
X105791000Y-32528000D03*
X105791000Y-34528000D03*
%TD*%
D12*
%TO.C,C45*%
X111109000Y-58420000D03*
X109109000Y-58420000D03*
%TD*%
%TO.C,C46*%
X110728000Y-56769000D03*
X108728000Y-56769000D03*
%TD*%
D16*
%TO.C,Q6*%
X109430820Y-53022500D03*
X109430820Y-54927500D03*
X107231180Y-53975000D03*
%TD*%
D18*
%TO.C,R39*%
X109220000Y-67625000D03*
X109220000Y-65725000D03*
%TD*%
%TO.C,R40*%
X108077000Y-34478000D03*
X108077000Y-32578000D03*
%TD*%
D17*
%TO.C,R41*%
X111694000Y-34798000D03*
X109794000Y-34798000D03*
%TD*%
D18*
%TO.C,R42*%
X107188000Y-67625000D03*
X107188000Y-65725000D03*
%TD*%
D17*
%TO.C,R43*%
X111059000Y-60452000D03*
X109159000Y-60452000D03*
%TD*%
%TO.C,R44*%
X105222000Y-55753000D03*
X107122000Y-55753000D03*
%TD*%
D16*
%TO.C,U2*%
X52407820Y-47307500D03*
X52407820Y-49212500D03*
X50208180Y-48260000D03*
%TD*%
D19*
%TO.C,U11*%
X109154000Y-64346000D03*
X108204000Y-64346000D03*
X107254000Y-64346000D03*
X107254000Y-62146000D03*
X109154000Y-62146000D03*
%TD*%
D16*
%TO.C,D2*%
X52407820Y-49212500D03*
X52407820Y-51117500D03*
X50208180Y-50165000D03*
%TD*%
D11*
%TO.C,C47*%
X56896000Y-66056000D03*
X56896000Y-68056000D03*
%TD*%
D12*
%TO.C,C48*%
X48784000Y-52959000D03*
X50784000Y-52959000D03*
%TD*%
%TO.C,C49*%
X69104000Y-62230000D03*
X71104000Y-62230000D03*
%TD*%
%TO.C,C50*%
X77486000Y-62230000D03*
X79486000Y-62230000D03*
%TD*%
%TO.C,C51*%
X85868000Y-62230000D03*
X87868000Y-62230000D03*
%TD*%
%TO.C,C52*%
X94123000Y-62230000D03*
X96123000Y-62230000D03*
%TD*%
%TO.C,C53*%
X102505000Y-62230000D03*
X104505000Y-62230000D03*
%TD*%
%TO.C,C54*%
X110760000Y-62357000D03*
X112760000Y-62357000D03*
%TD*%
D22*
%TO.C,C2*%
X50824000Y-42799000D03*
X53824000Y-42799000D03*
%TD*%
%TO.C,C3*%
X57555000Y-46355000D03*
X60555000Y-46355000D03*
%TD*%
%TO.C,C5*%
X60555000Y-42545000D03*
X57555000Y-42545000D03*
%TD*%
D23*
%TO.C,D1*%
X61586000Y-33655000D03*
X57286000Y-33655000D03*
%TD*%
M02*
