%TF.GenerationSoftware,KiCad,Pcbnew,7.0.9-7.0.9~ubuntu23.04.1*%
%TF.CreationDate,2023-11-27T17:45:01+00:00*%
%TF.ProjectId,PCRD03,50435244-3033-42e6-9b69-6361645f7063,rev?*%
%TF.SameCoordinates,Original*%
%TF.FileFunction,Paste,Top*%
%TF.FilePolarity,Positive*%
%FSLAX46Y46*%
G04 Gerber Fmt 4.6, Leading zero omitted, Abs format (unit mm)*
G04 Created by KiCad (PCBNEW 7.0.9-7.0.9~ubuntu23.04.1) date 2023-11-27 17:45:01*
%MOMM*%
%LPD*%
G01*
G04 APERTURE LIST*
%ADD10R,2.000000X4.200000*%
G04 APERTURE END LIST*
D10*
%TO.C,D6*%
X69433000Y-43180000D03*
X64933000Y-43180000D03*
%TD*%
%TO.C,D7*%
X69433000Y-38100000D03*
X64933000Y-38100000D03*
%TD*%
%TO.C,D8*%
X69433000Y-53340000D03*
X64933000Y-53340000D03*
%TD*%
%TO.C,D9*%
X69433000Y-63500000D03*
X64933000Y-63500000D03*
%TD*%
%TO.C,D10*%
X69433000Y-48260000D03*
X64933000Y-48260000D03*
%TD*%
%TO.C,D11*%
X69433000Y-58420000D03*
X64933000Y-58420000D03*
%TD*%
%TO.C,D12*%
X77688000Y-38100000D03*
X73188000Y-38100000D03*
%TD*%
%TO.C,D13*%
X77688000Y-43180000D03*
X73188000Y-43180000D03*
%TD*%
%TO.C,D14*%
X77688000Y-48260000D03*
X73188000Y-48260000D03*
%TD*%
%TO.C,D15*%
X77688000Y-63500000D03*
X73188000Y-63500000D03*
%TD*%
%TO.C,D16*%
X77688000Y-53340000D03*
X73188000Y-53340000D03*
%TD*%
%TO.C,D17*%
X77688000Y-58420000D03*
X73188000Y-58420000D03*
%TD*%
%TO.C,D18*%
X85943000Y-38100000D03*
X81443000Y-38100000D03*
%TD*%
%TO.C,D19*%
X85943000Y-43180000D03*
X81443000Y-43180000D03*
%TD*%
%TO.C,D20*%
X85943000Y-48260000D03*
X81443000Y-48260000D03*
%TD*%
%TO.C,D21*%
X85943000Y-63500000D03*
X81443000Y-63500000D03*
%TD*%
%TO.C,D22*%
X85943000Y-53340000D03*
X81443000Y-53340000D03*
%TD*%
%TO.C,D23*%
X85943000Y-58420000D03*
X81443000Y-58420000D03*
%TD*%
%TO.C,D24*%
X94198000Y-58420000D03*
X89698000Y-58420000D03*
%TD*%
%TO.C,D25*%
X94198000Y-53340000D03*
X89698000Y-53340000D03*
%TD*%
%TO.C,D26*%
X94198000Y-43180000D03*
X89698000Y-43180000D03*
%TD*%
%TO.C,D27*%
X94198000Y-63500000D03*
X89698000Y-63500000D03*
%TD*%
%TO.C,D28*%
X94198000Y-48260000D03*
X89698000Y-48260000D03*
%TD*%
%TO.C,D29*%
X94198000Y-38100000D03*
X89698000Y-38100000D03*
%TD*%
%TO.C,D30*%
X102453000Y-58420000D03*
X97953000Y-58420000D03*
%TD*%
%TO.C,D31*%
X102453000Y-53340000D03*
X97953000Y-53340000D03*
%TD*%
%TO.C,D32*%
X102453000Y-63500000D03*
X97953000Y-63500000D03*
%TD*%
%TO.C,D33*%
X102453000Y-43180000D03*
X97953000Y-43180000D03*
%TD*%
%TO.C,D34*%
X102453000Y-48260000D03*
X97953000Y-48260000D03*
%TD*%
%TO.C,D35*%
X102453000Y-38100000D03*
X97953000Y-38100000D03*
%TD*%
%TO.C,D36*%
X110708000Y-38100000D03*
X106208000Y-38100000D03*
%TD*%
%TO.C,D37*%
X110708000Y-43180000D03*
X106208000Y-43180000D03*
%TD*%
%TO.C,D38*%
X110708000Y-48260000D03*
X106208000Y-48260000D03*
%TD*%
%TO.C,D39*%
X110708000Y-53340000D03*
X106208000Y-53340000D03*
%TD*%
%TO.C,D40*%
X110708000Y-58420000D03*
X106208000Y-58420000D03*
%TD*%
%TO.C,D41*%
X110708000Y-63500000D03*
X106208000Y-63500000D03*
%TD*%
M02*
