M48
; DRILL file {KiCad 7.0.9-7.0.9~ubuntu23.04.1} date Mon Nov 27 17:45:01 2023
; FORMAT={3:3/ absolute / metric / suppress leading zeros}
; #@! TF.CreationDate,2023-11-27T17:45:01+00:00
; #@! TF.GenerationSoftware,Kicad,Pcbnew,7.0.9-7.0.9~ubuntu23.04.1
; #@! TF.FileFunction,Plated,1,2,PTH
FMAT,2
METRIC,TZ
; #@! TA.AperFunction,Plated,PTH,ViaDrill
T1C0.400
; #@! TA.AperFunction,Plated,PTH,ComponentDrill
T2C0.889
; #@! TA.AperFunction,Plated,PTH,ComponentDrill
T3C3.000
%
G90
G05
T1
X47625Y-53086
X49657Y-56896
X50927Y-58293
X51181Y-40894
X52408Y-51943
X52832Y-64135
X53340Y-46990
X54483Y-40767
X55499Y-47498
X57023Y-40767
X57912Y-65362
X58420Y-46990
X58928Y-60071
X59436Y-33528
X59880Y-35624
X59944Y-40386
X60198Y-37973
X61112Y-52959
X63373Y-61087
X64933Y-55880
X67056Y-53086
X67056Y-62103
X69433Y-55880
X69596Y-34798
X73188Y-55880
X75311Y-62103
X75438Y-53086
X77688Y-55753
X77724Y-34671
X81443Y-55753
X83566Y-62103
X83693Y-51689
X85943Y-55880
X86106Y-34798
X89698Y-55753
X91948Y-52324
X91948Y-62103
X94198Y-55880
X94234Y-34798
X97953Y-55753
X100076Y-53086
X100076Y-62146
X102453Y-55880
X102489Y-34798
X106208Y-55880
X108331Y-53086
X108331Y-62103
X110708Y-55880
X110744Y-34798
T2
X43180Y-41275
X43180Y-43815
X43180Y-47625
X43180Y-50165
X43180Y-52705
X43180Y-55245
X43180Y-57785
X43180Y-60325
X45720Y-41275
X45720Y-43815
X45720Y-47625
X45720Y-50165
X45720Y-52705
X45720Y-55245
X45720Y-57785
X45720Y-60325
X48260Y-41275
X48260Y-43815
T3
X45720Y-35560
X45720Y-66040
X116840Y-35560
X116840Y-66040
T0
M30
