%TF.GenerationSoftware,KiCad,Pcbnew,7.0.9-7.0.9~ubuntu23.04.1*%
%TF.CreationDate,2023-11-27T17:45:01+00:00*%
%TF.ProjectId,PCRD03,50435244-3033-42e6-9b69-6361645f7063,rev?*%
%TF.SameCoordinates,Original*%
%TF.FileFunction,Copper,L1,Top*%
%TF.FilePolarity,Positive*%
%FSLAX46Y46*%
G04 Gerber Fmt 4.6, Leading zero omitted, Abs format (unit mm)*
G04 Created by KiCad (PCBNEW 7.0.9-7.0.9~ubuntu23.04.1) date 2023-11-27 17:45:01*
%MOMM*%
%LPD*%
G01*
G04 APERTURE LIST*
%TA.AperFunction,ComponentPad*%
%ADD10R,1.524000X1.524000*%
%TD*%
%TA.AperFunction,ComponentPad*%
%ADD11C,6.000000*%
%TD*%
%TA.AperFunction,SMDPad,CuDef*%
%ADD12R,2.000000X4.200000*%
%TD*%
%TA.AperFunction,ViaPad*%
%ADD13C,0.600000*%
%TD*%
%TA.AperFunction,Conductor*%
%ADD14C,0.500000*%
%TD*%
%TA.AperFunction,Conductor*%
%ADD15C,1.000000*%
%TD*%
G04 APERTURE END LIST*
D10*
%TO.P,J1,1*%
%TO.N,GND*%
X48260000Y-41275000D03*
%TO.P,J1,2*%
X48260000Y-43815000D03*
%TO.P,J1,3*%
%TO.N,+BATT*%
X45720000Y-41275000D03*
%TO.P,J1,4*%
X45720000Y-43815000D03*
%TO.P,J1,5*%
%TO.N,GND*%
X43180000Y-41275000D03*
%TO.P,J1,6*%
X43180000Y-43815000D03*
%TD*%
D11*
%TO.P,M1,1*%
%TO.N,GND*%
X116840000Y-66040000D03*
%TD*%
%TO.P,M2,1*%
%TO.N,GND*%
X116840000Y-35560000D03*
%TD*%
%TO.P,M3,1*%
%TO.N,GND*%
X45720000Y-35560000D03*
%TD*%
%TO.P,M4,1*%
%TO.N,GND*%
X45720000Y-66040000D03*
%TD*%
D12*
%TO.P,D6,1*%
%TO.N,Net-(C16-Pad1)*%
X69433000Y-43180000D03*
%TO.P,D6,2*%
%TO.N,Net-(C13-Pad1)*%
X64933000Y-43180000D03*
%TD*%
%TO.P,D7,1*%
%TO.N,Net-(C16-Pad1)*%
X69433000Y-38100000D03*
%TO.P,D7,2*%
%TO.N,Net-(C13-Pad1)*%
X64933000Y-38100000D03*
%TD*%
%TO.P,D8,1*%
%TO.N,Net-(C16-Pad1)*%
X69433000Y-53340000D03*
%TO.P,D8,2*%
%TO.N,Net-(C13-Pad1)*%
X64933000Y-53340000D03*
%TD*%
%TO.P,D9,1*%
%TO.N,Net-(C16-Pad1)*%
X69433000Y-63500000D03*
%TO.P,D9,2*%
%TO.N,Net-(C13-Pad1)*%
X64933000Y-63500000D03*
%TD*%
%TO.P,D10,1*%
%TO.N,Net-(C16-Pad1)*%
X69433000Y-48260000D03*
%TO.P,D10,2*%
%TO.N,Net-(C13-Pad1)*%
X64933000Y-48260000D03*
%TD*%
%TO.P,D11,1*%
%TO.N,Net-(C16-Pad1)*%
X69433000Y-58420000D03*
%TO.P,D11,2*%
%TO.N,Net-(C13-Pad1)*%
X64933000Y-58420000D03*
%TD*%
%TO.P,D12,1*%
%TO.N,Net-(C22-Pad1)*%
X77688000Y-38100000D03*
%TO.P,D12,2*%
%TO.N,Net-(C19-Pad1)*%
X73188000Y-38100000D03*
%TD*%
%TO.P,D13,1*%
%TO.N,Net-(C22-Pad1)*%
X77688000Y-43180000D03*
%TO.P,D13,2*%
%TO.N,Net-(C19-Pad1)*%
X73188000Y-43180000D03*
%TD*%
%TO.P,D14,1*%
%TO.N,Net-(C22-Pad1)*%
X77688000Y-48260000D03*
%TO.P,D14,2*%
%TO.N,Net-(C19-Pad1)*%
X73188000Y-48260000D03*
%TD*%
%TO.P,D15,1*%
%TO.N,Net-(C22-Pad1)*%
X77688000Y-63500000D03*
%TO.P,D15,2*%
%TO.N,Net-(C19-Pad1)*%
X73188000Y-63500000D03*
%TD*%
%TO.P,D16,1*%
%TO.N,Net-(C22-Pad1)*%
X77688000Y-53340000D03*
%TO.P,D16,2*%
%TO.N,Net-(C19-Pad1)*%
X73188000Y-53340000D03*
%TD*%
%TO.P,D17,1*%
%TO.N,Net-(C22-Pad1)*%
X77688000Y-58420000D03*
%TO.P,D17,2*%
%TO.N,Net-(C19-Pad1)*%
X73188000Y-58420000D03*
%TD*%
%TO.P,D18,1*%
%TO.N,Net-(C28-Pad1)*%
X85943000Y-38100000D03*
%TO.P,D18,2*%
%TO.N,Net-(C25-Pad1)*%
X81443000Y-38100000D03*
%TD*%
%TO.P,D19,1*%
%TO.N,Net-(C28-Pad1)*%
X85943000Y-43180000D03*
%TO.P,D19,2*%
%TO.N,Net-(C25-Pad1)*%
X81443000Y-43180000D03*
%TD*%
%TO.P,D20,1*%
%TO.N,Net-(C28-Pad1)*%
X85943000Y-48260000D03*
%TO.P,D20,2*%
%TO.N,Net-(C25-Pad1)*%
X81443000Y-48260000D03*
%TD*%
%TO.P,D21,1*%
%TO.N,Net-(C28-Pad1)*%
X85943000Y-63500000D03*
%TO.P,D21,2*%
%TO.N,Net-(C25-Pad1)*%
X81443000Y-63500000D03*
%TD*%
%TO.P,D22,1*%
%TO.N,Net-(C28-Pad1)*%
X85943000Y-53340000D03*
%TO.P,D22,2*%
%TO.N,Net-(C25-Pad1)*%
X81443000Y-53340000D03*
%TD*%
%TO.P,D23,1*%
%TO.N,Net-(C28-Pad1)*%
X85943000Y-58420000D03*
%TO.P,D23,2*%
%TO.N,Net-(C25-Pad1)*%
X81443000Y-58420000D03*
%TD*%
%TO.P,D24,1*%
%TO.N,Net-(C34-Pad1)*%
X94198000Y-58420000D03*
%TO.P,D24,2*%
%TO.N,Net-(C31-Pad1)*%
X89698000Y-58420000D03*
%TD*%
%TO.P,D25,1*%
%TO.N,Net-(C34-Pad1)*%
X94198000Y-53340000D03*
%TO.P,D25,2*%
%TO.N,Net-(C31-Pad1)*%
X89698000Y-53340000D03*
%TD*%
%TO.P,D26,1*%
%TO.N,Net-(C34-Pad1)*%
X94198000Y-43180000D03*
%TO.P,D26,2*%
%TO.N,Net-(C31-Pad1)*%
X89698000Y-43180000D03*
%TD*%
%TO.P,D27,1*%
%TO.N,Net-(C34-Pad1)*%
X94198000Y-63500000D03*
%TO.P,D27,2*%
%TO.N,Net-(C31-Pad1)*%
X89698000Y-63500000D03*
%TD*%
%TO.P,D28,1*%
%TO.N,Net-(C34-Pad1)*%
X94198000Y-48260000D03*
%TO.P,D28,2*%
%TO.N,Net-(C31-Pad1)*%
X89698000Y-48260000D03*
%TD*%
%TO.P,D29,1*%
%TO.N,Net-(C34-Pad1)*%
X94198000Y-38100000D03*
%TO.P,D29,2*%
%TO.N,Net-(C31-Pad1)*%
X89698000Y-38100000D03*
%TD*%
%TO.P,D30,1*%
%TO.N,Net-(C40-Pad1)*%
X102453000Y-58420000D03*
%TO.P,D30,2*%
%TO.N,Net-(C37-Pad1)*%
X97953000Y-58420000D03*
%TD*%
%TO.P,D31,1*%
%TO.N,Net-(C40-Pad1)*%
X102453000Y-53340000D03*
%TO.P,D31,2*%
%TO.N,Net-(C37-Pad1)*%
X97953000Y-53340000D03*
%TD*%
%TO.P,D32,1*%
%TO.N,Net-(C40-Pad1)*%
X102453000Y-63500000D03*
%TO.P,D32,2*%
%TO.N,Net-(C37-Pad1)*%
X97953000Y-63500000D03*
%TD*%
%TO.P,D33,1*%
%TO.N,Net-(C40-Pad1)*%
X102453000Y-43180000D03*
%TO.P,D33,2*%
%TO.N,Net-(C37-Pad1)*%
X97953000Y-43180000D03*
%TD*%
%TO.P,D34,1*%
%TO.N,Net-(C40-Pad1)*%
X102453000Y-48260000D03*
%TO.P,D34,2*%
%TO.N,Net-(C37-Pad1)*%
X97953000Y-48260000D03*
%TD*%
%TO.P,D35,1*%
%TO.N,Net-(C40-Pad1)*%
X102453000Y-38100000D03*
%TO.P,D35,2*%
%TO.N,Net-(C37-Pad1)*%
X97953000Y-38100000D03*
%TD*%
%TO.P,D36,1*%
%TO.N,Net-(C46-Pad1)*%
X110708000Y-38100000D03*
%TO.P,D36,2*%
%TO.N,Net-(C43-Pad1)*%
X106208000Y-38100000D03*
%TD*%
%TO.P,D37,1*%
%TO.N,Net-(C46-Pad1)*%
X110708000Y-43180000D03*
%TO.P,D37,2*%
%TO.N,Net-(C43-Pad1)*%
X106208000Y-43180000D03*
%TD*%
%TO.P,D38,1*%
%TO.N,Net-(C46-Pad1)*%
X110708000Y-48260000D03*
%TO.P,D38,2*%
%TO.N,Net-(C43-Pad1)*%
X106208000Y-48260000D03*
%TD*%
%TO.P,D39,1*%
%TO.N,Net-(C46-Pad1)*%
X110708000Y-53340000D03*
%TO.P,D39,2*%
%TO.N,Net-(C43-Pad1)*%
X106208000Y-53340000D03*
%TD*%
%TO.P,D40,1*%
%TO.N,Net-(C46-Pad1)*%
X110708000Y-58420000D03*
%TO.P,D40,2*%
%TO.N,Net-(C43-Pad1)*%
X106208000Y-58420000D03*
%TD*%
%TO.P,D41,1*%
%TO.N,Net-(C46-Pad1)*%
X110708000Y-63500000D03*
%TO.P,D41,2*%
%TO.N,Net-(C43-Pad1)*%
X106208000Y-63500000D03*
%TD*%
D10*
%TO.P,J2,1*%
%TO.N,/ENABLE*%
X43180000Y-47625000D03*
%TO.P,J2,2*%
X45720000Y-47625000D03*
%TO.P,J2,3*%
%TO.N,/VREF*%
X43180000Y-50165000D03*
%TO.P,J2,4*%
X45720000Y-50165000D03*
%TO.P,J2,5*%
%TO.N,/BIAS*%
X43180000Y-52705000D03*
%TO.P,J2,6*%
X45720000Y-52705000D03*
%TO.P,J2,7*%
%TO.N,/MEASURE*%
X43180000Y-55245000D03*
%TO.P,J2,8*%
X45720000Y-55245000D03*
%TO.P,J2,9*%
%TO.N,/OUT_AMP*%
X43180000Y-57785000D03*
%TO.P,J2,10*%
X45720000Y-57785000D03*
%TO.P,J2,11*%
%TO.N,/RESET*%
X43180000Y-60325000D03*
%TO.P,J2,12*%
X45720000Y-60325000D03*
%TD*%
D13*
%TO.N,/BIAS*%
X55499000Y-47498000D03*
%TO.N,GND*%
X58928000Y-60071000D03*
X51181000Y-40894000D03*
X59880500Y-35623500D03*
X57023000Y-40767000D03*
X61112400Y-52959000D03*
X59436000Y-33528000D03*
X52407820Y-51943000D03*
X54483000Y-40767000D03*
X60198000Y-37973000D03*
X63373000Y-61087000D03*
X59944000Y-40386000D03*
X50927000Y-58293000D03*
%TO.N,+BATT*%
X52832000Y-64135000D03*
%TO.N,+3V3*%
X83693000Y-51689000D03*
X67056000Y-53086000D03*
X58420000Y-46990000D03*
X75438000Y-53086000D03*
X83566000Y-62103000D03*
X100076000Y-62146000D03*
X91948000Y-52324000D03*
X108331000Y-62103000D03*
X108331000Y-53086000D03*
X67056000Y-62103000D03*
X47625000Y-53086000D03*
X100076000Y-53086000D03*
X57912000Y-65362000D03*
X91948000Y-62103000D03*
X75311000Y-62103000D03*
X53340000Y-46990000D03*
%TO.N,Net-(C13-Pad1)*%
X64933000Y-55880000D03*
%TO.N,Net-(C16-Pad1)*%
X69596000Y-34798000D03*
X69433000Y-55880000D03*
%TO.N,Net-(C19-Pad1)*%
X73188000Y-55880000D03*
%TO.N,Net-(C22-Pad1)*%
X77688000Y-55753000D03*
X77724000Y-34671000D03*
%TO.N,Net-(C25-Pad1)*%
X81443000Y-55753000D03*
%TO.N,Net-(C28-Pad1)*%
X85943000Y-55880000D03*
X86106000Y-34798000D03*
%TO.N,Net-(C31-Pad1)*%
X89698000Y-55753000D03*
%TO.N,Net-(C34-Pad1)*%
X94234000Y-34798000D03*
X94198000Y-55880000D03*
%TO.N,Net-(C37-Pad1)*%
X97953000Y-55753000D03*
%TO.N,Net-(C40-Pad1)*%
X102489000Y-34798000D03*
X102453000Y-55880000D03*
%TO.N,Net-(C43-Pad1)*%
X106208000Y-55880000D03*
%TO.N,Net-(C46-Pad1)*%
X110708000Y-55880000D03*
X110744000Y-34798000D03*
%TO.N,/OUT_AMP*%
X49657000Y-56896000D03*
%TD*%
D14*
%TO.N,/BIAS*%
X45974000Y-52705000D02*
X48133000Y-50546000D01*
X48133000Y-50546000D02*
X48133000Y-48006000D01*
X48133000Y-48006000D02*
X49911000Y-46228000D01*
X49911000Y-46228000D02*
X54229000Y-46228000D01*
X54229000Y-46228000D02*
X55499000Y-47498000D01*
X45720000Y-52705000D02*
X46101000Y-52705000D01*
X43180000Y-52705000D02*
X45720000Y-52705000D01*
X45720000Y-52705000D02*
X45974000Y-52705000D01*
X45720000Y-52705000D02*
X45847000Y-52705000D01*
D15*
%TO.N,GND*%
X113385600Y-66040000D02*
X112572800Y-66852800D01*
X112572800Y-66852800D02*
X64084200Y-66852800D01*
X64084200Y-66852800D02*
X62382400Y-65151000D01*
X62382400Y-65151000D02*
X62382400Y-61087000D01*
X62382400Y-55473600D02*
X61112400Y-54203600D01*
X61112400Y-54203600D02*
X55092600Y-54203600D01*
X55092600Y-54203600D02*
X54127400Y-53238400D01*
X54127400Y-53238400D02*
X54127400Y-51943000D01*
X54127400Y-51155600D02*
X52120800Y-49149000D01*
D14*
X50927000Y-58293000D02*
X49530000Y-59690000D01*
X49530000Y-59690000D02*
X49530000Y-62230000D01*
X49530000Y-62230000D02*
X45720000Y-66040000D01*
X58928000Y-60071000D02*
X62382400Y-60071000D01*
X62382400Y-60071000D02*
X62103000Y-60071000D01*
X62103000Y-60071000D02*
X62382400Y-60071000D01*
D15*
X62382400Y-60071000D02*
X62382400Y-55473600D01*
D14*
X63373000Y-61087000D02*
X62382400Y-61087000D01*
X62382400Y-61087000D02*
X62865000Y-61087000D01*
X62865000Y-61087000D02*
X62382400Y-61087000D01*
D15*
X62382400Y-61087000D02*
X62382400Y-60071000D01*
D14*
X52407820Y-51943000D02*
X54127400Y-51943000D01*
X54127400Y-51943000D02*
X54102000Y-51943000D01*
X54102000Y-51943000D02*
X54127400Y-51943000D01*
D15*
X54127400Y-51943000D02*
X54127400Y-51155600D01*
D14*
X59880500Y-35623500D02*
X59944000Y-35560000D01*
D15*
X116840000Y-66040000D02*
X113385600Y-66040000D01*
D14*
X61112400Y-54203600D02*
X61112400Y-52959000D01*
%TO.N,+BATT*%
X45847000Y-43815000D02*
X47498000Y-45466000D01*
X47498000Y-45466000D02*
X54737000Y-45466000D01*
X54737000Y-45466000D02*
X56388000Y-47117000D01*
X56388000Y-47117000D02*
X56388000Y-47879000D01*
X56388000Y-47879000D02*
X55753000Y-48514000D01*
X55753000Y-48514000D02*
X54991000Y-48514000D01*
X54991000Y-48514000D02*
X54229000Y-47752000D01*
X54229000Y-47752000D02*
X50546000Y-47752000D01*
X50546000Y-47752000D02*
X49784000Y-48514000D01*
X49784000Y-48514000D02*
X49784000Y-52451000D01*
X49784000Y-52451000D02*
X52832000Y-55499000D01*
X52832000Y-55499000D02*
X52832000Y-64135000D01*
X45720000Y-43815000D02*
X45847000Y-43815000D01*
%TO.N,+3V3*%
X47625000Y-53086000D02*
X48895000Y-51816000D01*
X48895000Y-51816000D02*
X48895000Y-48260000D01*
X48895000Y-48260000D02*
X50165000Y-46990000D01*
X50165000Y-46990000D02*
X53340000Y-46990000D01*
X107315000Y-33401000D02*
X108331000Y-34417000D01*
X108331000Y-34417000D02*
X108331000Y-53086000D01*
X108331000Y-53086000D02*
X108331000Y-62103000D01*
X100076000Y-62146000D02*
X100076000Y-53086000D01*
X100076000Y-33401000D02*
X100076000Y-33528000D01*
X100076000Y-33528000D02*
X100076000Y-33401000D01*
X100076000Y-33401000D02*
X107315000Y-33401000D01*
X100076000Y-53086000D02*
X100076000Y-33401000D01*
X91948000Y-33401000D02*
X100076000Y-33401000D01*
X91948000Y-52324000D02*
X91948000Y-62103000D01*
X83693000Y-33401000D02*
X91948000Y-33401000D01*
X83693000Y-61976000D02*
X83566000Y-62103000D01*
X83693000Y-51689000D02*
X83693000Y-61976000D01*
X75438000Y-33401000D02*
X83693000Y-33401000D01*
X75438000Y-61976000D02*
X75311000Y-62103000D01*
X75438000Y-53086000D02*
X75438000Y-61976000D01*
X67056000Y-33401000D02*
X75438000Y-33401000D01*
X67056000Y-53086000D02*
X67056000Y-62103000D01*
X58420000Y-46990000D02*
X58547000Y-47117000D01*
X58547000Y-47117000D02*
X62484000Y-47117000D01*
X62484000Y-47117000D02*
X63119000Y-46482000D01*
X63119000Y-46482000D02*
X63119000Y-34925000D01*
X63119000Y-34925000D02*
X64643000Y-33401000D01*
X64643000Y-33401000D02*
X67056000Y-33401000D01*
X57912000Y-65362000D02*
X57869000Y-65405000D01*
X57869000Y-65405000D02*
X52832000Y-65405000D01*
X52832000Y-65405000D02*
X51816000Y-64389000D01*
X51816000Y-59817000D02*
X51816000Y-64389000D01*
X51816000Y-57277000D02*
X47625000Y-53086000D01*
X75438000Y-33401000D02*
X75438000Y-53086000D01*
X83693000Y-33401000D02*
X83693000Y-51689000D01*
X51816000Y-59817000D02*
X51816000Y-57277000D01*
X91948000Y-33401000D02*
X91948000Y-52324000D01*
X67056000Y-33401000D02*
X67056000Y-53086000D01*
D15*
%TO.N,Net-(C13-Pad1)*%
X64933000Y-58420000D02*
X64933000Y-55880000D01*
X64933000Y-53340000D02*
X64933000Y-48260000D01*
X64933000Y-48260000D02*
X64933000Y-43180000D01*
X64933000Y-43180000D02*
X64933000Y-40640000D01*
X64933000Y-40640000D02*
X64933000Y-38100000D01*
X64933000Y-55880000D02*
X64933000Y-53340000D01*
D14*
X64933000Y-40640000D02*
X64933000Y-40676000D01*
D15*
X64933000Y-63500000D02*
X64933000Y-58420000D01*
%TO.N,Net-(C16-Pad1)*%
X69433000Y-43180000D02*
X69433000Y-48260000D01*
X69433000Y-48260000D02*
X69433000Y-53340000D01*
X69433000Y-53340000D02*
X69433000Y-55880000D01*
X69433000Y-58420000D02*
X69433000Y-63500000D01*
D14*
X69596000Y-63663000D02*
X69433000Y-63500000D01*
X69723000Y-63790000D02*
X69433000Y-63500000D01*
X69433000Y-64861000D02*
X69433000Y-63500000D01*
D15*
X69433000Y-40640000D02*
X69433000Y-43180000D01*
X69433000Y-55880000D02*
X69433000Y-58420000D01*
D14*
X69596000Y-34798000D02*
X69433000Y-34961000D01*
X69433000Y-34961000D02*
X69433000Y-38100000D01*
D15*
X69433000Y-38100000D02*
X69433000Y-40640000D01*
%TO.N,Net-(C19-Pad1)*%
X73188000Y-58420000D02*
X73188000Y-55880000D01*
X73188000Y-53340000D02*
X73188000Y-48260000D01*
X73188000Y-48260000D02*
X73188000Y-43180000D01*
X73188000Y-43180000D02*
X73188000Y-40767000D01*
X73188000Y-40767000D02*
X73188000Y-38100000D01*
X73188000Y-55880000D02*
X73188000Y-53340000D01*
X73188000Y-63500000D02*
X73188000Y-58420000D01*
%TO.N,Net-(C22-Pad1)*%
X77688000Y-43180000D02*
X77688000Y-48260000D01*
X77688000Y-48260000D02*
X77688000Y-53340000D01*
X77688000Y-53340000D02*
X77688000Y-55753000D01*
X77688000Y-58420000D02*
X77688000Y-63500000D01*
D14*
X78105000Y-63917000D02*
X77688000Y-63500000D01*
X77978000Y-63790000D02*
X77688000Y-63500000D01*
X78486000Y-64298000D02*
X77688000Y-63500000D01*
D15*
X77688000Y-40640000D02*
X77688000Y-43180000D01*
X77688000Y-40513000D02*
X77688000Y-40640000D01*
X77688000Y-55753000D02*
X77688000Y-58420000D01*
D14*
X77724000Y-34671000D02*
X77688000Y-34707000D01*
X77688000Y-34707000D02*
X77688000Y-38100000D01*
D15*
X77688000Y-38100000D02*
X77688000Y-40513000D01*
%TO.N,Net-(C25-Pad1)*%
X81443000Y-58420000D02*
X81443000Y-55753000D01*
X81443000Y-53340000D02*
X81443000Y-48260000D01*
X81443000Y-48260000D02*
X81443000Y-45720000D01*
X81443000Y-43180000D02*
X81443000Y-40767000D01*
X81443000Y-45720000D02*
X81443000Y-43180000D01*
X81443000Y-40767000D02*
X81443000Y-38100000D01*
X81443000Y-55753000D02*
X81443000Y-53340000D01*
X81443000Y-63500000D02*
X81443000Y-58420000D01*
%TO.N,Net-(C28-Pad1)*%
X85943000Y-43180000D02*
X85943000Y-45720000D01*
X85943000Y-48260000D02*
X85943000Y-53340000D01*
X85943000Y-53340000D02*
X85943000Y-55880000D01*
X85943000Y-58420000D02*
X85943000Y-63500000D01*
D14*
X86360000Y-63917000D02*
X85943000Y-63500000D01*
X86614000Y-65659000D02*
X86614000Y-64171000D01*
X86614000Y-64171000D02*
X85943000Y-63500000D01*
D15*
X85943000Y-45720000D02*
X85943000Y-48260000D01*
X85943000Y-40640000D02*
X85943000Y-43180000D01*
X85943000Y-55880000D02*
X85943000Y-58420000D01*
D14*
X86106000Y-34798000D02*
X85943000Y-34961000D01*
X85943000Y-34961000D02*
X85943000Y-38100000D01*
D15*
X85943000Y-38100000D02*
X85943000Y-40640000D01*
%TO.N,Net-(C31-Pad1)*%
X89698000Y-58420000D02*
X89698000Y-55753000D01*
X89698000Y-53340000D02*
X89698000Y-48260000D01*
X89698000Y-48260000D02*
X89698000Y-43180000D01*
X89698000Y-43180000D02*
X89698000Y-40640000D01*
X89698000Y-40640000D02*
X89698000Y-38100000D01*
X89698000Y-55753000D02*
X89698000Y-53340000D01*
X89698000Y-63500000D02*
X89698000Y-58420000D01*
%TO.N,Net-(C34-Pad1)*%
X94198000Y-43180000D02*
X94198000Y-48260000D01*
X94198000Y-48260000D02*
X94198000Y-53340000D01*
X94198000Y-53340000D02*
X94198000Y-55880000D01*
X94198000Y-58420000D02*
X94198000Y-63500000D01*
D14*
X94615000Y-63917000D02*
X94198000Y-63500000D01*
X94996000Y-64298000D02*
X94198000Y-63500000D01*
D15*
X94198000Y-40767000D02*
X94198000Y-43180000D01*
X94198000Y-55880000D02*
X94198000Y-58420000D01*
D14*
X94234000Y-34798000D02*
X94198000Y-34834000D01*
X94198000Y-34834000D02*
X94198000Y-38100000D01*
D15*
X94198000Y-38100000D02*
X94198000Y-40767000D01*
%TO.N,Net-(C37-Pad1)*%
X97953000Y-58420000D02*
X97953000Y-55753000D01*
X97953000Y-53340000D02*
X97953000Y-48260000D01*
X97953000Y-48260000D02*
X97953000Y-43180000D01*
X97953000Y-43180000D02*
X97953000Y-40640000D01*
X97953000Y-40640000D02*
X97953000Y-38100000D01*
X97953000Y-55753000D02*
X97953000Y-53340000D01*
X97953000Y-63500000D02*
X97953000Y-58420000D01*
%TO.N,Net-(C40-Pad1)*%
X102453000Y-43180000D02*
X102453000Y-48260000D01*
X102453000Y-48260000D02*
X102453000Y-53340000D01*
X102453000Y-53340000D02*
X102453000Y-55880000D01*
X102453000Y-58420000D02*
X102453000Y-63500000D01*
D14*
X102870000Y-63917000D02*
X102453000Y-63500000D01*
X102453000Y-64861000D02*
X102453000Y-63500000D01*
D15*
X102453000Y-40640000D02*
X102453000Y-43180000D01*
X102453000Y-55880000D02*
X102453000Y-58420000D01*
D14*
X102489000Y-34798000D02*
X102453000Y-34834000D01*
X102453000Y-34834000D02*
X102453000Y-38100000D01*
D15*
X102453000Y-38100000D02*
X102453000Y-40640000D01*
%TO.N,Net-(C43-Pad1)*%
X106208000Y-43180000D02*
X106208000Y-48260000D01*
X106208000Y-48260000D02*
X106208000Y-53340000D01*
X106208000Y-53340000D02*
X106208000Y-55880000D01*
X106208000Y-58420000D02*
X106208000Y-63500000D01*
X106208000Y-40640000D02*
X106208000Y-43180000D01*
X106208000Y-55880000D02*
X106208000Y-58420000D01*
X106208000Y-38100000D02*
X106208000Y-40640000D01*
%TO.N,Net-(C46-Pad1)*%
X110708000Y-58420000D02*
X110708000Y-55880000D01*
X110708000Y-53340000D02*
X110708000Y-48260000D01*
X110708000Y-48260000D02*
X110708000Y-43180000D01*
X110708000Y-43180000D02*
X110708000Y-40767000D01*
D14*
X110998000Y-63790000D02*
X110708000Y-63500000D01*
X110708000Y-64861000D02*
X110708000Y-63500000D01*
X110708000Y-64861000D02*
X110708000Y-63500000D01*
D15*
X110708000Y-40767000D02*
X110708000Y-38100000D01*
X110708000Y-55880000D02*
X110708000Y-53340000D01*
D14*
X110744000Y-34798000D02*
X110708000Y-34834000D01*
X110708000Y-34834000D02*
X110708000Y-38100000D01*
D15*
X110708000Y-63500000D02*
X110708000Y-58420000D01*
D14*
%TO.N,/OUT_AMP*%
X49657000Y-56896000D02*
X48768000Y-57785000D01*
X48768000Y-57785000D02*
X45720000Y-57785000D01*
%TD*%
%TA.AperFunction,Conductor*%
%TO.N,GND*%
G36*
X42984960Y-41680004D02*
G01*
X43113002Y-41719500D01*
X43213312Y-41719500D01*
X43312499Y-41704550D01*
X43433224Y-41646412D01*
X43434000Y-41645691D01*
X43434000Y-43450194D01*
X43375040Y-43409996D01*
X43246998Y-43370500D01*
X43146688Y-43370500D01*
X43047501Y-43385450D01*
X42926776Y-43443588D01*
X42926000Y-43444308D01*
X42926000Y-41639805D01*
X42984960Y-41680004D01*
G37*
%TD.AperFunction*%
%TA.AperFunction,Conductor*%
G36*
X48064960Y-41680004D02*
G01*
X48193002Y-41719500D01*
X48293312Y-41719500D01*
X48392499Y-41704550D01*
X48513224Y-41646412D01*
X48514000Y-41645691D01*
X48514000Y-43450194D01*
X48455040Y-43409996D01*
X48326998Y-43370500D01*
X48226688Y-43370500D01*
X48127501Y-43385450D01*
X48006776Y-43443588D01*
X48006000Y-43444308D01*
X48006000Y-41639805D01*
X48064960Y-41680004D01*
G37*
%TD.AperFunction*%
%TA.AperFunction,Conductor*%
G36*
X121532621Y-30829502D02*
G01*
X121579114Y-30883158D01*
X121590500Y-30935500D01*
X121590500Y-70664500D01*
X121570498Y-70732621D01*
X121516842Y-70779114D01*
X121464500Y-70790500D01*
X41095500Y-70790500D01*
X41027379Y-70770498D01*
X40980886Y-70716842D01*
X40969500Y-70664500D01*
X40969500Y-61135649D01*
X41909500Y-61135649D01*
X41916009Y-61196196D01*
X41916011Y-61196204D01*
X41967110Y-61333202D01*
X41967112Y-61333207D01*
X42054738Y-61450261D01*
X42171792Y-61537887D01*
X42171794Y-61537888D01*
X42171796Y-61537889D01*
X42230875Y-61559924D01*
X42308795Y-61588988D01*
X42308803Y-61588990D01*
X42369350Y-61595499D01*
X42369355Y-61595499D01*
X42369362Y-61595500D01*
X42369368Y-61595500D01*
X43990632Y-61595500D01*
X43990638Y-61595500D01*
X43990645Y-61595499D01*
X43990649Y-61595499D01*
X44051196Y-61588990D01*
X44051199Y-61588989D01*
X44051201Y-61588989D01*
X44188204Y-61537889D01*
X44305261Y-61450261D01*
X44349132Y-61391657D01*
X44405968Y-61349110D01*
X44476784Y-61344046D01*
X44539096Y-61378071D01*
X44550868Y-61391657D01*
X44594738Y-61450261D01*
X44711792Y-61537887D01*
X44711794Y-61537888D01*
X44711796Y-61537889D01*
X44770875Y-61559924D01*
X44848795Y-61588988D01*
X44848803Y-61588990D01*
X44909350Y-61595499D01*
X44909355Y-61595499D01*
X44909362Y-61595500D01*
X44909368Y-61595500D01*
X46530632Y-61595500D01*
X46530638Y-61595500D01*
X46530645Y-61595499D01*
X46530649Y-61595499D01*
X46591196Y-61588990D01*
X46591199Y-61588989D01*
X46591201Y-61588989D01*
X46728204Y-61537889D01*
X46845261Y-61450261D01*
X46932889Y-61333204D01*
X46983989Y-61196201D01*
X46988549Y-61153791D01*
X46990499Y-61135649D01*
X46990500Y-61135632D01*
X46990500Y-59514367D01*
X46990499Y-59514350D01*
X46983990Y-59453803D01*
X46983988Y-59453795D01*
X46932889Y-59316797D01*
X46932887Y-59316792D01*
X46845261Y-59199738D01*
X46786657Y-59155868D01*
X46744110Y-59099032D01*
X46739046Y-59028216D01*
X46773071Y-58965904D01*
X46786657Y-58954132D01*
X46845261Y-58910261D01*
X46932887Y-58793207D01*
X46932887Y-58793206D01*
X46932889Y-58793204D01*
X46983989Y-58656201D01*
X46983997Y-58656120D01*
X46984008Y-58656029D01*
X46984058Y-58655906D01*
X46985803Y-58648526D01*
X46986998Y-58648808D01*
X47011179Y-58590437D01*
X47069498Y-58549947D01*
X47109286Y-58543500D01*
X48703559Y-58543500D01*
X48721819Y-58544830D01*
X48726715Y-58545547D01*
X48745789Y-58548341D01*
X48779146Y-58545422D01*
X48798385Y-58543740D01*
X48803878Y-58543500D01*
X48812176Y-58543500D01*
X48812180Y-58543500D01*
X48838512Y-58540421D01*
X48845096Y-58539652D01*
X48851861Y-58539060D01*
X48922426Y-58532887D01*
X48922432Y-58532884D01*
X48929618Y-58531402D01*
X48929631Y-58531468D01*
X48936987Y-58529836D01*
X48936972Y-58529771D01*
X48944104Y-58528079D01*
X48944113Y-58528079D01*
X49017065Y-58501526D01*
X49090738Y-58477114D01*
X49090740Y-58477112D01*
X49097389Y-58474012D01*
X49097418Y-58474074D01*
X49104203Y-58470789D01*
X49104173Y-58470729D01*
X49110728Y-58467436D01*
X49110732Y-58467435D01*
X49175605Y-58424766D01*
X49241651Y-58384030D01*
X49241660Y-58384020D01*
X49247408Y-58379477D01*
X49247450Y-58379531D01*
X49253289Y-58374775D01*
X49253246Y-58374723D01*
X49258865Y-58370006D01*
X49258874Y-58370001D01*
X49312163Y-58313517D01*
X49969103Y-57656576D01*
X50004698Y-57634316D01*
X50003638Y-57632114D01*
X50010011Y-57629044D01*
X50010015Y-57629043D01*
X50164281Y-57532111D01*
X50293111Y-57403281D01*
X50390043Y-57249015D01*
X50408133Y-57197315D01*
X50449509Y-57139626D01*
X50515509Y-57113463D01*
X50585176Y-57127135D01*
X50616156Y-57149837D01*
X51020595Y-57554276D01*
X51054621Y-57616588D01*
X51057500Y-57643371D01*
X51057500Y-64324559D01*
X51056170Y-64342819D01*
X51052659Y-64366786D01*
X51052659Y-64366794D01*
X51057260Y-64419372D01*
X51057500Y-64424866D01*
X51057500Y-64433182D01*
X51061347Y-64466094D01*
X51068112Y-64543419D01*
X51069596Y-64550606D01*
X51069531Y-64550619D01*
X51071165Y-64557989D01*
X51071229Y-64557975D01*
X51072921Y-64565116D01*
X51092835Y-64619827D01*
X51096158Y-64628958D01*
X51099473Y-64638064D01*
X51123885Y-64711736D01*
X51126987Y-64718388D01*
X51126926Y-64718416D01*
X51130211Y-64725202D01*
X51130270Y-64725173D01*
X51133560Y-64731724D01*
X51176233Y-64796605D01*
X51216967Y-64862648D01*
X51221522Y-64868408D01*
X51221468Y-64868450D01*
X51226228Y-64874292D01*
X51226279Y-64874250D01*
X51230993Y-64879868D01*
X51230998Y-64879873D01*
X51230999Y-64879874D01*
X51287482Y-64933163D01*
X52250098Y-65895779D01*
X52262065Y-65909627D01*
X52263179Y-65911124D01*
X52276531Y-65929058D01*
X52299317Y-65948178D01*
X52316975Y-65962994D01*
X52321021Y-65966702D01*
X52326899Y-65972580D01*
X52349452Y-65990412D01*
X52352893Y-65993133D01*
X52412360Y-66043033D01*
X52418491Y-66047065D01*
X52418454Y-66047120D01*
X52424811Y-66051169D01*
X52424847Y-66051113D01*
X52431092Y-66054965D01*
X52431095Y-66054967D01*
X52501452Y-66087775D01*
X52570812Y-66122609D01*
X52570813Y-66122609D01*
X52570817Y-66122611D01*
X52577713Y-66125121D01*
X52577689Y-66125185D01*
X52584805Y-66127659D01*
X52584827Y-66127595D01*
X52591791Y-66129903D01*
X52667849Y-66145607D01*
X52685853Y-66149874D01*
X52743344Y-66163500D01*
X52743350Y-66163500D01*
X52750633Y-66164352D01*
X52750625Y-66164419D01*
X52758122Y-66165185D01*
X52758128Y-66165119D01*
X52765435Y-66165757D01*
X52765442Y-66165759D01*
X52843080Y-66163500D01*
X57800927Y-66163500D01*
X57807980Y-66163895D01*
X57844645Y-66168026D01*
X57846789Y-66168341D01*
X57846792Y-66168340D01*
X57847762Y-66168483D01*
X57850263Y-66168660D01*
X57867680Y-66170622D01*
X57912000Y-66175616D01*
X58093047Y-66155217D01*
X58265015Y-66095043D01*
X58419281Y-65998111D01*
X58548111Y-65869281D01*
X58645043Y-65715015D01*
X58705217Y-65543047D01*
X58725616Y-65362000D01*
X58705217Y-65180953D01*
X58645043Y-65008985D01*
X58645041Y-65008982D01*
X58645041Y-65008981D01*
X58548112Y-64854720D01*
X58548111Y-64854718D01*
X58419281Y-64725888D01*
X58419279Y-64725887D01*
X58265018Y-64628958D01*
X58265015Y-64628957D01*
X58093050Y-64568784D01*
X58093049Y-64568783D01*
X58093047Y-64568783D01*
X57912000Y-64548384D01*
X57730953Y-64568783D01*
X57730950Y-64568783D01*
X57730949Y-64568784D01*
X57558984Y-64628957D01*
X57552605Y-64632029D01*
X57551677Y-64630103D01*
X57494765Y-64646500D01*
X53687167Y-64646500D01*
X53619046Y-64626498D01*
X53572553Y-64572842D01*
X53562449Y-64502568D01*
X53568238Y-64478885D01*
X53584230Y-64433182D01*
X53625217Y-64316047D01*
X53645616Y-64135000D01*
X53625217Y-63953953D01*
X53597569Y-63874940D01*
X53590500Y-63833329D01*
X53590500Y-55563441D01*
X53591830Y-55545182D01*
X53592940Y-55537600D01*
X53595341Y-55521211D01*
X53592491Y-55488638D01*
X53590740Y-55468614D01*
X53590500Y-55463121D01*
X53590500Y-55454819D01*
X53586652Y-55421905D01*
X53586652Y-55421904D01*
X53579887Y-55344574D01*
X53579885Y-55344570D01*
X53578403Y-55337388D01*
X53578469Y-55337374D01*
X53576837Y-55330012D01*
X53576772Y-55330028D01*
X53575080Y-55322890D01*
X53548526Y-55249934D01*
X53524114Y-55176262D01*
X53524109Y-55176255D01*
X53521012Y-55169611D01*
X53521074Y-55169581D01*
X53517788Y-55162795D01*
X53517728Y-55162826D01*
X53514433Y-55156265D01*
X53471766Y-55091394D01*
X53431031Y-55025351D01*
X53431030Y-55025349D01*
X53431027Y-55025346D01*
X53426478Y-55019592D01*
X53426531Y-55019549D01*
X53421766Y-55013700D01*
X53421715Y-55013744D01*
X53416998Y-55008122D01*
X53360518Y-54954837D01*
X50579405Y-52173723D01*
X50545379Y-52111411D01*
X50542500Y-52084628D01*
X50542500Y-48880371D01*
X50562502Y-48812250D01*
X50579405Y-48791276D01*
X50823276Y-48547405D01*
X50885588Y-48513379D01*
X50912371Y-48510500D01*
X53862629Y-48510500D01*
X53930750Y-48530502D01*
X53951724Y-48547405D01*
X54409092Y-49004773D01*
X54421065Y-49018627D01*
X54435531Y-49038058D01*
X54437534Y-49039739D01*
X54475975Y-49071994D01*
X54480021Y-49075702D01*
X54485900Y-49081581D01*
X54511895Y-49102135D01*
X54571360Y-49152032D01*
X54571366Y-49152035D01*
X54577495Y-49156067D01*
X54577458Y-49156122D01*
X54583811Y-49160169D01*
X54583847Y-49160113D01*
X54590092Y-49163965D01*
X54590095Y-49163967D01*
X54660452Y-49196775D01*
X54729812Y-49231609D01*
X54729813Y-49231609D01*
X54729817Y-49231611D01*
X54736713Y-49234121D01*
X54736689Y-49234185D01*
X54743805Y-49236659D01*
X54743827Y-49236595D01*
X54750791Y-49238903D01*
X54826849Y-49254607D01*
X54857561Y-49261886D01*
X54902344Y-49272500D01*
X54902350Y-49272500D01*
X54909633Y-49273352D01*
X54909625Y-49273419D01*
X54917122Y-49274185D01*
X54917128Y-49274119D01*
X54924435Y-49274757D01*
X54924442Y-49274759D01*
X55002080Y-49272500D01*
X55688559Y-49272500D01*
X55706819Y-49273830D01*
X55711715Y-49274547D01*
X55730789Y-49277341D01*
X55764146Y-49274422D01*
X55783385Y-49272740D01*
X55788878Y-49272500D01*
X55797176Y-49272500D01*
X55797180Y-49272500D01*
X55823512Y-49269421D01*
X55830096Y-49268652D01*
X55836861Y-49268060D01*
X55907426Y-49261887D01*
X55907432Y-49261884D01*
X55914618Y-49260402D01*
X55914631Y-49260468D01*
X55921987Y-49258836D01*
X55921972Y-49258771D01*
X55929104Y-49257079D01*
X55929113Y-49257079D01*
X56002065Y-49230526D01*
X56075738Y-49206114D01*
X56075740Y-49206112D01*
X56082389Y-49203012D01*
X56082418Y-49203074D01*
X56089203Y-49199789D01*
X56089173Y-49199729D01*
X56095728Y-49196436D01*
X56095732Y-49196435D01*
X56160605Y-49153766D01*
X56226651Y-49113030D01*
X56226660Y-49113020D01*
X56232408Y-49108477D01*
X56232450Y-49108531D01*
X56238289Y-49103775D01*
X56238246Y-49103723D01*
X56243865Y-49099006D01*
X56243874Y-49099001D01*
X56297163Y-49042517D01*
X56878784Y-48460895D01*
X56892617Y-48448941D01*
X56912058Y-48434469D01*
X56946001Y-48394015D01*
X56949700Y-48389979D01*
X56955581Y-48384100D01*
X56965547Y-48371494D01*
X56976135Y-48358105D01*
X56998481Y-48331472D01*
X57026032Y-48298640D01*
X57026033Y-48298636D01*
X57026036Y-48298634D01*
X57030070Y-48292502D01*
X57030127Y-48292539D01*
X57034171Y-48286191D01*
X57034112Y-48286155D01*
X57037961Y-48279912D01*
X57037967Y-48279905D01*
X57070775Y-48209547D01*
X57105609Y-48140188D01*
X57105610Y-48140182D01*
X57108119Y-48133291D01*
X57108184Y-48133314D01*
X57110658Y-48126197D01*
X57110594Y-48126176D01*
X57112903Y-48119208D01*
X57128607Y-48043150D01*
X57134786Y-48017079D01*
X57146500Y-47967656D01*
X57146500Y-47967649D01*
X57147352Y-47960368D01*
X57147419Y-47960375D01*
X57148185Y-47952877D01*
X57148119Y-47952872D01*
X57148757Y-47945565D01*
X57148759Y-47945558D01*
X57146500Y-47867920D01*
X57146500Y-47181441D01*
X57147830Y-47163182D01*
X57148940Y-47155600D01*
X57151341Y-47139211D01*
X57148875Y-47111027D01*
X57146740Y-47086614D01*
X57146500Y-47081121D01*
X57146500Y-47072819D01*
X57142652Y-47039905D01*
X57138286Y-46990000D01*
X57606384Y-46990000D01*
X57626783Y-47171047D01*
X57626783Y-47171049D01*
X57626784Y-47171050D01*
X57686957Y-47343015D01*
X57686958Y-47343018D01*
X57783887Y-47497279D01*
X57783888Y-47497281D01*
X57912718Y-47626111D01*
X57912720Y-47626112D01*
X58043264Y-47708138D01*
X58066985Y-47723043D01*
X58083416Y-47728792D01*
X58122794Y-47751201D01*
X58127360Y-47755032D01*
X58127362Y-47755033D01*
X58133495Y-47759067D01*
X58133457Y-47759123D01*
X58139811Y-47763171D01*
X58139847Y-47763114D01*
X58146089Y-47766964D01*
X58146091Y-47766965D01*
X58146094Y-47766967D01*
X58216447Y-47799773D01*
X58285812Y-47834609D01*
X58285814Y-47834609D01*
X58292713Y-47837121D01*
X58292689Y-47837184D01*
X58299806Y-47839658D01*
X58299828Y-47839594D01*
X58306792Y-47841902D01*
X58382818Y-47857599D01*
X58458343Y-47875500D01*
X58465632Y-47876352D01*
X58465624Y-47876418D01*
X58473122Y-47877184D01*
X58473128Y-47877118D01*
X58480435Y-47877756D01*
X58480442Y-47877758D01*
X58558045Y-47875500D01*
X62419559Y-47875500D01*
X62437819Y-47876830D01*
X62442715Y-47877547D01*
X62461789Y-47880341D01*
X62495146Y-47877422D01*
X62514385Y-47875740D01*
X62519878Y-47875500D01*
X62528176Y-47875500D01*
X62528180Y-47875500D01*
X62554512Y-47872421D01*
X62561096Y-47871652D01*
X62567861Y-47871060D01*
X62638426Y-47864887D01*
X62638432Y-47864884D01*
X62645618Y-47863402D01*
X62645631Y-47863468D01*
X62652987Y-47861836D01*
X62652972Y-47861771D01*
X62660104Y-47860079D01*
X62660113Y-47860079D01*
X62733065Y-47833526D01*
X62806738Y-47809114D01*
X62806740Y-47809112D01*
X62813389Y-47806012D01*
X62813418Y-47806074D01*
X62820203Y-47802789D01*
X62820173Y-47802729D01*
X62826728Y-47799436D01*
X62826732Y-47799435D01*
X62891605Y-47756766D01*
X62957651Y-47716030D01*
X62957660Y-47716020D01*
X62963408Y-47711477D01*
X62963450Y-47711531D01*
X62969289Y-47706775D01*
X62969246Y-47706723D01*
X62974865Y-47702006D01*
X62974874Y-47702001D01*
X63028163Y-47645517D01*
X63087320Y-47586360D01*
X63209405Y-47464276D01*
X63271717Y-47430250D01*
X63342532Y-47435315D01*
X63399368Y-47477862D01*
X63424179Y-47544382D01*
X63424500Y-47553371D01*
X63424500Y-50408649D01*
X63431009Y-50469196D01*
X63431011Y-50469201D01*
X63482111Y-50606204D01*
X63482112Y-50606205D01*
X63484585Y-50610734D01*
X63500000Y-50671124D01*
X63500000Y-50928874D01*
X63484591Y-50989252D01*
X63482112Y-50993791D01*
X63431011Y-51130795D01*
X63431009Y-51130803D01*
X63424500Y-51191350D01*
X63424500Y-55488649D01*
X63431009Y-55549196D01*
X63431011Y-55549201D01*
X63482111Y-55686204D01*
X63482112Y-55686205D01*
X63484585Y-55690734D01*
X63500000Y-55751124D01*
X63500000Y-56008874D01*
X63484591Y-56069252D01*
X63482112Y-56073791D01*
X63431011Y-56210795D01*
X63431009Y-56210803D01*
X63424500Y-56271350D01*
X63424500Y-60568649D01*
X63431009Y-60629196D01*
X63431011Y-60629201D01*
X63482111Y-60766204D01*
X63482112Y-60766205D01*
X63484585Y-60770734D01*
X63500000Y-60831124D01*
X63500000Y-61088874D01*
X63484591Y-61149252D01*
X63482112Y-61153791D01*
X63431011Y-61290795D01*
X63431009Y-61290803D01*
X63424500Y-61351350D01*
X63424500Y-65648649D01*
X63431009Y-65709196D01*
X63433181Y-65715018D01*
X63482111Y-65846204D01*
X63482112Y-65846205D01*
X63484585Y-65850734D01*
X63500000Y-65911124D01*
X63500000Y-66040000D01*
X63641403Y-66041836D01*
X63683794Y-66049769D01*
X63686795Y-66050888D01*
X63686796Y-66050889D01*
X63736876Y-66069568D01*
X63823795Y-66101988D01*
X63823803Y-66101990D01*
X63884350Y-66108499D01*
X63884355Y-66108499D01*
X63884362Y-66108500D01*
X63884368Y-66108500D01*
X65981632Y-66108500D01*
X65981638Y-66108500D01*
X65981645Y-66108499D01*
X65981649Y-66108499D01*
X66042196Y-66101990D01*
X66042196Y-66101989D01*
X66042201Y-66101989D01*
X66095179Y-66082228D01*
X66140840Y-66074296D01*
X68327819Y-66102698D01*
X68333680Y-66103051D01*
X68384362Y-66108500D01*
X68384368Y-66108500D01*
X68774500Y-66108500D01*
X86236200Y-66335275D01*
X86297559Y-66352144D01*
X86311528Y-66360209D01*
X86481391Y-66411062D01*
X86658403Y-66421372D01*
X86833021Y-66390582D01*
X86915374Y-66355058D01*
X86966908Y-66344765D01*
X112102722Y-66671204D01*
X112394999Y-66675000D01*
X112395000Y-66675000D01*
X112395000Y-35560000D01*
X112006130Y-35560000D01*
X111962097Y-35552055D01*
X111817204Y-35498011D01*
X111817196Y-35498009D01*
X111756649Y-35491500D01*
X111756638Y-35491500D01*
X111592500Y-35491500D01*
X111524379Y-35471498D01*
X111477886Y-35417842D01*
X111466500Y-35365500D01*
X111466500Y-35201666D01*
X111476400Y-35158286D01*
X111474706Y-35157694D01*
X111479289Y-35144595D01*
X111537217Y-34979047D01*
X111557616Y-34798000D01*
X111537217Y-34616953D01*
X111477043Y-34444985D01*
X111477041Y-34444982D01*
X111477041Y-34444981D01*
X111380112Y-34290720D01*
X111380111Y-34290718D01*
X111251281Y-34161888D01*
X111251279Y-34161887D01*
X111097018Y-34064958D01*
X111097015Y-34064957D01*
X110925050Y-34004784D01*
X110925049Y-34004783D01*
X110925047Y-34004783D01*
X110744000Y-33984384D01*
X110562953Y-34004783D01*
X110562950Y-34004783D01*
X110562949Y-34004784D01*
X110390984Y-34064957D01*
X110390981Y-34064958D01*
X110236720Y-34161887D01*
X110236718Y-34161888D01*
X110107888Y-34290718D01*
X110107887Y-34290720D01*
X110010958Y-34444981D01*
X110010957Y-34444984D01*
X109950783Y-34616950D01*
X109939083Y-34720790D01*
X109930384Y-34798000D01*
X109941250Y-34894442D01*
X109949104Y-34964143D01*
X109949500Y-34971202D01*
X109949500Y-35365500D01*
X109929498Y-35433621D01*
X109875842Y-35480114D01*
X109823500Y-35491500D01*
X109659350Y-35491500D01*
X109598803Y-35498009D01*
X109598795Y-35498011D01*
X109453903Y-35552055D01*
X109409870Y-35560000D01*
X109215500Y-35560000D01*
X109147379Y-35539998D01*
X109100886Y-35486342D01*
X109089500Y-35434000D01*
X109089500Y-34481440D01*
X109090830Y-34463179D01*
X109094341Y-34439211D01*
X109091783Y-34409971D01*
X109089740Y-34386614D01*
X109089500Y-34381121D01*
X109089500Y-34372819D01*
X109085652Y-34339905D01*
X109081349Y-34290718D01*
X109078887Y-34262574D01*
X109078885Y-34262570D01*
X109077403Y-34255388D01*
X109077469Y-34255374D01*
X109075837Y-34248012D01*
X109075772Y-34248028D01*
X109074080Y-34240890D01*
X109047526Y-34167934D01*
X109044731Y-34159500D01*
X109023114Y-34094262D01*
X109023109Y-34094255D01*
X109020012Y-34087611D01*
X109020074Y-34087581D01*
X109016788Y-34080795D01*
X109016728Y-34080826D01*
X109013433Y-34074265D01*
X108970766Y-34009394D01*
X108930031Y-33943351D01*
X108930030Y-33943349D01*
X108930027Y-33943346D01*
X108925478Y-33937592D01*
X108925531Y-33937549D01*
X108920766Y-33931700D01*
X108920715Y-33931744D01*
X108915998Y-33926122D01*
X108859518Y-33872837D01*
X108859517Y-33872836D01*
X107896901Y-32910220D01*
X107884936Y-32896375D01*
X107870469Y-32876942D01*
X107865154Y-32872482D01*
X107830024Y-32843003D01*
X107825970Y-32839289D01*
X107820107Y-32833425D01*
X107794104Y-32812864D01*
X107734636Y-32762965D01*
X107728506Y-32758933D01*
X107728541Y-32758878D01*
X107722187Y-32754829D01*
X107722153Y-32754886D01*
X107715906Y-32751033D01*
X107645540Y-32718220D01*
X107639550Y-32715212D01*
X107576188Y-32683391D01*
X107576186Y-32683390D01*
X107576183Y-32683389D01*
X107569289Y-32680880D01*
X107569311Y-32680817D01*
X107562189Y-32678341D01*
X107562169Y-32678404D01*
X107555209Y-32676097D01*
X107479150Y-32660392D01*
X107403652Y-32642499D01*
X107396367Y-32641648D01*
X107396374Y-32641580D01*
X107388877Y-32640814D01*
X107388872Y-32640881D01*
X107381559Y-32640241D01*
X107381558Y-32640241D01*
X107303920Y-32642500D01*
X100099911Y-32642500D01*
X100096247Y-32642393D01*
X100031601Y-32638627D01*
X100031593Y-32638628D01*
X100020491Y-32640586D01*
X99998613Y-32642500D01*
X91971911Y-32642500D01*
X91968247Y-32642393D01*
X91903601Y-32638627D01*
X91903593Y-32638628D01*
X91892491Y-32640586D01*
X91870613Y-32642500D01*
X83716911Y-32642500D01*
X83713247Y-32642393D01*
X83648601Y-32638627D01*
X83648593Y-32638628D01*
X83637491Y-32640586D01*
X83615613Y-32642500D01*
X75461911Y-32642500D01*
X75458247Y-32642393D01*
X75393601Y-32638627D01*
X75393593Y-32638628D01*
X75382491Y-32640586D01*
X75360613Y-32642500D01*
X67079911Y-32642500D01*
X67076247Y-32642393D01*
X67011601Y-32638627D01*
X67011593Y-32638628D01*
X67000491Y-32640586D01*
X66978613Y-32642500D01*
X64707441Y-32642500D01*
X64689181Y-32641170D01*
X64665211Y-32637659D01*
X64612615Y-32642260D01*
X64607122Y-32642500D01*
X64598818Y-32642500D01*
X64576876Y-32645064D01*
X64565905Y-32646347D01*
X64556732Y-32647149D01*
X64488577Y-32653112D01*
X64481386Y-32654597D01*
X64481372Y-32654532D01*
X64474014Y-32656163D01*
X64474030Y-32656228D01*
X64466889Y-32657920D01*
X64393944Y-32684469D01*
X64320260Y-32708885D01*
X64313613Y-32711986D01*
X64313585Y-32711926D01*
X64306798Y-32715212D01*
X64306827Y-32715270D01*
X64300271Y-32718562D01*
X64235395Y-32761232D01*
X64169349Y-32801969D01*
X64163596Y-32806519D01*
X64163555Y-32806467D01*
X64157704Y-32811233D01*
X64157746Y-32811283D01*
X64152128Y-32815996D01*
X64098836Y-32872482D01*
X62628225Y-34343092D01*
X62614376Y-34355062D01*
X62594943Y-34369530D01*
X62561007Y-34409971D01*
X62557300Y-34414017D01*
X62551421Y-34419897D01*
X62551412Y-34419907D01*
X62531586Y-34444982D01*
X62530863Y-34445896D01*
X62508743Y-34472259D01*
X62480965Y-34505364D01*
X62476935Y-34511491D01*
X62476880Y-34511455D01*
X62472825Y-34517820D01*
X62472882Y-34517855D01*
X62469028Y-34524101D01*
X62436220Y-34594458D01*
X62401391Y-34663812D01*
X62398882Y-34670707D01*
X62398820Y-34670684D01*
X62396343Y-34677810D01*
X62396404Y-34677831D01*
X62394097Y-34684790D01*
X62378392Y-34760849D01*
X62360500Y-34836345D01*
X62359648Y-34843634D01*
X62359581Y-34843626D01*
X62358814Y-34851126D01*
X62358881Y-34851132D01*
X62358241Y-34858442D01*
X62360500Y-34936079D01*
X62360500Y-46115629D01*
X62340498Y-46183750D01*
X62323595Y-46204724D01*
X62206724Y-46321595D01*
X62144412Y-46355621D01*
X62117629Y-46358500D01*
X58970920Y-46358500D01*
X58903884Y-46339187D01*
X58773017Y-46256958D01*
X58773015Y-46256957D01*
X58601050Y-46196784D01*
X58601049Y-46196783D01*
X58601047Y-46196783D01*
X58420000Y-46176384D01*
X58238953Y-46196783D01*
X58238950Y-46196783D01*
X58238949Y-46196784D01*
X58066984Y-46256957D01*
X58066981Y-46256958D01*
X57912720Y-46353887D01*
X57912718Y-46353888D01*
X57783888Y-46482718D01*
X57783887Y-46482720D01*
X57686958Y-46636981D01*
X57686957Y-46636984D01*
X57631924Y-46794262D01*
X57626783Y-46808953D01*
X57606384Y-46990000D01*
X57138286Y-46990000D01*
X57135887Y-46962574D01*
X57135885Y-46962570D01*
X57134403Y-46955388D01*
X57134469Y-46955374D01*
X57132837Y-46948012D01*
X57132772Y-46948028D01*
X57131080Y-46940890D01*
X57104526Y-46867934D01*
X57080114Y-46794262D01*
X57080109Y-46794255D01*
X57077012Y-46787611D01*
X57077074Y-46787581D01*
X57073788Y-46780795D01*
X57073728Y-46780826D01*
X57070433Y-46774265D01*
X57027766Y-46709394D01*
X56987031Y-46643351D01*
X56987030Y-46643349D01*
X56987027Y-46643346D01*
X56982478Y-46637592D01*
X56982531Y-46637549D01*
X56977766Y-46631700D01*
X56977715Y-46631744D01*
X56972998Y-46626122D01*
X56916518Y-46572837D01*
X55318908Y-44975227D01*
X55306936Y-44961375D01*
X55292469Y-44941942D01*
X55290466Y-44940261D01*
X55252024Y-44908003D01*
X55247970Y-44904289D01*
X55242107Y-44898425D01*
X55220372Y-44881239D01*
X55216103Y-44877863D01*
X55156640Y-44827968D01*
X55156638Y-44827967D01*
X55156636Y-44827965D01*
X55150506Y-44823933D01*
X55150541Y-44823878D01*
X55144187Y-44819829D01*
X55144153Y-44819886D01*
X55137906Y-44816033D01*
X55067540Y-44783220D01*
X54998188Y-44748391D01*
X54998186Y-44748390D01*
X54998183Y-44748389D01*
X54991289Y-44745880D01*
X54991311Y-44745817D01*
X54984189Y-44743341D01*
X54984169Y-44743404D01*
X54977209Y-44741097D01*
X54901150Y-44725392D01*
X54825652Y-44707499D01*
X54818367Y-44706648D01*
X54818374Y-44706580D01*
X54810877Y-44705814D01*
X54810872Y-44705881D01*
X54803559Y-44705241D01*
X54803558Y-44705241D01*
X54725920Y-44707500D01*
X49656000Y-44707500D01*
X49587879Y-44687498D01*
X49541386Y-44633842D01*
X49530000Y-44581500D01*
X49530000Y-44069000D01*
X48626618Y-44069000D01*
X48678447Y-43979228D01*
X48708264Y-43848593D01*
X48698251Y-43714972D01*
X48649297Y-43590240D01*
X48625979Y-43561000D01*
X49530000Y-43561000D01*
X49530000Y-43004414D01*
X49529999Y-43004402D01*
X49523494Y-42943906D01*
X49472444Y-42807035D01*
X49472444Y-42807034D01*
X49384904Y-42690095D01*
X49325823Y-42645868D01*
X49283276Y-42589032D01*
X49278212Y-42518217D01*
X49312237Y-42455904D01*
X49325823Y-42444132D01*
X49384904Y-42399904D01*
X49472444Y-42282965D01*
X49472444Y-42282964D01*
X49523494Y-42146093D01*
X49529999Y-42085597D01*
X49530000Y-42085585D01*
X49530000Y-41529000D01*
X48626618Y-41529000D01*
X48678447Y-41439228D01*
X48708264Y-41308593D01*
X48698251Y-41174972D01*
X48649297Y-41050240D01*
X48625979Y-41021000D01*
X49530000Y-41021000D01*
X49530000Y-40464414D01*
X49529999Y-40464402D01*
X49523494Y-40403906D01*
X49472444Y-40267035D01*
X49472444Y-40267034D01*
X49384904Y-40150095D01*
X49267965Y-40062555D01*
X49131093Y-40011505D01*
X49070597Y-40005000D01*
X48514000Y-40005000D01*
X48514000Y-40910194D01*
X48455040Y-40869996D01*
X48326998Y-40830500D01*
X48226688Y-40830500D01*
X48127501Y-40845450D01*
X48006776Y-40903588D01*
X48006000Y-40904308D01*
X48006000Y-40005000D01*
X47449402Y-40005000D01*
X47388906Y-40011505D01*
X47252035Y-40062555D01*
X47252034Y-40062555D01*
X47135095Y-40150096D01*
X47091179Y-40208760D01*
X47034343Y-40251306D01*
X46963527Y-40256370D01*
X46901216Y-40222345D01*
X46889444Y-40208760D01*
X46845527Y-40150095D01*
X46845261Y-40149739D01*
X46845259Y-40149738D01*
X46845259Y-40149737D01*
X46728207Y-40062112D01*
X46728202Y-40062110D01*
X46591204Y-40011011D01*
X46591196Y-40011009D01*
X46530649Y-40004500D01*
X46530638Y-40004500D01*
X44909362Y-40004500D01*
X44909350Y-40004500D01*
X44848803Y-40011009D01*
X44848795Y-40011011D01*
X44711797Y-40062110D01*
X44711792Y-40062112D01*
X44594739Y-40149738D01*
X44550554Y-40208761D01*
X44493717Y-40251306D01*
X44422902Y-40256370D01*
X44360590Y-40222344D01*
X44348819Y-40208759D01*
X44304904Y-40150095D01*
X44187965Y-40062555D01*
X44051093Y-40011505D01*
X43990597Y-40005000D01*
X43434000Y-40005000D01*
X43434000Y-40910194D01*
X43375040Y-40869996D01*
X43246998Y-40830500D01*
X43146688Y-40830500D01*
X43047501Y-40845450D01*
X42926776Y-40903588D01*
X42926000Y-40904308D01*
X42926000Y-40005000D01*
X42369402Y-40005000D01*
X42308906Y-40011505D01*
X42172035Y-40062555D01*
X42172034Y-40062555D01*
X42055095Y-40150095D01*
X41967555Y-40267034D01*
X41967555Y-40267035D01*
X41916505Y-40403906D01*
X41910000Y-40464402D01*
X41910000Y-41021000D01*
X42813382Y-41021000D01*
X42761553Y-41110772D01*
X42731736Y-41241407D01*
X42741749Y-41375028D01*
X42790703Y-41499760D01*
X42814021Y-41529000D01*
X41910000Y-41529000D01*
X41910000Y-42085597D01*
X41916505Y-42146093D01*
X41967555Y-42282964D01*
X41967555Y-42282965D01*
X42055094Y-42399902D01*
X42114177Y-42444132D01*
X42156723Y-42500969D01*
X42161787Y-42571784D01*
X42127762Y-42634096D01*
X42114177Y-42645868D01*
X42055094Y-42690097D01*
X41967555Y-42807034D01*
X41967555Y-42807035D01*
X41916505Y-42943906D01*
X41910000Y-43004402D01*
X41910000Y-43561000D01*
X42813382Y-43561000D01*
X42761553Y-43650772D01*
X42731736Y-43781407D01*
X42741749Y-43915028D01*
X42790703Y-44039760D01*
X42814021Y-44069000D01*
X41910000Y-44069000D01*
X41910000Y-44625597D01*
X41916505Y-44686093D01*
X41967555Y-44822964D01*
X41967555Y-44822965D01*
X42055095Y-44939904D01*
X42172034Y-45027444D01*
X42308906Y-45078494D01*
X42369402Y-45084999D01*
X42369415Y-45085000D01*
X42926000Y-45085000D01*
X42926000Y-44179805D01*
X42984960Y-44220004D01*
X43113002Y-44259500D01*
X43213312Y-44259500D01*
X43312499Y-44244550D01*
X43433224Y-44186412D01*
X43434000Y-44185691D01*
X43434000Y-45085000D01*
X43990585Y-45085000D01*
X43990597Y-45084999D01*
X44051093Y-45078494D01*
X44187964Y-45027444D01*
X44187965Y-45027444D01*
X44304903Y-44939904D01*
X44348818Y-44881241D01*
X44405654Y-44838694D01*
X44476469Y-44833628D01*
X44538782Y-44867653D01*
X44550554Y-44881239D01*
X44594738Y-44940260D01*
X44711792Y-45027887D01*
X44711794Y-45027888D01*
X44711796Y-45027889D01*
X44770875Y-45049924D01*
X44848795Y-45078988D01*
X44848803Y-45078990D01*
X44909350Y-45085499D01*
X44909355Y-45085499D01*
X44909362Y-45085500D01*
X45992629Y-45085500D01*
X46060750Y-45105502D01*
X46081724Y-45122405D01*
X46916092Y-45956773D01*
X46928065Y-45970627D01*
X46942530Y-45990057D01*
X46982975Y-46023994D01*
X46987021Y-46027702D01*
X46992900Y-46033581D01*
X47018895Y-46054135D01*
X47078360Y-46104032D01*
X47078366Y-46104035D01*
X47084495Y-46108067D01*
X47084458Y-46108122D01*
X47090811Y-46112169D01*
X47090847Y-46112113D01*
X47097092Y-46115965D01*
X47097095Y-46115967D01*
X47167452Y-46148775D01*
X47236812Y-46183609D01*
X47236813Y-46183609D01*
X47236817Y-46183611D01*
X47243713Y-46186121D01*
X47243689Y-46186185D01*
X47250805Y-46188659D01*
X47250827Y-46188595D01*
X47257791Y-46190903D01*
X47333849Y-46206607D01*
X47367866Y-46214669D01*
X47409344Y-46224500D01*
X47409350Y-46224500D01*
X47416633Y-46225352D01*
X47416625Y-46225419D01*
X47424122Y-46226185D01*
X47424128Y-46226119D01*
X47431435Y-46226757D01*
X47431442Y-46226759D01*
X47509080Y-46224500D01*
X48537629Y-46224500D01*
X48605750Y-46244502D01*
X48652243Y-46298158D01*
X48662347Y-46368432D01*
X48632853Y-46433012D01*
X48626739Y-46439578D01*
X47884877Y-47181441D01*
X47642225Y-47424093D01*
X47628376Y-47436062D01*
X47608943Y-47450530D01*
X47575007Y-47490971D01*
X47571300Y-47495017D01*
X47565421Y-47500897D01*
X47565412Y-47500907D01*
X47544863Y-47526896D01*
X47522649Y-47553371D01*
X47494965Y-47586364D01*
X47490935Y-47592491D01*
X47490880Y-47592455D01*
X47486825Y-47598820D01*
X47486882Y-47598855D01*
X47483028Y-47605101D01*
X47450220Y-47675458D01*
X47415391Y-47744812D01*
X47412882Y-47751707D01*
X47412820Y-47751684D01*
X47410343Y-47758810D01*
X47410404Y-47758831D01*
X47408097Y-47765790D01*
X47392392Y-47841849D01*
X47374500Y-47917345D01*
X47373648Y-47924634D01*
X47373581Y-47924626D01*
X47372814Y-47932126D01*
X47372881Y-47932132D01*
X47372241Y-47939442D01*
X47374500Y-48017079D01*
X47374500Y-50179629D01*
X47354498Y-50247750D01*
X47337595Y-50268724D01*
X47205595Y-50400724D01*
X47143283Y-50434750D01*
X47072468Y-50429685D01*
X47015632Y-50387138D01*
X46990821Y-50320618D01*
X46990500Y-50311629D01*
X46990500Y-49354367D01*
X46990499Y-49354350D01*
X46983990Y-49293803D01*
X46983988Y-49293795D01*
X46948902Y-49199729D01*
X46932889Y-49156796D01*
X46932888Y-49156794D01*
X46932887Y-49156792D01*
X46845261Y-49039738D01*
X46786657Y-48995868D01*
X46744110Y-48939032D01*
X46739046Y-48868216D01*
X46773071Y-48805904D01*
X46786657Y-48794132D01*
X46845261Y-48750261D01*
X46932887Y-48633207D01*
X46932887Y-48633206D01*
X46932889Y-48633204D01*
X46983989Y-48496201D01*
X46987784Y-48460908D01*
X46990499Y-48435649D01*
X46990500Y-48435632D01*
X46990500Y-46814367D01*
X46990499Y-46814350D01*
X46983990Y-46753803D01*
X46983988Y-46753795D01*
X46954924Y-46675875D01*
X46932889Y-46616796D01*
X46932888Y-46616794D01*
X46932887Y-46616792D01*
X46845261Y-46499738D01*
X46728207Y-46412112D01*
X46728202Y-46412110D01*
X46591204Y-46361011D01*
X46591196Y-46361009D01*
X46530649Y-46354500D01*
X46530638Y-46354500D01*
X44909362Y-46354500D01*
X44909350Y-46354500D01*
X44848803Y-46361009D01*
X44848795Y-46361011D01*
X44711797Y-46412110D01*
X44711792Y-46412112D01*
X44594738Y-46499739D01*
X44550867Y-46558343D01*
X44494031Y-46600889D01*
X44423216Y-46605953D01*
X44360904Y-46571928D01*
X44349133Y-46558343D01*
X44305261Y-46499739D01*
X44188207Y-46412112D01*
X44188202Y-46412110D01*
X44051204Y-46361011D01*
X44051196Y-46361009D01*
X43990649Y-46354500D01*
X43990638Y-46354500D01*
X42369362Y-46354500D01*
X42369350Y-46354500D01*
X42308803Y-46361009D01*
X42308795Y-46361011D01*
X42171797Y-46412110D01*
X42171792Y-46412112D01*
X42054738Y-46499738D01*
X41967112Y-46616792D01*
X41967110Y-46616797D01*
X41916011Y-46753795D01*
X41916009Y-46753803D01*
X41909500Y-46814350D01*
X41909500Y-48435649D01*
X41916009Y-48496196D01*
X41916011Y-48496204D01*
X41967110Y-48633202D01*
X41967112Y-48633207D01*
X42054739Y-48750261D01*
X42113343Y-48794133D01*
X42155889Y-48850969D01*
X42160953Y-48921784D01*
X42126928Y-48984096D01*
X42113343Y-48995867D01*
X42054739Y-49039738D01*
X41967112Y-49156792D01*
X41967110Y-49156797D01*
X41916011Y-49293795D01*
X41916009Y-49293803D01*
X41909500Y-49354350D01*
X41909500Y-50975649D01*
X41916009Y-51036196D01*
X41916011Y-51036204D01*
X41967110Y-51173202D01*
X41967112Y-51173207D01*
X42054739Y-51290261D01*
X42113343Y-51334133D01*
X42155889Y-51390969D01*
X42160953Y-51461784D01*
X42126928Y-51524096D01*
X42113343Y-51535867D01*
X42054739Y-51579738D01*
X41967112Y-51696792D01*
X41967110Y-51696797D01*
X41916011Y-51833795D01*
X41916009Y-51833803D01*
X41909500Y-51894350D01*
X41909500Y-53515649D01*
X41916009Y-53576196D01*
X41916011Y-53576204D01*
X41967110Y-53713202D01*
X41967112Y-53713207D01*
X42054739Y-53830261D01*
X42113343Y-53874133D01*
X42155889Y-53930969D01*
X42160953Y-54001784D01*
X42126928Y-54064096D01*
X42113343Y-54075867D01*
X42054739Y-54119738D01*
X41967112Y-54236792D01*
X41967110Y-54236797D01*
X41916011Y-54373795D01*
X41916009Y-54373803D01*
X41909500Y-54434350D01*
X41909500Y-56055649D01*
X41916009Y-56116196D01*
X41916011Y-56116204D01*
X41967110Y-56253202D01*
X41967112Y-56253207D01*
X42054739Y-56370261D01*
X42113343Y-56414133D01*
X42155889Y-56470969D01*
X42160953Y-56541784D01*
X42126928Y-56604096D01*
X42113343Y-56615867D01*
X42054739Y-56659738D01*
X41967112Y-56776792D01*
X41967110Y-56776797D01*
X41916011Y-56913795D01*
X41916009Y-56913803D01*
X41909500Y-56974350D01*
X41909500Y-58595649D01*
X41916009Y-58656196D01*
X41916011Y-58656204D01*
X41967110Y-58793202D01*
X41967112Y-58793207D01*
X42054739Y-58910261D01*
X42113343Y-58954133D01*
X42155889Y-59010969D01*
X42160953Y-59081784D01*
X42126928Y-59144096D01*
X42113343Y-59155867D01*
X42054739Y-59199738D01*
X41967112Y-59316792D01*
X41967110Y-59316797D01*
X41916011Y-59453795D01*
X41916009Y-59453803D01*
X41909500Y-59514350D01*
X41909500Y-61135649D01*
X40969500Y-61135649D01*
X40969500Y-30935500D01*
X40989502Y-30867379D01*
X41043158Y-30820886D01*
X41095500Y-30809500D01*
X121464500Y-30809500D01*
X121532621Y-30829502D01*
G37*
%TD.AperFunction*%
%TD*%
M02*
